<svg xmlns="http://www.w3.org/2000/svg" viewBox="0 0 314.2 430.65"><defs><style>.cls-1{fill:#fff;}</style></defs><g id="Layer_2" data-name="Layer 2"><g id="Layer_1-2" data-name="Layer 1"><path class="cls-1" d="M242.63,265.62c.11,28.26,0,48.71,2.21,69.08.65,6.12,1.7,12.19,4.25,17.85,3.76,8.3,13.62,10.35,20.75,4.48,5.38-4.44,7.34-10.47,8.13-17.06.93-7.86.9-7.86,9-7.86,7.48,0,14.95,0,22.43,0,2.5,0,4.35.36,3.87,3.53-2,12.91-5.37,25.33-13.15,36.09-12.39,17.14-29.72,21-49.44,18-16.68-2.53-27.19-12.55-33.44-27.76-7.46-18.16-9-37.41-9.9-56.64-1.27-26.57-1.7-53.2.83-79.74,1.58-16.72,4.08-33.36,12.18-48.42,13.57-25.21,48.54-33,71.73-16.08,7.33,5.36,11.66,13.09,15,21.26S312.41,199,314,207.68c.67,3.58-.47,4.87-4.06,4.82-8.64-.14-17.28-.16-25.91,0-3.58.07-5-1.26-5.34-4.84A39.93,39.93,0,0,0,274,191.07c-2.86-5-7.05-7.16-12.81-6.76s-9.4,3.41-11.64,8.6c-3.89,9-5,18.58-5.62,28.18C242.73,238.52,242.54,256,242.63,265.62Z"/><path class="cls-1" d="M189.2,195.66V383.15c0,7.14-.32,7.45-7.69,7.44-6,0-11.95,0-17.93,0s-6.5-.7-6.5-6.64V7.48c0-7.22.19-7.4,7.2-7.4,6.31,0,12.62.2,18.92-.07,4.62-.19,6.08,1.71,6.06,6.17-.12,27.76-.06,55.52-.06,83.27Z"/><path class="cls-1" d="M139.18,271.31V383.5c0,6.51-.55,7.07-7.08,7.09-6,0-11.95,0-17.93,0-6.75,0-7.17-.44-7.17-7.5V250.45q0-45.62,0-91.25c0-6.55.63-7.17,7.08-7.18,6.14,0,12.28,0,18.43,0,5.72,0,6.66.95,6.67,6.6Q139.2,215,139.18,271.31Z"/><path class="cls-1" d="M146.47,114.12a25.15,25.15,0,0,1-50.3-.22,25.15,25.15,0,0,1,50.3.22Z"/><path class="cls-1" d="M35.38,205.65c-10.76.19-19-7.73-19-18.4a19.62,19.62,0,0,1,18.75-19.43,19.43,19.43,0,0,1,19.45,18.66C54.83,197.78,47.17,205.44,35.38,205.65Z"/><path class="cls-1" d="M31.67,291.86c0,9-6.67,15.61-15.7,15.61a15.88,15.88,0,0,1-16-15.6c0-8.39,7.46-15.8,16-15.86A15.9,15.9,0,0,1,31.67,291.86Z"/><path class="cls-1" d="M54.46,388c-5.61-.09-10.73-6-10.57-12.1a11.48,11.48,0,0,1,12-11.29,11.81,11.81,0,0,1,11.25,11.58C67.1,382.81,61.43,388.11,54.46,388Z"/><path class="cls-1" d="M120.71,430.65a9,9,0,0,1-8.81-8.84,8.71,8.71,0,0,1,8.95-8.51c5.57,0,9.08,3.49,8.94,8.9C129.65,427.18,125.87,430.7,120.71,430.65Z"/></g></g></svg>