<?xml version="1.0" encoding="utf-8"?>
<!-- Generator: Adobe Illustrator 25.0.1, SVG Export Plug-In . SVG Version: 6.00 Build 0)  -->
<svg version="1.1" id="Layer_1" xmlns="http://www.w3.org/2000/svg" xmlns:xlink="http://www.w3.org/1999/xlink" x="0px" y="0px"
	 viewBox="0 0 612 305.49" style="enable-background:new 0 0 612 305.49;" xml:space="preserve">
<style type="text/css">
	.st0{fill:#FFFFFF;}
</style>
<path class="st0" d="M321.27,305.43c-10.35,0-20.7,0-31.05,0c-0.25-0.64-0.82-0.45-1.3-0.49c-5.31-0.49-10.64-0.89-15.94-1.48
	c-26.77-3-52.52-9.82-77.01-21.07c-28.68-13.18-53.7-31.17-72.77-56.71c-0.81-1.08-1.72-1.14-2.84-1.14
	c-8.9,0.02-17.81,0.01-26.71,0.01c-31.2-0.01-62.4-0.03-93.6-0.05c0-46.15,0-92.29,0-138.44c0.48,0.1,0.97,0.3,1.45,0.3
	c28.93,0.01,57.86,0,86.78,0.04c1.92,0,2.04-0.68,1.61-2.28c-1.26-4.74-2.37-9.52-3.55-14.29c-0.95-3.83-0.98-3.87,2.74-5.2
	c19.55-7.04,39.7-11.8,60.07-15.66c3.57-0.68,6.72-1.79,9.62-4.08c3.58-2.83,7.43-5.35,11.3-7.77
	C204.51,15.54,242.33,4.46,282.6,0.99c2.2-0.19,4.51,0.17,6.6-0.94c10.86,0,21.72,0,32.58,0c0.33,0.75,1.02,0.45,1.55,0.49
	c15.41,1,30.65,3.09,45.69,6.63c31.66,7.46,61.01,20.01,87.04,39.79c1,0.76,2.09,1.09,3.24,1.32c2.9,0.58,5.82,1.08,8.72,1.67
	c19.15,3.91,38.12,8.5,56.51,15.24c1.52,0.56,2.11,1.01,1.6,2.85c-1.45,5.21-2.45,10.54-3.94,15.74c-0.66,2.33-0.06,2.65,2.09,2.64
	c28.4-0.06,56.8-0.04,85.2-0.05c0.82,0,1.7,0.25,2.47-0.3c0,46.15,0,92.29,0,138.44c-0.85,0.02-1.7,0.04-2.54,0.04
	c-37.33,0-74.65,0.12-111.98-0.13c-5.41-0.04-8.81,1.3-12.26,5.73c-14.3,18.38-32.36,32.48-52.61,43.81
	c-32.15,17.99-66.83,27.47-103.4,30.55C326.54,304.74,323.82,304.41,321.27,305.43z M437.35,40.76c-0.16-0.12-0.33-0.23-0.49-0.35
	c-0.08-0.16-0.21-0.23-0.39-0.2c-0.22-0.14-0.44-0.28-0.65-0.41c-0.53-0.55-1.16-0.93-1.9-1.12c-0.21-0.43-0.61-0.52-1.02-0.6
	c0,0,0.03,0.04,0.03,0.04c-0.23-0.13-0.45-0.27-0.68-0.4c-0.5-0.55-1.13-0.88-1.84-1.07c-1.12-0.88-2.34-1.59-3.71-2.04l0.01,0
	c-0.88-0.77-1.88-1.3-3.01-1.59l0.03,0.04c-0.11-0.32-0.34-0.42-0.65-0.38l-0.03-0.01c-0.46-0.24-0.93-0.49-1.39-0.73l0.06,0.05
	c-0.8-0.66-1.71-1.1-2.71-1.34c0,0-0.03-0.01-0.03-0.01c-0.32-0.16-0.64-0.31-0.96-0.47c-0.37-0.39-0.82-0.63-1.37-0.64
	c-0.27-0.43-0.71-0.48-1.15-0.53l0.04,0.03c-0.08-0.29-0.27-0.42-0.57-0.36c-0.5-0.21-1.01-0.41-1.51-0.62
	c-0.24-0.41-0.63-0.48-1.05-0.47l-0.03-0.01c-0.56-0.54-1.28-0.75-2.01-0.92c-0.12-0.15-0.27-0.19-0.45-0.14
	c-0.76-0.61-1.64-0.94-2.59-1.1c-1.52-0.96-3.2-1.53-4.92-1.99c-0.28-0.45-0.73-0.46-1.18-0.43c0,0-0.03-0.01-0.03-0.01
	c-0.15-0.09-0.3-0.17-0.45-0.26c-0.32-0.1-0.63-0.2-0.95-0.29c-0.82-0.5-1.66-0.95-2.66-0.95c-0.07-0.14-0.17-0.17-0.3-0.1
	c-0.82-0.57-1.71-0.94-2.72-0.98c-0.91-0.59-1.91-0.93-2.99-1c-0.26-0.43-0.66-0.44-1.09-0.39c-0.62-0.38-1.26-0.67-2.01-0.61
	c-0.27-0.35-0.62-0.46-1.05-0.39c-0.78-0.44-1.62-0.69-2.51-0.73c-0.42-0.47-0.99-0.42-1.53-0.42c0,0,0,0,0,0
	c-0.17-0.09-0.34-0.19-0.51-0.28c-0.35-0.07-0.7-0.13-1.05-0.2c-0.42-0.43-0.94-0.54-1.52-0.46c-0.68-0.48-1.47-0.59-2.27-0.62
	c-0.87-0.53-1.85-0.7-2.83-0.82c-0.32-0.05-0.63-0.1-0.95-0.14c-0.95-0.6-2.05-0.68-3.12-0.87c-0.4-0.07-0.8-0.13-1.2-0.2
	c-1.06-0.56-2.21-0.74-3.38-0.86c-0.31-0.04-0.62-0.08-0.92-0.12c-0.46-0.45-1.02-0.48-1.61-0.41c-0.33-0.07-0.65-0.13-0.98-0.2
	c-0.29-0.38-0.68-0.33-1.07-0.26c-0.32-0.04-0.65-0.09-0.97-0.13c-0.79-0.52-1.67-0.53-2.57-0.51c0,0-0.01,0-0.01,0
	c-0.14-0.03-0.28-0.06-0.42-0.09c-0.76-0.49-1.62-0.45-2.48-0.46c-0.51-0.39-1.08-0.45-1.69-0.34c-0.34-0.04-0.69-0.07-1.03-0.11
	c-0.61-0.45-1.31-0.5-2.03-0.42c-0.33-0.03-0.67-0.07-1-0.1c-1.28-0.66-2.69-0.52-4.05-0.66l0.03,0.01
	c-0.49-0.38-1.05-0.34-1.61-0.27c-0.57-0.05-1.14-0.1-1.71-0.15c-1.23-0.65-2.56-0.47-3.87-0.51c0,0,0.05,0.01,0.05,0.01
	c-0.17-0.05-0.34-0.09-0.51-0.14c-0.36-0.06-0.73-0.12-1.09-0.18c-0.16-0.01-0.33-0.02-0.49-0.04c-0.77-0.05-1.53-0.1-2.3-0.15
	c-0.89-0.45-1.83-0.47-2.78-0.36c-0.35-0.01-0.69-0.03-1.04-0.04c-1.17-0.3-2.35-0.51-3.56-0.4c-1.5-0.07-2.99-0.13-4.49-0.2
	c-6.88-0.9-13.8-0.47-20.7-0.49c-3.53-0.01-7.08-0.26-10.58,0.48c-1.66,0.08-3.32,0.15-4.99,0.23c-0.74-0.1-1.48-0.13-2.16,0.27
	c-0.46,0.04-0.92,0.07-1.38,0.11c-1.41-0.1-2.81-0.11-4.16,0.42c-0.82,0.06-1.64,0.11-2.46,0.17c-0.56-0.08-1.11-0.1-1.58,0.31
	l0.03-0.01c-1.41,0.09-2.85-0.13-4.18,0.54c-0.81,0.08-1.62,0.15-2.43,0.23c-0.38,0.09-0.75,0.18-1.13,0.27
	c-0.15-0.1-0.27-0.08-0.38,0.06c-1.07-0.03-2.14-0.07-3.12,0.48c-0.49,0.05-0.97,0.1-1.46,0.14c-0.56-0.09-1.09-0.01-1.54,0.37
	c-0.34,0.04-0.68,0.07-1.02,0.11c-0.72-0.09-1.4,0.01-2.02,0.42c-0.74-0.04-1.48-0.07-2.14,0.37c-0.15,0.04-0.3,0.07-0.45,0.11
	c-0.16,0.02-0.32,0.05-0.48,0.07c-1.47,0.02-2.89,0.3-4.24,0.9c-0.28,0.04-0.56,0.09-0.85,0.13c-0.59-0.07-1.16-0.07-1.62,0.39
	c-0.49,0.07-0.97,0.15-1.46,0.22c-0.39-0.07-0.73,0-0.99,0.32l-0.01,0c-0.74-0.02-1.48-0.07-2.08,0.49c-0.7,0-1.4-0.02-1.98,0.49
	c-2.13,0.15-4.14,0.78-6.11,1.58c-0.37,0.07-0.74,0.14-1.12,0.21c-0.84,0.22-1.76,0.19-2.48,0.8c-0.16,0.03-0.32,0.06-0.48,0.08
	c-0.98,0.1-1.91,0.32-2.75,0.88c-0.27,0.06-0.54,0.11-0.82,0.17c-0.91,0.13-1.8,0.32-2.56,0.89c-0.17,0.03-0.34,0.07-0.51,0.1
	c-0.36-0.07-0.65,0.03-0.85,0.34c-0.23,0.05-0.45,0.11-0.68,0.16c-0.43-0.05-0.84-0.02-1.11,0.39c-0.72-0.01-1.38,0.16-1.95,0.61
	c-0.44-0.05-0.85,0.01-1.14,0.4c-0.72-0.02-1.33,0.29-1.92,0.65c-0.42-0.07-0.76,0.06-1.02,0.41c-0.16,0.04-0.33,0.08-0.49,0.12
	c-0.79,0.09-1.52,0.33-2.13,0.85c-0.16-0.06-0.3-0.03-0.41,0.1c-0.82,0.11-1.57,0.38-2.23,0.89c-0.61,0.22-1.23,0.45-1.84,0.67
	c-0.24,0.11-0.48,0.22-0.72,0.34c-1.04,0.16-1.97,0.58-2.85,1.15c-0.78,0.14-1.52,0.36-2.11,0.93c-0.18-0.05-0.33,0-0.44,0.14
	c-0.21,0.12-0.42,0.23-0.64,0.35c-0.16-0.05-0.29-0.01-0.38,0.13c-0.42-0.05-0.76,0.08-1.01,0.43c-0.18,0.06-0.35,0.11-0.53,0.17
	c-0.17,0.11-0.34,0.22-0.51,0.33c-0.41,0-0.8,0.05-1.04,0.44c-0.88,0.14-1.66,0.48-2.31,1.1c-0.22,0.07-0.45,0.15-0.67,0.22
	c-1.24,0.49-2.5,0.96-3.56,1.81c-0.17,0.07-0.35,0.14-0.52,0.2c-0.5,0.28-1,0.55-1.5,0.83l-0.05,0.02
	c-0.66,0.07-1.21,0.35-1.64,0.85l-0.02,0.01c-2.66,1.12-5.18,2.5-7.55,4.16c0,0,0.02-0.01,0.02-0.01c-0.49,0.27-0.99,0.54-1.48,0.81
	c-0.35,0.23-0.7,0.47-1.05,0.7c-0.32,0.19-0.65,0.38-0.97,0.56c-0.34,0.2-0.69,0.39-1.03,0.59c-2.4,1.26-4.69,2.71-6.79,4.42
	c-0.17-0.03-0.29,0.04-0.34,0.2c-0.97,0.45-1.86,1.02-2.58,1.82c-0.16,0.09-0.31,0.18-0.47,0.27c-0.35,0.27-0.7,0.54-1.06,0.81
	c-1.11,0.76-2.19,1.57-3.33,2.28c-1.77,1.1-3.01,2.98-5.27,3.36c-8.34,1.38-16.61,3.15-24.84,5.1c-12.67,3-25.18,6.53-37.55,10.6
	c-1.09,0.36-2.11,0.59-1.65,2.19c0.9,3.17,1.67,6.37,2.5,9.56c0.18,1.1,0.29,2.22,0.88,3.21c-0.08,0.15-0.05,0.26,0.09,0.35
	c0.16,1.97,0.66,3.85,1.4,5.67l-0.01-0.02c-0.1,0.13-0.1,0.27,0,0.4l0.07-0.07c-1.37,0.65-2.83,0.37-4.25,0.37
	c-24.3,0.02-48.6,0.02-72.9,0.03c-0.92,0-1.84,0.11-2.77,0.17c-2.7-0.26-5.39-0.27-8.09,0c-0.7-0.26-1.39-0.32-2.09-0.01
	c-0.32,0.01-0.65,0.02-0.97,0.03c-1.14,0.47-0.53,1.44-0.53,2.14c-0.03,41.47-0.03,82.94,0,124.41c0,0.73-0.55,1.7,0.52,2.23
	C5.9,219.93,6.66,220,7.42,220c199.11,0,398.23,0,597.34,0.05c2.04,0,2.69-0.38,2.68-2.58c-0.07-41.14-0.08-82.27,0-123.41
	c0-2.49-0.5-3.21-3.13-3.2c-28.59,0.11-57.18,0.04-85.77,0.12c-2.42,0.01-2.8-0.51-2.15-2.81c1.56-5.53,2.8-11.14,4.22-16.71
	c0.24-0.94,0.3-1.64-0.82-1.97c-4.86-1.43-9.58-3.32-14.56-4.35c-0.3-0.45-0.74-0.44-1.2-0.38c-0.61-0.41-1.27-0.64-2.02-0.58
	c-0.93-0.62-2.01-0.76-3.08-0.92c-0.32-0.07-0.65-0.15-0.97-0.22c-2.14-0.9-4.38-1.43-6.67-1.83c-0.14-0.12-0.3-0.15-0.47-0.08
	c-2.31-0.95-4.75-1.38-7.17-1.89c-0.33-0.05-0.67-0.09-1-0.14c-2.64-0.98-5.39-1.5-8.16-1.95c-0.31-0.05-0.62-0.09-0.93-0.14
	c-0.29-0.35-0.67-0.37-1.08-0.31c-1.28-0.34-2.54-0.82-3.9-0.72c-0.65-0.56-1.44-0.5-2.22-0.48l0.03,0.01
	c-0.16-0.04-0.32-0.09-0.47-0.13c-0.62-0.41-1.33-0.39-2.03-0.37c-0.64-0.17-1.28-0.44-1.93-0.5c-4.49-0.41-8.4-2.02-11.76-5.12
	c-1.53-1.41-3.24-2.69-5.18-3.57c0,0,0.01,0.01,0.01,0.01c-0.34-0.25-0.67-0.5-1.01-0.74c-0.66-0.43-1.32-0.86-1.98-1.3
	c-0.91-0.89-1.94-1.6-3.15-2.03c0,0,0.01,0.01,0.01,0.01c-0.33-0.22-0.65-0.43-0.98-0.65c0,0,0.07,0.07,0.07,0.07
	C437.79,41.04,437.57,40.9,437.35,40.76L437.35,40.76z M467.62,242.05c-3.11,0-5.62,0.06-8.13-0.02c-1.59-0.05-2.87,0.28-4.14,1.4
	c-12.83,11.38-27.15,20.51-42.59,27.9c-29.43,14.08-60.56,21.28-93.07,22.99c-27.3,1.43-54.18-1.19-80.57-8.29
	c-30.75-8.27-58.82-21.81-82.93-42.94c-0.51-0.45-0.98-1.01-1.71-1.01c-3.18-0.02-6.36-0.01-9.64-0.01
	c0.17,0.44,0.18,0.63,0.29,0.74c0.54,0.54,1.09,1.07,1.65,1.58c12.88,11.83,27.26,21.5,42.83,29.4
	c32.78,16.62,67.75,24.81,104.32,26.42c25.28,1.12,50.3-1.08,74.95-6.98c31.42-7.52,60.47-20.17,86.09-40.13
	C459.22,249.79,463.33,246.31,467.62,242.05z M256.67,247.85c4.48,5.58,8.53,10.67,12.64,15.72c0.67,0.82,0.91,2.4,2.6,1.86
	c1.82-0.58,1.05-2.09,1.08-3.23c0.11-5.08,0.1-10.16,0.21-15.24c0.03-1.5,0.07-3.14,2.19-3.42c0.59-0.08,0.8-0.58,0.64-1.16
	c-0.14-0.53-0.6-0.5-1.01-0.5c-2.2-0.01-4.41-0.02-6.61-0.01c-0.57,0-1.27-0.13-1.36,0.74c-0.09,0.85,0.63,0.92,1.17,1.04
	c0.96,0.21,1.9,0.46,2.02,1.59c0.38,3.56,0.41,7.12,0.19,11.34c-2.7-3.17-4.98-5.76-7.17-8.42c-1.34-1.63-2.59-3.35-3.79-5.08
	c-0.43-0.62-0.62-1.28-1.63-1.23c-1.94,0.09-3.9,0.02-5.84,0.02c-0.62,0-1.25,0.05-1.3,0.85c-0.04,0.67,0.56,0.82,1.04,0.89
	c1.49,0.22,2.27,1.02,2.26,2.54c-0.03,4.66-0.03,9.32-0.14,13.98c-0.03,1.51-0.14,3.13-2.21,3.45c-0.63,0.09-0.76,0.6-0.63,1.16
	c0.13,0.56,0.62,0.47,1.02,0.47c2.2,0.01,4.41,0.02,6.61,0.01c0.58,0,1.29,0.14,1.4-0.69c0.11-0.83-0.6-0.91-1.17-1.03
	c-1.17-0.24-2.16-0.7-2.17-2.06C256.64,257.13,256.67,252.85,256.67,247.85z M221.6,265.74c6.8,0.03,10.8-3.34,10.61-8.5
	c-0.12-3.31-2.04-5.43-4.69-7.07c-1.79-1.11-3.86-1.77-5.4-3.29c-1.6-1.59-1.86-3.61-0.52-4.96c1.53-1.53,3.28-1.56,5.07-0.41
	c1.27,0.82,1.91,2.11,2.5,3.43c0.28,0.61,0.71,0.97,1.39,0.78c0.61-0.17,0.58-0.72,0.64-1.24c0.5-4.04-0.53-5.39-4.51-5.78
	c-1.09-0.11-2.2-0.15-3.29-0.08c-4.22,0.31-6.94,2.34-7.76,5.73c-0.82,3.36,0.69,6.43,4.27,8.68c1.5,0.94,3.11,1.74,4.49,2.84
	c2.38,1.88,2.82,4.62,1.23,6.42c-1.52,1.73-4.51,1.61-6.64-0.31c-1.21-1.09-2.12-2.4-2.72-3.93c-0.23-0.58-0.65-1.03-1.37-0.8
	c-0.62,0.2-0.53,0.77-0.58,1.27c-0.46,4.5,0.86,6.28,5.26,7.03C220.43,265.69,221.28,265.71,221.6,265.74z M355.35,255.66
	c1.77-0.03,2.87-0.11,3.86-0.68c0.37-0.21,0.73-0.43,0.74-0.93c0.01-0.57-0.45-0.59-0.83-0.76c-3.28-1.49-4.45-3.43-4.24-7.14
	c0.1-1.72,0.35-3.63,2.46-3.9c1.98-0.26,2.67,1.43,3.2,3c2.48,7.4-0.56,17.43-9.27,20.11c-0.65,0.2-1.73,0.27-1.42,1.37
	c0.3,1.07,1.31,0.6,1.94,0.47c4.34-0.89,8.12-2.91,11.16-6.13c3.71-3.94,5.34-8.61,4.11-13.99c-0.81-3.57-2.98-6.01-6.67-6.88
	c-3.72-0.87-6.94,0.02-9.33,3.02c-2.05,2.57-2.48,5.55-1.1,8.59C351.11,254.35,353.2,255.63,355.35,255.66z M311.62,265.21
	c0-0.01,0-0.02,0-0.03c1.95,0,3.9-0.01,5.85,0c3.84,0.03,4.41-0.45,4.79-4.29c0.06-0.6,0.47-1.44-0.39-1.79
	c-0.84-0.35-1.23,0.35-1.51,0.97c-1.43,3.26-4.22,3.25-7.1,2.97c-0.86-0.08-1.76-0.36-1.97-1.33c-0.48-2.26-0.23-4.55-0.18-6.83
	c0.01-0.5,0.43-0.73,0.89-0.7c1.72,0.13,3.91-0.78,4.5,1.98c0.11,0.5,0.3,0.97,0.98,0.93c0.92-0.05,0.76-0.73,0.77-1.29
	c0.01-1.86,0.01-3.73,0-5.59c0-0.51,0.01-1.07-0.67-1.17c-0.63-0.09-0.93,0.34-1.02,0.88c-0.5,2.8-2.73,2.2-4.42,1.99
	c-2.13-0.27-0.82-2.16-1.04-3.29c-0.21-1.06-0.05-2.19-0.04-3.3c0-0.5-0.01-1,0.55-1.3c1.55-0.82,5.77,0.27,6.76,1.7
	c0.52,0.76,0.38,2.47,1.74,2.07c1.4-0.41,0.45-1.88,0.55-2.88c0.05-0.49-0.13-1.01-0.15-1.51c-0.04-1.12-0.46-1.57-1.7-1.56
	c-4.83,0.07-9.66,0.01-14.49,0.03c-0.54,0-1.25-0.22-1.37,0.69c-0.08,0.65,0.33,0.99,0.85,1.05c1.81,0.19,1.77,1.48,1.77,2.79
	c0,4.66-0.02,9.32,0.03,13.98c0.02,1.67-0.18,3.02-2.28,3.13c-0.53,0.03-1.29,0.13-1.21,0.99c0.09,0.86,0.82,0.71,1.38,0.71
	C306.19,265.21,308.91,265.21,311.62,265.21z M277.93,253.68c-0.11,4.35,1.66,7.77,5.4,9.95c3.82,2.22,7.97,2.37,12.3,1.64
	c2.77-0.47,4.25-1.74,4.29-4.56c0.01-0.85,0.85-2.01-0.44-2.43c-1.12-0.37-1.22,0.92-1.62,1.58c-2.52,4.09-7.06,5.03-10.59,2.17
	c-4.52-3.67-4.64-13.14-0.18-16.89c0.63-0.53,1.4-0.98,2.18-1.25c3.47-1.24,6.2-0.07,8.16,3.46c0.34,0.61,0.57,1.3,1.45,1.05
	c0.83-0.23,0.55-0.97,0.5-1.49c-0.56-5.41,0.86-4.35-4.52-5.22c-1.08-0.18-2.19-0.3-3.28-0.29
	C283.45,241.5,277.95,246.49,277.93,253.68z M381.17,251.37c0.03,0,0.05,0,0.08,0c0-3.3-0.01-6.6,0.01-9.9
	c0.01-1.26-0.23-2.03-1.76-1.39c-2.11,0.88-4.32,1.45-6.58,1.82c-0.57,0.1-1.19,0.24-1.22,1.04c-0.02,0.85,0.61,0.95,1.2,0.96
	c2.3,0.03,2.74,1.45,2.72,3.37c-0.04,4.4-0.03,8.8-0.02,13.21c0,1.75-0.46,2.98-2.56,2.9c-0.57-0.02-1.56-0.03-1.57,0.75
	c0,0.79,0.71,1.13,1.63,1.11c3.47-0.07,6.94-0.02,10.41-0.04c0.53,0,1.28,0.25,1.4-0.64c0.13-0.95-0.58-1.22-1.26-1.17
	c-2.4,0.16-2.51-1.39-2.5-3.12C381.19,257.3,381.17,254.33,381.17,251.37z M343.14,251.3c0.01,0,0.02,0,0.02,0
	c0-3.3-0.03-6.61,0.01-9.91c0.02-1.39-0.38-1.89-1.8-1.28c-2.03,0.86-4.15,1.43-6.33,1.76c-0.73,0.11-1.4,0.31-1.35,1.17
	c0.04,0.74,0.69,0.86,1.32,0.89c2.05,0.11,2.62,1.25,2.57,3.21c-0.11,4.4-0.05,8.81-0.02,13.21c0.01,1.68-0.17,3.09-2.39,2.98
	c-0.67-0.03-1.52,0.1-1.49,1c0.04,1.15,1.03,0.87,1.74,0.87c3.3,0.02,6.61,0.02,9.91,0.01c0.63,0,1.48,0.24,1.59-0.76
	c0.1-0.97-0.67-1.09-1.36-1.07c-2.11,0.07-2.5-1.14-2.45-2.93C343.2,257.4,343.14,254.35,343.14,251.3z M398.17,240.34
	c0,0.02,0,0.03,0,0.05c-1.44,0-2.88,0-4.32,0c-5.09-0.01-5.08-0.01-6.07,5.07c-0.09,0.49-0.44,1.01,0.18,1.32
	c0.6,0.31,1.15,0.15,1.51-0.48c0.81-1.42,2.18-1.41,3.56-1.4c1.95,0.01,3.9-0.01,5.85-0.01c3.18,0,3.29,0.19,1.77,3.01
	c-0.2,0.37-0.43,0.73-0.64,1.1c-3.03,5.29-6.07,10.57-9.11,15.86c-0.49,0.85-0.97,1.73,0.23,2.36c0.99,0.52,1.52-0.08,2-0.92
	c4.6-8.09,9.21-16.18,13.83-24.26c0.82-1.43,0.24-1.75-1.16-1.72C403.25,240.38,400.71,240.34,398.17,240.34z M241.24,265.2
	c1.44,0,2.88,0.01,4.31-0.01c0.56-0.01,1.25,0.17,1.34-0.73c0.07-0.68-0.4-0.89-0.93-0.95c-1.68-0.18-1.95-1.34-1.95-2.71
	c0-4.82-0.02-9.64,0-14.46c0-1.32,0.15-2.58,1.9-2.75c0.63-0.06,1.14-0.36,0.97-1.16c-0.15-0.7-0.73-0.57-1.21-0.58
	c-2.88-0.01-5.75-0.01-8.63,0c-0.49,0-1.07-0.07-1.22,0.59c-0.14,0.6,0.2,1.02,0.77,1.08c2.18,0.21,2.11,1.81,2.12,3.35
	c0.01,4.48,0.01,8.97,0,13.45c-0.01,1.47-0.01,2.96-2.03,3.18c-0.53,0.06-0.95,0.35-0.88,1.01c0.08,0.75,0.66,0.65,1.13,0.66
	C238.37,265.21,239.81,265.2,241.24,265.2z"/>
<path class="st0" d="M92.66,97.54c1.22,0,2.43,0,3.65,0c0.5,0.06,1,0.12,1.5,0.19c1.34,5.33,2.75,10.65,3.98,16
	c0.38,1.65,0.82,1.97,2.52,1.47c22.99-6.87,46.45-11.64,70.14-15.24c16.67-2.54,33.43-4.42,50.23-5.85
	c29.6-2.52,59.26-3.54,88.95-3.31c28.16,0.22,56.29,1.42,84.32,4.32c8.62,0.89,17.24,1.81,25.85,2.72c1.39,0.68,2.93,0.44,4.39,0.72
	c0.83,0.09,1.66,0.17,2.49,0.26c1.83,0.6,3.75,0.69,5.65,0.91c0.49,0.04,0.97,0.08,1.46,0.12c0.64,0.43,1.36,0.47,2.09,0.37
	c0.34,0.03,0.69,0.06,1.03,0.09c3.68,0.95,7.44,1.42,11.19,1.96c0.34,0.03,0.68,0.07,1.02,0.1c0.94,0.59,1.99,0.56,3.03,0.55
	c0,0-0.02-0.01-0.02-0.01c1.31,0.6,2.73,0.67,4.12,0.86c0.46,0.06,0.92,0.11,1.38,0.17c2.53,0.79,5.12,1.3,7.76,1.52
	c0,0-0.03-0.01-0.03-0.01c0.18,0.07,0.35,0.15,0.53,0.22c12.79,2.86,25.57,5.74,38.09,9.64c1.59,0.5,1.86-0.16,2.16-1.41
	c1.11-4.69,2.42-9.33,3.4-14.04c0.38-1.85,1.17-2.22,2.89-2.22c27.39,0.05,54.77,0.06,82.16-0.03c2.2-0.01,2.19,0.94,2.19,2.55
	c-0.03,36.2-0.02,72.39-0.02,108.59c0,1.02,0.05,2.03,0.08,3.05c0,0.34,0.01,0.68,0.01,1.02c-0.07,0.15-0.11,0.31-0.11,0.48
	c-0.85,0.02-1.69,0.07-2.54,0.07c-194.54,0-389.08,0-583.63,0c-1.1,0-2.2-0.05-3.31-0.07c0,0,0.02,0.02,0.02,0.02
	c-0.04-0.5-0.08-1.01-0.12-1.51c0.03-1.02,0.09-2.03,0.09-3.05c0.01-36.98,0.01-73.96,0.02-110.94c1.01-0.04,2.03-0.12,3.04-0.12
	c25.1-0.01,50.21-0.01,75.31-0.01C90.63,97.66,91.64,97.59,92.66,97.54z M126.04,164.95c-0.69-1.32-1.18-2.21-1.63-3.11
	c-4.73-9.55-9.5-19.08-14.15-28.67c-0.69-1.42-1.42-1.99-3.03-1.94c-3.98,0.12-7.97-0.01-11.96,0.04c-0.94,0.01-2.32-0.62-2.34,1.34
	c-0.02,1.46,0.1,2.22,1.94,2.43c3.19,0.36,6.04,3.46,6.04,6.26c0.03,9.84,0.02,19.67-0.06,29.51c-0.04,4.01-0.4,4.47-4.38,5.12
	c-1.66,0.27-1.5,1.14-1.56,2.27c-0.09,1.61,0.94,1.48,1.99,1.48c4.16-0.01,8.31,0.02,12.47-0.03c0.95-0.01,2.31,0.59,2.36-1.34
	c0.03-1.47-0.21-2.21-1.95-2.45c-3.3-0.46-3.81-1.14-3.85-4.53c-0.09-6.95-0.07-13.91-0.08-20.86c0-0.61,0.08-1.23,0.17-2.44
	c0.62,1.18,0.94,1.75,1.22,2.34c4.41,9.05,8.81,18.11,13.23,27.15c0.49,1.01,0.7,2.21,2.37,2.2c1.55-0.01,1.74-1.12,2.21-2.03
	c2.32-4.42,4.59-8.87,6.89-13.3c2.62-5.06,5.25-10.11,7.88-15.17c0.46,7.47,0.48,14.82,0.45,22.16c-0.02,3.94-0.04,4.06-3.89,4.49
	c-1.74,0.19-1.93,0.94-1.95,2.41c-0.01,1.72,1.09,1.38,2.04,1.38c6.28,0.01,12.55,0.01,18.83-0.01c0.62,0,1.5,0.34,1.74-0.57
	c0.24-0.89,0.48-2.13-0.19-2.66c-0.7-0.56-1.9-0.63-2.89-0.66c-1.94-0.05-2.7-0.98-2.7-2.86c0.03-10.94-0.03-21.88,0.06-32.82
	c0.03-3.64,1.24-4.87,4.87-5.13c1.57-0.11,1.69-0.79,1.72-2.06c0.04-1.39-0.48-1.71-1.78-1.67c-3.31,0.08-6.63,0.22-9.92-0.03
	c-2.17-0.16-3.12,0.75-4.01,2.5C136.92,144.02,131.55,154.3,126.04,164.95z M92.27,149.93c0.06-15.68-12.33-28.26-27.86-28.31
	c-17.68-0.06-31.24,12.88-31.29,29.85c-0.04,16.37,12.06,29.02,27.92,29.16C78.41,180.79,92.21,167.23,92.27,149.93z M220.09,179.66
	c3.05,0,6.11,0.01,9.16,0c1.92-0.01,2.84-1.37,1.84-2.96c-0.66-1.05-2.11-0.77-3.18-0.94c-1.65-0.26-2.38-0.94-2.37-2.63
	c0.04-5.26,0.03-10.51-0.03-15.77c-0.01-1.21,0.36-1.6,1.59-1.59c5.09,0.06,10.18,0.08,15.26-0.01c1.5-0.03,1.82,0.5,1.8,1.88
	c-0.08,4.58-0.01,9.16-0.04,13.73c-0.03,3.91-0.04,4.05-3.93,4.49c-1.77,0.2-1.91,0.98-1.92,2.41c-0.01,1.97,1.38,1.34,2.31,1.35
	c6.02,0.05,12.04,0.04,18.06,0.01c0.96-0.01,2.24,0.56,2.38-1.33c0.13-1.79-0.61-2.27-2.23-2.47c-3.65-0.45-3.67-0.53-3.67-4.26
	c-0.01-10.77-0.01-21.53,0-32.3c0-3.85,0.14-4.08,3.91-4.3c1.58-0.09,1.97-0.65,1.99-2.13c0.03-1.74-1.01-1.61-2.15-1.61
	c-6.11,0.02-12.21,0-18.32,0.01c-1.11,0-2.33-0.39-2.31,1.63c0.01,1.82,0.79,2,2.26,2.08c3.32,0.19,3.58,0.49,3.63,3.78
	c0.05,3.39-0.05,6.78,0.04,10.17c0.04,1.51-0.37,2.1-1.98,2.07c-4.92-0.09-9.84-0.11-14.75,0.01c-1.7,0.04-1.95-0.64-1.92-2.09
	c0.09-3.22,0.03-6.44,0.04-9.66c0.01-3.87,0.11-4.04,3.9-4.27c1.49-0.09,2.05-0.49,2.04-2.08c-0.01-1.69-0.9-1.66-2.1-1.66
	c-6.11,0.03-12.21,0-18.32,0.02c-1.08,0-2.36-0.5-2.37,1.56c-0.01,1.75,0.63,2.07,2.19,2.15c3.37,0.16,3.59,0.45,3.59,3.76
	c0.03,10.68,0.02,21.36,0.02,32.05c0,4.32,0,4.44-4.29,5.13c-1.71,0.27-1.38,1.25-1.48,2.3c-0.13,1.36,0.62,1.49,1.69,1.48
	C213.65,179.63,216.87,179.66,220.09,179.66z M347.12,121.65c-4.16-0.19-8.4,0.24-12.45,2.05c-8.77,3.93-11.24,13.12-5.55,20.83
	c2.05,2.78,4.8,4.74,7.61,6.65c4.06,2.75,8.33,5.27,11.4,9.23c3.49,4.5,2.88,10.57-1.29,13.86c-4.01,3.18-10.02,2.28-13.61-2.02
	c-1.77-2.12-2.98-4.56-3.42-7.27c-0.31-1.9-1.56-1.58-2.8-1.62c-1.65-0.06-1.12,1.15-1.13,1.95c-0.05,3.3,0.07,6.61-0.06,9.92
	c-0.07,1.87,0.73,2.77,2.42,3.3c5.57,1.73,11.23,2.4,17.05,1.9c4.28-0.37,8.36-1.39,12-3.74c4.44-2.86,6.82-6.87,6.78-12.28
	c-0.04-5.84-3-10.15-7.2-13.7c-3.75-3.17-7.75-6.04-11.64-9.04c-1.75-1.35-3.49-2.73-4.65-4.65c-1.65-2.72-1.54-5.55,0.11-8.16
	c1.63-2.57,4.23-3.15,7.13-2.75c2.96,0.41,4.84,2.28,6.32,4.65c0.85,1.36,1.53,2.83,1.9,4.41c0.41,1.73,1.77,1.18,2.86,1.23
	c1.44,0.06,1.02-1.06,1.03-1.81c0.04-2.97-0.04-5.93,0.03-8.9c0.05-1.85-0.72-2.72-2.55-3.12
	C354.08,121.83,350.71,121.62,347.12,121.65z M545.16,179.66c-0.35-0.56-0.44-0.79-0.61-0.96c-7.56-7.81-14.22-16.39-21-24.86
	c-0.85-1.06-0.94-1.7,0.07-2.72c4.23-4.29,8.35-8.67,12.55-12.99c1.3-1.34,2.67-2.68,4.52-3.17c1.74-0.46,0.85-1.76,0.99-2.7
	c0.18-1.23-0.84-1-1.55-1.01c-3.99-0.02-7.97,0.01-11.96-0.02c-1.05-0.01-1.88,0.07-1.72,1.45c0.12,0.99-0.43,2.35,1.46,2.22
	c0.98-0.07,1.96,0.23,2.32,1.22c0.37,1.01-0.43,1.75-1.06,2.4c-3.25,3.34-6.4,6.81-9.88,9.9c-1.42,1.26-2.25,3.34-4.67,3.82
	c0-4.01,0-7.88,0-11.75c0-4.61-0.01-4.68,4.62-5.58c1.52-0.29,0.98-1.29,1.08-2.11c0.11-0.94,0.01-1.61-1.27-1.6
	c-6.62,0.05-13.23,0.04-19.85,0.01c-0.91,0-1.38,0.19-1.43,1.24c-0.07,1.57,0.15,2.46,2.11,2.52c3.5,0.12,3.64,0.42,3.64,3.97
	c0.01,10.69,0.01,21.37,0.01,32.06c0,4.99-0.01,4.45-4.06,4.89c-1.77,0.19-1.67,1.11-1.71,2.35c-0.06,1.69,1.07,1.38,2.05,1.38
	c6.11,0,12.22-0.15,18.32,0.07c2.54,0.09,2.37-1.26,2.15-2.79c-0.24-1.65-1.79-0.72-2.69-1.1c-1.06-0.46-2.84,0.15-2.87-1.75
	c-0.07-5.45-0.03-10.9-0.03-16.88c0.56,0.68,0.77,0.92,0.95,1.17c4.29,5.96,8.56,11.92,12.85,17.87c1.39,1.92,3.07,3.41,5.63,3.41
	C537.69,179.66,541.24,179.66,545.16,179.66z M414.42,155.49c0,0,0.01,0,0.01,0c0,4.92,0,9.83,0,14.75c0,4.73,0.01,4.83-4.57,5.73
	c-1.64,0.32-1.16,1.32-1.24,2.24c-0.1,1.07,0.35,1.48,1.47,1.48c11.36-0.03,22.72-0.03,34.09,0c1.18,0,1.63-0.43,1.79-1.57
	c0.49-3.43,1.11-6.85,1.59-10.29c0.08-0.56,1.06-1.63-0.33-1.77c-0.94-0.09-2.23-0.73-2.88,0.74c-0.37,0.85-0.87,1.65-1.25,2.5
	c-1.18,2.64-2.74,4.92-5.71,5.72c-2.82,0.77-5.69,0.78-8.58,0.42c-2.2-0.28-3.31-1.54-3.32-3.75c-0.03-4.58-0.04-9.15-0.06-13.73
	c0-0.58-0.06-1.17,0.63-1.51c3.56-1.73,8.74,0.85,9.2,4.74c0.18,1.51,0.65,2.03,2.17,2c1.88-0.04,1.38-1.33,1.39-2.32
	c0.03-4.24,0.03-8.48-0.01-12.72c-0.01-0.88,0.53-2.12-1.28-2.11c-1.38,0.01-2.1,0.18-2.26,1.85c-0.3,3.26-1.65,4.34-5,4.49
	c-0.93,0.04-1.87-0.06-2.8,0.05c-1.52,0.18-2.08-0.34-2.04-1.94c0.1-4.07,0.18-8.14-0.02-12.2c-0.12-2.41,0.53-2.99,3.01-3.14
	c5.79-0.35,10.38,0.49,11.21,7.41c0.17,1.39,1.37,0.9,2.22,0.99c1.18,0.12,1.14-0.68,1.14-1.47c-0.01-3.14-0.05-6.27,0.01-9.41
	c0.02-1.11-0.37-1.46-1.46-1.45c-10.43,0.03-20.86,0.03-31.29-0.01c-1.18,0-1.67,0.33-1.68,1.57c-0.01,1.39,0.22,2.11,1.91,2.2
	c3.84,0.19,3.92,0.4,3.93,4.24C414.43,144.64,414.42,150.06,414.42,155.49z M196.97,179.66
	C196.97,179.66,196.97,179.65,196.97,179.66c2.97-0.01,5.94-0.02,8.91-0.01c0.72,0,1.51,0,1.33-0.99c-0.17-0.87,0.82-2.25-0.73-2.54
	c-3.65-0.68-4.7-3.64-5.76-6.47c-4.56-12.19-9.04-24.41-13.51-36.64c-0.61-1.68-1.1-2.87-3.42-2.73c-2.11,0.13-3.23,0.48-4.04,2.66
	c-4.75,12.76-9.48,25.54-14.73,38.11c-1.03,2.46-2.42,4.55-5.29,4.94c-1.83,0.25-1.14,1.52-1.22,2.49
	c-0.11,1.34,0.88,1.19,1.72,1.19c3.65,0,7.3,0.02,10.94-0.01c0.81-0.01,2.07,0.47,1.95-1.14c-0.08-1.03,0.61-2.41-1.41-2.57
	c-1.64-0.13-2.22-1.29-1.92-2.93c1.38-7.64,2.12-8.29,9.73-8.29c0.34,0,0.68,0,1.02,0c7.75,0,7.73,0.01,9.86,7.55
	c0.58,2.06,0.38,3.59-2.15,3.76c-1.7,0.12-1.13,1.33-1.22,2.24c-0.11,1.16,0.51,1.43,1.54,1.41
	C191.37,179.63,194.17,179.66,196.97,179.66z M300.94,179.66c2.97,0,5.93-0.01,8.9,0.01c0.76,0,1.48-0.12,1.3-1.06
	c-0.17-0.86,0.78-2.23-0.81-2.52c-3.29-0.6-4.41-3.17-5.39-5.81c-4.7-12.58-9.4-25.17-13.96-37.8c-0.66-1.82-1.59-2.22-3.3-2.15
	c-1.71,0.07-2.97-0.08-3.81,2.15c-4.89,12.97-9.62,26-15.02,38.77c-1.01,2.39-2.43,4.35-5.17,4.72c-1.83,0.25-1.16,1.53-1.25,2.49
	c-0.12,1.32,0.85,1.2,1.71,1.2c3.64,0,7.29,0.02,10.93-0.01c0.83-0.01,2.05,0.42,1.94-1.17c-0.07-1.04,0.61-2.43-1.42-2.55
	c-1.52-0.09-2.22-1.22-1.86-2.71c0.66-2.79,1.06-5.94,2.88-8c1.31-1.49,4.18-0.33,6.35-0.5c0.51-0.04,1.02-0.01,1.53-0.01
	c7.72,0,7.67,0.01,9.84,7.55c0.62,2.15,0.37,3.56-2.12,3.75c-1.75,0.13-1.02,1.4-1.15,2.26c-0.18,1.16,0.47,1.42,1.5,1.4
	C295.35,179.63,298.15,179.66,300.94,179.66z M486.23,179.66C486.23,179.66,486.23,179.66,486.23,179.66
	c2.88,0.01,5.77-0.01,8.65,0.02c0.85,0.01,1.65-0.07,1.46-1.16c-0.14-0.81,0.71-2.15-0.63-2.37c-3.8-0.63-4.83-3.66-5.93-6.58
	c-4.56-12.2-9.08-24.41-13.55-36.65c-0.58-1.6-1.02-2.79-3.18-2.62c-1.94,0.15-3.31,0.11-4.17,2.47
	c-4.73,12.86-9.56,25.68-14.81,38.35c-1.03,2.48-2.49,4.5-5.34,4.88c-1.91,0.25-1.01,1.62-1.13,2.53c-0.18,1.38,0.93,1.12,1.73,1.12
	c3.65,0.02,7.3,0.03,10.94-0.01c0.81-0.01,2.07,0.47,1.95-1.15c-0.07-1.04,0.61-2.35-1.42-2.56c-1.94-0.19-2.39-1.64-1.79-3.41
	c0.7-2.09,1.46-4.15,2.04-6.27c0.33-1.22,0.97-1.57,2.16-1.55c3.99,0.05,7.97,0.01,11.96,0.02c0.84,0,1.65-0.09,2.01,1.05
	c0.73,2.34,1.64,4.62,2.38,6.96c0.54,1.73,0.11,3.15-1.96,3.24c-1.98,0.08-1.46,1.41-1.5,2.5c-0.06,1.56,1.13,1.17,1.97,1.18
	C480.8,179.68,483.52,179.66,486.23,179.66z M546.39,171.66c0,0-0.01,0-0.01,0c0,1.36,0.04,2.72-0.01,4.07
	c-0.05,1.45,0.5,2.41,1.94,2.86c7.31,2.27,14.68,2.83,21.94,0.02c9.21-3.56,11.55-13.36,5.2-20.94c-2.31-2.76-5.22-4.82-8.06-6.97
	c-2.7-2.05-5.63-3.83-7.78-6.5c-1.92-2.38-1.9-5.85-0.06-7.98c1.64-1.9,4.99-2.43,7.52-1.15c1.57,0.79,2.69,2.07,3.47,3.61
	c0.57,1.13,1.02,2.32,1.44,3.52c0.51,1.43,1.68,0.8,2.59,0.87c1.09,0.08,0.85-0.84,0.86-1.46c0.02-2.54-0.05-5.09,0.01-7.63
	c0.04-1.66-0.68-2.43-2.31-2.73c-5.13-0.96-10.29-1.37-15.41-0.23c-5.14,1.14-9.53,3.62-10.75,9.2c-1.2,5.47,1.27,9.75,5.51,13.05
	c2.13,1.66,4.44,3.11,6.65,4.68c2.35,1.68,4.7,3.37,6.42,5.74c2.57,3.52,2.06,8.34-1.11,11.04c-3.09,2.63-7.69,2.29-10.83-0.76
	c-1.96-1.9-3.09-4.28-3.6-6.87c-0.32-1.65-1.29-1.45-2.38-1.46c-1.52-0.02-1.21,1.08-1.22,1.97
	C546.38,168.95,546.39,170.31,546.39,171.66z M385.97,131.24c-6.28,0-12.55,0.04-18.83-0.03c-1.44-0.02-2.08,0.31-2.25,1.88
	c-0.31,2.69-0.95,5.33-1.35,8.01c-0.09,0.61-0.79,1.69,0.44,1.86c0.9,0.12,2.06,0.55,2.74-0.64c0.21-0.37,0.49-0.7,0.66-1.08
	c2.03-4.67,5.58-6.38,10.6-6.06c2.11,0.14,2.44,0.74,2.42,2.62c-0.08,11.11-0.04,22.22-0.03,33.33c0,4.87-0.04,4.38-4.14,4.82
	c-1.59,0.17-1.6,0.95-1.65,2.16c-0.06,1.51,0.73,1.59,1.89,1.59c6.19-0.03,12.39-0.13,18.57,0.04c2.25,0.06,2.25-1.04,2.13-2.6
	c-0.12-1.69-1.52-0.94-2.33-1.22c-1.46-0.5-3.41-0.07-3.4-2.64c0.04-12.13-0.01-24.25-0.01-36.38c0-0.62-0.19-1.3,0.78-1.61
	c3.71-1.2,8.84,0.56,11,3.87c0.65,0.99,1.28,2,1.84,3.04c0.72,1.34,1.98,0.94,2.93,0.74c1.07-0.23,0.4-1.31,0.31-1.94
	c-0.38-2.59-1.04-5.15-1.31-7.75c-0.18-1.68-0.86-2.03-2.42-2.01C398.35,131.3,392.16,131.25,385.97,131.24z"/>
<path class="st0" d="M222.11,25.04c0.16,0.06,0.3,0.02,0.41-0.11c0.43,0.06,0.8-0.06,1.07-0.42c0.17,0.06,0.32,0.02,0.45-0.1
	c0.93-0.13,1.82-0.36,2.59-0.92c0.55-0.02,1.12,0.03,1.51-0.5c0.55-0.01,1.13,0.05,1.53-0.45c0.16-0.04,0.32-0.08,0.48-0.13
	c1.09-0.12,2.14-0.37,3.08-0.96c0,0,0,0,0,0c2.47-0.44,4.87-1.13,7.21-2.02c0.3-0.05,0.61-0.1,0.91-0.15
	c1.02-0.29,2.05-0.58,3.07-0.86c1.09,0.11,2.05-0.36,3.05-0.65c0.57,0.11,1.07-0.07,1.52-0.41c0.17-0.02,0.34-0.04,0.51-0.07
	c0.17-0.02,0.33-0.04,0.5-0.06c0.51-0.14,1.03-0.28,1.54-0.43c0.74,0.11,1.44,0.02,2.07-0.43c0.5-0.07,1-0.13,1.5-0.2
	c0.21-0.08,0.42-0.16,0.63-0.23c0,0-0.07,0.03-0.07,0.03c1.05-0.11,2.14-0.02,3.09-0.61c0.31-0.04,0.61-0.08,0.92-0.12
	c1.74-0.13,3.48-0.32,5.14-0.92c0.66-0.06,1.32-0.12,1.98-0.18c1.72-0.32,3.51-0.18,5.17-0.84c0.48-0.04,0.97-0.07,1.45-0.11
	c2.58-0.2,5.17-0.32,7.7-0.91c1-0.05,2-0.11,3-0.16c4.42-0.29,8.85-0.58,13.27-0.86c4.9-0.01,9.81-0.02,14.71-0.04
	c5.08,0.29,10.16,0.57,15.25,0.86c1.18,0.07,2.36,0.13,3.54,0.2c2.39,0.29,4.79,0.58,7.18,0.88c0.65,0.05,1.3,0.1,1.95,0.15
	c1.67,0.65,3.46,0.52,5.18,0.82c0.66,0.06,1.32,0.12,1.98,0.18c0.96,0.58,2.02,0.52,3.08,0.51c0,0,0.02,0.01,0.02,0.01
	c0.32,0.09,0.65,0.18,0.97,0.27c0.66,0.09,1.32,0.17,1.98,0.26c0.64,0.5,1.38,0.48,2.13,0.42c0.16,0.02,0.32,0.05,0.49,0.07
	c0.34,0.1,0.68,0.21,1.03,0.31c0.58,0.09,1.16,0.17,1.74,0.26c0.38,0.37,0.84,0.4,1.33,0.33c0.34,0.04,0.68,0.09,1.01,0.13
	c0.43,0.46,0.97,0.48,1.54,0.41c0.16,0.02,0.33,0.05,0.49,0.07c1.47,0.58,2.99,0.98,4.57,1.05c0,0-0.02-0.01-0.02-0.01
	c0.58,0.57,1.32,0.5,2.04,0.52c1.81,0.73,3.68,1.23,5.61,1.5c2.81,1.08,5.69,1.95,8.64,2.57c0.94,0.62,1.99,0.89,3.09,1.02
	c0.16,0.09,0.32,0.18,0.48,0.27c0.33,0.08,0.66,0.15,0.99,0.23c0.78,0.56,1.67,0.83,2.61,0.94c0.1,0.13,0.22,0.16,0.38,0.1
	c1.14,0.71,2.38,1.15,3.7,1.4c0.21,0.06,0.43,0.12,0.64,0.18c0.3,0.12,0.6,0.25,0.89,0.37c0,0,0.02,0.01,0.02,0.01
	c0.33,0.14,0.65,0.29,0.98,0.43c0.16,0.04,0.32,0.08,0.48,0.13c0.18,0.11,0.35,0.21,0.53,0.32c0.26,0.08,0.51,0.16,0.77,0.24
	c0.69,0.49,1.44,0.84,2.3,0.93c0,0,0.01,0.01,0.01,0.01c0.74,0.6,1.6,0.89,2.52,1.04c0,0,0,0,0,0c0.91,0.71,1.99,1.07,3.07,1.41
	c0.5,0.21,1,0.43,1.51,0.64c0.16,0.09,0.32,0.19,0.47,0.28c0.19,0.06,0.39,0.13,0.58,0.19c0.16,0.1,0.31,0.2,0.47,0.31
	c0.18,0.06,0.36,0.12,0.53,0.18c1.74,1.05,3.53,1.99,5.47,2.63c0.78,0.7,1.71,1.1,2.69,1.41c0.59,0.51,1.23,0.93,2.03,1.05
	c0,0,0.03,0.01,0.03,0.01c0.15,0.1,0.3,0.2,0.44,0.3c0.17,0.08,0.35,0.16,0.52,0.23c0.21,0.39,0.56,0.52,0.98,0.54
	c0.15,0.29,0.36,0.47,0.71,0.34l-0.01,0c0.51,0.62,1.17,0.97,1.95,1.14c0.15,0.11,0.3,0.21,0.44,0.32c0.16,0.08,0.31,0.15,0.47,0.23
	c0.34,0.21,0.69,0.41,1.03,0.62c0.21,0.12,0.41,0.24,0.62,0.35c1.05,0.88,2.2,1.58,3.48,2.07c0,0,0,0,0,0
	c1.71,1.17,3.41,2.34,5.12,3.52c0,0,0.01,0.02,0.01,0.02c0,0.33,0.16,0.49,0.5,0.49c0,0,0.02,0.01,0.02,0.01
	c0.13,0.6,0.68,0.28,1,0.46c0,0,0.02,0.05,0.02,0.05c-0.82,2.4-2.43,0.25-3.6,0.63c-0.34-0.03-0.68-0.06-1.01-0.08
	c-1.81-0.65-3.72-0.64-5.59-0.88c-17.22-2.42-34.48-4.37-51.85-5.3c-3.73-0.68-7.51-0.6-11.27-0.85c-0.51-0.02-1.02-0.04-1.54-0.05
	c-0.34-0.01-0.68-0.02-1.02-0.02c-0.68-0.02-1.36-0.05-2.04-0.07c-3.37-0.62-6.78-0.52-10.18-0.49c-0.34-0.01-0.67-0.02-1.01-0.03
	c-1.02-0.36-2.06-0.42-3.12-0.25c-0.63-0.03-1.26-0.05-1.9-0.08c-0.71-0.02-1.42-0.04-2.12-0.06c-2.17-0.04-4.33-0.09-6.5-0.13
	c-6.64-0.64-13.3-0.46-19.96-0.4c-2.04,0-4.08-0.01-6.12-0.01c-1.18-0.01-2.37-0.01-3.55-0.02c-1.19,0.01-2.38,0.01-3.57,0.02
	c-0.34,0-0.67,0-1.01,0c-2.55,0.01-5.1,0.01-7.65,0.02c-5.18-0.02-10.37-0.31-15.53,0.39c-3.14-0.29-6.27,0.05-9.4,0.14
	c-0.88,0.04-1.76,0.07-2.63,0.11c-1.68-0.15-3.35,0.05-5.01,0.31c-2.49,0.02-5.01-0.31-7.46,0.42c-2.28-0.33-4.54,0.12-6.81,0.2
	c-3.75,0.24-7.52,0.18-11.23,0.86c-1.52,0.07-3.04,0.14-4.57,0.21c-0.71-0.13-1.4-0.02-2.05,0.29c-0.33,0.02-0.66,0.05-0.99,0.07
	c-1.89-0.07-3.78-0.06-5.63,0.46c-0.5,0.03-1,0.06-1.49,0.09c-2.74,0.08-5.48,0.2-8.16,0.9c-1.03-0.3-2.03,0.04-3.04,0.14
	c-2.42,0.18-4.85,0.26-7.22,0.88c-1.16,0.1-2.31,0.2-3.47,0.29c-0.39-0.13-0.73-0.04-1.04,0.23c-0.5,0.04-1.01,0.08-1.51,0.12
	c-0.91-0.09-1.81-0.08-2.65,0.38c-1,0.09-1.99,0.19-2.99,0.28c-0.24,0.07-0.47,0.13-0.71,0.2c-0.6,0.06-1.21,0.11-1.81,0.17
	c-0.89-0.09-1.75-0.02-2.55,0.41c-0.67,0.05-1.34,0.11-2.01,0.16c-0.56-0.09-1.08,0-1.54,0.34c-0.34,0.03-0.68,0.07-1.02,0.1
	c-2.14,0.28-4.27,0.64-6.42,0.79c-0.64,0.05-1.69,1.02-2.07-0.44c0.94-0.65,1.89-1.31,2.83-1.96c1.33-0.68,2.65-1.38,3.72-2.47
	c0,0-0.02,0.02-0.02,0.02c0.4-0.06,0.77-0.16,0.96-0.57c0.16-0.08,0.32-0.16,0.49-0.24c0.35-0.24,0.71-0.49,1.06-0.73
	c0.28-0.17,0.56-0.35,0.85-0.52c0,0,0.08-0.04,0.08-0.04c0.12,0.04,0.2-0.01,0.24-0.13c0.37,0.11,0.54-0.13,0.7-0.4
	c0.22-0.13,0.44-0.26,0.66-0.4c1.05-0.31,1.95-0.89,2.79-1.57c0.43-0.24,0.85-0.47,1.28-0.71c0.19-0.12,0.38-0.24,0.56-0.36
	c0,0-0.03,0.02-0.03,0.02c0.78-0.15,1.43-0.53,1.99-1.08l0.01,0c1.34-0.46,2.62-1.05,3.72-1.97c0.37-0.02,0.74-0.05,0.9-0.47
	c0.43-0.06,0.85-0.13,1.1-0.55c0.17,0.05,0.3,0,0.38-0.15c1.44-0.47,2.78-1.13,4.04-1.96c0.21-0.09,0.41-0.17,0.62-0.26
	c0.5-0.24,1-0.49,1.49-0.73c0.41,0,0.77-0.09,1-0.47c1.29-0.31,2.49-0.82,3.58-1.56c0.4,0,0.78-0.04,1.02-0.43
	c0.56-0.05,1.11-0.11,1.48-0.6c0.51-0.2,1.02-0.4,1.53-0.6c1.23-0.32,2.44-0.7,3.51-1.43c0.62,0.05,1.12-0.25,1.59-0.6
	c0.42,0.05,0.76-0.08,1.03-0.41c0.68-0.22,1.35-0.44,2.03-0.66c0.22-0.1,0.43-0.21,0.65-0.31c0.15,0.06,0.27,0.03,0.36-0.11
	C221.43,25.49,221.84,25.46,222.11,25.04z"/>
<path class="st0" d="M135.18,78.62c0.72,3.81,1.45,7.62,2.14,11.43c0.2,1.1,0.81,2.3-1.16,2.67c-1.75,0.32-2.12-0.3-2.38-1.88
	c-0.92-5.51-1.98-11-3.11-16.47c-0.29-1.4-0.14-1.88,1.39-2.14c4.08-0.7,4.06-0.8,5.84,2.83c1.3,2.66,2.61,5.32,3.93,7.96
	c0.05,0.1,0.28,0.1,0.57,0.2c0.36-3.88,0.74-7.72,1.06-11.57c0.27-3.19,3-1.69,4.55-2.32c1.66-0.67,1.53,0.99,1.73,2
	c1,5.24,2.02,10.47,2.98,15.71c0.22,1.21,0.88,2.45-1.43,2.83c-2.28,0.37-1.87-1.04-2.09-2.15c-0.77-3.85-1.49-7.71-2.73-11.56
	c-0.26,2.99-0.53,5.98-0.79,8.97c-0.12,1.44-0.26,2.87-0.33,4.31c-0.05,1.06-0.35,1.64-1.59,1.82c-1.2,0.17-1.81-0.01-2.35-1.17
	c-1.81-3.89-3.74-7.72-5.63-11.57C135.58,78.55,135.38,78.59,135.18,78.62z"/>
<path class="st0" d="M328.14,76.82l-0.16-0.01l-0.09,0.13c-0.17,0.02-0.33,0.05-0.5,0.07c-0.51-0.01-1.03-0.01-1.54-0.02
	c-0.33,0-0.67-0.01-1-0.01c-0.12-0.1-0.27-0.14-0.42-0.11c0.14-6.71,0.28-13.43,0.45-20.14c0.01-0.27,0.31-0.52,0.48-0.78
	c0.37,0,0.74,0.01,1.11,0.01l0.06,0c0.92,0.03,1.84,0.06,2.76,0.1c0.54,1.02,1.08,2.04,1.62,3.06c0.02,0.41,0.06,0.8,0.45,1.04
	c0.32,1.3,0.83,2.51,1.59,3.61c0.1,0.94,0.54,1.72,1.09,2.46c0.01,0.64,0.17,1.21,0.95,1.56c-0.03-0.59-0.05-1.08-0.07-1.56
	c0.1-3.03,0.2-6.06,0.3-9.09c0.54-0.12,0.68-0.51,0.67-1c0,0,0.11,0.03,0.11,0.03c0.69,1.5,2.15,0.34,3.1,0.9
	c-0.04,3.38-0.09,6.76-0.13,10.14c-0.2,3.38-0.4,6.75-0.6,10.13l-0.15-0.08l-0.14,0.1c-0.34,0-0.67-0.01-1.01-0.01
	c-0.24,0.01-0.49,0.02-0.73,0.02c-0.74-0.23-1.47-0.46-2.21-0.69c0,0,0.08,0.05,0.08,0.05c-0.19-0.93-0.53-1.8-1.14-2.54
	c-0.25-0.62-0.51-1.24-0.76-1.87c-0.1-0.18-0.21-0.36-0.31-0.54L332,71.8c-0.05-0.82-0.41-1.51-0.92-2.13c0,0,0,0,0,0
	c-0.57-1.8-1.28-3.53-2.26-5.11c-0.23,0.04-0.45,0.08-0.68,0.12C328.14,68.72,328.14,72.77,328.14,76.82z"/>
<path class="st0" d="M384.41,59.1c0.48-0.02,0.97-0.04,1.45-0.07c0.36,0.02,0.72,0.04,1.09,0.06c0.27,0.02,0.54,0.04,0.81,0.06
	c1.77,0.29,3.53,0.58,5.3,0.87c1.11,0.58,2.18,1.21,3.06,2.13c0.14,0.25,0.29,0.5,0.43,0.75c0.06,0.26,0.11,0.52,0.17,0.78
	c0.27,2.51-0.59,4.56-2.9,6.02c2.6,1.82,2.91,4.13,2.39,6.71c-0.06,0.27-0.12,0.54-0.17,0.81c-1.2,1.81-2.94,2.79-5.01,3.25
	c-2.19-0.17-4.38-0.42-6.57-0.48c-1.51-0.04-2.11-0.44-1.83-2.1c0.29-1.73,0.22-3.53,0.31-5.3c0.48-0.89,0.41-1.84,0.35-2.79
	c0.01-0.34,0.03-0.69,0.04-1.03c0.01-0.17,0.02-0.33,0.02-0.5c0.04-0.5,0.08-1,0.12-1.5c0.36-0.48,0.33-1.02,0.24-1.56
	c0.03-0.34,0.05-0.67,0.08-1.01c0.01-0.34,0.03-0.68,0.04-1.02c0.06-0.84,0.13-1.67,0.19-2.51
	C384.15,60.14,384.28,59.62,384.41,59.1z M388.14,76.94c2.73,0.06,3.99-0.74,4.01-2.92c0.02-1.81-1.51-3.38-3.6-2.95
	c-2.3,0.47-0.98,2.88-1.48,4.36C386.53,77,387.83,76.94,388.14,76.94z M387.92,65.36c0.11,1.11-0.54,2.48,1.41,2.39
	c1.59-0.07,2.97-0.45,3.14-2.24c0.19-2.04-1.36-2.56-2.97-2.71C387.13,62.58,388.51,64.61,387.92,65.36z"/>
<path class="st0" d="M287.1,59.25c0.18,0.46,0.36,0.91,0.53,1.37c0.03,0.17,0.05,0.34,0.08,0.51c-0.03,1.01-0.05,2.03-0.08,3.04
	c-0.57,0.82-0.65,2.04-1.61,2.49c-1.76,0.83-1.05,1.81-0.52,3.04c1.03,2.39,2.51,4.59,3.14,7.15c0,0,0,0,0,0
	c-0.16-0.03-0.31,0.01-0.45,0.1c-0.35,0-0.69,0.01-1.04,0.01c-0.84,0-1.68,0-2.53,0c-0.14-0.1-0.29-0.16-0.46-0.18
	c-1.05-2.4-2.11-4.78-3.13-7.19c-0.37-0.86-1-1.11-1.83-0.95c-0.86,0.16-0.66,0.89-0.63,1.43c0.1,2.1-0.15,4.23,0.39,6.3
	c-0.12,0.11-0.12,0.22-0.01,0.33c-0.93,0.21-1.87,0.41-2.8,0.62c-0.42-0.37-0.88-0.16-1.34-0.08c-0.58-1.53-0.28-3.14-0.37-4.71
	c-0.2-3.23,0.23-6.49-0.48-9.69c0.44-2.08-0.04-4.15-0.01-6.23c1.01-0.18,2.01-0.35,3.02-0.53c1.64,0,3.28,0,4.92,0
	c1.07,0.33,2.14,0.65,3.2,0.98c0,0,0,0,0,0C285.77,57.81,286.44,58.53,287.1,59.25z M280.23,59.57c-1.17-0.16-2.31,0.08-1.77,1.66
	c0.46,1.35-1.51,3.8,1.66,3.98c2,0.11,3.35-0.69,3.33-2.87C283.44,60.36,282.29,59.46,280.23,59.57z"/>
<path class="st0" d="M185.18,84.37c-4.26,0.99-4.26,0.99-6.28-2.36c-0.75-1.23-1.54-2.44-2.23-3.7c-0.44-0.81-1.06-1.06-1.88-0.83
	c-1,0.29-0.55,1.1-0.48,1.68c0.17,1.43,0.35,2.86,0.68,4.26c0.42,1.77,0.27,2.8-1.98,2.93c-1.37,0.08-1.91,0.06-2.11-1.47
	c-0.73-5.71-1.56-11.4-2.46-17.08c-0.24-1.55,0.12-2.08,1.73-2.18c2.35-0.14,4.67-0.81,7.06-0.58c2.23,0.22,3.91,1.24,4.66,3.36
	c0.78,2.22,1.14,4.61-0.7,6.43c-1.17,1.16-0.86,1.87-0.13,2.95C182.46,79.9,183.75,82.08,185.18,84.37z M175.21,68.25
	c-0.71,0.4-2.49-0.41-2.13,1.44c0.3,1.53-0.78,3.86,1.54,4.4c2.06,0.47,3.65-1.01,3.62-2.81C178.19,69.41,177.31,68.3,175.21,68.25z
	"/>
<path class="st0" d="M483.51,75.38c0.06-0.47,0.13-0.94,0.19-1.41c0.1-0.22,0.21-0.44,0.31-0.65c0,0,0.13-0.08,0.13-0.08
	c0.35,0.01,0.7,0.02,1.05,0.02c2.12,0.52,4.27,0.96,6.36,1.58c2.42,0.72,4.29,2.14,4.46,4.87c0.17,2.74-0.35,5.3-3.27,6.47
	c-1.32,0.53-0.92,1.36-0.74,2.25c0.51,2.63,1.33,5.2,1.5,7.9l-0.14,0.01c-0.51-0.04-1.03-0.08-1.54-0.12
	c-1.09-0.61-2.82-0.38-2.99-2.23c0.04-1.16-0.15-2.28-0.63-3.34c0.08-0.72,0.03-1.42-0.42-2.04c-0.03-0.17-0.05-0.34-0.08-0.52
	c0.2-1.09-0.23-1.81-1.34-1.91c-1.12-0.11-0.96,0.91-1.12,1.56c-0.2,0.79-0.29,1.6-0.43,2.4c-0.04,0.34-0.08,0.68-0.12,1.01
	c-0.54,0.77-0.58,1.65-0.52,2.55l-0.12,0.11c0,0,0.05,0.15,0.05,0.15c-0.31,0.11-0.62,0.22-0.93,0.33c-0.33-0.05-0.67-0.11-1-0.16
	c-2.24-0.3-2.33-1.62-1.89-3.5C481.44,85.57,482.44,80.47,483.51,75.38z M491.92,80.23c-0.03-2.05-1.72-2.86-3.38-2.69
	c-2.6,0.27-1.51,2.88-1.94,4.4c-0.48,1.66,1.49,1.26,2.29,1.37C490.86,83.57,491.74,82.28,491.92,80.23z"/>
<path class="st0" d="M460.88,69.26c0.45-0.16,0.89-0.33,1.34-0.49c0.47,0.39,1,0.5,1.6,0.39c0.49,0.24,1.17,0.03,1.52,0.63
	c-0.03,0.31-0.06,0.63-0.08,0.94c0,0,0.01-0.01,0.01-0.01c-0.6,1.15-0.51,2.44-0.75,3.66c-0.08,0.65-0.16,1.31-0.23,1.96
	c-0.46,0.64-0.46,1.36-0.39,2.1c-0.4,1.31-0.72,2.63-0.63,4.01c-0.48,0.63-0.48,1.36-0.41,2.1c-0.04,0.32-0.07,0.64-0.11,0.96
	c-0.64,1.31-0.57,2.76-0.83,4.15c-1.32,0.57-2.61-0.36-3.93-0.08c-0.12-0.31-0.24-0.62-0.36-0.93c0.42-1.28,0.72-2.59,0.64-3.95
	c0.34-0.32,0.39-0.71,0.32-1.14c0.07-0.67,0.14-1.35,0.22-2.02c0.52-0.75,0.32-1.1-0.59-1.06c-0.22-0.03-0.44-0.06-0.66-0.09
	c-1.05-0.26-2.09-0.56-3.15-0.76c-1.12-0.21-1.27,0.51-1.18,1.38c-0.05,0.48-0.09,0.95-0.14,1.43c-0.5,0.64-0.47,1.38-0.41,2.12
	c-0.04,0.33-0.09,0.67-0.13,1c-0.48,0.54-0.44,1.19-0.36,1.84c-0.12,0.25-0.24,0.51,0.14,0.63c-0.75,0.05-1.5,0.1-2.25,0.16
	c-0.33-0.05-0.67-0.1-1-0.15c-0.52-0.39-1.36-0.5-1.21-1.45c0.08-0.67,0.16-1.34,0.23-2.01c0.63-1.3,0.58-2.72,0.8-4.1
	c0.07-0.62,0.15-1.23,0.22-1.85c0.49-0.67,0.46-1.44,0.39-2.21c0.04-0.28,0.08-0.57,0.12-0.85c0.07-0.22,0.14-0.43,0.21-0.65
	c0.1-0.81,0.21-1.61,0.31-2.42c0.52-0.66,0.43-1.44,0.4-2.2c0.03-0.26,0.07-0.51,0.1-0.77c0.33-1.95,1.27-2.82,3.29-1.94
	c0.36,0.16,0.81,0.11,1.23,0.16c0,0,0.01,0.01,0.01,0.01c0.04,0.33,0.09,0.67,0.13,1c-0.07,0.59-0.14,1.18-0.21,1.77
	c-0.48,0.53-0.42,1.16-0.36,1.79c-0.06,0.44-0.11,0.88-0.17,1.32c-0.99,1.8-0.31,2.51,1.59,2.76c3.58,0.47,3.58,0.54,4.2-3.15
	C460.56,71.93,460.7,70.59,460.88,69.26z"/>
<path class="st0" d="M303.46,76.94c-0.64-0.2-1.28-0.4-1.92-0.6c-0.7-0.67-1.4-1.33-2.1-2c-0.07-0.17-0.14-0.34-0.2-0.5
	c-0.11-0.18-0.22-0.36-0.34-0.53c0,0,0.01,0.02,0.01,0.02c-0.05-0.8-0.02-1.61-0.49-2.32c0.02-3.38,0.03-6.76,0.05-10.14
	c0.44-1.37,1.01-2.67,1.89-3.82c1.26-0.83,2.67-1.24,4.11-1.58c0.34,0,0.68,0,1.02,0c0.67,0.06,1.33,0.13,2,0.19
	c0.69,0.29,1.38,0.59,2.08,0.88c0,0,0.01,0.01,0.01,0.01c0.17,0.15,0.34,0.3,0.52,0.44c0,0,0.05,0.04,0.05,0.04
	c0.45,0.62,0.9,1.25,1.35,1.87c0.13,0.59,0.04,1.25,0.55,1.73c-0.26,0.71,0.75,2.14-0.99,1.99c-1.21-0.1-2.99,0.94-3.33-1.44
	c-0.19-1.31-1.07-2.07-2.48-2.06c-1.02,0.01-2.04,0.33-2.21,1.34c-0.64,3.87-0.47,7.77,0.07,11.62c0.19,1.37,1.73,1.49,2.96,1.22
	c1.37-0.3,1.76-1.38,1.92-2.66c0.22-1.79-1.06-1.34-1.97-1.36c-1.46-0.03-0.92-1.12-1.02-1.84c-0.13-0.9,0.17-1.45,1.22-1.43
	c1.52,0.02,3.05,0.01,4.57-0.06c0.99-0.05,1.36,0.33,1.34,1.32c-0.08,3.13-0.1,6.26-0.15,9.39c-0.61,0.01-1.22,0.02-1.82,0.02
	c-0.52-1.3-1.16-1.92-2.16-0.36c-0.67,0.23-1.34,0.46-2,0.68C305.15,76.98,304.31,76.96,303.46,76.94z"/>
<path class="st0" d="M271.02,73.86c-0.07,0.27-0.15,0.53-0.22,0.8c-0.4,0.55-0.8,1.1-1.2,1.65c-0.76,0.41-1.53,0.81-2.29,1.22
	c-0.23,0.06-0.45,0.13-0.68,0.19l0.15,0c0,0-0.15-0.01-0.15-0.01c-1.82,0.3-3.63,0.21-5.42-0.21c-0.12-0.12-0.26-0.16-0.42-0.12
	c-1.25-0.97-2.34-2.08-2.9-3.61c-0.14-0.83-0.27-1.65-0.41-2.48c0.07-0.8,0.26-1.61-0.26-2.34c0.42-1.59-0.03-3.18-0.05-4.76
	c-0.07-4.91,1.31-6.71,6.08-7.73c0.85,0.01,1.7,0.01,2.55,0.02c0.77,0.22,1.54,0.45,2.3,0.67c1.37,1.02,2.12,2.48,2.8,3.99
	c0.05,0.69,0.11,1.38,0.16,2.07c-0.09,0.72-0.22,1.45,0.21,2.12c0,0-0.03-0.06-0.03-0.06C270.97,68.13,271.76,71.01,271.02,73.86z
	 M266.94,67.35c-0.05,0-0.1,0-0.14,0c0-1.43,0.03-2.86-0.01-4.29c-0.05-1.68-0.54-2.96-2.6-2.99c-2.15-0.04-2.85,1.22-2.81,3.04
	c0.05,2.86,0.21,5.73,0.39,8.58c0.11,1.64,0.92,2.69,2.72,2.65c1.92-0.05,2.7-1.19,2.68-2.95
	C267.15,70.04,267.02,68.69,266.94,67.35z"/>
<path class="st0" d="M399.96,66.77c0.1-1.19,0.2-2.38,0.3-3.58c0.11-2.33,1.3-3.08,3.48-2.39c0.15,0.05,0.33-0.02,0.49-0.04
	c0.19,0.12,0.39,0.25,0.58,0.37c-0.51,4.69-1.01,9.38-1.53,14.08c-0.22,2.02,0.57,3.31,2.64,3.54c2,0.22,3-0.94,3.2-2.77
	c0.45-4.1,0.8-8.21,1.19-12.31c0.18-0.68,0.36-1.36,0.55-2.05c0.17-0.02,0.33-0.05,0.5-0.07c0.34,0.01,0.69,0.03,1.03,0.04
	c2.62,0.06,2.5,1.77,2.18,3.61c-0.07,0.96-0.14,1.93-0.21,2.89c-0.55,1.37-0.49,2.8-0.44,4.23c-0.03,0.28-0.05,0.55-0.08,0.83
	c-0.05,0.21-0.11,0.43-0.16,0.64c-0.05,0.36-0.11,0.72-0.16,1.08c-0.06,0.83-0.13,1.66-0.19,2.49c0,0,0.01-0.02,0.01-0.02
	c-0.48,1.04-0.96,2.08-1.45,3.12c-0.86,0.54-1.72,1.09-2.57,1.63c-1.86,0.41-3.72,0.14-5.58-0.03c-0.17-0.03-0.34-0.06-0.51-0.1
	c-0.18-0.1-0.35-0.2-0.53-0.3c-0.27-0.09-0.55-0.18-0.82-0.26c-1.07-0.9-1.98-1.93-2.67-3.15c-0.05-1.3-0.09-2.6-0.14-3.89
	c0.02-0.34,0.04-0.68,0.06-1.02c0.03-0.29,0.06-0.58,0.09-0.87c0.5-1.02,0.44-2.11,0.36-3.19c0.05-0.58,0.09-1.17,0.14-1.75
	C399.81,67.28,399.89,67.03,399.96,66.77z"/>
<path class="st0" d="M131.49,93.33c-2.58,1.38-4.45,1.21-5.26-1.83c-0.09-0.35-0.55-0.88-0.79-0.86c-1.25,0.11-2.48,0.47-3.74,0.56
	c-1.98,0.15-1.74,1.65-1.62,2.79c0.23,2.24-1.28,2.38-2.78,2.71c-1.06,0.23-1.31-0.19-1.27-1.19c0.26-6.25,0.52-12.5,0.67-18.75
	c0.04-1.52,1.13-1.69,2.01-1.68c1.28,0.01,2.85-1.72,3.82,0.18C125.61,81.26,128.53,87.33,131.49,93.33z M120.78,80.27
	c-0.2,0.05-0.4,0.09-0.61,0.14c0,2.07,0.04,4.14-0.01,6.21c-0.04,1.78,1.17,1.07,1.89,0.89c0.7-0.17,2.24,0.08,1.54-1.5
	C122.74,84.06,121.73,82.18,120.78,80.27z"/>
<path class="st0" d="M223.31,80.34c-1.52,0.38-1.68-0.93-1.79-1.81c-0.3-2.47-1.91-2.2-3.67-2.14c-1.89,0.06-3.26,0.39-3.33,2.69
	c-0.03,0.9,0.06,1.99-1.44,2.27c-2.6,0.49-2.92,0.25-2.49-2.36c0.93-5.59,1.88-11.18,2.67-16.79c0.21-1.47,0.69-2.27,2.17-2.04
	c1.43,0.23,3.3-1.35,4.17,1.36c1.73,5.39,3.74,10.68,5.65,16.01C226.2,80.15,226.13,80.25,223.31,80.34z M219.44,72.63
	c-0.87-2.49-1.69-4.82-2.51-7.15c-0.6,1.38-0.86,2.67-1.02,3.98C215.46,73.12,215.47,73.12,219.44,72.63z"/>
<path class="st0" d="M356.33,72.58c0.05,0.43,0.11,0.85,0.16,1.28c0.61,4.14,0.61,4.14-3.14,4.04c-0.12-0.15-0.23-0.29-0.35-0.44
	c-0.13-1.07,0-2.19-0.64-3.16c0.08-0.17,0.05-0.31-0.09-0.44c0.05-0.36-0.12-0.47-0.45-0.4c-1.53-0.03-3.06-0.06-4.59-0.09
	c-1.24,0.16-0.92,1.2-1.1,1.96c0,0,0.01-0.01,0.01-0.01c-0.41,0.26-0.42,0.66-0.37,1.08c-0.14,0.11-0.17,0.24-0.11,0.4
	c-0.15,0.21-0.3,0.42-0.46,0.62c0,0-0.01,0-0.01,0c-1.02,0.02-2.04,0.03-3.06,0.05c-0.3-0.23-0.6-0.46-0.89-0.69
	c0.1-0.3,0.2-0.59,0.29-0.88c0.34-0.77,0.72-1.53,0.67-2.41c0.58-0.61,0.59-1.44,0.79-2.19c0.06-0.32,0.12-0.63,0.19-0.95
	c0.58-0.77,0.71-1.7,0.9-2.61c0.05-0.28,0.11-0.55,0.16-0.83c0.51-0.46,0.51-1.07,0.52-1.68c0.74-2.18,1.64-4.33,2.17-6.56
	c0.36-1.52,1.16-2.02,2.52-2.07c0.9,0.53,1.88,0.34,2.84,0.3c0.19,0.04,0.38,0.09,0.57,0.13c0.31,1.06,0.62,2.13,0.92,3.19
	c0.04,0.3,0.09,0.6,0.13,0.9c-0.08,0.6-0.06,1.16,0.38,1.64c0.06,0.47,0.12,0.94,0.18,1.41C355.03,67,355.36,69.86,356.33,72.58z
	 M350.2,62.28c-0.13-0.04-0.26-0.08-0.38-0.12c-0.63,2.06-1.27,4.11-1.88,6.18c-0.13,0.45-0.42,1.14,0.23,1.27
	c0.97,0.19,2.01,0.25,2.98,0.1c0.67-0.1,0.27-0.85,0.2-1.27C351,66.38,350.59,64.33,350.2,62.28z"/>
<path class="st0" d="M230.81,74.11c2.17-0.81,3.86-1.69,5.28,0.96c0.77,1.44,2.77,1.44,3.93,0.01c1.08-1.34,0.61-2.81-0.84-3.67
	c-1.59-0.94-3.33-1.64-4.98-2.5c-2.99-1.56-4.02-3.45-3.52-6.32c0.43-2.47,2.46-4.14,5.46-4.49c3.19-0.37,6.11,0.96,7.16,3.25
	c0.3,0.65,0.55,1.4-0.42,1.57c-1.03,0.18-2.01,1.63-3.16,0.24c-0.27-0.33-0.47-0.73-0.79-0.99c-1.19-0.96-2.55-1.18-3.6,0.02
	c-1.2,1.37-0.47,2.55,0.91,3.3c1.26,0.68,2.62,1.18,3.91,1.81c3.43,1.65,5,3.99,4.61,6.84c-0.37,2.79-2.22,4.51-5.51,5.13
	c-3.44,0.64-6.32-0.69-7.89-3.68C231.12,75.16,231,74.66,230.81,74.11z"/>
<path class="st0" d="M193.47,69.9c-0.26-5.45,1.6-7.77,5.54-8.28c4.44-0.57,7.01,0.92,7.78,4.53c0.14,0.66,0.74,1.68-0.61,1.64
	c-1.12-0.03-2.78,1.41-3.29-0.4c-0.59-2.08-1.72-2.56-3.53-2.18c-2.08,0.44-1.91,2.1-1.75,3.63c0.27,2.69,0.65,5.37,0.95,8.06
	c0.18,1.63,1.11,2.49,2.69,2.38c1.59-0.11,2.84-0.89,2.55-2.75c-0.42-2.65,1.54-2.06,2.89-2.17c1.91-0.15,1.34,1.43,1.32,2.33
	c-0.07,3.76-2.31,5.79-6.63,6.19c-3.58,0.33-6.2-1.43-6.85-4.94C193.96,74.87,193.71,71.75,193.47,69.9z"/>
<path class="st0" d="M441.98,69.62c-0.19-0.12-0.38-0.23-0.57-0.35c-2.74-0.99-3.41-0.66-4,2.04c-0.04,0.34-0.09,0.68-0.13,1.01
	c-0.45,0.62-0.44,1.32-0.36,2.04c-0.06,0.5-0.11,1-0.17,1.49c-0.26,1.39-0.62,2.78-0.77,4.18c-0.21,1.92,0.97,2.85,2.71,2.9
	c2.71,0.08,2.56-2.15,2.89-3.92c0.44,0.02,0.88,0.03,1.32,0.05c0.79,0.52,1.69,0.35,2.56,0.42c0,0,0,0,0,0
	c0.44,1.41-0.42,2.65-0.54,3.99c0,0,0.01-0.02,0.01-0.02c-0.44,0.18-0.53,0.59-0.65,0.99c-0.21,0.05-0.28,0.18-0.22,0.38
	c-0.29,0.28-0.58,0.55-0.86,0.83c-0.55-0.12-0.87,0.32-1.28,0.54c-0.21,0.08-0.42,0.17-0.63,0.25c0,0,0.03-0.02,0.03-0.02
	c-5.57,0.32-7.62-0.68-9.49-4.67c0-1.18,0-2.37,0-3.55c0.43-0.55,0.44-1.17,0.35-1.81c0.09-0.66,0.18-1.32,0.27-1.99
	c0.39-0.48,0.33-1.03,0.26-1.58c0.06-0.57,0.12-1.13,0.18-1.7c0.09-0.28,0.18-0.56,0.27-0.84c0.08-0.41,0.16-0.83,0.24-1.24
	c0.46-0.29,0.49-0.79,0.59-1.25c0,0-0.05,0.06-0.05,0.06c0.91-1.05,1.92-1.98,3.19-2.59c1.66,0.01,3.32,0.03,4.98,0.04
	c0.29,0.1,0.58,0.21,0.87,0.31c0.16,0.05,0.32,0.11,0.49,0.16c0.85,0.67,1.7,1.34,2.55,2.01c-0.01,0.18,0.05,0.33,0.18,0.45
	c0.18,0.54,0.37,1.08,0.55,1.62c0.08,0.82,0.15,1.64,0.23,2.46c-0.18,0.32-0.36,0.64-0.54,0.96c-0.23,0-0.45-0.01-0.68-0.01
	c-0.86-0.54-1.83-0.44-2.77-0.44l-0.11-0.13c0,0-0.17,0.03-0.17,0.03C442.42,71.71,442.96,70.5,441.98,69.62z"/>
<path class="st0" d="M164.95,68.65c0.18,0.97-0.06,1.52-1.1,1.61c-1.01,0.09-2,0.34-3,0.49c-2.59,0.4-3.31,1.82-2.21,4.25
	c0.32,0.7,0.71,0.8,1.38,0.66c0.91-0.19,1.86-0.21,2.75-0.46c1.29-0.36,1.66,0.19,1.74,1.36c0.07,1.02,0.41,2.08-1.19,2.15
	c-0.5,0.02-1,0.21-1.5,0.23c-1.84,0.08-2.48,0.58-2.19,2.79c0.36,2.76,1.37,3.24,3.73,2.45c0.87-0.29,1.86-0.22,2.74-0.47
	c1.23-0.36,1.73,0.13,1.84,1.28c0.1,1.04,0.59,2.12-1.27,2.3c-2.77,0.27-5.51,0.85-8.25,1.35c-1.34,0.25-1.93-0.09-2.14-1.59
	c-0.82-5.69-1.75-11.36-2.75-17.02c-0.23-1.32,0.02-1.77,1.37-1.95c2.6-0.34,5.18-0.8,7.74-1.33
	C164.38,66.38,164.96,67.15,164.95,68.65z"/>
<path class="st0" d="M477.55,71.72c0.34,0.04,0.68,0.07,1.02,0.11c0.32,0.1,0.63,0.2,0.95,0.3l0.19,0.09l0.13-0.16
	c0,0,0.04,0.03,0.04,0.03c0.22,0.21,0.44,0.42,0.66,0.63c-0.07,0.17-0.14,0.35-0.21,0.53c-0.05,0.38-0.1,0.75-0.15,1.13
	c-0.28,1-0.66,1.62-1.95,1.17c-1.18-0.41-2.52-0.36-3.73-0.71c-1.58-0.46-1.9,0.21-2.29,1.62c-0.6,2.18-0.08,3.04,2.2,3.27
	c0.84,0.08,2.41-0.44,2.61,1.26c0.21,1.85-0.7,2.5-2.62,2.29c-1.37-0.15-3.26-1.67-3.75,1.38c-0.55,3.4-0.73,3.38,2.68,3.96
	c1,0.17,1.99,0.4,2.99,0.52c0.9,0.1,1.08,0.66,1.08,1.4c0,0,0.02,0.01,0.02,0.01c-0.6,0.76-0.06,2.51-1.9,2.21
	c-0.28-0.04-0.56-0.09-0.84-0.13c-1.36-0.56-2.81-0.69-4.26-0.87c-0.32-0.04-0.63-0.08-0.95-0.12c-0.79-0.59-1.71-0.49-2.61-0.48
	c-0.21-0.05-0.41-0.1-0.62-0.15c-1.01-0.29-0.86-1.1-0.84-1.85c0,0-0.02,0.04-0.02,0.04c0.55-0.8,0.47-1.72,0.49-2.62l0.11-0.1
	c0,0-0.09-0.12-0.09-0.12c0.5-0.52,0.47-1.16,0.4-1.8c0.04-0.27,0.08-0.54,0.12-0.81c0.43-0.52,0.46-1.12,0.37-1.75
	c0.04-0.27,0.09-0.55,0.13-0.82c0.07-0.22,0.14-0.44,0.21-0.66c0.26-0.61,0.37-1.23,0.2-1.89c0.73-0.95,0.53-2.1,0.72-3.17
	c0.44-0.74,0.4-1.56,0.4-2.38c0.46-0.52,0.44-1.13,0.37-1.76c0.19-0.35,0.39-0.71,0.58-1.06c2.34,0.39,4.69,0.79,7.03,1.18
	c0,0,0.09-0.09,0.09-0.09s-0.1,0.08-0.1,0.08C476.73,71.8,477.14,71.77,477.55,71.72z"/>
<path class="st0" d="M431.23,64.08c0.17,0.04,0.34,0.08,0.51,0.12c0.03,0.5,0.06,1.01,0.09,1.51c-0.32,0.66,0.08,1.53-0.61,2.08
	c-0.17,0.01-0.33,0.01-0.5,0.02c-0.5-0.06-0.99-0.12-1.49-0.19c-1.57-0.61-2.96-0.93-2.69,1.58c0,0,0.02-0.01,0.02-0.01
	c-0.61,1.31-0.42,2.74-0.57,4.11c0,0,0.03-0.07,0.03-0.07c-0.41,0.49-0.35,1.06-0.29,1.63c-0.06,0.77-0.12,1.54-0.18,2.31
	c-0.51,0.7-0.4,1.49-0.35,2.27c-0.08,0.66-0.16,1.33-0.24,1.99c-0.45,0.65-0.35,1.37-0.29,2.09c-0.1,0.14-0.13,0.3-0.09,0.47
	c-0.84,0.03-1.67,0.06-2.51,0.09c-0.85-0.22-1.83-0.3-1.7-1.58c0.12-0.59,0.51-1.23-0.29-1.66c0.01-0.23,0.01-0.47,0.02-0.7
	c1.68-1.84,0.87-4.21,1.36-6.3c0.05-0.61,0.1-1.23,0.15-1.84c0.13-0.48,0.33-0.94,0.39-1.43c0.43-3.53,0.43-3.56-3.07-4.4
	c-0.79-0.19-1.04-0.51-1.1-1.33c-0.17-2.13,0.99-2.48,2.7-2.25c0.74,0.13,1.48,0.26,2.22,0.39c0.94,0.08,1.88,0.17,2.83,0.25
	c0,0-0.01-0.01-0.01-0.01c0.98,0.58,2.05,0.45,3.11,0.42c0.33,0.04,0.66,0.09,0.99,0.13C430.14,64.16,430.68,64.15,431.23,64.08z"/>
<path class="st0" d="M365.11,61.13c-0.1,1.24-0.5,2.47-0.16,3.73c-0.43,0.57-0.34,1.22-0.27,1.86c-0.06,0.67-0.12,1.34-0.16,2.01
	c-0.12,1.93-0.95,4.29-0.13,5.68c0.78,1.32,3.42,0.66,5.23,0.86c1.83,0.2,0.88,1.47,1.02,2.29c0.2,1.21-0.55,1.35-1.54,1.28
	c-3.03-0.2-6.06-0.35-9.09-0.52c-0.02-2.33-0.03-4.67-0.05-7c0.2-0.57,0.37-1.15,0.05-1.74c0.52-0.72,0.36-1.52,0.31-2.32
	c0.02-0.68,0.05-1.37,0.07-2.05c0.19-2.54,0.39-5.08,0.58-7.63c0.18-0.07,0.36-0.13,0.53-0.2c0.41,0.05,0.84,0.18,1.24,0.14
	c1.81-0.2,2.73,0.38,2.32,2.36C364.99,60.27,365.09,60.71,365.11,61.13z"/>
<path class="st0" d="M316.38,58.65c0.51-0.97-0.6-2.85,1.87-2.73c1.85,0.09,2.6,0.38,2.52,2.49c-0.21,5.31-0.1,10.63-0.12,15.95
	c-0.13,0.83-0.26,1.65-0.39,2.48c-0.17,0.03-0.34,0.07-0.51,0.1c-0.85-0.01-1.7-0.01-2.55-0.02c-0.17-0.02-0.34-0.04-0.51-0.06
	c-0.17-0.16-0.34-0.31-0.51-0.47c-0.01-1.36-0.02-2.71-0.02-4.07C316.23,67.77,316.31,63.21,316.38,58.65z"/>
<path class="st0" d="M191.57,82.17c0.27,1.99-1.04,1.76-1.96,1.84c-0.91,0.08-2.02,0.58-2.22-1.14c-0.68-5.95-1.4-11.89-2.25-17.82
	c-0.24-1.69,0.82-1.61,1.74-1.7c0.87-0.09,2.19-0.86,2.41,0.81C190.1,70.26,190.84,76.38,191.57,82.17z"/>
<path class="st0" d="M291.11,73.48c-0.1-0.11-0.19-0.22-0.29-0.34c0.64-3.43,0.42-6.86-0.05-10.28c0.71-2.26-0.37-4.64,0.46-6.9
	c1.33,0.06,2.67,0.12,4,0.19c0,0-0.02-0.03-0.02-0.03c0.03,0.31,0.06,0.62,0.09,0.93c-0.01,6.58-0.03,13.16-0.04,19.74
	c-1.32,0.01-2.63,0.02-3.95,0.03c0,0,0.02,0.02,0.02,0.02C291.26,75.73,291.18,74.6,291.11,73.48z"/>
<path class="st0" d="M225.8,59.27c1.49-0.33,1.72,0.09,1.91,1.04c0.46,2.28-0.19,4.29-0.99,6.34c-0.35,0.9-0.94,1.22-1.72,1.01
	c-1.04-0.27-0.41-1.11-0.3-1.64c0.24-1.16,1.05-2.2-0.91-2.9c-0.66-0.24-0.67-2.28-0.23-3.28C224,58.84,225.39,59.45,225.8,59.27z"
	/>
<path class="st0" d="M600.85,212.81c0-0.34-0.01-0.68-0.01-1.02C601.75,212.11,601.79,212.46,600.85,212.81z"/>
<path class="st0" d="M78.47,151.53c-0.05,5.56-0.56,10.49-2.46,15.21c-2.08,5.16-5.49,8.77-11.28,9.35
	c-5.96,0.6-10.03-2.52-12.93-7.31c-4.53-7.49-5.21-15.8-4.7-24.28c0.19-3.22,0.84-6.36,2.11-9.37c2.22-5.24,5.82-8.74,11.73-9.12
	c5.61-0.35,9.78,2.35,12.78,6.87C77.57,138.69,78.44,145.28,78.47,151.53z"/>
<path class="st0" d="M180.45,143.52c1.81,5.37,3.4,10.22,5.1,15.03c0.45,1.28,0.22,1.67-1.11,1.64c-2.87-0.05-5.75-0.02-8.62-0.01
	c-0.93,0.01-1.52-0.21-1.11-1.31C176.56,153.92,178.41,148.96,180.45,143.52z"/>
<path class="st0" d="M284.36,143.47c1.83,5.41,3.44,10.28,5.14,15.12c0.48,1.35,0.01,1.62-1.22,1.6c-2.79-0.05-5.57-0.05-8.36-0.01
	c-1.28,0.02-1.65-0.31-1.15-1.62C280.6,153.77,282.34,148.94,284.36,143.47z"/>
<path class="st0" d="M469.54,143.5c1.83,5.43,3.42,10.27,5.11,15.08c0.45,1.29,0.2,1.64-1.13,1.61c-2.78-0.06-5.57-0.02-8.35-0.02
	c-0.89,0-1.84,0.05-1.33-1.32C465.67,153.92,467.51,148.98,469.54,143.5z"/>
</svg>
