<svg width="320" height="122" viewBox="0 0 320 122" fill="none" xmlns="http://www.w3.org/2000/svg">
<path d="M121.607 39.4432C120.897 32.483 115.713 28.5057 108.681 28.5057C100.926 28.5057 94.8887 33.8324 94.8887 43.4489C94.8887 53.0227 100.784 58.392 108.681 58.392C116.664 58.392 121.082 52.9659 121.607 47.8097L114.505 47.767C114.008 50.5653 111.906 52.2273 108.823 52.2273C104.676 52.2273 102.062 49.2301 102.062 43.4489C102.062 37.8949 104.619 34.6705 108.866 34.6705C112.062 34.6705 114.15 36.5312 114.505 39.4432H121.607Z" fill="#728889"/>
<path d="M135.016 58.4062C141.876 58.4062 146.038 53.875 146.038 47.1563C146.038 40.4233 141.876 35.892 135.016 35.892C128.155 35.892 123.993 40.4233 123.993 47.1563C123.993 53.875 128.155 58.4062 135.016 58.4062ZM135.058 53.1648C132.487 53.1648 131.067 50.7216 131.067 47.1136C131.067 43.4915 132.487 41.0341 135.058 41.0341C137.544 41.0341 138.964 43.4915 138.964 47.1136C138.964 50.7216 137.544 53.1648 135.058 53.1648Z" fill="#728889"/>
<path d="M155.743 28.9034H148.796V57.9943H155.743V28.9034Z" fill="#728889"/>
<path d="M166.31 28.9034H159.364V57.9943H166.31V28.9034Z" fill="#728889"/>
<path d="M180.13 58.4062C185.854 58.4062 189.618 55.6364 190.414 51.3466L184.036 51.1619C183.496 52.6108 182.076 53.392 180.258 53.392C177.587 53.392 175.939 51.6165 175.939 48.946V48.7614H190.485V47.0284C190.485 39.8409 186.11 35.892 179.917 35.892C173.326 35.892 169.093 40.4091 169.093 47.1705C169.093 54.1591 173.269 58.4062 180.13 58.4062ZM175.939 44.7273C176.039 42.554 177.758 40.9063 180.059 40.9063C182.346 40.9063 183.993 42.4972 184.022 44.7273H175.939Z" fill="#728889"/>
<path d="M203.417 58.4062C209.553 58.4062 213.36 54.8409 213.545 49.4432H207.053C206.798 51.7585 205.406 53.0227 203.502 53.0227C201.059 53.0227 199.468 50.9631 199.468 47.0852C199.468 43.2358 201.073 41.1761 203.502 41.1761C205.491 41.1761 206.784 42.5256 207.053 44.7557H213.545C213.389 39.3864 209.468 35.892 203.403 35.892C196.542 35.892 192.394 40.4659 192.394 47.1563C192.394 53.8182 196.514 58.4062 203.417 58.4062Z" fill="#728889"/>
<path d="M228.615 36.1761H224.68V30.9489H217.734V36.1761H214.851V41.2898H217.734V51.9006C217.692 56.3182 220.561 58.5341 225.462 58.3068C227.138 58.2216 228.345 57.8807 229.013 57.6818L227.962 52.6676C227.663 52.7386 226.967 52.8807 226.442 52.8807C225.319 52.8807 224.68 52.4261 224.68 51.1335V41.2898H228.615V36.1761Z" fill="#728889"/>
<path d="M231.359 57.9943H238.305V36.1761H231.359V57.9943ZM234.839 33.6335C236.814 33.6335 238.404 32.142 238.404 30.3097C238.404 28.4773 236.814 27 234.839 27C232.879 27 231.274 28.4773 231.274 30.3097C231.274 32.142 232.879 33.6335 234.839 33.6335Z" fill="#728889"/>
<path d="M263.091 36.1761H255.776L251.742 51.2045H251.514L247.494 36.1761H240.179L247.651 57.9943H255.605L263.091 36.1761Z" fill="#728889"/>
<path d="M274.45 58.4062C280.174 58.4062 283.939 55.6364 284.734 51.3466L278.356 51.1619C277.817 52.6108 276.396 53.392 274.578 53.392C271.907 53.392 270.26 51.6165 270.26 48.946V48.7614H284.805V47.0284C284.805 39.8409 280.43 35.892 274.237 35.892C267.646 35.892 263.413 40.4091 263.413 47.1705C263.413 54.1591 267.589 58.4062 274.45 58.4062ZM270.26 44.7273C270.359 42.554 272.078 40.9063 274.379 40.9063C276.666 40.9063 278.314 42.4972 278.342 44.7273H270.26Z" fill="#728889"/>
<path d="M294.499 28.9034H287.553V57.9943H294.499V28.9034Z" fill="#728889"/>
<path d="M302.367 66.1761C307.367 66.1761 309.853 63.6477 311.06 60.0824L319.285 36.1903L311.969 36.1761L307.893 51.7443H307.665L303.645 36.1761H296.373L304.128 58.7898L303.859 59.4432C303.191 61.0767 301.685 61.1051 299.64 60.4375L298.106 65.4801C299.157 65.9063 300.705 66.1761 302.367 66.1761Z" fill="#728889"/>
<g clip-path="url(#clip0)">
<path d="M174 98C174.189 98.2049 174.433 98.5908 174.433 98.6686C174.896 100.649 174.896 102.496 172.516 103.222C170.862 103.684 167.623 101.374 167.49 99.3286C167.358 96.0947 166 96 163.06 96.2927C162.127 96.3856 161.738 96.4247 161.077 96.4907C155.588 96.9527 153.539 99.5925 154.398 105.004C154.597 106.192 154.729 107.38 154.861 108.568C155.059 110.152 154.531 111.472 152.877 111.868C151.158 112.33 150.1 111.274 149.638 109.756C148.249 105.598 146.86 101.44 145.67 97.2167C144.348 92.7288 143.224 88.109 141.967 83.1593C140.182 85.0072 140.513 87.1851 139.852 89.033C139.124 91.0129 138.661 93.1908 136.149 93.5868C133.835 93.9828 132.578 92.1349 131.388 90.6169C130.264 89.297 129.272 87.8451 127.817 85.8651C127.355 91.7389 128.082 96.7547 129.471 101.638C129.735 102.496 130.066 103.288 130.33 104.146C130.793 105.73 130.264 106.984 128.677 107.578C126.958 108.238 125.9 107.314 125.305 105.862C124.247 103.354 123.586 100.649 123.189 97.9426C122.263 92.2009 121.867 86.3931 122.197 80.5194C122.329 78.3415 121.999 75.4376 124.908 74.7776C127.751 74.1177 128.875 76.5595 130.066 78.5395C131.586 81.0474 132.777 83.7532 135.091 86.1951C135.884 82.9613 136.546 79.9914 137.273 77.0875C137.802 75.1736 138.397 73.0617 140.777 72.7317C143.29 72.4017 144.348 74.5136 145.34 76.3616C147.588 80.5854 148.183 85.3372 149.505 89.825C149.77 90.7489 150 91.5 150.762 92.7288C151.753 88.307 152.745 84.0832 153.737 79.7934C154.2 78.0115 154.729 76.1636 155.258 74.3816C155.721 72.9957 156.382 71.6758 158.167 71.7418C159.754 71.7418 160.481 72.7977 161.01 74.0517C164.118 82.0373 168.68 89.165 172.912 96.4907C173.309 97.2167 173.5 97.5 174 98ZM158.63 82.1033C158.167 83.6872 157.837 84.6112 157.638 85.5352C156.184 91.9369 156.184 91.9369 163.06 90.6169C161.738 87.9111 160.349 85.4032 158.63 82.1033Z" fill="#728889"/>
<path d="M176 97.9999C174.132 97.2166 172.913 89.2309 171.921 84.7431C171.061 80.7833 169.871 76.8895 169.21 72.8636C168.813 70.6197 169.739 69.0358 171.789 69.2998C178.136 70.0258 184.484 70.9497 189.708 75.1735C191.559 76.6915 192.948 78.6714 194.468 81.3773C194.865 77.8134 195.592 75.1076 196.849 72.5997C198.899 68.5078 202.006 66.1979 206.701 65.9999C208.684 65.9339 210.734 65.736 211.065 68.2438C211.462 70.8837 209.346 71.1477 207.428 71.4777C203.263 72.1377 201.543 73.7876 200.552 77.7474C200.089 79.6614 200.419 80.6513 202.667 80.5193C205.312 80.3873 207.957 80.3873 210.602 80.3213C212.784 80.2553 214.9 80.7833 214.834 83.3572C214.768 85.7991 212.784 85.9311 210.668 85.7331C208.684 85.5351 206.701 85.7991 204.717 85.9311C203.13 86.0631 202.535 86.723 203.924 87.911C207.098 90.5509 210.404 92.8608 214.834 92.2668C216.487 92.0688 217.611 92.5968 218.404 93.9827C219.066 95.1707 219.066 96.2926 218.272 97.3486C217.28 98.6685 215.958 98.8665 214.437 98.4705C206.569 96.6886 199.626 93.4548 195.46 85.2051C194.468 90.6169 192.617 94.9067 188.121 97.2166C183.955 99.4605 180.562 99.9139 176 97.9999ZM181.971 93.6527C187.724 93.5868 191.361 87.449 188.914 82.5652C186.6 78.0114 182.236 76.8895 177.872 75.7015C175.624 75.1076 175.095 75.7675 175.69 77.8134C176.946 82.3672 178.269 86.855 179.327 91.4748C179.657 93.2568 180.517 93.9167 181.971 93.6527Z" fill="#728889"/>
</g>
<path d="M76.3893 66.0625C76.8893 70.0625 74.6893 73.8625 71.7893 77.4625C61.5893 89.8625 40.3893 95.4625 25.3893 89.6625C14.0893 85.2625 10.1893 76.2625 15.2893 65.2625C20.0893 54.8625 27.4893 46.7625 37.3893 40.9625C40.5893 39.0625 43.4893 36.3625 47.4893 35.7625C54.7893 34.6625 60.9893 37.0625 66.0893 42.1625C72.3893 48.4625 76.3893 55.8625 76.3893 66.0625ZM37.4893 85.8625C48.2893 85.7625 59.0893 81.4625 65.5893 75.1625C69.1893 71.6625 71.0893 67.6625 70.1893 62.6625C68.7893 54.5625 64.7893 48.0625 57.8893 43.6625C54.2893 41.3625 49.7893 40.1625 46.6893 42.8625C43.2893 45.7625 39.0893 47.0625 35.6893 49.5625C30.3893 53.4625 26.2893 58.3625 22.8893 63.9625C15.9893 75.5625 19.9893 83.8625 33.4893 85.5625C35.0893 85.7625 36.7893 85.7625 37.4893 85.8625Z" fill="#728889"/>
<path d="M79.5895 91.1625C79.0895 94.0625 79.8895 96.8625 76.8895 97.2625C73.5895 97.6625 73.2895 94.8625 72.7895 92.6625C71.9895 89.0625 68.8895 84.9625 72.6895 82.0625C76.3895 79.1625 81.3895 80.6625 85.7895 81.1625C87.9895 81.3625 89.1895 83.9625 87.1895 85.6625C84.7895 87.7625 86.1895 88.2625 87.8895 89.2625C94.5895 93.2625 101.29 97.3625 107.39 102.263C109.39 103.863 111.89 105.663 109.59 108.263C107.49 110.663 105.19 109.063 103.19 107.163C96.3895 100.663 87.7895 96.8625 79.5895 91.1625Z" fill="#728889"/>
<path d="M65.5898 24.6625C65.6898 20.2625 67.7898 18.5625 70.6898 20.8625C73.0898 22.7625 73.4898 21.1625 74.1898 19.7625C77.0898 14.3625 79.9898 8.86246 82.8898 3.46246C83.9898 1.36246 85.1898 -1.13754 88.0898 0.562459C90.6898 2.06246 89.3898 4.16246 88.2898 6.16246C85.6898 10.9625 83.1898 15.8625 80.6898 20.7625C79.3898 23.2625 76.4898 25.5625 81.1898 27.9625C83.0898 28.9625 82.0898 31.4625 80.1898 32.3625C77.4898 33.5625 74.6898 34.6625 71.7898 35.3625C68.7898 36.1625 66.9898 34.5625 66.3898 31.6625C65.9898 29.2625 65.7898 26.7625 65.5898 24.6625Z" fill="#728889"/>
<path d="M15.1887 102.363C14.4887 100.963 13.2887 101.563 12.3887 101.263C10.7887 100.763 9.68866 99.7625 9.68866 98.1625C9.68866 96.4625 10.9887 95.5625 12.5887 95.2625C15.8887 94.7625 19.1887 94.9626 22.4887 95.3626C24.1887 95.5626 25.0887 96.7626 25.3887 98.3626C25.9887 101.263 26.5887 104.263 27.1887 107.163C27.4887 108.763 27.0887 110.163 25.4887 110.863C23.7887 111.563 22.3887 110.763 21.7887 109.263C20.3887 105.763 18.8887 107.663 17.5887 109.163C15.0887 112.063 12.7887 115.063 10.3887 118.063C8.88866 119.863 7.48866 122.363 4.78866 120.263C2.08866 118.063 4.28866 116.063 5.68866 114.263C8.78866 110.263 12.0887 106.263 15.1887 102.363Z" fill="#728889"/>
<path d="M14.8893 46.7625C8.48933 47.2625 7.88933 46.6625 9.78933 40.9625C10.3893 39.1625 8.98933 39.0625 8.18933 38.4625C6.08933 36.8625 3.78933 35.5625 1.58933 33.9625C-0.0106654 32.8625 -0.510665 31.2625 0.589335 29.6625C1.68933 27.9625 3.28933 27.9625 4.98933 28.9625C7.08933 30.2625 9.08933 31.7625 11.1893 33.0625C13.2893 34.3625 15.1893 37.0625 17.4893 32.6625C18.6893 30.3625 21.3893 31.4625 22.1893 34.1625C22.9893 36.8625 23.4893 39.6625 23.8893 42.4625C24.1893 44.6625 22.8893 45.8625 20.7893 46.2625C18.8893 46.4625 16.8893 46.5625 14.8893 46.7625Z" fill="#728889"/>
<defs>
<clipPath id="clip0">
<rect width="97" height="46" fill="white" transform="translate(122 66)"/>
</clipPath>
</defs>
</svg>
