<svg xmlns="http://www.w3.org/2000/svg" viewBox="0 0 729.06 291.65"><defs><style>.cls-1{fill:#728889;}</style></defs><g id="Layer_2" data-name="Layer 2"><g id="Draw_Layer" data-name="Draw Layer"><path class="cls-1" d="M20,31.52a28.12,28.12,0,0,0-5.17.65,17.6,17.6,0,0,0-4,1.44,13.59,13.59,0,0,0-3.67,2.74,26.68,26.68,0,0,0-2.64,3.26,20.32,20.32,0,0,0-2.29,4.68A31.5,31.5,0,0,0,.75,50,24.48,24.48,0,0,0,.06,57a17.25,17.25,0,0,0,2.49,8.17A22.2,22.2,0,0,0,9.6,71.35c4.09,2.51,8.57,3.81,13.17,5a116.9,116.9,0,0,1,13.36,3.81,43.13,43.13,0,0,1,6.95,4.07,33,33,0,0,1,4,3.87,27.15,27.15,0,0,1,2.1,3.57,29,29,0,0,1,1.28,4.69,38.83,38.83,0,0,1,0,6.38,19.74,19.74,0,0,1-.71,2.53,28.73,28.73,0,0,1-2.64,4.05,18.26,18.26,0,0,1-1.9,2,15.84,15.84,0,0,1-1.49.89,24.25,24.25,0,0,1-2.76.7,30.89,30.89,0,0,1-5.44,0A33.51,33.51,0,0,1,30,111.4a31.09,31.09,0,0,1-4.29-2.49,27.11,27.11,0,0,1-2.92-3,46,46,0,0,1-4.15-7.62,24.31,24.31,0,0,1-.94-3A7.69,7.69,0,0,0,4.86,91.91,7.49,7.49,0,0,0,2.6,97.35a23.2,23.2,0,0,0,1,5.56c.44,1.37,1.08,2.68,1.65,4a43.8,43.8,0,0,0,4,7.32,34.5,34.5,0,0,0,20.41,13.65,36.15,36.15,0,0,0,11.68.86,25.6,25.6,0,0,0,12.16-3.92,21.82,21.82,0,0,0,4.7-4.19c1.36-1.64,2.63-3.37,3.86-5.11,2.76-3.89,3.9-8.61,4.23-13.29a34.88,34.88,0,0,0-5.65-22.18,37.55,37.55,0,0,0-8.67-8.76,46.34,46.34,0,0,0-10.45-5.83,70.08,70.08,0,0,0-10-3.1,106.83,106.83,0,0,1-11.55-3.09,34.74,34.74,0,0,1-4.14-2.39l-.2-.19c-.08-.27-.15-.53-.21-.8a14.07,14.07,0,0,1,0-1.59,37.22,37.22,0,0,1,1.4-5.83c.23-.43.47-.84.73-1.24l.53-.57a17.48,17.48,0,0,1,2-.53,19.78,19.78,0,0,1,2.31,0,23,23,0,0,1,3,.77l.09,0,.21.39a15.46,15.46,0,0,1,.41,1.52l0,.35a7.51,7.51,0,0,0,2.05,5,7,7,0,0,0,9.93,0,6.77,6.77,0,0,0,2.06-5c-.15-1.43-.33-2.86-.55-4.29a16.41,16.41,0,0,0-1.48-4.07q-.3-.66-.63-1.32a10.47,10.47,0,0,0-1.44-2,12.31,12.31,0,0,0-3.69-3,22.7,22.7,0,0,0-4.1-1.7,21.27,21.27,0,0,0-4-.91,29.29,29.29,0,0,0-4.07-.35ZM17.65,46.84l-.43.33a4.46,4.46,0,0,1,.43-.33Zm8.19.44.18.23-.18-.23ZM15.17,56.09l.15.36c-.05-.12-.11-.24-.15-.36Zm.49.94.26.34L15.67,57Z"/><path class="cls-1" d="M223.52,152a7.43,7.43,0,0,0-2.63,10c.33.6.62,1.21.92,1.82.45,1.14.88,2.29,1.27,3.45.63,1.91,1.17,3.78,1.66,5.72a129.27,129.27,0,0,1,2.52,13.24,55.72,55.72,0,0,1,.33,12,24,24,0,0,1-.86,3.36c-.13.23-.25.45-.39.67-.14-.08-.28-.18-.41-.27-1.56-1.33-3-2.8-4.45-4.24-1-1-2.07-2-3-3-2.15-2.32-4.32-4.62-6.4-7-4.16-4.79-7.9-9.94-12.12-14.67a6.71,6.71,0,0,0-9.49,0,7.27,7.27,0,0,0-2.2,5,13.75,13.75,0,0,0,.8,4.31l1.11,3.5c.58,1.82,1.11,3.66,1.66,5.49.65,2.17,1.31,4.34,1.94,6.52l-.84-1.06-5-6.88c-2.11-2.93-4.13-5.94-6.07-9a85.65,85.65,0,0,1-5.67-10.11,25.09,25.09,0,0,1-1-3.18c0-.59,0-1.18.05-1.79l-.12.86.21-1.52a6.4,6.4,0,0,0-9.62-5.52,6.09,6.09,0,0,0-2.93,3.82,19.82,19.82,0,0,0-.09,6.74,25.1,25.1,0,0,0,1.54,4.85,78.81,78.81,0,0,0,5.64,10.82c2.73,4.5,5.73,8.83,8.77,13.14,1.63,2.32,3.26,4.63,5,6.89q3,3.9,6.09,7.67c1.63,2,3.31,3.91,5.06,5.78a12.19,12.19,0,0,0,3.37,2.75,7.07,7.07,0,0,0,5.21.68l.6-.18a6.74,6.74,0,0,0,3-1.73,8.57,8.57,0,0,0,2.85-5.41,27.43,27.43,0,0,0,.11-7.07c-.14-1.23-.33-2.46-.55-3.67,1.13,1.17,2.28,2.33,3.43,3.49a43.62,43.62,0,0,0,6.23,5.53A12.24,12.24,0,0,0,222,215.3a14.83,14.83,0,0,0,3.21.62,12.3,12.3,0,0,0,7.32-1.08,13.77,13.77,0,0,0,4.1-3.42,21.13,21.13,0,0,0,2-2.75,22.8,22.8,0,0,0,1.4-3.2,24.42,24.42,0,0,0,1.34-6.21,45.17,45.17,0,0,0,.33-6.37,112.15,112.15,0,0,0-2.06-17.7c-.5-2.84-1.07-5.63-1.7-8.44-.39-1.75-1-3.47-1.53-5.17a35.82,35.82,0,0,0-2.87-7,7.35,7.35,0,0,0-6.38-3.61,7.21,7.21,0,0,0-3.64,1Zm-48.47,15v.09h0V167Zm0,.16Zm51.76,35-.13.11h0l.14-.11Z"/><path class="cls-1" d="M262.18,145.59a10.22,10.22,0,0,0-3.12,1.51,20.72,20.72,0,0,0-2.56,2.1,15.12,15.12,0,0,0-1.32,1.56l-.22.3a7.47,7.47,0,0,0-1.65.27,8,8,0,0,0-5.14,11c-.8,1.68-1.53,3.39-2.25,5.11a41,41,0,0,0-2.77,10.09,34.09,34.09,0,0,0-.47,6.46,37.61,37.61,0,0,0,.91,6.32,30,30,0,0,0,2.18,5.91,23.46,23.46,0,0,0,3.5,4.95,27.73,27.73,0,0,0,4.63,4,21.51,21.51,0,0,0,5.36,2.73,30.84,30.84,0,0,0,11,2,24.75,24.75,0,0,0,12-3.11,18.36,18.36,0,0,0,4.83-4.26,34.36,34.36,0,0,0,2.28-3.07,20.22,20.22,0,0,0,1.52-3.43,10.46,10.46,0,0,0,.54-2.34,28.32,28.32,0,0,0,.39-3.89,22.58,22.58,0,0,0-.94-6.37,37.66,37.66,0,0,0-2.33-5.88,26.41,26.41,0,0,0-2.64-4.35,69.53,69.53,0,0,0-7.59-8.75,47.34,47.34,0,0,0-6.46-5.29h0a7.27,7.27,0,0,0,2.2-5.32,8.48,8.48,0,0,0-4.15-7.38l-.44-.19a7.74,7.74,0,0,0-4-1.07,5.63,5.63,0,0,0-.58,0,13,13,0,0,0-2.75.4Zm-.87,25.79c1,.65,2,1.32,3,2a58.32,58.32,0,0,1,7.77,7.94,30.63,30.63,0,0,1,2.69,4.47,26,26,0,0,1,1,3.26c0,.5,0,1,0,1.5-.05.23-.11.47-.18.7l-.36.58c-.36.4-.73.78-1.12,1.15l-.63.36a16.92,16.92,0,0,1-1.89.5,24.3,24.3,0,0,1-3.62,0,25.56,25.56,0,0,1-3.68-1,19.09,19.09,0,0,1-2.06-1.2,24.08,24.08,0,0,1-1.76-1.74c-.34-.53-.66-1.06-.95-1.62a25.08,25.08,0,0,1-.94-3.6,25.85,25.85,0,0,1,0-4.22,41.2,41.2,0,0,1,2.22-8l.51-1.13Z"/><path class="cls-1" d="M296,146.11a5.53,5.53,0,0,0-2.52,3.28c-.07.49-.14,1-.2,1.46a5.42,5.42,0,0,0,.75,2.78q2.56,5.67,5,11.36c2.16,5.24,4.22,10.52,6.3,15.8,1,2.6,2.11,5.18,3.18,7.76.5,1.23,1,2.46,1.51,3.69a18.38,18.38,0,0,0,3.16,5.61,5.73,5.73,0,0,0,6.94.9,5.83,5.83,0,0,0,2.33-7.35c-.48-1.26-1.12-2.47-1.71-3.69l-1.71-3.6c-1.11-2.36-2.15-4.75-3.2-7.14-1.83-4.45-3.62-8.91-5.5-13.34-2.21-5.22-4.5-10.39-6.84-15.55a5.3,5.3,0,0,0-3.28-2.53,5.45,5.45,0,0,0-1.45-.19,5.51,5.51,0,0,0-2.79.75Z"/><path class="cls-1" d="M309.57,133.3a26.47,26.47,0,0,0-6.78,2.13,28.79,28.79,0,0,0-5.73,3.89L292,143.39a7,7,0,0,0-2.13,5.15,7.27,7.27,0,0,0,7.29,7.28l1.93-.25a7.35,7.35,0,0,0,3.22-1.88l5.24-4.16a15.22,15.22,0,0,1,1.86-1.11,23.05,23.05,0,0,1,3.29-.86,36.8,36.8,0,0,1,6.12-.09,41.86,41.86,0,0,1-3.26,5.42,68.35,68.35,0,0,1-8.37,7.94q-1.65,1.39-3.32,2.76c-1.4,1-2.81,1.95-4.16,3A7.46,7.46,0,0,0,303,179.07c1.45.21,2.91.43,4.37.53,1.13.07,2.27.08,3.4.13s2.2.12,3.3.19c2.06.11,4.11.33,6.16.53,3.85.37,7.7.81,11.54,1.24s7.5.79,11.25,1.2c1.68.19,3.36.37,5,.52,2.8.24,6.2.61,8.6-1.14a7.3,7.3,0,0,0,2.66-2.66l.75-1.77a7.32,7.32,0,0,0,0-3.94c-.3-2.05-2.15-3.83-3.9-4.74a7.73,7.73,0,0,0-3.75-.92c-1.45-.19-2.93-.26-4.36-.37-1.68-.12-3.36-.27-5-.43-3.69-.35-7.39-.68-11.09-1.05-2.6-.27-5.21-.55-7.82-.79a52.43,52.43,0,0,0,4.36-5.24,44.25,44.25,0,0,0,3-5,30.81,30.81,0,0,0,1.74-4,18,18,0,0,0,.71-4.31,12.21,12.21,0,0,0-.32-3.55,11.09,11.09,0,0,0-1.6-3.74,16.6,16.6,0,0,0-6.19-5.55c-2.52-1.23-5.2-1.41-8-1.57-.45,0-.91,0-1.36,0a42.91,42.91,0,0,0-6.91.67Zm8.91,14.06h0Zm1.1.65a3.38,3.38,0,0,1,.22.52l-.22-.52Z"/><path class="cls-1" d="M355.59,126a7.4,7.4,0,0,0-3.38,4.39,7.65,7.65,0,0,0,.74,5.66c1.7,3.39,3.41,6.78,5.09,10.19,1.43,2.89,2.74,5.8,4,8.75,1.86,4.63,3.69,9.27,5.4,14,.92,2.56,1.86,5.11,2.8,7.66.44,1.18.87,2.35,1.32,3.52.82,2.13,1.64,4.71,3.4,6.29a7.7,7.7,0,0,0,7.32,1.93,7.62,7.62,0,0,0,5.54-7.26V181a7.35,7.35,0,0,0-1.09-3.85c-.41-.92-.82-1.83-1.22-2.75-3-7.21-5.66-14.54-8.62-21.75-1.61-3.94-3.25-7.88-5.14-11.69q-3.06-6.17-6.16-12.32a7.15,7.15,0,0,0-4.39-3.38,7.49,7.49,0,0,0-1.94-.26,7.35,7.35,0,0,0-3.71,1Z"/><path class="cls-1" d="M386.86,131q-2.26,2.76-4.58,5.5c-1.64,2-3.28,3.94-5,5.85a81.52,81.52,0,0,1-8.44,8.69q-.72.51-1.47,1a8,8,0,0,0,8.07,13.81c4.74-2.94,8.52-7,12.17-11.11,1.88-2.12,3.67-4.28,5.45-6.47s3.75-4.7,5.53-7.12c2.32-3.16,4.9-6.91,3.81-11a7,7,0,0,0-1.77-3.06,7.23,7.23,0,0,0-4.9-2h-.36c-3.81,0-6.32,3.32-8.53,6Z"/><path class="cls-1" d="M373.54,147.57a8,8,0,0,0-2.87,11,8.45,8.45,0,0,0,4.78,3.67q13.26,4.89,26.49,9.89c3.84,1.45,7.7,2.87,11.55,4.3,1.79.67,3.59,1.34,5.4,2a21.2,21.2,0,0,0,7.05,1.68,7.72,7.72,0,0,0,5.46-13.18,8.18,8.18,0,0,0-1.64-1.25,36,36,0,0,0-6.62-2.68c-1.81-.65-3.6-1.32-5.4-2-3.85-1.43-7.7-2.85-11.55-4.3q-13.23-5-26.49-9.89a6,6,0,0,0-2-.33,8.57,8.57,0,0,0-4.16,1.14Z"/><path class="cls-1" d="M92.35,45.55a17.23,17.23,0,0,0-9.62,3.62,35.42,35.42,0,0,0-3.5,3,32.35,32.35,0,0,0-3.43,4.14,38.56,38.56,0,0,0-4.57,8.63A33.72,33.72,0,0,0,69,74.05a37.8,37.8,0,0,0,.61,10.34,33.58,33.58,0,0,0,3,8.34A42.38,42.38,0,0,0,78.07,101a33.41,33.41,0,0,0,6.51,5.82,35,35,0,0,0,7.17,3.82c3.42,1.5,6.93,2.68,10.48,3.85a26.25,26.25,0,0,0,12.82,1.13,10.72,10.72,0,0,0,3.53-1.21,10.08,10.08,0,0,0,4.42-5.83c1-3.7-.66-7.46-2.32-10.68a7.63,7.63,0,0,0-8.6-3.5,7.86,7.86,0,0,0-5.15,4.79l-1-.31c-2.33-.77-4.66-1.52-6.93-2.42A38.33,38.33,0,0,1,92.76,93a28.22,28.22,0,0,1-3.28-3.28,36.37,36.37,0,0,1-3.27-5.68A26.74,26.74,0,0,1,85,79.58a30.34,30.34,0,0,1,0-4.67,31.5,31.5,0,0,1,1.42-5A33.18,33.18,0,0,1,89.18,65a27.94,27.94,0,0,1,2.63-2.7l.13-.09a8.53,8.53,0,0,0,4.16,1.11,8,8,0,0,0,8-8c-.1-.71-.19-1.42-.29-2.13a8,8,0,0,0-2-3.53,11.8,11.8,0,0,0-9-4.09ZM89.45,60l.38.29L89.45,60Zm3.88,1.56.39.05-.39-.05Z"/><path class="cls-1" d="M90.61,77.68l-.63.55a21.56,21.56,0,0,1-2.46,1.54,5.76,5.76,0,0,1-.59.18l-.55-.71A8,8,0,0,0,73,82.77a7.69,7.69,0,0,0,.81,6.16c.8,1.12,1.63,2.21,2.53,3.24A11.8,11.8,0,0,0,81,95a11,11,0,0,0,2.7.76,16.57,16.57,0,0,0,2.8.32,18.1,18.1,0,0,0,3.5-.43,12.44,12.44,0,0,0,2.74-.85,25.21,25.21,0,0,0,4.49-2.19A35,35,0,0,0,101.9,89c3.21-2.94,3-8.31,0-11.28a8,8,0,0,0-5.65-2.34,8.26,8.26,0,0,0-5.64,2.34Z"/><path class="cls-1" d="M120.42,43a7.76,7.76,0,0,0-2.34,5.65c.25,3.26.56,6.51.85,9.75.24,2.59.66,5.18,1,7.75a87.68,87.68,0,0,0,3.58,17.44A77.26,77.26,0,0,0,126.62,91c.54,1.16,1,2.34,1.64,3.46a35.43,35.43,0,0,0,2.64,4.59,16.29,16.29,0,0,0,2.49,2.8,29.44,29.44,0,0,0,3,2.26,19.2,19.2,0,0,0,5.57,2.36,20.92,20.92,0,0,0,5.69.56,52.24,52.24,0,0,0,6.61-.63c1.91-.26,3.79-.59,5.68-.93,2.33-.43,4.65-.93,7-1.38,1-.21,2.08-.41,3.11-.59a24.81,24.81,0,0,0,4.38-1,8.45,8.45,0,0,0,4.73-3.63,7.92,7.92,0,0,0-2.84-10.82,8.28,8.28,0,0,0-6.09-.79c-3.17.65-6.38,1.15-9.56,1.77s-6.16,1.25-9.27,1.72a34.12,34.12,0,0,1-5.25.23c-.27-.07-.55-.15-.82-.24-.43-.23-.85-.49-1.26-.76l-.09-.09a32.41,32.41,0,0,1-2.1-3.88c-.7-1.48-1.4-3-2.06-4.46A57.84,57.84,0,0,1,137.38,74a80.45,80.45,0,0,1-1.5-8.29c-.31-2.34-.61-4.68-.92-7-.43-3.34-.62-6.75-.88-10.11A8.4,8.4,0,0,0,131.74,43a8,8,0,0,0-11.32,0Z"/><path class="cls-1" d="M184,31c-3.31,4-6.66,8-9.58,12.27A37.45,37.45,0,0,0,169,54.7a34.29,34.29,0,0,0-.94,5.69,18,18,0,0,0,0,3.36,39.94,39.94,0,0,0,.8,5.43,29,29,0,0,0,3.7,8.82,48.8,48.8,0,0,0,5.43,7,49.78,49.78,0,0,0,7.67,6.53,73,73,0,0,0,14.74,8.07c3.24,1.38,6.5,2.68,9.76,4,1,.4,2,.73,3,1.09l.29.1c.24.1.48.21.73.3a6,6,0,0,0,2.86.58,7.63,7.63,0,0,0,5.37-1.37l1.61-1.24a7.91,7.91,0,0,0,2-3.51,8.07,8.07,0,0,0-2-7.74,21.68,21.68,0,0,0-3.65-3,7.18,7.18,0,0,0-6.05-.71l-.06,0c-2.17-.87-4.34-1.73-6.51-2.63-2.46-1.07-4.88-2.24-7.26-3.48a52.85,52.85,0,0,1-7.17-4.59,41.09,41.09,0,0,1-5.61-5.58A31.07,31.07,0,0,1,185,67.4a26.22,26.22,0,0,1-.94-3.61,24.72,24.72,0,0,1,0-3.22,29.76,29.76,0,0,1,1.13-4,57.44,57.44,0,0,1,5.15-8.13c1.64-2,3.3-4,5-6.06.42-.54.84-1.07,1.25-1.61a8,8,0,0,0-6.9-12A7.72,7.72,0,0,0,184,31Z"/><path class="cls-1" d="M198.39,59.93c-2.95,1.13-5.94,2.14-8.88,3.26-4,1.51-7.91,3.07-11.86,4.64l-1.91.81a8,8,0,0,0-3.68,9,8.16,8.16,0,0,0,3.68,4.79,7.73,7.73,0,0,0,6.17.8c4.08-1.63,8.16-3.24,12.26-4.8s8.32-2.84,12.28-4.72A7.75,7.75,0,0,0,210.13,69a8,8,0,0,0-5.59-9.83l-2.12-.29a8,8,0,0,0-4,1.09Z"/><path class="cls-1" d="M236.92,27.57c-2.25,1.72-4.49,3.45-6.65,5.28a41.52,41.52,0,0,0-6.41,6.84,29.25,29.25,0,0,0-5.68,17.06,27.36,27.36,0,0,0,.54,4.51,19.56,19.56,0,0,0,1.09,3.91,37.29,37.29,0,0,0,1.8,4.09,27.46,27.46,0,0,0,3,4.37,45.36,45.36,0,0,0,13,11,58.25,58.25,0,0,0,8,3.77c2.52,1,5.08,1.92,7.68,2.7a62.42,62.42,0,0,0,14.7,2.25c.95,0,1.9.11,2.85.12a40.92,40.92,0,0,0,6.24-.51l2.49-1A8,8,0,0,0,282.5,89a9.76,9.76,0,0,0,1.25-7.34c-.79-3.2-2.94-5.76-4.91-8.31a7.47,7.47,0,0,0-3.34-1.94,7.6,7.6,0,0,0-5.82.76,7.41,7.41,0,0,0-3.54,5c-.82,0-1.65-.12-2.47-.2a68.07,68.07,0,0,1-14-4.17,48.31,48.31,0,0,1-8-4.66,38.47,38.47,0,0,1-4.88-4.84,25.23,25.23,0,0,1-1.68-2.84,23.33,23.33,0,0,1-.87-3.1,18.07,18.07,0,0,1,0-2.08,25.48,25.48,0,0,1,1-3.55,26.71,26.71,0,0,1,1.84-3.15,55.26,55.26,0,0,1,7.82-7.15l.13-.1,1.62-1.25a7.92,7.92,0,0,0,2-3.53,8,8,0,0,0-5.58-9.84,8.62,8.62,0,0,0-2.28-.29,6.55,6.55,0,0,0-3.89,1.1Z"/><path class="cls-1" d="M277.71,22.64a8.05,8.05,0,0,0-2.87,10.94c3,4.91,5.79,10,8.43,15.07,2.23,4.33,4.09,8.84,6,13.32l-.81-1.91c1,2.33,1.91,4.67,2.85,7C292.46,70,293.51,73,295,75.79a7.84,7.84,0,0,0,8.83,3.59,7.92,7.92,0,0,0,5.45-9.61,40.84,40.84,0,0,0-2-5.69c-.63-1.57-1.25-3.15-1.9-4.72-1.6-3.91-3.17-7.85-4.92-11.7l-2.55-5.58c-.92-2-2.05-4-3.07-6-1.87-3.62-4-7.15-6.13-10.61a8.29,8.29,0,0,0-7-4,7.71,7.71,0,0,0-4,1.08Z"/><path class="cls-1" d="M311.18,10.75c-3.85,1.63-7.89,2.89-11.87,4.15s-7.77,2.45-11.64,3.71c-4.25,1.39-8.48,2.78-12.67,4.33-4.8,1.79-9.49,3.83-14.17,5.92a7.68,7.68,0,0,0-3.68,4.78,8,8,0,0,0,5.59,9.84l2.13.28a7.88,7.88,0,0,0,4-1.09l4.46-2c6.56-2.62,13.22-4.94,20-7.09,3.62-1.17,7.26-2.29,10.88-3.47,4.39-1.44,9-2.71,13.08-4.86a7.94,7.94,0,0,0,0-13.71l-1.89-.8a8.09,8.09,0,0,0-4.22,0Z"/><path class="cls-1" d="M346.18,8.08a28.36,28.36,0,0,0-4.51,1.82A22.22,22.22,0,0,0,338,12.43a40.67,40.67,0,0,0-7,6.34,40.29,40.29,0,0,0-4.73,6.94,32.41,32.41,0,0,0-3,8.92,30,30,0,0,0-.57,5.75,34.94,34.94,0,0,0,.67,5.68,34.06,34.06,0,0,0,3.6,9.6,41,41,0,0,0,5.16,7.25,38.82,38.82,0,0,0,7.17,6.18,41,41,0,0,0,8.41,4.45,83.66,83.66,0,0,0,8.47,3c2.89.86,5.81,1.7,8.76,2.34a50.7,50.7,0,0,0,5.33.78,18.88,18.88,0,0,0,5.3-.42,4.93,4.93,0,0,0,1-.36,10.51,10.51,0,0,0,3.87-2.24A7.94,7.94,0,0,0,383.09,72c.09-.7.18-1.39.28-2.08a7.82,7.82,0,0,0-5.74-7.54,8,8,0,0,0-7.08,1.54l-.39,0c-2.38-.42-4.71-1-7.05-1.68A91.68,91.68,0,0,1,353,58.9a39.4,39.4,0,0,1-6.37-3.72,32,32,0,0,1-4.05-4,32.94,32.94,0,0,1-3-5,29.59,29.59,0,0,1-1.33-4.7,22.75,22.75,0,0,1,0-3.09,29.93,29.93,0,0,1,1.29-4.92,31.59,31.59,0,0,1,2.68-4.37,31.71,31.71,0,0,1,3.39-3.37,7.47,7.47,0,0,0,8-1.7,35.18,35.18,0,0,0,2.56-3,8.16,8.16,0,0,0,1.32-6.83,8.39,8.39,0,0,0-1.07-2.31,9.53,9.53,0,0,0-3.23-3.05,8.14,8.14,0,0,0-4.33-1.1,10.5,10.5,0,0,0-2.7.35Z"/><path class="cls-1" d="M366.73,32.69c-1.3.69-2.63,1.29-4,1.89-2.1.85-4.19,1.69-6.31,2.48a73.26,73.26,0,0,1-11.07,3.08c-3.76.76-7.59,1.18-11.39,1.71-1.93.26-3.85,2.08-4.78,3.67a8,8,0,0,0,2.87,10.95l1.91.8a8.06,8.06,0,0,0,4.25,0c5.11-.7,10.21-1.35,15.23-2.54a68,68,0,0,0,10.21-3.43A63.93,63.93,0,0,0,374.51,46a8,8,0,0,0,3.54-4.61,7.79,7.79,0,0,0-.78-5.93,7.55,7.55,0,0,0-6.61-3.75,8.28,8.28,0,0,0-3.93,1Z"/><path class="cls-1" d="M384.27,6.64a8,8,0,0,0-4.78,3.67,7.74,7.74,0,0,0-.81,6.17c3.35,8.73,6.86,17.4,10.32,26.08,1.67,4.22,3.38,8.42,5,12.65l2.58,6.57c1.08,2.76,2.08,5.54,3.37,8.22a7.68,7.68,0,0,0,4.72,3.63,7.91,7.91,0,0,0,9.72-9.73,7.63,7.63,0,0,0-.42-1.16c-3-8.22-6.35-16.3-9.58-24.43-3.46-8.69-7-17.35-10.32-26.09-.27-.63-.54-1.27-.8-1.91a8.08,8.08,0,0,0-6.93-4,8,8,0,0,0-2.11.29Z"/><path class="cls-1" d="M397.33.55a26.63,26.63,0,0,0-5.68,2,12.78,12.78,0,0,0-4.85,4.61,26.18,26.18,0,0,0-2.16,4.09l-.81,1.91A8,8,0,0,0,393.67,23a7.68,7.68,0,0,0,4.78-3.68c.46-1,.9-2,1.42-2.89.49-.14,1-.27,1.49-.39s.82,0,1.23,0a36.52,36.52,0,0,1,6.14,1.86,50.05,50.05,0,0,1,8.45,5,33.85,33.85,0,0,1,4.28,4.1A32.77,32.77,0,0,1,424,31.46a28.61,28.61,0,0,1,1.22,4.18,25.39,25.39,0,0,1,0,3.9A35.64,35.64,0,0,1,423.39,46a35.87,35.87,0,0,1-3.24,5.31A42.91,42.91,0,0,1,414,57.55a51.12,51.12,0,0,1-8.4,5.28c-.73.26-1.46.49-2.21.69l-.3-.5a27.77,27.77,0,0,1-.69-3.26c-.06-.62-.11-1.23-.15-1.84a8.24,8.24,0,0,0-2.33-5.6,7.89,7.89,0,0,0-5.6-2.32c-4.14,0-8.16,3.6-7.93,7.92.11,1.91.36,3.79.62,5.68a21.55,21.55,0,0,0,2.43,7.77c.28.43.58.85.9,1.25.71.93,1.41,1.84,2.16,2.73a12.88,12.88,0,0,0,2.68,2.2,17.05,17.05,0,0,0,3.2,1.46c4.18,1.34,8.67.44,12.63-1.21a50.49,50.49,0,0,0,5.1-2.41,46.58,46.58,0,0,0,4.39-2.87,56.55,56.55,0,0,0,8.75-7.28,57.4,57.4,0,0,0,6.6-8.62,37.66,37.66,0,0,0,4.33-10.73,42.57,42.57,0,0,0,.91-5.61,27.36,27.36,0,0,0,.08-5.12A33.09,33.09,0,0,0,438.1,24a36.83,36.83,0,0,0-5.6-8.63,46.34,46.34,0,0,0-8.72-7.32A49.38,49.38,0,0,0,414.14,3a52.25,52.25,0,0,0-5-1.8,35.07,35.07,0,0,0-6.5-1.11,7.72,7.72,0,0,0-1,0,24.19,24.19,0,0,0-4.35.55Zm3.13,15.5-.16.06h0l.18-.06Zm-.16.06-.32.14h0l.3-.13Zm3.32,47.53h0Zm.51.57.43.18a3.25,3.25,0,0,1-.43-.18Z"/><path class="cls-1" d="M522,145.31A7.83,7.83,0,0,0,519.23,156a7.47,7.47,0,0,0,4.67,3.59c3.62.57,7.25,1.19,10.91,1.41,3.1.18,6.2.2,9.31.11a7.15,7.15,0,0,0,5-12.21l-1.44-1.12a7.15,7.15,0,0,0-3.6-1l-11.62-1.61-4.45-.7-2.08-.28a7.77,7.77,0,0,0-3.94,1.07Z"/><path class="cls-1" d="M583,152.19a8,8,0,0,0-5.59,9.84l.81,1.92a8.13,8.13,0,0,0,2.87,2.87l7.11,3-.12-.05.4.17,1.32.56c1.8.75,3.6,1.49,5.44,2.16a32.89,32.89,0,0,0,5.1,1.21,7.56,7.56,0,0,0,3.95,0,7.44,7.44,0,0,0,5.19-9.13,7.17,7.17,0,0,0-3.41-4.44c-5.57-2.57-11.25-4.92-16.9-7.31l-1.91-.81a8.24,8.24,0,0,0-4.26,0Zm7,18.39-.19-.07L588.5,170l-.28-.12c.6.25,1.19.51,1.79.75Z"/><path class="cls-1" d="M633.29,178a8,8,0,0,0-2.34,5.66,7.68,7.68,0,0,0,2.34,5.65c4.11,3.36,8.14,6.85,12.5,9.9a7.72,7.72,0,0,0,9.35-12.12c-3.32-3.26-6.95-6.16-10.54-9.09L643,176.75a7.84,7.84,0,0,0-4-1.09,8,8,0,0,0-5.66,2.34Z"/><path class="cls-1" d="M672.78,207.4a8,8,0,0,0-3.67,4.78,7.77,7.77,0,0,0,.8,6.16c1.55,2.21,3.05,4.46,4.67,6.6a36.51,36.51,0,0,0,6.32,6.93,7,7,0,0,0,3.11,1.81,7.05,7.05,0,0,0,8.68-4.93,7.25,7.25,0,0,0-.71-5.43,116.53,116.53,0,0,0-8.25-13,8.53,8.53,0,0,0-4.78-3.68,8.1,8.1,0,0,0-6.17.81Z"/><path class="cls-1" d="M713.42,247a22.13,22.13,0,0,0-6.76,1.57c-2.83,1.07-5.62,2.24-8.44,3.32a196.6,196.6,0,0,1-20.6,6.3,7.56,7.56,0,0,0,4,14.58c5.57-1.47,11.14-2.94,16.55-4.89,4.66-1.67,9.18-3.7,13.71-5.68a20.63,20.63,0,0,1,2.52-.83H715a17.81,17.81,0,0,0,4.69.52,10.14,10.14,0,0,0,8.38-4.83,6.22,6.22,0,0,0,0-6.18,6,6,0,0,0-5.29-3,18.06,18.06,0,0,0-2.26.35c-.48-.13-1-.27-1.44-.43a16.58,16.58,0,0,0-5-.79l-.71,0Z"/><path class="cls-1" d="M717.3,248a10.78,10.78,0,0,0-3.9,3.78,20.2,20.2,0,0,0-1.9,4.08c-.45,1.13-.8,2.3-1.2,3.45-.81,2.41-1.57,4.84-2.24,7.3q-.85,3.09-1.47,6.23c-3.15-1.48-6.2-3.18-9.21-4.93-4.36-2.52-8.61-5.23-12.82-8-3.42-2.22-8.24-.7-10.23,2.68a7.58,7.58,0,0,0-.75,5.76,7.74,7.74,0,0,0,3.43,4.46q7.68,5,15.57,9.57c2.09,1.21,4.28,2.32,6.46,3.38s4.47,2,6.74,2.9a12.85,12.85,0,0,1,2,1.23,5,5,0,0,0,1,.69,8.07,8.07,0,0,0,4.06,1.06,7.61,7.61,0,0,0,4.05-1.14,7.8,7.8,0,0,0,2.81-2.81,13,13,0,0,0,1-2.32,24.43,24.43,0,0,0,.4-3.54c.07-.68.14-1.37.23-2a88.3,88.3,0,0,1,2.27-9.91c.86-3.06,1.82-6.13,3-9.1,0-.11.11-.22.17-.33A10.48,10.48,0,0,0,728,258.7a7.94,7.94,0,0,0-1.22-9.5,7.81,7.81,0,0,0-3.46-2,7.22,7.22,0,0,0-2-.27A9.31,9.31,0,0,0,717.3,248Z"/><path class="cls-1" d="M708.07,260.18a6.41,6.41,0,0,0-3.56.78,5.77,5.77,0,0,0-1.86,1.59,5.24,5.24,0,0,0-1.28-.54,5.54,5.54,0,0,0-6.79,3.85,5.41,5.41,0,0,0,.55,4.25c.59.84,1.17,1.66,1.78,2.47a17.38,17.38,0,0,0,1.82,2.18,7.49,7.49,0,0,0,1.92,1.33l1.31.55a18,18,0,0,0,1.94.24,6.54,6.54,0,0,0,4.62-2.12,10.48,10.48,0,0,0,1.82-2.57,5.2,5.2,0,0,0,2.28-1.46c.38-.45.74-.91,1.09-1.39a16.25,16.25,0,0,0,.89-2.11,5.65,5.65,0,0,0-2.59-6.38,5.84,5.84,0,0,0-2.9-.76,6,6,0,0,0-1,.09Z"/></g></g></svg>