<svg xmlns="http://www.w3.org/2000/svg" viewBox="0 0 320.37 271.77"><defs><style>.cls-1,.cls-2{fill:#728889;}.cls-2{opacity:0.15;}</style></defs><g id="Layer_2" data-name="Layer 2"><g id="Draw_Layer" data-name="Draw Layer"><path class="cls-1" d="M53.66,4.4a3.33,3.33,0,0,0-1.49.74,4.62,4.62,0,0,0-1.65,2.55c-.14.49-.32,1-.48,1.45A3.33,3.33,0,0,0,51.48,13c0,1.5-.09,3-.15,4.51s-.12,3.1-.2,4.66C50.94,26.11,50.8,30,50.67,34c-.05,1.41-.06,2.81-.07,4.21,0,1.72-.08,3.44-.06,5.16L50.63,50c0,1.38.11,2.75.19,4.12q.18,2.86.35,5.75c.13,2.13.43,4.25.66,6.38.39,3.52.91,7,1.4,10.53s1.05,6.91,1.54,10.36.95,6.67,1.36,10c.17,1.36.35,2.73.51,4.1.07.57.14,1.12.25,1.67a12.29,12.29,0,0,0,.53,1.82,11.65,11.65,0,0,1,.37,1.55,3.25,3.25,0,0,0,6.36-1.35,13.47,13.47,0,0,0-.68-2.43,27.12,27.12,0,0,1-.66-4.21c-.21-1.59-.4-3.2-.61-4.79-.48-3.67-1-7.34-1.54-11-.46-3.28-1-6.55-1.46-9.84-.24-1.72-.54-3.45-.72-5.19q-.36-3.24-.71-6.49l-.15-1.4c-.2-3.06-.47-6.13-.5-9.19,0-3.93-.08-7.85,0-11.78,0-3.71.18-7.42.31-11.13.11-3.18.32-6.35.43-9.52,0-1.37.1-2.73.14-4.09,0-.69,0-1.38,0-2.07a34.47,34.47,0,0,0-.47-4.85,3.22,3.22,0,0,0-2.13-2.4,3.39,3.39,0,0,0-1.05-.17,3.05,3.05,0,0,0-.67.07Z"/><path class="cls-1" d="M142.42,0c-1.09,0-2.18.07-3.27.13-2.3.13-4.58.46-6.87.66A153.38,153.38,0,0,1,114.86.64C109.48.34,104-.16,98.67.91c-1.16.23-2.3.61-3.44.94l-2,.58-2.44.69a30.63,30.63,0,0,1-5.37.93,64,64,0,0,1-7.59-.12q-3.45-.21-6.88-.46Q64,2.93,57.11,2.13a3.25,3.25,0,0,0-2.63,5.4,3.34,3.34,0,0,0,2.24,1.08c6.43.76,12.87,1.32,19.34,1.73,1.45.09,2.9.16,4.35.22a41.7,41.7,0,0,0,9.85-.65c1.87-.38,3.71-1,5.56-1.48l2.28-.66a27.49,27.49,0,0,1,5-.94,110.27,110.27,0,0,1,11.78.33c2.68.14,5.35.22,8,.25,1.24,0,2.48.07,3.72,0l4-.12c2.65-.09,5.26-.47,7.9-.7q1.16-.08,2.31-.12a14.64,14.64,0,0,1,2.73.08c.85.17,1.7.35,2.56.49a25.82,25.82,0,0,0,2.62.26c1.57.11,3.15.18,4.72.29,0,.24.07.48.09.73.11,2.14.09,4.29.11,6.43l.06,5.45c0,3.52.09,7,.13,10.56,0,3.25.09,6.49.26,9.73q.3,5.85.52,11.69.4,10.53.33,21.05c0,3.34-.15,6.68-.26,10q-.18,5.25-.24,10.52l-.06,3.29c0,1.16,0,2.33-.14,3.49a3.27,3.27,0,0,0,3.48,4.86,3.54,3.54,0,0,0,2-1.37c.92-1.07,1-2.7,1.05-4,0-.88,0-1.76.07-2.63,0-1.63,0-3.26.08-4.88.05-3.55.16-7.09.27-10.63.23-7,.32-13.9.12-20.85-.1-3.55-.19-7.1-.33-10.65s-.33-6.89-.47-10.34c-.3-7.22-.32-14.46-.38-21.68,0-2.05,0-4.1,0-6.14,0-1.36,0-2.71-.13-4.06,0-.65-.1-1.29-.18-1.93a10,10,0,0,0-.2-1.09c-.14-.44-.29-.88-.45-1.31A4.83,4.83,0,0,0,157.6,2a5.05,5.05,0,0,0-2.48-.74C152.06,1,149,1,145.92.51A16,16,0,0,0,142.49,0Zm3,.42.15,0-.15,0ZM131.83.83h0Zm22.48,99.57a.36.36,0,0,0,0,.11h0l0-.11Zm-.17.55a.93.93,0,0,1,0,.1l0-.1Z"/><path class="cls-1" d="M58.69,100.42a3.29,3.29,0,0,0,2,4.13,22.9,22.9,0,0,0,2.85.87,24,24,0,0,0,3.89.48c1.08.07,2.16.08,3.25.11l5.57.16c3.31.09,6.62.21,9.93.38,3.61.19,7.21.41,10.82.53a83.11,83.11,0,0,0,9.47,0c2.92-.23,5.81-.68,8.7-1.11,2.37-.34,4.75-.59,7.12-.86,2.13-.13,4.26-.27,6.39-.31,2.5,0,5-.08,7.47,0s4.94.12,7.41.24,4.92.34,7.38.39a3.25,3.25,0,1,0,.39-6.49c-1.7,0-3.4-.18-5.1-.27s-3.48-.19-5.23-.25c-3.56-.1-7.12-.16-10.69-.09s-7.43.25-11.12.67c-1.7.2-3.4.37-5.09.62-2.78.41-5.54.84-8.33,1.1h-.09a108.42,108.42,0,0,1-11.4-.2c-2.94-.14-5.87-.32-8.81-.44s-6.08-.26-9.11-.34c-1.46,0-2.91-.07-4.36-.12a56.78,56.78,0,0,1-6.77-.38,23.08,23.08,0,0,1-2.44-.78,3,3,0,0,0-1-.18,3.33,3.33,0,0,0-3.1,2.21Z"/><path class="cls-1" d="M200.28,71.08a3.07,3.07,0,0,0-1.09,2.23c.18,3.75.61,7.49,1,11.23.3,3,.48,5.95.71,8.93,0-.29-.05-.58-.07-.87.12,3.31.34,6.62.32,9.94q0,3.52-.05,7c0,1.42-.1,2.83-.16,4.24-.08,1.73-.1,3.47-.22,5.2l-.48,6.43c-.23,3.13-.5,6.25-.64,9.38-.09,1.77-.25,3.55-.24,5.33s0,3.54,0,5.32c.12,3.65.36,7.3.58,11,.41,6.93.77,13.88,1,20.83.09,2.65.16,5.31.32,8,.18,3,.3,6.07.54,9.09a3.07,3.07,0,0,0,1.37,2,3.25,3.25,0,0,0,4.51-.89c.12-.26.25-.51.37-.76a3.24,3.24,0,0,0,.11-1.69c-.1-1.63-.16-3.26-.26-4.89s-.19-3.34-.26-5c-.17-3.64-.28-7.28-.43-10.92-.29-6.89-.68-13.79-1.12-20.68-.23-3.65-.28-7.3-.29-11,0-1.77.15-3.56.23-5.33s.23-3.38.34-5.07c.25-3.58.52-7.16.78-10.74.13-1.72.15-3.47.23-5.2.06-1.41.15-2.82.16-4.24,0-1.92,0-3.84,0-5.76,0-1,0-2,0-3.07-.12-3.19-.16-6.38-.4-9.56-.23-2.94-.42-5.89-.71-8.83s-.54-5.7-.78-8.55c0-.17,0-.34,0-.51a3.58,3.58,0,0,0-.81-2.35,3.28,3.28,0,0,0-2.24-1.08h-.2a3.22,3.22,0,0,0-2.15.82Z"/><path class="cls-1" d="M252.35,70.3q-5.62.39-11.23.87l-4.32.29c-1.45.09-2.9.07-4.35.09s-2.81-.11-4.21-.18l-4.32-.22c-6.22-.31-12.45-.47-18.68-.56a3.25,3.25,0,1,0-.39,6.49q11,.17,22.07.73a81.72,81.72,0,0,0,9.26.15c3.85-.25,7.69-.55,11.53-.87l4.77-.34a66.89,66.89,0,0,1,12.33.44c3.57.42,7.14.85,10.71,1.23a94.14,94.14,0,0,0,10.6.68,34.72,34.72,0,0,0,5.77-.45c1.63-.29,3.26-.6,4.9-.83,1.14-.16,2.27-.31,3.4-.43l1.39-.06a10.14,10.14,0,0,1,1.9.21l2.55.56a10.36,10.36,0,0,0,2.88.33,7.06,7.06,0,0,0,2.67-.6,3.24,3.24,0,0,0-2.65-5.91l-.18,0a8.59,8.59,0,0,1-1-.09c-1.36-.3-2.72-.59-4.08-.85a13.43,13.43,0,0,0-3.35-.1c-.95,0-1.9.16-2.86.26-2.84.31-5.65,1-8.49,1.34-1.34.08-2.67.12-4,.09-1.76,0-3.49-.15-5.24-.28-1.5-.11-3-.3-4.47-.47l-5-.56c-2-.23-4-.49-6-.68-2.7-.26-5.41-.44-8.12-.44-1.26,0-2.53,0-3.8.13Zm-5.1,6.82-.37,0,.37,0Z"/><path class="cls-1" d="M312.56,181.8c-2.87.35-5.69,1-8.57,1.27l.86-.06c-2,.14-4,.38-6,.61a35.22,35.22,0,0,1-4.35-.16c-1.61-.14-3.22-.24-4.84-.23s-3.35.06-5,.15-3.38.14-5.08.15-3.24,0-4.85,0-3.39-.06-5.08,0c-3.5,0-7,0-10.5-.05-3.32,0-6.64-.28-10-.41-3.53-.13-7.05-.26-10.57-.22s-7.06.28-10.59.37c-1.76,0-3.51.11-5.27,0l-5.34-.31c-3.84-.23-7.67-.43-11.5-.63a3.25,3.25,0,0,0-.39,6.49q5.72.3,11.43.62l5.24.31c1.78.11,3.54.05,5.32,0,3.47-.08,6.93-.34,10.4-.37s7,.07,10.57.21,6.8.35,10.2.42c1.84,0,3.67,0,5.51,0,1.59,0,3.17,0,4.76,0s3.39,0,5.08,0,3.31,0,5,0,3.35,0,5-.13,3.33-.17,5-.17c1.26,0,2.53,0,3.79.12s2.43.22,3.65.27a25.25,25.25,0,0,0,4.43-.21c1.24-.16,2.47-.31,3.71-.41l-.39,0c1.64-.13,3.26-.31,4.89-.57.71-.11,1.41-.27,2.11-.4.9-.17,1.82-.28,2.73-.39a3.22,3.22,0,0,0,2-1.37,3.28,3.28,0,0,0-.9-4.52,3.17,3.17,0,0,0-1.81-.52,5.16,5.16,0,0,0-.67.05Z"/><path class="cls-1" d="M308.53,80.61a3.25,3.25,0,0,0-1.6,1.85A3.49,3.49,0,0,0,307.1,85l.06.16a19.7,19.7,0,0,1,.76,2.93c.18,1,.27,2,.36,3,.13,2.13.3,4.26.38,6.38q.16,3.92.31,7.82c.2,4.84.59,9.67.95,14.5q.22,3,.44,6c.24,3.39.46,6.77.58,10.17.05,1.68,0,3.37,0,5.06s-.12,3.25-.12,4.87,0,3.48,0,5.2.15,3.62.25,5.43c.2,3.52.38,7,.6,10.56s.38,7,.75,10.56c.16,1.54.38,3.06.66,4.58s.66,3,.86,4.53a3.16,3.16,0,0,0,1.37,2,3.28,3.28,0,0,0,2.48.47,3.24,3.24,0,0,0,2-1.37,3.49,3.49,0,0,0,.48-2.48c-.24-1.8-.71-3.57-1-5.36s-.51-3.62-.67-5.44c-.45-6.56-.85-13.12-1.15-19.68-.09-1.83-.18-3.65-.18-5.48s0-3.85.05-5.78c.09-3.34.15-6.69,0-10-.17-3-.36-5.91-.58-8.87l.06.87c-.15-2-.29-4.08-.44-6.12s-.32-4.24-.48-6.37q-.39-6.69-.66-13.38c-.08-2-.2-3.92-.32-5.89-.05-1-.12-2-.17-3a44.19,44.19,0,0,0-.55-4.73A23.09,23.09,0,0,0,312.9,82a3.11,3.11,0,0,0-1.85-1.61,3.39,3.39,0,0,0-1.05-.17,3.28,3.28,0,0,0-1.47.35Zm7.29,31.71c0,.15,0,.31,0,.46,0-.15,0-.31,0-.46Zm-5.91,7.27.07,1c0-.07,0-.13,0-.19l-.06-.78Zm6.47.15c0,.09,0,.18,0,.27l0-.27Zm-6.05,5.61,0,.28a2.64,2.64,0,0,1,0-.28Z"/><path class="cls-1" d="M5,143.18A3.3,3.3,0,0,0,2.53,147c1.29,7.8,2.52,15.61,3.76,23.42q1.8,11.37,3.85,22.66,1.83,10,3.43,20.11c.58,3.65,1.08,7.3,1.55,11s1,7,1.64,10.55,1.36,6.89,2.08,10.33c.39,1.87.79,3.75,1.21,5.62l.51,2.25c.26,1.17.32,2.69,1.21,3.57a3.35,3.35,0,0,0,3.11,1,3.26,3.26,0,0,0,1.48-.75,3.11,3.11,0,0,0,1.09-2.23c0-.32,0-.63-.05-.95a4,4,0,0,0-.45-1.83,2.56,2.56,0,0,0-.05-.27c-.18-.81-.37-1.63-.55-2.44q-.6-2.67-1.15-5.34c-.68-3.25-1.37-6.48-2-9.74-.33-1.76-.66-3.5-.92-5.26s-.52-3.5-.75-5.25c-.47-3.66-.95-7.32-1.54-11-1.08-6.8-2.22-13.6-3.46-20.37q-2.05-11.28-3.84-22.59c-1.27-7.95-2.51-15.91-3.83-23.85A3.25,3.25,0,0,0,5,143.18Z"/><path class="cls-1" d="M116.24,131.67a5.52,5.52,0,0,0-1.59.27c-.52.18-1,.36-1.57.51a22.3,22.3,0,0,1-3.8.62c-2.52.25-5,.73-7.51,1-3.21.12-6.41-.12-9.61-.28-3.49-.17-7-.4-10.49-.42-1.75,0-3.51-.05-5.26.06-1,.07-2.1.1-3.13.23s-1.94.24-2.91.38c-3.49.48-7,1-10.48,1.52s-7,.78-10.49,1.12c-2.49.18-5,.35-7.47.48-3.18.17-6.36.34-9.55.56-1.54.11-3.09.16-4.63.33l-5.41.62a36.29,36.29,0,0,0-4,.69,23.15,23.15,0,0,0-3.13,1,12.34,12.34,0,0,0-2.59,1.24c-1.62,1.08-3.19,2.25-4.76,3.4a3.15,3.15,0,0,0-1.09,2.23,3.28,3.28,0,0,0,.81,2.36,3.31,3.31,0,0,0,2.24,1.09,3.48,3.48,0,0,0,2.35-.82c1.18-.86,2.35-1.73,3.55-2.56a11.18,11.18,0,0,1,2.12-1c3.68-1.19,7.6-1.43,11.42-1.86,3.19-.22,6.38-.44,9.58-.61,3.66-.19,7.31-.43,11-.68,7.11-.48,14.15-1.61,21.2-2.61,1.26-.18,2.53-.35,3.79-.5s2.67-.17,4-.16c2,0,3.95,0,5.93.12,3.52.12,7,.32,10.55.5,1.64.08,3.27.15,4.91.13a38.89,38.89,0,0,0,5.49-.49c1.56-.24,3.13-.53,4.71-.68a25.19,25.19,0,0,0,4.24-.71c.23,1.07.41,2.15.61,3.22.28,1.52.57,3,.85,4.55q1,5.46,2.06,10.9c1.35,6.94,3,13.83,4.63,20.71.85,3.53,1.76,7,2.67,10.57.81,3.14,1.51,6.31,2.22,9.48.76,3.36,1.56,6.72,2.52,10,.88,3.07,1.82,6.11,2.8,9.15,1.21,3.74,2.6,7.43,3.72,11.19a62.53,62.53,0,0,0,2.28,6.36,31,31,0,0,0,1.37,2.84c.27.5.57,1,.86,1.47a3.3,3.3,0,0,0,3,3.4,3.44,3.44,0,0,0,3.59-2.23,4.13,4.13,0,0,0-.52-3.5c-.44-.78-.9-1.54-1.32-2.33a43.39,43.39,0,0,1-2.27-5.24c-.44-1.32-.84-2.64-1.26-4s-1-2.83-1.43-4.25c-1-3.09-2.1-6.17-3.05-9.28s-1.83-6.19-2.65-9.31c-.86-3.29-1.54-6.63-2.31-9.94-.81-3.52-1.71-7-2.6-10.52s-1.67-6.8-2.49-10.21c-1.67-7-3.13-14.13-4.5-21.22-.51-2.61-1-5.21-1.45-7.82l-.75-4c-.12-.67-.27-1.34-.41-2a8,8,0,0,0-1.46-3.62,3.86,3.86,0,0,0-2-1.34,2.1,2.1,0,0,0-.84-.17,1.51,1.51,0,0,0-.3,0Z"/><path class="cls-1" d="M143.11,235.17l-.49.37a11.35,11.35,0,0,1-1.8.85c-.85.27-1.7.54-2.53.88-.66.27-1.3.59-1.95.87a15.91,15.91,0,0,1-2.73.55c-1.68.09-3.35.17-5,.37a47.14,47.14,0,0,0-4.86.88c-1.44.33-2.8.93-4.24,1.23a41.27,41.27,0,0,1-4.41.7c-1.8.07-3.61.12-5.41.26s-3.34.28-5,.45c-3.36.35-6.73.7-10,1.32-3.57.65-7.13,1.34-10.67,2.11-1.64.35-3.28.74-4.93,1.06s-3.37.62-5,1c-3,.63-6,1.3-9.06,2s-5.92,1.07-8.9,1.5c-5.82.84-11.68,1.34-17.54,1.82l-8.38.53a3.47,3.47,0,0,0-2.35.81,3.23,3.23,0,0,0-1.09,2.23,3.29,3.29,0,0,0,.81,2.36,3.15,3.15,0,0,0,2.24,1.09c4.34-.26,8.67-.54,13-.9,3.37-.27,6.75-.55,10.1-1,3.6-.46,7.22-.85,10.77-1.55,3.4-.67,6.78-1.48,10.17-2.19,3.15-.64,6.3-1.22,9.44-1.9,2.89-.63,5.77-1.27,8.68-1.81,3.11-.57,6.22-1.17,9.37-1.54s6-.67,9-.92c1.92-.1,3.84-.12,5.75-.28a34.07,34.07,0,0,0,5.32-.85c.82-.21,1.62-.46,2.43-.72s1.87-.53,2.82-.74a35.83,35.83,0,0,1,4.74-.68,31.85,31.85,0,0,0,5.26-.48,28.5,28.5,0,0,0,4.89-1.83c.86-.28,1.73-.55,2.57-.89a13.72,13.72,0,0,0,3.38-2,3.26,3.26,0,0,0,.27-4.59,3.11,3.11,0,0,0-2.38-1.07,3.53,3.53,0,0,0-2.2.79Z"/><path class="cls-2" d="M2.68,156.54A6.22,6.22,0,0,0,1.46,160a43.47,43.47,0,0,0-.7,6.33q-.2,3.78-.15,7.58C.7,179,.86,184.05,1,189.12c0,1.93-.05,3.85-.17,5.79-.15,2.42-.47,4.82-.66,7.24a124.76,124.76,0,0,0,.13,15.1c0,1.51-.12,3-.13,4.52q0,3.55,0,7.09c.06,2.18.16,4.33.28,6.51l.12,1.9c0,1.29-.08,2.58-.13,3.87,0,1.08-.12,2.17-.17,3.24-.18,3.48-.27,7.29.89,10.63a10.27,10.27,0,0,0,3.19,5.32,7.33,7.33,0,0,0,.63.4s0,.09,0,.14a14.15,14.15,0,0,0,1.67,5.61c1.39,2.86,4.71,4,7.65,4.32a84.71,84.71,0,0,0,8.58.44,21,21,0,0,1,3.05.48,7.55,7.55,0,0,0,3.46-.58,37.93,37.93,0,0,0,4.28-1.23c1.56-.57,3.1-1.14,4.68-1.61,2.82-.64,5.69-1,8.53-1.43,3.8-.62,7.63-.74,11.44-1.26a44.55,44.55,0,0,0,6-1.23c1.5-.41,3-1,4.43-1.5s3-1,4.44-1.6,2.74-1.14,4.17-1.58a48.49,48.49,0,0,1,11.35-.91,45,45,0,0,0,5.57-.24,39.72,39.72,0,0,0,6.43-1.67,40.12,40.12,0,0,0,9.44-3.55c.75-.41,1-1.58,1-2.33s-.06-2.49-1.11-2.58a21.84,21.84,0,0,0-3.23-.15c-1.11.07-2.22.25-3.32.39a43.88,43.88,0,0,0-5.68,1.24,26.63,26.63,0,0,1-6.66.62c-2.56-.06-5.12-.4-7.66-.69a61.3,61.3,0,0,0-6.35-.52c-2,0-3.9.06-5.85.13s-3.86.35-5.79.5a41.88,41.88,0,0,1-6.72,0,73.56,73.56,0,0,0-7.57-.44c-2.32,0-4.63.33-7,.39a67.46,67.46,0,0,0-6.81.42c-1.29.16-2.6.21-3.9.32a9.44,9.44,0,0,1-2.6-.1c-.62-.37-1.19-.82-1.79-1.25A9.62,9.62,0,0,0,26,247.79c.08-.67.15-1.33.21-2a33.78,33.78,0,0,0,0-4.83c0-.73-.1-1.46-.21-2.18a36.66,36.66,0,0,0-1.54-6.32A13.78,13.78,0,0,0,23,229.33a4.19,4.19,0,0,0-3-2.18,1.49,1.49,0,0,0-.36-.05,10.82,10.82,0,0,0-1.1-2.36,3.58,3.58,0,0,0-2.49-2c.17-2.22.32-4.43.47-6.65.31-4.84.4-9.69.52-14.54.08-3.59.06-7.18-.11-10.77-.05-1.21-.11-2.41-.21-3.62-.2-2.6-.46-5.5-1.92-7.7a4,4,0,0,0-3-2.25,3.41,3.41,0,0,0-2.61,1.11c-.14-2.11-.34-4.21-.49-6.31-.24-3.17-.39-6.35-.74-9.52-.1-.87-.55-2.62-1.54-2.89a8.1,8.1,0,0,0-.87-2.91,1.59,1.59,0,0,0-1.38-1,2,2,0,0,0-1.45.79ZM.26,231.43c0-.85,0-1.71,0-2.57,0-.52,0-1,0-1.56l.08,4.13Z"/><path class="cls-2" d="M197.35,95.13c-2,1.05-2.35,4.15-2.62,6.09-.19,1.34-.17,2.73-.25,4.08-.06,1.1-.14,2.21-.21,3.31-.17,2.45-.41,4.89-.65,7.33a10.25,10.25,0,0,0,.36,3.57s0,.1.05.15q-.25,3.21-.58,6.42c-.41,4.09-.81,8.18-1.09,12.28-.12,1.75-.27,3.5-.33,5.25-.08,2-.06,4,0,5.94a37.79,37.79,0,0,0,1.06,6.22c.18,1,.34,1.93.46,2.9s.22,2.16.28,3.25c-.06,2.63-.27,5.26-.29,7.89,0,3.17,0,6.34,0,9.5l0-1.24c0,2.15,0,4.28-.1,6.43a44.16,44.16,0,0,0,1.71,14.09,16.81,16.81,0,0,0,4.59,7.54,9.25,9.25,0,0,0,3.06,1.43c.48.18,1,.33,1.47.48a17,17,0,0,0,4.21.49c2.62.1,5.25.19,7.87.3,4.89.22,9.81.26,14.71.12,2.51-.07,5,.05,7.51.13s4.95,0,7.42-.13c2.27-.13,4.52-.23,6.79-.16,2.44.09,4.87.27,7.3.33a48.82,48.82,0,0,0,6.73-.38c2.1-.24,4.22-.34,6.31-.67a31.13,31.13,0,0,0,8.32-2.68,49.45,49.45,0,0,1,6.42-2.58,45.44,45.44,0,0,0,6.2-2.25c2.36-1.1,4.71-2.2,7-3.36,2-1,2.56-4.31,2.67-6.23a11.46,11.46,0,0,0-.41-4l-.63-1.5a2.53,2.53,0,0,0-1.91-1.41l-.25-.1c-1.26-.51-2.52-1-3.82-1.43a28.5,28.5,0,0,0-3.65-.76c-2.26-.41-4.5-.95-6.75-1.37a18.87,18.87,0,0,0-7.22.26,35.37,35.37,0,0,1-7,.53,64.57,64.57,0,0,0-7.08.59,70.07,70.07,0,0,1-7.25.29c-2.57,0-5.16.09-7.73.35s-5,.63-7.52.83c-3,.21-5.92.27-8.87.53-2.78.26-5.55.56-8.34.74s-5.84.32-8.76.35c-1.46,0-2.93,0-4.39,0a26.84,26.84,0,0,1-6.46-.57l-.07,0c0-.42-.09-.84-.12-1.25-.07-5.22-.38-10.42-.55-15.63a88.63,88.63,0,0,0-.47-12.52,65.87,65.87,0,0,0-1.48-7.63c-.37-1.41-.81-2.81-1.18-4.22-.2-1.69-.29-3.38-.34-5.08,0-5.62.07-11.26.2-16.88.08-3.08.17-6.16.19-9.24,0-2.18,0-4.35,0-6.53-.09-3.1,0-6.28-1.59-9.07a2.35,2.35,0,0,0-2-1.35,2,2,0,0,0-.94.24Zm-4.75,58,.42,2.18-.42-2.18Z"/><path class="cls-2" d="M156.86,59.67a6.72,6.72,0,0,0-1.19,3.74c-.21,2.85-.31,5.68-.27,8.54a48.28,48.28,0,0,0,1.47,11c.74,3,1.55,5.9,2.46,8.82.8,2.57,1.71,5.09,2.34,7.7q.09.66.15,1.32c0,.11,0,.21,0,.32a7.22,7.22,0,0,1-1,.42,11,11,0,0,1-2.92-.11,11.29,11.29,0,0,0-3-.11c-1.06.15-2.1.24-3.16.31a28.34,28.34,0,0,0-6,1.48c-2.16.46-4.39.72-6.58,1s-4.57.49-6.86.66c-2.49.18-5,.3-7.47.51s-4.88.6-7.33.79c-5.36.42-10.74.75-16.11,1a63.56,63.56,0,0,0-7.67.84c-1.57.27-3.12.59-4.7.76a23.47,23.47,0,0,1-5.09-.32c-7.51-.87-14.57-3.6-21.83-5.55A2.6,2.6,0,0,0,60.05,104a9.83,9.83,0,0,0-1.76,5.51,12.24,12.24,0,0,0,.42,4.13c.46,1.46,1.1,2.6,2.63,3,3.11.84,6.17,1.76,9.23,2.78,2.46.83,4.92,1.61,7.41,2.33s4.88,1.29,7.34,1.8c.94.2,1.88.4,2.84.52A13.79,13.79,0,0,0,91,124c1.38-.1,2.75-.16,4.13-.18,2.7,0,5.41.25,8.1.44s5.2.35,7.8.56,4.93.43,7.4.4,4.84-.25,7.27-.32c3.67-.1,7.35-.1,11-.29a44.26,44.26,0,0,0,12.16-1.88,13,13,0,0,0,4-1.9,8.81,8.81,0,0,1,1.2-.91,9.54,9.54,0,0,1,1.38-.52,10.36,10.36,0,0,0,3.64-2.9c.63-.67,1.27-1.33,1.93-2a28.68,28.68,0,0,0,2.63-2.41,14.36,14.36,0,0,0,3.2-6.53,27.9,27.9,0,0,0-.54-13.76c-.83-3-1.85-6-2.76-8.93-.87-2.82-1.57-5.67-2.2-8.55a89.55,89.55,0,0,1-1-12.13c0-1.09-.63-3.26-2-3.35a1.78,1.78,0,0,0-1.44.82Zm4.93,41.63h0l-.1.09.1-.09Zm-.19.57-.1.18.1-.18Z"/><path class="cls-1" d="M88.58,30.51l-3.13,1.58c-2.94,1.47-5.88,3-9,4.23-.54.18-1.09.34-1.64.47a6.62,6.62,0,0,0-.94-1.55,4.36,4.36,0,0,0-1.68-1.09,4,4,0,0,0-2.55,0A5,5,0,0,0,68,35l-.7.58c-.35.3-.69.62-1,.93A3.25,3.25,0,0,0,70,41.81a3.76,3.76,0,0,0,.88.77,8.33,8.33,0,0,0,1.49.68,7.52,7.52,0,0,0,3.91-.12A28,28,0,0,0,79.7,42c2.24-.86,4.39-2,6.54-3.07,1.2-.58,2.38-1.18,3.57-1.77l0,0a4.13,4.13,0,0,0,2.31,2.26,9.49,9.49,0,0,0,2.65.33c1,0,2-.11,3.07-.22.73-.08,1.47-.22,2.2-.33,2.55-.39,5.06-1.13,7.62-1.42H108c.59.18,1.16.42,1.74.63a11.16,11.16,0,0,0,4,.47,52,52,0,0,0,5.57-.56c2.07-.26,4.11-.59,6.15-1A3.25,3.25,0,1,0,124,31.06c-3.23.6-6.49,1.09-9.76,1.39a15.3,15.3,0,0,1-2.25-.06c-.81-.26-1.58-.61-2.4-.81a9.8,9.8,0,0,0-3.89,0c-1,.16-2.07.37-3.1.57-2,.39-4,.82-6,1.07a3.68,3.68,0,0,0,.15-1.09A3.42,3.42,0,0,0,96,29.76a3.27,3.27,0,0,0-2.24-1.09h-.28c-1.73,0-3.39,1.08-4.9,1.85Zm18.81,7.33h0Z"/><path class="cls-1" d="M269.65,93.29a12.3,12.3,0,0,0-1.35.12c-.82.1-1.62.24-2.43.4-1.41.29-2.79.72-4.18,1.11l-4.77,1.35q-5,1.44-10,3c-1.5.45-3,.87-4.51,1.3a55,55,0,0,1-7.16,1.65,3.49,3.49,0,0,0,.16-1.91,3.32,3.32,0,0,0-1.38-2,3.28,3.28,0,0,0-2.48-.47,3.42,3.42,0,0,0-2,1.37c-.49.62-1,1.25-1.46,1.89-.28.38-.52.78-.76,1.18a4.78,4.78,0,0,0-.7,2,4.39,4.39,0,0,0,.47,2.07,4.84,4.84,0,0,0,3,2.17,10.19,10.19,0,0,0,3.39.38,35.07,35.07,0,0,0,7.25-1.13c2-.49,4-1.11,6-1.68,1.55-.44,3.08-.91,4.62-1.38,3.25-1,6.53-1.9,9.8-2.84l3.21-.9a4.12,4.12,0,0,0-.29,2.49,4.29,4.29,0,0,0,.87,1.81,4.61,4.61,0,0,0,.85.8l1.09.54A14.23,14.23,0,0,0,270,107c1.21,0,2.44-.13,3.64-.22,1.61-.13,3.21-.41,4.8-.65,1.79-.28,3.57-.55,5.36-.85,1.55-.26,3.08-.62,4.63-.91a3.15,3.15,0,0,0,1.9-.79,3.24,3.24,0,0,0-2-5.67,18.42,18.42,0,0,0-3.54.58c-1.12.22-2.24.42-3.37.59-2.71.43-5.44.93-8.18,1.23a7.06,7.06,0,0,0,.5-1.2,7.58,7.58,0,0,0,.28-1.58,4.23,4.23,0,0,0-.44-2l-.65-1a4.67,4.67,0,0,0-1.7-1.07,4.15,4.15,0,0,0-1.44-.21Zm-1.89,3.56-.15.31.15-.31Zm2.07,2.94.16,0-.16,0Z"/><path class="cls-1" d="M244.15,120.32c-2.49.35-5,.7-7.5,1a25.83,25.83,0,0,1-2.64,0,3.25,3.25,0,1,0-.39,6.48A49.84,49.84,0,0,0,243,127c1.81-.23,3.62-.53,5.43-.73a59,59,0,0,1,6.23.21l8.28.52a3.25,3.25,0,1,0,.39-6.49l-6.88-.43c-2-.13-4-.28-6-.34H250a42.15,42.15,0,0,0-5.83.56Z"/><path class="cls-1" d="M111,158.67a22.75,22.75,0,0,0-3.43.89l-3.43,1c-1.1.31-2.2.59-3.3.88a26.89,26.89,0,0,1-3.45.65l-1.33.14a42,42,0,0,1-8.24-.26c-.46-.11-.91-.22-1.36-.36l-.6-.25a6.35,6.35,0,0,0-1.56-.38,6.77,6.77,0,0,0-2.48.27c-.3.07-.58.16-.87.24-1.49.41-3,1-4.39,1.49-3.24,1.18-6.41,2.51-9.62,3.72l-1.74.62L66,167a11.12,11.12,0,0,1-1.08.33c0-.19,0-.38.08-.57s0-.29,0-.44a5.25,5.25,0,0,0,0-1.64,3.81,3.81,0,0,0-1.46-2.32,3.42,3.42,0,0,0-3.45-.25,18.65,18.65,0,0,0-1.8,1.19,19.42,19.42,0,0,1-2.81,1.41,23.76,23.76,0,0,1-3.72.82c-.25,0-.49,0-.73-.06a19.89,19.89,0,0,1-2.94-.88c-.26-.16-.5-.32-.74-.49l-.1-.13a4.92,4.92,0,0,1-.24-.45,5.46,5.46,0,0,0-.8-1.3,4.62,4.62,0,0,0-1.6-1.13,4.42,4.42,0,0,0-1.49-.27A8.68,8.68,0,0,0,39,162.32l-4.64,2.54c-1.55.85-3.1,1.67-4.68,2.47-1.77.88-3.61,1.62-5.46,2.33a3.09,3.09,0,0,0-1.6,1.85,3.27,3.27,0,0,0,.17,2.51,3.23,3.23,0,0,0,1.85,1.61,3.48,3.48,0,0,0,2.52-.17c.93-.36,1.84-.73,2.75-1.11.61-.25,1.22-.48,1.81-.77,1.41-.71,2.82-1.41,4.21-2.17l3.76-2c.83-.46,1.65-.94,2.48-1.38a6,6,0,0,0,.67.76,11.7,11.7,0,0,0,4.81,2.57c.62.18,1.25.32,1.89.45q.63.13,1.26.24a6.59,6.59,0,0,0,1.72,0,20,20,0,0,0,2.42-.38,21.88,21.88,0,0,0,3.46-1,3.12,3.12,0,0,0,.26.66,4.89,4.89,0,0,0,4.27,2.9,5.3,5.3,0,0,0,.89,0c.64,0,1.25-.1,1.88-.2a18.32,18.32,0,0,0,3-1l-.27.09c2.57-.91,5.09-1.95,7.64-2.94l4-1.51a26.47,26.47,0,0,1,3.67-1.06,13.44,13.44,0,0,0,1.89.61,26.78,26.78,0,0,0,4.08.61c1.3.1,2.61.07,3.92.07.82,0,1.64-.06,2.46-.1a32,32,0,0,0,4.57-.53c2-.39,3.92-1,5.86-1.54l2.71-.78a19.6,19.6,0,0,1,3.1-.8,3.12,3.12,0,0,0,2-1.37,3.25,3.25,0,0,0,.48-2.48,3.21,3.21,0,0,0-1.37-2,3.12,3.12,0,0,0-1.82-.52,5.07,5.07,0,0,0-.66,0Zm-26.9,8.81.16,0-.16,0Z"/><path class="cls-1" d="M92,179.77a8.54,8.54,0,0,0-1.61.56l-1,.37c-2.08.79-4.13,1.64-6.19,2.48C78.51,185.1,73.74,187,69,189a3.25,3.25,0,0,0,.42,6,3.39,3.39,0,0,0,2.52-.18q5.49-2.3,11-4.52c2.27-.92,4.53-1.86,6.81-2.77a4.47,4.47,0,0,0,.33,1.1c1.24,2.89,4.55,3.81,7.45,3.81a3.31,3.31,0,0,0,2.35-.81,3.25,3.25,0,0,0-2-5.67,13.24,13.24,0,0,1-1.42-.07l-.15,0,.09-.33a11.81,11.81,0,0,0,.35-1.54,3.72,3.72,0,0,0-.34-2.25c-.19-.3-.39-.59-.59-.88a3.15,3.15,0,0,0-1.38-.92,2.91,2.91,0,0,0-1.27-.27,8.23,8.23,0,0,0-1.19.11Zm3.29,5.56.14.13a.86.86,0,0,1-.14-.13Z"/><path class="cls-1" d="M79.07,71.52l-.36.07a22.62,22.62,0,0,0-2.27.66c-.48.16-1,.33-1.42.53a7.63,7.63,0,0,0-1.25.77,8.3,8.3,0,0,0-1.71,1.74,11.63,11.63,0,0,0-1.31,2.46A10.62,10.62,0,0,0,70,80.94a11.11,11.11,0,0,0,.06,1.63c0,.6.09,1.18.16,1.77a19.84,19.84,0,0,0,1.3,5.09c.19.48.38.95.6,1.42a10.63,10.63,0,0,0,1.58,2.31,7.55,7.55,0,0,0,1.51,1.25,6.15,6.15,0,0,0,1.82.73,9.54,9.54,0,0,0,3.37.15A14.18,14.18,0,0,0,83,94.74a13.05,13.05,0,0,0,3-1.2,14.88,14.88,0,0,0,2.26-1.63,17.54,17.54,0,0,0,2.15-2.32,14.31,14.31,0,0,0,2.91-6.41,12.4,12.4,0,0,0,.09-3.44,13.15,13.15,0,0,0-.82-2.88,9.26,9.26,0,0,0-3.23-4.3,9.74,9.74,0,0,0-2.41-1.16A10.83,10.83,0,0,0,84,70.88c-.9-.06-1.81-.07-2.71-.08h0a3.51,3.51,0,0,0-2.16.72Zm1,6.43a3.37,3.37,0,0,0,1.34-.66,26.92,26.92,0,0,1,3,.16,8.52,8.52,0,0,1,1,.33,3.77,3.77,0,0,1,.39.26c.12.13.23.27.34.4a9.89,9.89,0,0,1,.57,1.24,7.59,7.59,0,0,1,.26,1.07,13.61,13.61,0,0,1-.1,1.56,15.12,15.12,0,0,1-.67,1.85A13.74,13.74,0,0,1,85,85.87a14.17,14.17,0,0,1-2,1.82,9.55,9.55,0,0,1-1.28.64,15.31,15.31,0,0,1-2.5.56c-.22,0-.43,0-.64,0l0,0c-.13-.14-.26-.28-.38-.43a12.8,12.8,0,0,1-.76-1.64,23.27,23.27,0,0,1-.91-4.31,11.31,11.31,0,0,1,0-1.54c.13-.42.27-.82.44-1.23a7.34,7.34,0,0,1,.48-.75,2.09,2.09,0,0,1,.22-.2,4.53,4.53,0,0,1,.59-.28c.59-.19,1.19-.36,1.79-.5Zm-2,10.67.2.1-.2-.1ZM79,89h0Z"/><path class="cls-1" d="M104.85,75.75a17.43,17.43,0,0,0-2.43,1.15,6,6,0,0,0-1.34.4c-1.73.79-2.62,2.38-3.37,4a13.12,13.12,0,0,0-.79,2.8A9.2,9.2,0,0,0,96.69,86a6.77,6.77,0,0,0,.19,1.62,11,11,0,0,0,.5,1.47,5.3,5.3,0,0,0,.9,1.5,10.92,10.92,0,0,0,1.82,1.5,25.59,25.59,0,0,0,2.75,1.43,14.71,14.71,0,0,0,3,1,7.54,7.54,0,0,0,3.5.13A9.26,9.26,0,0,0,113.66,92l.82-.81c.48-.48.94-1,1.38-1.51a7.91,7.91,0,0,0,1.1-1.78,9.6,9.6,0,0,0,.81-2.21c.13-.6.22-1.18.29-1.78a9,9,0,0,0-.1-1.72,6.64,6.64,0,0,0-.95-2.59,8.67,8.67,0,0,0-2.28-2.24A10.62,10.62,0,0,0,108.65,75h-.21a9.88,9.88,0,0,0-3.59.77Z"/><path class="cls-1" d="M227.33,155.24c-.55.19-1.1.36-1.62.59a8.92,8.92,0,0,0-3.75,3,11.63,11.63,0,0,0-.8,1,16.63,16.63,0,0,0-1.91,3.7,13.1,13.1,0,0,0-.76,3.51,8.17,8.17,0,0,0,.69,3.74,8.61,8.61,0,0,0,1.92,2.88,10.17,10.17,0,0,0,3.47,2.39,7.51,7.51,0,0,0,1.93.5,11.88,11.88,0,0,0,1.58,0,7.94,7.94,0,0,0,3.45-.81,7.33,7.33,0,0,0,3.25-3.44,7.66,7.66,0,0,0,2.09-2.08,8.37,8.37,0,0,0,.83-1.56,6.9,6.9,0,0,0,.46-1.8,10.06,10.06,0,0,0-.25-3.82,11,11,0,0,0-3.7-5.35,9.2,9.2,0,0,0-2.4-1.57,6,6,0,0,0-2.46-1l-.58-.08q-.72,0-1.44.09Z"/><path class="cls-1" d="M45,220.15a9.51,9.51,0,0,0-3.14.95,8.44,8.44,0,0,0-3.54,3.25c-.1.19-.2.38-.29.58l-1,.63a19.4,19.4,0,0,0-2.23,1.61A7.87,7.87,0,0,0,33,229.9a12.59,12.59,0,0,0-.74,6.52A9.16,9.16,0,0,0,33,239a8.47,8.47,0,0,0,1.59,2.29c2.14,2.35,4.88,4.8,8.23,4.84a24.31,24.31,0,0,0,3.91-.38,15.47,15.47,0,0,0,6.51-2.7,11.64,11.64,0,0,0,2-1.74A13.5,13.5,0,0,0,56.34,240a11.17,11.17,0,0,0,.88-1.68,4.42,4.42,0,0,0,.23-.81,14.74,14.74,0,0,0,.32-1.76,8.42,8.42,0,0,0-.18-2.55,27,27,0,0,0-1.53-4.82,13.1,13.1,0,0,0-7.93-7.91,7.14,7.14,0,0,0-2.18-.31c-.31,0-.62,0-.94,0Zm.82,6.42H46c.28.08.55.17.83.28a9.76,9.76,0,0,1,1,.68,14,14,0,0,1,1.26,1.4,19.66,19.66,0,0,1,1.4,3,18.65,18.65,0,0,1,.77,3c0,.21,0,.43,0,.64a6.6,6.6,0,0,1-.2.63c-.15.24-.31.46-.47.68a11.28,11.28,0,0,1-1.28,1.12,15,15,0,0,1-2.08,1,22.49,22.49,0,0,1-3.63.66,6.59,6.59,0,0,1-.77,0l-.43-.15a13.32,13.32,0,0,1-1.52-1.06A16.61,16.61,0,0,1,39,236.51c-.08-.15-.16-.3-.23-.45a9.7,9.7,0,0,1-.2-1.05,14.6,14.6,0,0,1,.11-1.88,8.64,8.64,0,0,1,.36-1,.1.1,0,0,0,0-.05,8.5,8.5,0,0,1,.8-.66,33.81,33.81,0,0,0,4.19-2.93,3.26,3.26,0,0,0,1-1.71l.14-.06c.19-.06.39-.1.58-.14Z"/><path class="cls-1" d="M68.17,219.21A18.35,18.35,0,0,0,66,220c-.36.21-.72.45-1.07.7a5.25,5.25,0,0,0-1.1,1.16,14,14,0,0,0-1.17,2.55,9.91,9.91,0,0,0-.52,3.82c.05.8.1,1.61.22,2.41.44,2.75,1.18,5.81,3.33,7.75a5.88,5.88,0,0,0,1,.8c.4.21.81.4,1.22.59A6.94,6.94,0,0,0,69,240a9.32,9.32,0,0,0,2.1.29c.57,0,1.13-.05,1.7-.09a12.69,12.69,0,0,0,4.31-1.1A7.85,7.85,0,0,0,78.82,238a7.65,7.65,0,0,0,1.46-1.89,7.33,7.33,0,0,0,1.29-4.76,14.38,14.38,0,0,0-.6-2.43,22.76,22.76,0,0,0-1.43-3.59,16.76,16.76,0,0,0-1.49-2.24,12.75,12.75,0,0,0-2-1.92A10,10,0,0,0,73.84,220a6.24,6.24,0,0,0-2.8-.52,5.35,5.35,0,0,0-.7.07,3.46,3.46,0,0,0-1.52-.39,2.05,2.05,0,0,0-.65.1Zm2.71,6.69-.23,0,.23,0Zm.39,0,.39.14c.29.18.56.38.84.58a13.72,13.72,0,0,1,.93,1.09,14.36,14.36,0,0,1,1,2.16,20.27,20.27,0,0,1,.62,2.15l0,.11a9.38,9.38,0,0,1-.64,1,5.38,5.38,0,0,1-.64.31,12.74,12.74,0,0,1-1.93.32,7.88,7.88,0,0,1-1.09-.05,6.32,6.32,0,0,1-.62-.18L70,233.4a9.65,9.65,0,0,1-.59-1.21,23.45,23.45,0,0,1-.72-3.79,9.55,9.55,0,0,1,0-1.31l0-.05a3.47,3.47,0,0,0,1.73-.61l-.14.09a9.36,9.36,0,0,1,1-.58Zm3.85,6.3a2.38,2.38,0,0,1-.05.26c0-.09,0-.17.05-.26Z"/></g></g></svg>