<svg xmlns="http://www.w3.org/2000/svg" viewBox="0 0 577.08 194.28"><defs><style>.cls-1{fill:#fff;}</style></defs><g id="Layer_2" data-name="Layer 2"><g id="Layer_1-2" data-name="Layer 1"><path class="cls-1" d="M556.85,85.93V84.42q0-18.09,0-36.2c0-.86.21-1.1,1.08-1.09q9,.06,18.06,0c.87,0,1.11.23,1.11,1.1q0,35.65,0,71.31c0,1-.34,1.12-1.2,1.11q-7.87,0-15.75,0a1.85,1.85,0,0,1-1.64-.83q-14.87-19.08-29.77-38.15c-.26-.34-.54-.67-1-1.2,0,.58-.06,1-.06,1.33q0,18.81,0,37.63c0,.95-.21,1.24-1.2,1.23-6,0-12,0-18.07,0-.75,0-1-.17-1-1q0-35.76,0-71.52c0-.82.19-1.05,1-1q8.65.06,17.3,0a1.61,1.61,0,0,1,1.4.84l20.08,25.77L556,84.94C556.21,85.21,556.45,85.47,556.85,85.93Z"/><path class="cls-1" d="M205.56,120.57c-3.82,0-7.63.05-11.45.06-2.46,0-4.92,0-7.38,0-.93,0-1.16-.25-1.15-1.16q0-24.15,0-48.31c0-7.63,0-15.26,0-22.88,0-.91.23-1.18,1.15-1.17,5.66,0,11.31,0,17,0a1.73,1.73,0,0,1,1.56.75q14.15,18.18,28.34,36.34l1.21,1.54a2.19,2.19,0,0,0,.15-1.21q0-17.88,0-35.76c0-1.88-.29-1.65,1.61-1.65,6,0,12,0,18,0a2.07,2.07,0,0,1,.42.08q0,28.76,0,57.51,0,7.91,0,15.83c-1.72,0-3.44.06-5.16.06-3.82,0-7.64,0-11.46,0a1.8,1.8,0,0,1-1.65-.78q-15.06-19.35-30.18-38.65c-.12-.15-.16-.91-.69-.31-.34.33-.19.76-.19,1.14Q205.56,101.32,205.56,120.57Z"/><path class="cls-1" d="M53.25,155.82c-.55-.41-.68.2-.9.42Q45,163.51,37.7,170.84q-11.26,11.24-22.5,22.48c-.58.58-.86.6-1.45,0q-6.45-6.52-13-13c-.67-.66-.5-1,.06-1.54q17.7-17.61,35.39-35.27c.78-.78,1.58-1.52,2.43-2.34a1.65,1.65,0,0,0-1.22-.23q-18.06,0-36.12,0c-1,0-1.3-.24-1.29-1.26q.08-9,0-18c0-1,.3-1.12,1.18-1.12q35.69.06,71.38,0c.89,0,1.18.19,1.18,1.13q0,35.76,0,71.51a8.36,8.36,0,0,1-.09.86c-6.27,0-12.54,0-18.8,0-1.14,0-1.4-.32-1.39-1.41,0-11.94,0-23.87,0-35.81C53.51,156.53,53.76,156.07,53.25,155.82Z"/><path class="cls-1" d="M375.84,121.86a36,36,0,0,1-13.71-3.64c-11.27-5.48-18.48-14.32-20.93-26.61-3.69-18.47,5.91-36.27,23.5-43,14.39-5.47,28.23-3.89,40.69,5.47a35,35,0,0,1,14,24.29c1.7,13.1-2.22,24.33-11.9,33.38a37.89,37.89,0,0,1-20,9.67,16.3,16.3,0,0,1-3.48.41ZM361.42,81.42a8.84,8.84,0,0,0,0,4.76,4.34,4.34,0,0,1,.16.62,18.75,18.75,0,0,0,15.67,16.69c6.69,1,12.57-.85,17-6.15,5-6,5.84-13,3.54-20.27-2.46-7.82-9.12-12.69-17.48-13-7.56-.3-14.38,4.31-17.43,11.77A30.1,30.1,0,0,0,361.42,81.42Z"/><path class="cls-1" d="M299.36,121.87A34.4,34.4,0,0,1,285,117.58c-10.63-5.86-17-14.82-19-26.77-1.89-11.41.47-21.89,7.74-31A36.68,36.68,0,0,1,298,46.16a41.59,41.59,0,0,1,22.54,2.66A34.91,34.91,0,0,1,335,60.48c.29.4.32.61-.12.94q-7.15,5.49-14.28,11c-.55.43-.77.19-1.12-.21a23,23,0,0,0-7-5.94A17.4,17.4,0,0,0,287.6,76.41c-2.19,6.79-1.73,13.44,2.25,19.5,3.74,5.71,9.24,8.08,16,7.56,5.6-.43,9.83-3.29,13.4-7.38,1.28-1.47,1.26-1.47,2.85-.34q6.5,4.62,13,9.21c.63.44.68.71.23,1.33-5.25,7-11.82,12.17-20.43,14.42a30.64,30.64,0,0,1-7.25,1.16Z"/><path class="cls-1" d="M73.67,83.87c0-11.81,0-23.62,0-35.44,0-1.1.32-1.31,1.35-1.3q9,.06,18,0c.89,0,1.16.18,1.15,1.13,0,16.87,0,33.74,0,50.62,0,1,.18,1.34,1.28,1.33,15.24,0,30.49,0,45.73,0,1,0,1.31.16,1.3,1.23-.06,6,0,12.1,0,18.16,0,.78-.14,1-1,1q-33.27,0-66.54,0c-.89,0-1.08-.24-1.08-1.09q0-17.82,0-35.65Z"/><path class="cls-1" d="M498.22,120.54c-.92,0-1.84,0-2.75,0q-32.22,0-64.45,0c-.91,0-1.14-.21-1.14-1.13q0-35.49-.06-71c0-1.11.27-1.4,1.38-1.39,6,.06,12,.05,17.95,0,.87,0,1.09.23,1.09,1.09,0,16.91,0,33.82-.05,50.73,0,1,.27,1.26,1.27,1.26q22.8,0,45.61,0a2.87,2.87,0,0,1,1.3.1c-.25.37-.13.78-.13,1.18Q498.23,111,498.22,120.54Z"/><path class="cls-1" d="M151.24,83.93c0-11.85,0-23.69,0-35.53,0-1,.26-1.28,1.27-1.27q9.09.06,18.17,0c.87,0,1.1.24,1.09,1.1q0,35.64,0,71.27c0,.91-.22,1.16-1.15,1.15q-9.07-.06-18.17,0c-1,0-1.22-.22-1.22-1.21C151.25,107.61,151.24,95.77,151.24,83.93Z"/><path class="cls-1" d="M203.68,160.48a21.27,21.27,0,0,1,4,2c6,4.21,5.23,13.63-1.4,17.14a21,21,0,0,1-9.9,2.09c-5.9,0-11.81,0-17.72,0-.86,0-1-.28-1-1.07q0-19.36,0-38.72c0-.56-.1-1.06.8-1.05,6.53.08,13.06-.18,19.59.15a13.08,13.08,0,0,1,8.75,3.61,9.93,9.93,0,0,1-2.19,15.26C204.32,160.06,204.06,160.24,203.68,160.48ZM184.89,147.2l-.22.23c-.28.15-.23.42-.23.67v9.07c0,.28-.09.6.24.78a2.85,2.85,0,0,0,.63.14c3.09,0,6.17,0,9.25,0a10.8,10.8,0,0,0,4.81-.94,4.84,4.84,0,0,0,2.87-4.78,4.63,4.63,0,0,0-3-4.35,20.41,20.41,0,0,0-3-.76c-.16-.36-.49-.26-.76-.26h-10C185.32,147,185.05,146.92,184.89,147.2Zm13.17,28.14a16,16,0,0,0,3.58-1,4.9,4.9,0,0,0,2.85-4.9,4.72,4.72,0,0,0-3.07-4.41,7.59,7.59,0,0,0-2.42-.67c-4.76-.47-9.53-.16-14.3-.19-.37.15-.26.48-.26.75v9.4c0,.28-.08.59.22.79l.24.25c.18.25.45.21.7.21h11.67C197.55,175.58,197.88,175.66,198.06,175.34Z"/><path class="cls-1" d="M100.86,181.52a17.83,17.83,0,0,1-4.44.16c-2.52,0-2.52,0-2.52-2.49q0-18.52,0-37.05c0-1,.28-1.33,1.28-1.27a38.37,38.37,0,0,0,4.29,0,2,2,0,0,1,1.83.91q10.19,13.18,20.41,26.31c.21.27.31.76.84.65.33-.29.2-.68.2-1q0-12.81,0-25.62c0-.36.11-.74-.13-1.07,2.15-.27,4.31-.06,6.46-.12.39,0,.49.23.49.58,0,.58,0,1.17,0,1.76q0,18.58,0,37.19c0,1-.19,1.38-1.26,1.29a29.17,29.17,0,0,0-3.74,0,1.79,1.79,0,0,1-1.66-.79q-9.59-12.4-19.21-24.77c-.74-1-1.49-1.91-2.24-2.86-.13-.15-.25-.56-.54-.14s-.2.76-.2,1.15q0,13,0,26C100.7,180.74,100.58,181.16,100.86,181.52Z"/><path class="cls-1" d="M227.19,167.42l-.25.23c-.32.25-.2.6-.2.91q0,6,0,12c0,.32-.09.66.14.95a52.85,52.85,0,0,1-6.66.14c-.42,0-.43-.32-.43-.62V142c0-.6-.12-1.14.83-1.12,6.43.09,12.86-.14,19.28.13a15.49,15.49,0,0,1,7.71,2.3c4.46,2.83,5.94,7.09,5.46,12.12-.51,5.35-3.63,8.7-8.59,10.46-.83.29-.93.48-.4,1.21,3.27,4.51,6.49,9.05,9.73,13.58l.58.88a3.31,3.31,0,0,1-1.44.13c-1.73,0-3.46-.08-5.18,0a2.75,2.75,0,0,1-2.77-1.39c-3-4.33-6-8.59-9-12.87-.15-.27-.42-.24-.67-.24h-7.42C227.64,167.22,227.38,167.19,227.19,167.42Zm-.21-6.37c3.74,0,7.48,0,11.22,0a10,10,0,0,0,2.17-.27c3.32-.75,5.41-3.13,5.52-6.23a6.21,6.21,0,0,0-4.75-6.65,11.49,11.49,0,0,0-3.14-.48c-3.67,0-7.34,0-11,0-.39.21-.24.58-.24.88,0,4,0,8,0,11.95C226.74,160.54,226.66,160.85,227,161.05Z"/><path class="cls-1" d="M138.58,161.29c0-6.45,0-12.91,0-19.37,0-.81.19-1,1-1q14.11,0,28.21,0c.79,0,1.11.16,1.06,1a43.05,43.05,0,0,0,0,4.4c0,.86-.25,1-1,1-7,0-14,0-20.94,0-.91,0-1.19.22-1.17,1.15.06,2.82.05,5.65,0,8.47,0,.84.23,1.05,1.05,1,6.14,0,12.27,0,18.4,0,.89,0,1.12.24,1.08,1.09a41.63,41.63,0,0,0,0,4.18c.05.89-.18,1.18-1.13,1.17-6.06-.05-12.12,0-18.18,0-.94,0-1.25.19-1.23,1.19.08,2.86.08,5.73,0,8.59,0,1,.31,1.2,1.25,1.2,7,0,14,0,21-.05,1,0,1.24.29,1.19,1.23-.08,1.47,0,2.94,0,4.4,0,.62-.19.83-.82.83q-14.49,0-29,0c-.92,0-.78-.51-.78-1.05Zm29.95,14.23v-.08H147.26v.08Z"/><path class="cls-1" d="M381,181.69c-2.92,0-5.59,0-8.26,0-.56,0-.74-.4-1-.74q-6.39-8.4-12.77-16.81c-.48-.64-.73-.8-1.36-.12-1.61,1.75-3.3,3.44-5,5.11a2.25,2.25,0,0,0-.68,1.75c0,3.3,0,6.6,0,9.9,0,.73-.2.94-.92.92-1.79-.05-3.59-.05-5.39,0-.68,0-.87-.21-.87-.88q0-19.52,0-39.05c0-.64.13-.91.85-.9,1.79.05,3.59.06,5.39,0,.82,0,.95.29.94,1,0,6,0,12,0,18v1.48l2.7-2.85q8.1-8.55,16.19-17.1a1.64,1.64,0,0,1,1.33-.57c2.59,0,5.18,0,7.87,0a3.8,3.8,0,0,1-1,1.27q-7.54,7.79-15.12,15.53c-.54.55-.6.88-.1,1.53q8.19,10.61,16.32,21.28Z"/><path class="cls-1" d="M270,171.88c-1.3,3.1-2.61,6.19-3.89,9.3-.2.48-.52.52-.95.52-1.83,0-3.67-.06-5.5,0-1.07,0-1-.32-.67-1.1q5-11.34,9.95-22.69c2.4-5.49,4.82-11,7.2-16.48a1.17,1.17,0,0,1,1.28-.87c1.65.06,3.3,0,5,0a1,1,0,0,1,1.08.67q8.71,20,17.48,40a3.45,3.45,0,0,1,.11.46h-7.14c-.49,0-.52-.45-.65-.77q-1.95-4.53-3.88-9.07c-.21-.31-.52-.21-.8-.21H270.82C270.52,171.63,270.14,171.47,270,171.88Zm16.77-6.46c-2.35-5.41-4.64-10.71-7-16.25l-7,16.25Z"/><path class="cls-1" d="M394.26,171.89c-1.3,3.09-2.61,6.19-3.89,9.29-.2.5-.53.52-.95.52-1.91,0-3.82,0-5.72,0-.87,0-.78-.31-.52-.91,1.78-4,3.53-8,5.29-12.05q6-13.6,11.89-27.23a1.3,1.3,0,0,1,1.46-.94c1.54.06,3.09.06,4.63,0a1.23,1.23,0,0,1,1.38.9q7.83,18,15.72,36c.53,1.21,1,2.42,1.58,3.62.21.47.17.64-.39.64q-3.19,0-6.39,0c-.54,0-.65-.33-.81-.71q-1.95-4.59-3.92-9.16c-.21-.29-.53-.21-.81-.21H395.12C394.82,171.62,394.45,171.48,394.26,171.89ZM411,165.42c-2.35-5.42-4.65-10.72-7-16.25-2.38,5.53-4.66,10.84-7,16.25Z"/><path class="cls-1" d="M322.43,182.23a25.78,25.78,0,0,1-17.05-5.88c-.58-.47-.67-.76-.14-1.34,1.09-1.19,2.14-2.43,3.12-3.7.49-.64.82-.58,1.38-.11a18.69,18.69,0,0,0,8.1,4.23,13.63,13.63,0,0,0,7.8-.17,4.66,4.66,0,0,0,3.45-4.35c.1-2.22-.85-3.55-3.19-4.61a52.88,52.88,0,0,0-7.88-2.36,28.09,28.09,0,0,1-6.64-2.53c-4.2-2.36-5.59-6.19-4.95-10.73.77-5.5,4.76-9.23,10.66-10.08a22.64,22.64,0,0,1,17.15,4.22c.62.45.83.75.27,1.44a47,47,0,0,0-2.74,3.84c-.44.68-.77.63-1.37.21a18.33,18.33,0,0,0-8.11-3.45c-2.35-.32-4.69-.33-6.79,1a4.37,4.37,0,0,0,.1,7.5c2.25,1.38,4.82,1.9,7.33,2.55a39.86,39.86,0,0,1,7,2.32c4,1.9,6.34,4.87,6.38,9.42,0,4.83-1.94,8.49-6.29,10.74A16.38,16.38,0,0,1,322.43,182.23Z"/><path class="cls-1" d="M209.74,32.45c-8.08,0-14.53-5-16.31-12.56A16.08,16.08,0,0,1,206.5.35c6.26-1,11.8.45,16,5.34s4.94,10.4,2.79,16.26c-2.08,5.67-6.38,9-12.28,10.16C211.9,32.33,210.77,32.34,209.74,32.45Zm-9.47-16.31c0,5.62,4.06,9.92,9.41,10a9.47,9.47,0,0,0,9.52-9.83,9.62,9.62,0,0,0-9.52-9.89C204.31,6.35,200.28,10.54,200.27,16.14Z"/><path class="cls-1" d="M88.81,0a16.77,16.77,0,0,1,11.41,4.16c.58.52.69.82.1,1.44C99.2,6.76,98.16,8,97.15,9.25c-.46.57-.75.57-1.29.1a11.37,11.37,0,0,0-6-2.88,8.7,8.7,0,0,0-9.2,4.8,10.37,10.37,0,0,0,.89,11.31c3,4.18,9,4.68,13.54,1.27,1.85-1.37,1.85-1.37,3.49.33l1.62,1.65c1,1,1,1,0,2C93,35.07,78.45,34,73.66,23.14,69.16,13,75.28.83,87.38.1Z"/><path class="cls-1" d="M238.47,6.78a46.52,46.52,0,0,0-.12,6.25c0,.71.61.49,1,.49,4.26,0,8.52,0,12.78,0,1,0,1.27.25,1.21,1.22a39.47,39.47,0,0,0,0,4.07c0,.76-.18,1-1,1-4.3,0-8.59,0-12.89,0-.89,0-1.19.19-1.17,1.14.06,3.37,0,6.74,0,10.12,0,.29.28.78-.34.85-.3-.31-.69-.2-1-.2-1.35,0-2.72-.06-4.07,0-1,.06-1.3-.25-1.3-1.27,0-9.39,0-18.78,0-28.17,0-1.4,0-1.4,1.46-1.4L255.3.8a28,28,0,0,1-.14,5.93.7.7,0,0,0-.6-.18h-15.8C238.64,6.55,238.34,6.42,238.47,6.78Z"/><path class="cls-1" d="M178.28,1.36c-2,3.18-4,6.37-6,9.55q-2.48,3.9-5,7.76a2.89,2.89,0,0,0-.46,1.64c0,3.78,0,7.55,0,11.32-1.87,0-3.74,0-5.6,0-.78,0-1-.25-1-1,0-3.33,0-6.66,0-10,0-.38.2-.82-.23-1.11-3.93-6.13-7.9-12.24-11.69-18.46.08-.07.16-.2.24-.2a48.48,48.48,0,0,1,7.62.11l7.28,12.08L171,.81h6.35C177.71.83,178.24.66,178.28,1.36Z"/><path class="cls-1" d="M143.9.61c1.29,0,1.25.84,1.21,1.76a24.22,24.22,0,0,0,0,3.3c.11,1.12-.33,1.33-1.36,1.29-2.38-.07-4.77,0-7.15,0-.85,0-1.11.2-1.11,1.08,0,7.48,0,15,0,22.44,0,.4,0,.81,0,1.21-1.76,0-3.52-.07-5.27,0-1.08.06-1.34-.31-1.34-1.35,0-7.39,0-14.79,0-22.19,0-.37.19-.81-.23-1.11-2.85,0-5.7-.09-8.56-.06-.84,0-1.09-.24-1-1,.12-1.74-.14-3.49.14-5.23a1.22,1.22,0,0,0,.84.14h22.82C143.21.82,143.6.94,143.9.61Z"/><path class="cls-1" d="M106.87,31.63c0-.8-.05-1.61-.05-2.41q0-13.71,0-27.4c0-.33,0-.66,0-1,1.84,0,3.67,0,5.5,0,.84,0,1.14.2,1.14,1.09q0,14.38,0,28.78c0,.8-.27,1-1,1C110.61,31.6,108.74,31.63,106.87,31.63Z"/><path class="cls-1" d="M53.25,155.82c.51.25.26.71.26,1.07,0,11.94,0,23.87,0,35.81,0,1.09.25,1.42,1.39,1.41,6.26-.05,12.53,0,18.8,0-.31.29-.7.14-1,.14-6.16,0-12.32,0-18.48,0-.66,0-1-.1-1-.88q0-18.57,0-37.14A3.15,3.15,0,0,1,53.25,155.82Z"/><path class="cls-1" d="M254.92,120.57q0-7.92,0-15.83,0-28.76,0-57.51c.42.25.21.66.21,1q0,35.7,0,71.4C255.17,119.93,255.42,120.37,254.92,120.57Z"/><path class="cls-1" d="M255.3.8,233,.82c-1.46,0-1.46,0-1.46,1.4,0,9.39,0,18.78,0,28.17,0,1,.29,1.33,1.3,1.27,1.35-.08,2.72,0,4.07,0,.36,0,.75-.11,1,.2-1.91,0-3.82,0-5.72.06-.94,0-.86-.48-.86-1.09V9.06c0-2.56,0-5.13,0-7.69,0-.62.18-.81.81-.81,7.48,0,15,0,22.44,0C254.87.58,255.17.45,255.3.8Z"/><path class="cls-1" d="M106.87,31.63c1.87,0,3.74,0,5.6,0,.75,0,1-.17,1-1q0-14.39,0-28.78c0-.89-.3-1.12-1.14-1.09-1.83.06-3.66,0-5.5,0,0-.25.22-.25.4-.25,1.94,0,3.89,0,5.83,0,.5,0,.63.18.62.64,0,1.24,0,2.49,0,3.74V30.24c0,1.64,0,1.64-1.58,1.64s-2.87,0-4.3,0C107.51,31.86,107.08,32.11,106.87,31.63Z"/><path class="cls-1" d="M205.56,120.57q0-19.26,0-38.53c0-.38-.15-.81.19-1.14,0,2.56,0,5.13,0,7.7q0,15.41,0,30.81C205.8,119.79,206.08,120.28,205.56,120.57Z"/><path class="cls-1" d="M128.66,7c.42.3.23.74.23,1.11,0,7.4,0,14.8,0,22.19,0,1,.26,1.41,1.34,1.35,1.75-.09,3.51,0,5.27,0-.12.43-.48.23-.73.23-1.75,0-3.51,0-5.27,0-.7,0-.84-.21-.84-.87Q128.67,19,128.66,7Z"/><path class="cls-1" d="M100.86,181.52c-.28-.36-.16-.78-.16-1.17q0-13,0-26c0-.39-.16-.82.2-1.15q0,7.15,0,14.3c0,4.33,0,8.65,0,13C101,180.79,100.89,181.15,100.86,181.52Z"/><path class="cls-1" d="M122.59,141c.24.33.13.71.13,1.07q0,12.81,0,25.62c0,.35.13.74-.2,1l0-27.41A.94.94,0,0,1,122.59,141Z"/><path class="cls-1" d="M143.9.61c-.3.33-.69.21-1,.21H120a1.22,1.22,0,0,1-.84-.14,1.11,1.11,0,0,1,.31-.09Z"/><path class="cls-1" d="M498.22,120.54q0-9.54,0-19.07c0-.4-.12-.81.13-1.18,0,.32.09.65.1,1q0,9.17,0,18.34C498.46,119.91,498.71,120.34,498.22,120.54Z"/><path class="cls-1" d="M270,171.88c.19-.41.57-.25.87-.26h17.71c.28,0,.59-.1.8.21Z"/><path class="cls-1" d="M394.26,171.89c.19-.41.56-.27.86-.27h17.69c.28,0,.6-.08.81.21h-17.5C395.5,171.84,394.88,171.87,394.26,171.89Z"/><path class="cls-1" d="M160,19.55c.43.29.23.73.23,1.11,0,3.33,0,6.66,0,10,0,.75.21,1,1,1,1.86,0,3.73,0,5.6,0,0,.34-.31.25-.5.25-1.87,0-3.73,0-5.6,0-.68,0-.75-.28-.75-.85C160,27.22,159.94,23.38,160,19.55Z"/><path class="cls-1" d="M238.47,6.78c-.13-.36.17-.23.29-.23h15.8a.7.7,0,0,1,.6.18c-2.7,0-5.41.06-8.12.07Z"/><path class="cls-1" d="M226.89,181.54c-.23-.29-.14-.63-.14-.95q0-6,0-12c0-.31-.12-.66.2-.91C227,172.28,227.07,176.91,226.89,181.54Z"/><path class="cls-1" d="M227.19,167.42c.19-.23.45-.2.7-.2h7.42c.25,0,.52,0,.67.24Z"/><path class="cls-1" d="M156.12,1A48.48,48.48,0,0,0,148.5.89c-.08,0-.16.13-.24.2-.2-.16-.46-.48,0-.49,2.51,0,5,0,7.54,0C156,.6,156.05.83,156.12,1Z"/><path class="cls-1" d="M299.36,121.87h8.34A31.47,31.47,0,0,1,299.36,121.87Z"/><path class="cls-1" d="M178.28,1.36c0-.7-.57-.53-1-.54H171c.13-.33.42-.23.66-.23,2.12,0,4.25,0,6.37,0,.23,0,.58-.16.66.17S178.48,1.2,178.28,1.36Z"/><path class="cls-1" d="M375.84,121.86H384A29.73,29.73,0,0,1,375.84,121.86Z"/><path class="cls-1" d="M361.42,81.42c0,1.59,0,3.17,0,4.76A8.84,8.84,0,0,1,361.42,81.42Z"/><path class="cls-1" d="M184.9,175.37l13.16,0c-.18.32-.51.24-.79.24H185.6C185.35,175.58,185.08,175.62,184.9,175.37Z"/><path class="cls-1" d="M196.29,147.24l-11.4,0c.16-.28.43-.22.68-.22h10C195.8,147,196.13,146.88,196.29,147.24Z"/><path class="cls-1" d="M184.7,164.18c0,3.65,0,7.3,0,10.94-.3-.2-.22-.51-.22-.79v-9.4C184.44,164.66,184.33,164.33,184.7,164.18Z"/><path class="cls-1" d="M184.67,147.43q0,5.25,0,10.52c-.33-.18-.24-.5-.24-.78V148.1C184.44,147.85,184.39,147.58,184.67,147.43Z"/><path class="cls-1" d="M227,147.43q0,6.81,0,13.62c-.32-.2-.24-.51-.24-.79,0-4,0-8,0-11.95C226.75,148,226.6,147.64,227,147.43Z"/><ellipse class="cls-1" cx="157.9" cy="175.48" rx="15.04" ry="0.05"/></g></g></svg>