<?xml version="1.0" encoding="utf-8"?>
<!-- Generator: Adobe Illustrator 25.0.1, SVG Export Plug-In . SVG Version: 6.00 Build 0)  -->
<svg version="1.1" id="Layer_1" xmlns="http://www.w3.org/2000/svg" xmlns:xlink="http://www.w3.org/1999/xlink" x="0px" y="0px"
	 viewBox="0 0 612 305.5" style="enable-background:new 0 0 612 305.5;" xml:space="preserve">
<style type="text/css">
	.st0{fill:#FFFFFF;}
</style>
<path class="st0" d="M510.3,186.2c2-0.7,2.4-2.6,2.1-4.5c-0.3-2-1.4-3.2-3.4-3.3c-2.2-0.2-4.4-0.1-6.6-0.2c-1.2-0.1-1.3,0.6-1.3,1.7
	c0,4.1,0,8.3,0,12.4c0,0.8,0,1.4,1.1,1.4c1.1,0,1.5-0.5,1.4-1.5c0-1,0-2.1,0-3.2c0-0.7-0.3-1.7,0.8-1.9c0.9-0.1,1.7,0.1,2.1,1
	c0.7,1.3,1.7,2.6,2.4,3.9c0.9,1.4,2,1.9,3.7,1.2c-1-1.7-2-3.1-2.9-4.5C508.9,187.7,508.4,187,510.3,186.2z M505.7,184.9
	c-1.1,0.2-2.3,0-2.1-2.2c0.2-1.4-0.2-3,2.1-2.6c1.7,0.3,3.9-0.3,4,2.5C509.8,185,507.8,184.8,505.7,184.9z"/>
<path class="st0" d="M368.9,238.8c-2.2-0.1-3.6-1.4-4.9-3.2c-1.3-1.8-2.2-3.8-3-5.9c-6.4-17.3-12.9-34.8-19.3-52.1
	c-2.1-5.5-2-5.4-8-5.4c-1.7,0-2.4,0.6-2.8,2.1c-1,2.9-2.2,5.7-3.2,8.6c-6.3,16.4-12.4,32.9-19.1,49.2c-1.4,3.5-3.6,6.4-7.7,6.8
	c-3,0.3-1.2,2.5-1.5,3.7c-0.4,1.8,0.9,1.7,2.2,1.7c5.8,0,11.5,0,17.2,0c1,0,2.5,0.3,2.1-1.4c-0.3-1.3,1.4-3.5-1.5-3.9
	c-3.3-0.5-4-1.9-3.1-5.1c1-3.2,2.2-6.3,3.1-9.5c0.4-1.3,1-2,2.6-2c6,0.1,12.1,0.1,18.1,0c1.4,0,2.3,0.3,2.7,1.8
	c1,3.3,2.3,6.5,3.3,9.8c1,3.2,0.3,4.6-3.1,4.9c-3.1,0.2-1.5,2.4-1.9,3.7c-0.4,2.1,1,1.8,2.3,1.8c4.2,0,8.3,0,12.4,0
	c3.8,0,7.6-0.2,11.5,0.1c2.9,0.2,3.7-0.7,3.3-3.4C370.4,239.7,370.5,238.9,368.9,238.8z M337.6,215.8c-5-0.1-9.8,0-15.2,0
	c3-8.2,5.9-15.9,9-24.2c2.6,7.8,5.1,15.1,7.5,22.2C339.5,215.4,339.3,215.8,337.6,215.8z"/>
<path class="st0" d="M484.5,210.3c-4.5-4.6-10.1-8.2-15.3-12.2c-2.6-2-5.3-3.9-7-6.7c-3.7-5.8-0.2-12.9,6.6-13.3
	c3.5-0.2,6.3,1.2,8.5,4c1.8,2.2,2.9,4.8,3.6,7.4c0.7,2.5,2.7,1.2,4,1.3c1.7,0.2,1-1.2,1.1-2.1c0.1-3.7-0.1-7.5,0.1-11.3
	c0.1-2.7-1-3.8-3.5-4.3c-7.1-1.3-14.3-1.9-21.5-0.6c-5.7,1-10.8,3.2-14.4,8.2c-5.1,7.1-3.4,16.7,4,23.4c4,3.7,9,6.2,13.3,9.5
	c3,2.3,6,4.5,8,7.7c3,4.9,2.1,11.3-2,15c-3.9,3.5-10,3.7-14.6,0.3c-3.7-2.8-5.8-6.7-6.5-11.2c-0.5-2.9-2.2-2.3-3.9-2.3
	c-2.4,0-1.3,1.9-1.4,3c-0.2,2.2-0.1,4.1-0.1,6c0,2.1,0.1,4.2,0,6.3c-0.2,2.3,0.8,3.5,3,4.1c3.2,0.9,6.5,1.9,9.8,2.2
	c8.4,0.8,16.6,0.7,24.4-3.3c8.4-4.3,12-12,9.8-21.1C489.6,216.5,487.4,213.2,484.5,210.3z"/>
<path class="st0" d="M296.5,224.2c-1.1,0.1-1.7,0.5-2.2,1.4c-0.9,2.1-2,4.1-3.1,6.2c-1.8,3.2-4.4,5.3-8.1,5.9
	c-3.5,0.7-7,0.8-10.5,0.3c-4.2-0.6-5.5-1.9-5.5-6.2c-0.1-5.6,0-11.2,0-16.7c0-5,0-5,5.1-4.9c6.5,0,8.8,1.7,9.3,7.8
	c0.3,2.8,1.9,2,3.3,2.1c2.2,0.2,1.9-1.2,1.9-2.6c0-6.7,0-13.4,0-20.1c0-1.3,0.2-2.8-2-2.5c-1.4,0.2-3.1-0.6-3.2,2.2
	c-0.3,5.3-2.7,7.2-8.1,7.3c-1.7,0-3.3,0-4.9,0c-1.1,0-1.4-0.4-1.4-1.5c0-7.3,0-14.8,0-22.1c0-1.1,0.5-1.4,1.5-1.4
	c3.4,0.1,6.9,0.1,10.3,0.1c3.2,0.1,5.4,1.9,6.7,4.6c0.9,1.9,1.4,3.9,2,6c0.5,2.4,2.5,1.1,3.8,1.3c1.5,0.2,1.3-0.9,1.3-1.9
	c0-4.5-0.1-9,0.1-13.5c0.1-2.2-0.6-2.7-2.7-2.7c-14.9,0.1-29.7,0.1-44.6,0c-2.5,0-3.3,0.6-3.2,3.1c0.1,2.2,0.8,2.5,2.7,2.6
	c5.5,0.3,5.8,0.7,5.8,6.1c0,7.7,0,15.6,0,23.4c0,7.4,0,15,0,22.4c0,8.1,0,6.8-6.6,7.6c-2.9,0.3-1.4,2.3-1.8,3.6
	c-0.3,1.5,0.4,2,1.9,2c16.7,0,33.6,0,50.3,0c1.4,0,2-0.4,2.2-1.9c0.7-5.1,1.7-10,2.5-15C299.9,224.2,299.7,224,296.5,224.2z"/>
<path class="st0" d="M507.5,129.3c0-1.3-0.4-1.9-1.8-2c-2.2-0.1-3.6-1.5-5-3.1c-1.2-1.7-2.1-3.4-2.8-5.4
	c-6.5-17.5-13-34.9-19.6-52.5c-2.1-5.5-2.1-5.4-7.8-5.5c-1.7,0-2.5,0.5-3.1,2.1c-2.1,5.6-4.2,11-6.3,16.6
	c-5.3,13.6-10.4,27.4-16.2,40.8c-1.5,3.6-3.7,6.3-8.1,6.9c-2.6,0.4-1,2.6-1.3,4s0.8,1.4,1.9,1.4c5.8,0,11.5,0,17.2,0
	c1,0,2.7,0.5,2.4-1.4c-0.2-1.5,1.2-3.7-1.9-4.1c-3-0.4-3.7-1.8-2.9-4.6c1-3.3,2.2-6.5,3.2-9.8c0.4-1.2,1-1.8,2.5-1.8
	c6.2,0.1,12.5,0.1,18.7,0c1.3,0,2,0.4,2.5,1.8c0.9,3,2.2,5.9,3.2,8.9c1.3,4,0.8,5.1-3.2,5.6c-2.8,0.4-1.3,2.5-1.7,3.7
	c-0.4,1.7,0.7,1.9,2.1,1.8c4.4,0.1,8.8,0.2,13,0.2c3.8,0,7.6,0,11.5,0C507.6,133,507.6,133,507.5,129.3z M459.2,104.1
	c2.8-7.8,5.7-15.6,8.8-23.8c2.8,8.2,5.5,15.8,8.2,23.8C470.3,104.1,464.9,104.1,459.2,104.1z"/>
<path class="st0" d="M410.3,203c6.2-6.3,12.2-12.8,18.4-19c2.1-2.1,4.2-4,7.2-5c2.2-0.7,0.8-2.8,1-4.2c0.2-1.5-1.2-1.1-2.1-1.1
	c-6,0-11.9,0-17.9,0c-1.4,0-2.8-0.2-2.5,2c0.2,1.5-1,3.9,2.3,3.6c1.3-0.1,2.8,0.2,3.3,1.8c0.5,1.4-0.5,2.3-1.4,3.2
	c-5.8,5.9-11.5,11.8-17.3,17.7c-1.1,0.8-2.2,2-3.7,2.4c-0.6-0.5-0.4-1.1-0.4-1.7c0-5.7,0-11.4,0-16.9c0-6.2,0-6.4,6.1-6.6
	c2.9-0.1,2.2-1.8,2.4-3.4c0.2-2.1-0.8-2.3-2.5-2.3c-9.2,0.1-18.4,0.1-27.6,0c-2.4,0-3.1,0.5-3.1,3c0,2.3,0.9,2.6,2.9,2.7
	c5.3,0.3,5.6,0.7,5.7,5.9c0,0.4,0,0.7,0,1.1c0,15.2,0,30.3,0,45.4c0,7.5,0.1,6.5-6.4,7.2c-3,0.3-1.7,2.3-2,3.7
	c-0.4,2,0.9,1.9,2.3,1.9c9.2,0,18.4-0.1,27.6,0.1c2.7,0.1,3.4-0.7,3.2-3.3c-0.1-1.5-0.4-2.3-2.1-2.2c-0.9,0-1.9-0.3-2.9-0.3
	c-2.4-0.1-3.6-1.1-3.6-3.7c0.1-7.3,0-14.8,0-22.1c0-0.2,0.3-0.4,0.5-0.6c6.5,9.1,12.9,18,19.3,27c1.7,2.3,3.4,4.6,6.4,5.1
	c6.1,0.7,12.3,0.2,19,0.3c-12-12.3-22.1-25.3-32.4-38.2C408.9,204.8,409.2,204.1,410.3,203z"/>
<path class="st0" d="M359.4,67.7c5.7,0.4,5.7,0.6,5.7,6.2c0,15.5,0,30.9,0,46.4c0,6.4,0,6.6-6.3,6.9c-2.9,0.2-2,2.1-2.2,3.6
	c-0.3,2,0.8,2.1,2.4,2.1c9.2-0.1,18.4-0.2,27.6,0.1c3,0.1,3.6-0.8,3.5-3.6c-0.1-2.7-1.9-2-3.2-2.1c-5.2-0.4-5.6-0.8-5.6-5.5
	c0-7.1,0-14.1,0-21.3c0-1.7,0.2-2.4,2.2-2.3c7.6,0.1,15.4,0.1,23,0c1.9,0,2.3,0.6,2.2,2.3c-0.1,6.4,0,12.8,0,19.3
	c0,7.6,0.2,6.9-6.6,7.5c-0.3,0-0.6,0-0.8,0.1c-2.1,0.9-0.6,2.7-0.9,4c-0.2,1.1,0.5,1.4,1.5,1.4c10.1,0,20.1,0,30.3,0
	c1.2,0,1.5-0.5,1.7-1.7c0.2-2.5,0-4-3.3-4c-5.1,0-5.4-0.5-5.4-5.8c0-15.4-0.1-30.7,0-46.1c0-7.2-1.1-6.9,6.8-7.7
	c3.1-0.3,1.4-2.5,1.8-3.8c0.4-1.9-1-1.5-2.2-1.5c-5-0.1-9.9-0.1-14.8-0.1s-9.8,0-14.7,0c-0.6,0-1.4-0.4-1.9,0.7
	c-0.8,2.7,0.2,4.4,3,4.8c0.6,0.1,1.1,0.1,1.8,0.2c2.6,0.2,3.8,1.3,3.8,4.2c-0.2,5.7-0.1,11.4,0,16.9c0,1.5-0.5,1.9-2,1.9
	c-7.7-0.1-15.5-0.1-23.3,0c-2,0-2.2-0.7-2.1-2.4c0.1-4.5,0-9,0-13.5c0-6.7-0.6-6.9,6.5-7.4c3.2-0.2,1.9-2.4,2.1-3.8
	c0.3-2.2-1.2-1.7-2.4-1.7c-9.5,0-19,0-28.5-0.1c-2,0-2.6,0.3-2.6,2.5C356.4,66.9,357.1,67.5,359.4,67.7z"/>
<path class="st0" d="M242,187.9c-0.6-4.1-1.5-8.3-2.1-12.5c-0.2-1.7-0.8-2.2-2.6-2.2c-4.6,0.1-9.2,0-13.8,0c-14,0-28,0-42,0
	c-1,0-2.4-0.5-2.7,1.2c-0.8,5-1.7,9.8-2.6,14.7c-0.2,1,0.2,1.2,1.1,1.3c2.4,0.3,3.9-0.3,5-2.7c2.8-6.5,7.7-9.5,14.9-8.7
	c0.4,0,0.8,0.1,1.1,0c2.2-0.3,2.9,0.4,2.9,2.8c-0.1,16.5-0.1,32.9-0.1,49.5c0,6.4,0,6.6-6.5,7.1c-3,0.3-1.8,2.3-2.1,3.6
	c-0.3,2,0.9,1.9,2.3,1.9c9.2,0,18.4-0.1,27.6,0.1c2.9,0.1,3.5-0.8,3.4-3.5c-0.1-2.2-1.3-1.9-2.6-2.1c-6.1-0.7-6.1-0.7-6.1-6.8
	c0.2-7.6,0.2-15.7,0.2-23.6c0-7.6,0-15.4,0-23c0-5.8,0-5.6,5.9-5.8c5.6-0.1,9.6,2,12.2,7c0.5,1.1,1.2,2.2,1.9,3.2
	c1.1,2.2,3.1,1.2,4.5,1C243.3,190.3,242.2,188.7,242,187.9z"/>
<path class="st0" d="M188.1,67.7c6,0.6,9.7,5.3,9.7,11.4c0,12.7,0,25.3,0,38c0,2-0.2,4-0.4,6c-0.1,2.1-1.3,3.3-3.3,3.8
	c-1.1,0.2-2.3,0.4-3.4,0.5c-2.8,0.2-1.4,2.4-1.8,3.7c-0.3,1.5,0.5,1.9,2,1.9c7-0.1,14-0.1,21,0c1.5,0,2.2-0.5,1.9-2
	c-0.3-1.3,1.1-3.3-1.8-3.6c-6.2-0.7-6.9-1.7-6.9-7.8c-0.1-10.1,0-20.3,0-30.5c0-0.4-0.4-1.1,0.6-1.3c7.1,14.4,14.1,28.6,21.3,43
	c0.6,1.3,1.1,2.4,3,2.4c1.9,0,2.4-1,3.1-2.4c3.6-7,7.2-13.9,10.8-20.9c3.8-7.1,7.5-14.3,11.3-21.4c0.2,0.1,0.4,0.1,0.6,0.2
	c0,10.9,0,21.8,0,32.7c0,5.2-0.3,5.5-5.5,5.9c-0.3,0-0.6,0.1-0.8,0.1c-3-0.2-2,2-2.2,3.5c-0.3,2,0.7,2.2,2.4,2.1
	c9.3-0.1,18.6-0.1,27.9,0c2.7,0.1,3.2-0.7,3.3-3.3c0-2.7-1.7-2.3-3.2-2.4c-5.2-0.4-5.6-0.7-5.6-5.8c0-15,0-29.9,0-44.9
	c0-6.6,1.4-8.4,7.7-9c3.1-0.3,1.7-2.4,1.9-3.7c0.4-1.8-0.8-1.8-2.1-1.8c-5.8,0-11.5,0.1-17.2,0c-1.5,0-2.2,0.6-2.8,1.9
	c-2.1,4.2-4.3,8.4-6.5,12.5c-6,11.6-12.1,23-18.2,34.8c-0.6-1.1-1-2-1.4-2.8c-7.3-14.8-14.8-29.4-22.1-44.2
	c-0.7-1.5-1.5-2.3-3.4-2.2c-6.5,0.1-13,0-19.5,0.1c-1.1,0-2.8-0.5-2.5,1.7C186.1,65.4,184.9,67.4,188.1,67.7z"/>
<path class="st0" d="M147.8,133.5c22.9-4,38.5-23.4,37.4-46.7c-1-22.5-20.6-39.6-44.2-38.6c-24.5,1.1-43.3,20.2-43.2,44.3
	c0.1,3.9,0.6,8.2,1.9,12.3C105.7,125.2,126,137.3,147.8,133.5z M127,119.1c-4.6-6.1-6.7-13.2-7.7-20.8c-1.3-9.2-1.3-18.4,1.4-27.4
	c3.4-11.2,11.3-17.1,21.4-16.3c7.4,0.7,12.7,5,16.5,11.2c5.2,8.7,6.2,18.2,6.3,28.2c-0.4,7.3-1.1,14.7-4.4,21.6
	C153.4,130.3,136.8,132,127,119.1z"/>
<path class="st0" d="M151.7,190.2c-3-2.4-6.2-4.5-8.4-7.8c-2.6-3.7-2.6-8.9-0.1-12.4c2.3-3.3,6.6-4.8,11-3.7c4,0.9,6.7,3.5,8.7,7
	c1.1,2.1,2,4.3,2.8,6.6c0.8,2.4,2.7,1,4.1,1.2c1.8,0.3,1.3-1.2,1.3-2.2c0-4.6-0.1-9.2,0.1-13.8c0.1-2.7-1.1-3.8-3.5-4.3
	c-7.7-1.5-15.6-1.9-23.4-1c-4.5,0.4-8.8,1.9-12.7,4.1c-10.1,6-12.8,17.7-6.5,27.6c2.2,3.4,5,6.1,8.2,8.4c4.3,3.1,8.9,6.1,13.2,9.2
	c3.3,2.5,6.5,5.1,8.7,8.7c3.4,5.4,2.8,12.6-1.4,17c-5.7,6.1-15.3,5.7-21.1-0.9c-2.8-3.2-4.8-7-5.4-11.3c-0.5-3.1-2.6-2.1-4.2-2.2
	c-2.5-0.1-1.3,1.8-1.4,2.9c-0.2,2.4-0.1,4.8-0.1,7.2c0,2.8,0,5.6,0,8.4c0,1.9,0.7,3.1,2.6,3.6c11.8,3.6,23.8,4.6,35.6,1
	c9.2-2.8,16.1-8.2,17.5-18.4c1-8.1-2-14.8-7.5-20.6C164.3,199.1,157.8,194.9,151.7,190.2z"/>
<path class="st0" d="M282.6,131.4c-0.3,1.5,0.8,1.5,2,1.5c5.9,0,11.7,0,17.6,0c1.2,0,2.4,0,2.1-1.8c-0.3-1.4,1.2-3.5-1.9-3.9
	c-2.9-0.3-3.7-1.5-2.9-4.3c1-3.6,2.4-7,3.5-10.6c0.3-1.1,0.9-1.2,1.9-1.2c6.4,0,12.8,0,19.3,0c1.2,0,1.8,0.4,2.2,1.7
	c0.9,3.1,2.2,6.1,3.2,9.2c1.2,3.7,0.6,4.8-3.3,5.4c-2.8,0.5-1.3,2.5-1.5,3.8c-0.3,1.8,0.9,1.8,2.2,1.8c4.2,0,8.5,0.1,12.6,0.1
	c4.4,0,8.8,0,13.2,0c0.8,0,2,0.1,1.8-1.2c-0.2-1.3,1-3.7-0.8-4c-5.4-0.8-6.9-5-8.6-9.1c-6.6-17.7-13.2-35.3-19.8-52.9
	c-1.8-4.6-1.8-4.4-6.7-4.6c-2.4-0.1-3.7,0.5-4.2,2.9c-0.3,1.3-0.9,2.5-1.4,3.7c-6.8,17.5-13.3,35-20.6,52.4
	c-1.7,3.9-3.8,6.9-8.5,7.5C281.3,127.9,282.8,130.1,282.6,131.4z M306.4,102.6c2.9-7.2,5.6-14.5,8.5-22.2c2.7,7.7,5.2,15.1,7.6,22.4
	c0.4,1.1,0.1,1.5-1.1,1.5c-4.6,0-9.2-0.1-13.8,0C306,104.4,306,103.7,306.4,102.6z"/>
<path class="st0" d="M506.3,172.7c-7.3,0-13.2,5.8-13.2,13c-0.1,7.4,5.7,13.3,13.1,13.4c7.2,0.1,13.1-5.7,13.2-13
	C519.5,178.8,513.6,172.7,506.3,172.7z M506.3,196.9c-6,0-10.6-4.9-10.6-11.2c0-6.3,4.6-10.9,10.7-10.9c6,0.2,10.3,4.9,10.3,11.2
	C516.7,192.2,512.3,196.9,506.3,196.9z"/>
<path class="st0" d="M554.6,2.3C388,2.4,221.4,2.4,54.8,2.3c-2.8,0-3.4,0.6-3.4,3.4c0.1,98.3,0.1,196.6,0,294.9
	c0,2.8,0.6,3.4,3.4,3.4c83.3-0.2,166.7-0.1,250-0.1c83.2,0,166.5,0,249.8,0.1c2.7,0,3.4-0.5,3.4-3.4c-0.1-98.3-0.1-196.6,0-294.9
	C558,2.9,557.3,2.3,554.6,2.3z M548,290.8c0,2.8-0.6,3.4-3.4,3.4c-79.9,0-160,0-240.1,0c-80,0-160,0-240,0.1c-2.8,0-3.4-0.7-3.4-3.4
	c0.1-91.8,0.1-183.5,0-275.3c0-2.7,0.5-3.5,3.3-3.5c160.1,0.1,320.1,0.1,480.2,0c2.8,0,3.4,0.7,3.4,3.4
	C547.9,107.2,547.9,198.9,548,290.8z"/>
</svg>
