<svg width="415" height="88" viewBox="0 0 415 88" fill="none" xmlns="http://www.w3.org/2000/svg">
<path d="M128.835 64.1503C137.731 58.7547 142.246 50.5797 142.246 39.8655C142.246 31.0364 139.124 23.8712 132.956 18.5526C126.779 13.2244 118.796 10.5218 109.257 10.5218H75.7389V23.1403C69.4658 9.4927 55.6802 0 39.6851 0C17.7627 0 0 17.7832 0 39.7309C0 61.6689 17.7627 79.4617 39.6851 79.4617C55.6898 79.4617 69.4658 69.969 75.7485 56.3118V87.9542H97.2386V50.7335V29.1513H109.602C115.559 29.1513 120.381 33.9795 120.381 39.9424C120.381 45.9054 115.559 50.7335 109.602 50.7335H97.2386L125.021 87.9542H147.578L128.835 64.1503ZM39.6851 59.0433C29.0313 59.0433 20.3853 50.3969 20.3853 39.7212C20.3853 29.0552 29.0217 20.3992 39.6851 20.3992C50.3389 20.3992 58.9849 29.0456 58.9849 39.7212C58.9753 50.3969 50.3389 59.0433 39.6851 59.0433ZM120.362 39.9136V39.827C120.362 39.8463 120.362 39.8559 120.362 39.8655C120.371 39.8847 120.362 39.904 120.362 39.9136Z" fill="white"/>
<path d="M189.867 66.3419C189.867 62.716 188.608 59.773 186.139 57.5898C183.661 55.4066 180.452 54.2909 176.619 54.2909H163.16V87.3663L171.787 87.4144V70.7949V61.937H176.667C177.993 61.937 179.069 62.3409 179.866 63.1392C180.663 63.9375 181.067 65.0147 181.067 66.3323C181.067 67.6595 180.663 68.7367 179.866 69.5542C179.069 70.3717 177.993 70.7853 176.667 70.7853H171.787L182.969 87.3759H192.537L184.477 76.2963C188.051 74.0938 189.867 70.7372 189.867 66.3419Z" fill="white"/>
<path d="M342.632 66.1888C342.632 62.563 341.373 59.6199 338.904 57.4367C336.426 55.2535 333.217 54.1378 329.384 54.1378H315.925V87.2132L324.552 87.2613V70.6515V61.7935H329.432C330.758 61.7935 331.834 62.1975 332.631 62.9957C333.429 63.794 333.832 64.8712 333.832 66.1888C333.832 67.5161 333.429 68.5933 332.631 69.4108C331.834 70.2283 330.758 70.6418 329.432 70.6418H324.552L335.734 87.2324H345.302L337.242 76.1528C340.816 73.9407 342.632 70.5938 342.632 66.1888Z" fill="white"/>
<path d="M205.67 73.6706H216.026V66.7939H205.67V61.7254H219.418V54.2909H197.38V87.3951H220.032V79.9606H205.67V73.6706Z" fill="white"/>
<path d="M263.869 73.9687H274.225V67.0921H263.869V62.0235H277.616V54.589H255.579V87.6836H278.231V80.2587H263.869V73.9687Z" fill="white"/>
<path d="M241.383 67.8455L237.521 66.2201C236.407 65.7681 235.648 65.3449 235.196 64.9313C234.725 64.4985 234.495 63.9407 234.495 63.2675C234.495 61.6998 235.58 60.9111 237.713 60.9111C238.933 60.9111 240 61.2189 240.883 61.8152C241.7 62.373 242.516 63.229 243.295 64.3735L248.799 60.1513C246.57 55.8522 242.805 53.6786 237.607 53.6786C234.226 53.6786 231.43 54.573 229.298 56.3427C227.175 58.1027 226.099 60.4687 226.099 63.3636C226.099 67.5185 228.904 70.8559 234.447 73.2699L237.896 74.7991C239.221 75.3762 240.144 75.8667 240.634 76.2514C241.162 76.665 241.431 77.2901 241.431 78.1076C241.431 79.8677 240.192 80.7621 237.752 80.7621C234.908 80.7621 232.381 79.3387 230.249 76.5303L224.687 80.7525C225.878 82.9261 227.607 84.6958 229.845 85.9846C232.141 87.3118 234.802 87.985 237.752 87.985C241.239 87.985 244.15 87.0521 246.417 85.2151C248.665 83.3878 249.808 80.8679 249.808 77.7422C249.808 75.4339 249.116 73.4911 247.762 71.9715C246.398 70.4423 244.246 69.0477 241.383 67.8455Z" fill="white"/>
<path d="M293.097 53.946L282.722 87.6562H291.243L292.809 82.2414L302.301 82.376L303.77 87.6466H311.984L301.34 53.9364H293.097V53.946ZM294.144 75.0666L294.221 74.7876L297.276 63.8234L300.562 75.0762H294.144V75.0666Z" fill="white"/>
<path d="M365.045 61.2627C368.696 61.2627 371.655 63.0805 373.845 66.6583L380.137 62.3784C378.648 59.6662 376.593 57.5214 374.018 56.0115C371.386 54.463 368.388 53.684 365.093 53.684C360.098 53.684 355.823 55.3478 352.374 58.6275C348.935 61.9071 347.187 66.0139 347.187 70.842C347.187 75.699 348.925 79.8153 352.345 83.0757C355.775 86.3458 360.05 88 365.036 88C368.36 88 371.376 87.2114 374.008 85.6629C376.583 84.1529 378.639 82.0082 380.128 79.296L373.845 75.0161C371.655 78.5939 368.696 80.4116 365.045 80.4116C362.288 80.4116 360.011 79.5364 358.292 77.8052C356.563 76.074 355.688 73.7465 355.688 70.8901C355.688 68.024 356.572 65.6869 358.311 63.9268C360.05 62.1572 362.317 61.2627 365.045 61.2627Z" fill="white"/>
<path d="M406.405 66.4016H393.734V54.1486H385.443V87.2528H393.734V73.8361H406.405V87.2528H414.696V54.1486H406.405V66.4016Z" fill="white"/>
<path d="M362.03 45.2134C367.035 45.2134 371.348 43.5303 374.835 40.2218C378.332 36.9133 380.1 32.768 380.1 27.8919C380.1 23.0157 378.332 18.8704 374.835 15.5619C371.348 12.2534 367.035 10.5703 362.03 10.5703C357.025 10.5703 352.73 12.2534 349.262 15.5619C345.804 18.8704 344.056 23.0157 344.056 27.8919C344.056 32.768 345.804 36.9133 349.262 40.2218C352.73 43.5303 357.025 45.2134 362.03 45.2134ZM355.267 20.8998C357.005 19.1205 359.301 18.2164 362.087 18.2164C364.796 18.2164 367.073 19.1205 368.86 20.8998C370.637 22.679 371.54 25.0354 371.54 27.8822C371.54 30.7676 370.637 33.1239 368.86 34.8936C367.083 36.6536 364.806 37.5481 362.087 37.5481C359.301 37.5481 357.005 36.6536 355.267 34.8936C353.518 33.1335 352.634 30.7772 352.634 27.8822C352.634 25.0354 353.518 22.679 355.267 20.8998Z" fill="white"/>
<path d="M175.436 10.5596C170.431 10.5596 166.137 12.2427 162.669 15.5512C159.211 18.8597 157.462 23.0049 157.462 27.8811C157.462 32.7573 159.211 36.9025 162.669 40.211C166.128 43.5195 170.422 45.2026 175.427 45.2026C180.432 45.2026 184.745 43.5195 188.233 40.211C191.729 36.9025 193.497 32.7573 193.497 27.8811C193.497 23.0049 191.729 18.8597 188.233 15.5512C184.755 12.2427 180.451 10.5596 175.436 10.5596ZM182.257 34.8924C180.48 36.6525 178.203 37.5469 175.484 37.5469C172.699 37.5469 170.403 36.6525 168.664 34.8924C166.915 33.1324 166.032 30.776 166.032 27.8811C166.032 25.0246 166.915 22.6779 168.664 20.8986C170.403 19.1194 172.699 18.2153 175.484 18.2153C178.194 18.2153 180.47 19.1194 182.257 20.8986C184.034 22.6779 184.937 25.0343 184.937 27.8811C184.937 30.776 184.034 33.1324 182.257 34.8924Z" fill="white"/>
<path d="M321.547 45.2134C326.552 45.2134 330.865 43.5303 334.353 40.2218C337.849 36.9133 339.617 32.768 339.617 27.8919C339.617 23.0157 337.849 18.8704 334.353 15.5619C330.865 12.2534 326.552 10.5703 321.547 10.5703C316.542 10.5703 312.248 12.2534 308.78 15.5619C305.321 18.8704 303.573 23.0157 303.573 27.8919C303.573 32.768 305.321 36.9133 308.78 40.2218C312.238 43.5303 316.532 45.2134 321.547 45.2134ZM314.774 20.8998C316.513 19.1205 318.809 18.2164 321.595 18.2164C324.304 18.2164 326.581 19.1205 328.368 20.8998C330.145 22.679 331.048 25.0354 331.048 27.8822C331.048 30.7676 330.145 33.1239 328.368 34.8936C326.59 36.6536 324.314 37.5481 321.595 37.5481C318.819 37.5481 316.513 36.6536 314.774 34.8936C313.026 33.1335 312.142 30.7772 312.142 27.8822C312.142 25.0354 313.026 22.679 314.774 20.8998Z" fill="white"/>
<path d="M228.241 11.1772H219.874V31.1148C219.874 33.0864 219.278 34.6638 218.087 35.8179C216.905 36.9624 215.359 37.5491 213.495 37.5491C211.631 37.5491 210.094 36.9624 208.913 35.8179C207.731 34.6638 207.126 33.0864 207.126 31.1148V11.1772H198.758V30.4512C198.758 34.8561 200.151 38.4531 202.899 41.1461C205.637 43.8391 209.201 45.2144 213.495 45.2144C217.751 45.2144 221.315 43.8487 224.081 41.1461C226.839 38.4531 228.241 34.8561 228.241 30.4512V11.1772V11.1772Z" fill="white"/>
<path d="M262.378 11.1772H233.722V18.6791H243.866V44.5893H252.234V18.6791H262.378V11.1772Z" fill="white"/>
<path d="M298.316 27.7871C298.316 22.7859 296.587 18.7272 293.167 15.7168C289.737 12.7065 285.338 11.1772 280.092 11.1772H268.526V44.5893H280.092C285.299 44.5893 289.689 43.0119 293.138 39.9054C296.577 36.7989 298.316 32.721 298.316 27.7871ZM287.009 34.5964C285.203 36.2507 282.859 37.0874 280.044 37.0874H276.903V18.7368H280.044C282.888 18.7368 285.232 19.5158 287.028 21.045C288.834 22.5839 289.747 24.8537 289.747 27.7871C289.747 30.6435 288.825 32.9326 287.009 34.5964Z" fill="white"/>
<path d="M394.057 27.854V18.9095H398.986C400.331 18.9095 401.416 19.323 402.214 20.1309C403.02 20.9388 403.434 22.0256 403.434 23.3625C403.434 24.6993 403.02 25.7958 402.214 26.6229C401.407 27.45 400.321 27.8636 398.986 27.8636H394.057L405.345 44.6177H415L406.863 33.4322C410.466 31.1913 412.301 27.8059 412.301 23.3625C412.301 19.6981 411.032 16.7359 408.535 14.5238C406.027 12.3117 402.8 11.196 398.928 11.196H385.344V44.5888L394.048 44.6369V27.854H394.057Z" fill="white"/>
</svg>
