<svg width="507" height="306" viewBox="0 0 507 306" fill="none" xmlns="http://www.w3.org/2000/svg">
<g clip-path="url(#clip0)">
<path d="M458.9 186.2C460.9 185.5 461.3 183.6 461 181.7C460.7 179.7 459.6 178.5 457.6 178.4C455.4 178.2 453.2 178.3 451 178.2C449.8 178.1 449.7 178.8 449.7 179.9C449.7 184 449.7 188.2 449.7 192.3C449.7 193.1 449.7 193.7 450.8 193.7C451.9 193.7 452.3 193.2 452.2 192.2C452.2 191.2 452.2 190.1 452.2 189C452.2 188.3 451.9 187.3 453 187.1C453.9 187 454.7 187.2 455.1 188.1C455.8 189.4 456.8 190.7 457.5 192C458.4 193.4 459.5 193.9 461.2 193.2C460.2 191.5 459.2 190.1 458.3 188.7C457.5 187.7 457 187 458.9 186.2ZM454.3 184.9C453.2 185.1 452 184.9 452.2 182.7C452.4 181.3 452 179.7 454.3 180.1C456 180.4 458.2 179.8 458.3 182.6C458.4 185 456.4 184.8 454.3 184.9Z" fill="white"/>
<path d="M317.5 238.8C315.3 238.7 313.9 237.4 312.6 235.6C311.3 233.8 310.4 231.8 309.6 229.7C303.2 212.4 296.7 194.9 290.3 177.6C288.2 172.1 288.3 172.2 282.3 172.2C280.6 172.2 279.9 172.8 279.5 174.3C278.5 177.2 277.3 180 276.3 182.9C270 199.3 263.9 215.8 257.2 232.1C255.8 235.6 253.6 238.5 249.5 238.9C246.5 239.2 248.3 241.4 248 242.6C247.6 244.4 248.9 244.3 250.2 244.3C256 244.3 261.7 244.3 267.4 244.3C268.4 244.3 269.9 244.6 269.5 242.9C269.2 241.6 270.9 239.4 268 239C264.7 238.5 264 237.1 264.9 233.9C265.9 230.7 267.1 227.6 268 224.4C268.4 223.1 269 222.4 270.6 222.4C276.6 222.5 282.7 222.5 288.7 222.4C290.1 222.4 291 222.7 291.4 224.2C292.4 227.5 293.7 230.7 294.7 234C295.7 237.2 295 238.6 291.6 238.9C288.5 239.1 290.1 241.3 289.7 242.6C289.3 244.7 290.7 244.4 292 244.4C296.2 244.4 300.3 244.4 304.4 244.4C308.2 244.4 312 244.2 315.9 244.5C318.8 244.7 319.6 243.8 319.2 241.1C319 239.7 319.1 238.9 317.5 238.8ZM286.2 215.8C281.2 215.7 276.4 215.8 271 215.8C274 207.6 276.9 199.9 280 191.6C282.6 199.4 285.1 206.7 287.5 213.8C288.1 215.4 287.9 215.8 286.2 215.8Z" fill="white"/>
<path d="M433.1 210.3C428.6 205.7 423 202.1 417.8 198.1C415.2 196.1 412.5 194.2 410.8 191.4C407.1 185.6 410.6 178.5 417.4 178.1C420.9 177.9 423.7 179.3 425.9 182.1C427.7 184.3 428.8 186.9 429.5 189.5C430.2 192 432.2 190.7 433.5 190.8C435.2 191 434.5 189.6 434.6 188.7C434.7 185 434.5 181.2 434.7 177.4C434.8 174.7 433.7 173.6 431.2 173.1C424.1 171.8 416.9 171.2 409.7 172.5C404 173.5 398.9 175.7 395.3 180.7C390.2 187.8 391.9 197.4 399.3 204.1C403.3 207.8 408.3 210.3 412.6 213.6C415.6 215.9 418.6 218.1 420.6 221.3C423.6 226.2 422.7 232.6 418.6 236.3C414.7 239.8 408.6 240 404 236.6C400.3 233.8 398.2 229.9 397.5 225.4C397 222.5 395.3 223.1 393.6 223.1C391.2 223.1 392.3 225 392.2 226.1C392 228.3 392.1 230.2 392.1 232.1C392.1 234.2 392.2 236.3 392.1 238.4C391.9 240.7 392.9 241.9 395.1 242.5C398.3 243.4 401.6 244.4 404.9 244.7C413.3 245.5 421.5 245.4 429.3 241.4C437.7 237.1 441.3 229.4 439.1 220.3C438.2 216.5 436 213.2 433.1 210.3Z" fill="white"/>
<path d="M245.1 224.2C244 224.3 243.4 224.7 242.9 225.6C242 227.7 240.9 229.7 239.8 231.8C238 235 235.4 237.1 231.7 237.7C228.2 238.4 224.7 238.5 221.2 238C217 237.4 215.7 236.1 215.7 231.8C215.6 226.2 215.7 220.6 215.7 215.1C215.7 210.1 215.7 210.1 220.8 210.2C227.3 210.2 229.6 211.9 230.1 218C230.4 220.8 232 220 233.4 220.1C235.6 220.3 235.3 218.9 235.3 217.5C235.3 210.8 235.3 204.1 235.3 197.4C235.3 196.1 235.5 194.6 233.3 194.9C231.9 195.1 230.2 194.3 230.1 197.1C229.8 202.4 227.4 204.3 222 204.4C220.3 204.4 218.7 204.4 217.1 204.4C216 204.4 215.7 204 215.7 202.9C215.7 195.6 215.7 188.1 215.7 180.8C215.7 179.7 216.2 179.4 217.2 179.4C220.6 179.5 224.1 179.5 227.5 179.5C230.7 179.6 232.9 181.4 234.2 184.1C235.1 186 235.6 188 236.2 190.1C236.7 192.5 238.7 191.2 240 191.4C241.5 191.6 241.3 190.5 241.3 189.5C241.3 185 241.2 180.5 241.4 176C241.5 173.8 240.8 173.3 238.7 173.3C223.8 173.4 209 173.4 194.1 173.3C191.6 173.3 190.8 173.9 190.9 176.4C191 178.6 191.7 178.9 193.6 179C199.1 179.3 199.4 179.7 199.4 185.1C199.4 192.8 199.4 200.7 199.4 208.5C199.4 215.9 199.4 223.5 199.4 230.9C199.4 239 199.4 237.7 192.8 238.5C189.9 238.8 191.4 240.8 191 242.1C190.7 243.6 191.4 244.1 192.9 244.1C209.6 244.1 226.5 244.1 243.2 244.1C244.6 244.1 245.2 243.7 245.4 242.2C246.1 237.1 247.1 232.2 247.9 227.2C248.5 224.2 248.3 224 245.1 224.2Z" fill="white"/>
<path d="M456.1 129.3C456.1 128 455.7 127.4 454.3 127.3C452.1 127.2 450.7 125.8 449.3 124.2C448.1 122.5 447.2 120.8 446.5 118.8C440 101.3 433.5 83.9001 426.9 66.3001C424.8 60.8001 424.8 60.9 419.1 60.8C417.4 60.8 416.6 61.3001 416 62.9001C413.9 68.5001 411.8 73.9 409.7 79.5C404.4 93.1 399.3 106.9 393.5 120.3C392 123.9 389.8 126.6 385.4 127.2C382.8 127.6 384.4 129.8 384.1 131.2C383.8 132.6 384.9 132.6 386 132.6C391.8 132.6 397.5 132.6 403.2 132.6C404.2 132.6 405.9 133.1 405.6 131.2C405.4 129.7 406.8 127.5 403.7 127.1C400.7 126.7 400 125.3 400.8 122.5C401.8 119.2 403 116 404 112.7C404.4 111.5 405 110.9 406.5 110.9C412.7 111 419 111 425.2 110.9C426.5 110.9 427.2 111.3 427.7 112.7C428.6 115.7 429.9 118.6 430.9 121.6C432.2 125.6 431.7 126.7 427.7 127.2C424.9 127.6 426.4 129.7 426 130.9C425.6 132.6 426.7 132.8 428.1 132.7C432.5 132.8 436.9 132.9 441.1 132.9C444.9 132.9 448.7 132.9 452.6 132.9C456.2 133 456.2 133 456.1 129.3ZM407.8 104.1C410.6 96.3 413.5 88.5001 416.6 80.3001C419.4 88.5001 422.1 96.1 424.8 104.1C418.9 104.1 413.5 104.1 407.8 104.1Z" fill="white"/>
<path d="M358.9 203C365.1 196.7 371.1 190.2 377.3 184C379.4 181.9 381.5 180 384.5 179C386.7 178.3 385.3 176.2 385.5 174.8C385.7 173.3 384.3 173.7 383.4 173.7C377.4 173.7 371.5 173.7 365.5 173.7C364.1 173.7 362.7 173.5 363 175.7C363.2 177.2 362 179.6 365.3 179.3C366.6 179.2 368.1 179.5 368.6 181.1C369.1 182.5 368.1 183.4 367.2 184.3C361.4 190.2 355.7 196.1 349.9 202C348.8 202.8 347.7 204 346.2 204.4C345.6 203.9 345.8 203.3 345.8 202.7C345.8 197 345.8 191.3 345.8 185.8C345.8 179.6 345.8 179.4 351.9 179.2C354.8 179.1 354.1 177.4 354.3 175.8C354.5 173.7 353.5 173.5 351.8 173.5C342.6 173.6 333.4 173.6 324.2 173.5C321.8 173.5 321.1 174 321.1 176.5C321.1 178.8 322 179.1 324 179.2C329.3 179.5 329.6 179.9 329.7 185.1C329.7 185.5 329.7 185.8 329.7 186.2C329.7 201.4 329.7 216.5 329.7 231.6C329.7 239.1 329.8 238.1 323.3 238.8C320.3 239.1 321.6 241.1 321.3 242.5C320.9 244.5 322.2 244.4 323.6 244.4C332.8 244.4 342 244.3 351.2 244.5C353.9 244.6 354.6 243.8 354.4 241.2C354.3 239.7 354 238.9 352.3 239C351.4 239 350.4 238.7 349.4 238.7C347 238.6 345.8 237.6 345.8 235C345.9 227.7 345.8 220.2 345.8 212.9C345.8 212.7 346.1 212.5 346.3 212.3C352.8 221.4 359.2 230.3 365.6 239.3C367.3 241.6 369 243.9 372 244.4C378.1 245.1 384.3 244.6 391 244.7C379 232.4 368.9 219.4 358.6 206.5C357.5 204.8 357.8 204.1 358.9 203Z" fill="white"/>
<path d="M308 67.7C313.7 68.1 313.7 68.3 313.7 73.9C313.7 89.4 313.7 104.8 313.7 120.3C313.7 126.7 313.7 126.9 307.4 127.2C304.5 127.4 305.4 129.3 305.2 130.8C304.9 132.8 306 132.9 307.6 132.9C316.8 132.8 326 132.7 335.2 133C338.2 133.1 338.8 132.2 338.7 129.4C338.6 126.7 336.8 127.4 335.5 127.3C330.3 126.9 329.9 126.5 329.9 121.8C329.9 114.7 329.9 107.7 329.9 100.5C329.9 98.8 330.1 98.1 332.1 98.2C339.7 98.3 347.5 98.3 355.1 98.2C357 98.2 357.4 98.8 357.3 100.5C357.2 106.9 357.3 113.3 357.3 119.8C357.3 127.4 357.5 126.7 350.7 127.3C350.4 127.3 350.1 127.3 349.9 127.4C347.8 128.3 349.3 130.1 349 131.4C348.8 132.5 349.5 132.8 350.5 132.8C360.6 132.8 370.6 132.8 380.8 132.8C382 132.8 382.3 132.3 382.5 131.1C382.7 128.6 382.5 127.1 379.2 127.1C374.1 127.1 373.8 126.6 373.8 121.3C373.8 105.9 373.7 90.6 373.8 75.2C373.8 68 372.7 68.3 380.6 67.5C383.7 67.2 382 65 382.4 63.7C382.8 61.8 381.4 62.2 380.2 62.2C375.2 62.1 370.3 62.1 365.4 62.1C360.5 62.1 355.6 62.1 350.7 62.1C350.1 62.1 349.3 61.7 348.8 62.8C348 65.5 349 67.2 351.8 67.6C352.4 67.7 352.9 67.7 353.6 67.8C356.2 68 357.4 69.1 357.4 72C357.2 77.7 357.3 83.4 357.4 88.9C357.4 90.4 356.9 90.8 355.4 90.8C347.7 90.7 339.9 90.7 332.1 90.8C330.1 90.8 329.9 90.1 330 88.4C330.1 83.9 330 79.4 330 74.9C330 68.2 329.4 68 336.5 67.5C339.7 67.3 338.4 65.1 338.6 63.7C338.9 61.5 337.4 62 336.2 62C326.7 62 317.2 62 307.7 61.9C305.7 61.9 305.1 62.2 305.1 64.4C305 66.9 305.7 67.5 308 67.7Z" fill="white"/>
<path d="M190.6 187.9C190 183.8 189.1 179.6 188.5 175.4C188.3 173.7 187.7 173.2 185.9 173.2C181.3 173.3 176.7 173.2 172.1 173.2C158.1 173.2 144.1 173.2 130.1 173.2C129.1 173.2 127.7 172.7 127.4 174.4C126.6 179.4 125.7 184.2 124.8 189.1C124.6 190.1 125 190.3 125.9 190.4C128.3 190.7 129.8 190.1 130.9 187.7C133.7 181.2 138.6 178.2 145.8 179C146.2 179 146.6 179.1 146.9 179C149.1 178.7 149.8 179.4 149.8 181.8C149.7 198.3 149.7 214.7 149.7 231.3C149.7 237.7 149.7 237.9 143.2 238.4C140.2 238.7 141.4 240.7 141.1 242C140.8 244 142 243.9 143.4 243.9C152.6 243.9 161.8 243.8 171 244C173.9 244.1 174.5 243.2 174.4 240.5C174.3 238.3 173.1 238.6 171.8 238.4C165.7 237.7 165.7 237.7 165.7 231.6C165.9 224 165.9 215.9 165.9 208C165.9 200.4 165.9 192.6 165.9 185C165.9 179.2 165.9 179.4 171.8 179.2C177.4 179.1 181.4 181.2 184 186.2C184.5 187.3 185.2 188.4 185.9 189.4C187 191.6 189 190.6 190.4 190.4C191.9 190.3 190.8 188.7 190.6 187.9Z" fill="white"/>
<path d="M136.7 67.7C142.7 68.3 146.4 73 146.4 79.1C146.4 91.8 146.4 104.4 146.4 117.1C146.4 119.1 146.2 121.1 146 123.1C145.9 125.2 144.7 126.4 142.7 126.9C141.6 127.1 140.4 127.3 139.3 127.4C136.5 127.6 137.9 129.8 137.5 131.1C137.2 132.6 138 133 139.5 133C146.5 132.9 153.5 132.9 160.5 133C162 133 162.7 132.5 162.4 131C162.1 129.7 163.5 127.7 160.6 127.4C154.4 126.7 153.7 125.7 153.7 119.6C153.6 109.5 153.7 99.3 153.7 89.1C153.7 88.7 153.3 88 154.3 87.8C161.4 102.2 168.4 116.4 175.6 130.8C176.2 132.1 176.7 133.2 178.6 133.2C180.5 133.2 181 132.2 181.7 130.8C185.3 123.8 188.9 116.9 192.5 109.9C196.3 102.8 200 95.6 203.8 88.5C204 88.6 204.2 88.6 204.4 88.7C204.4 99.6 204.4 110.5 204.4 121.4C204.4 126.6 204.1 126.9 198.9 127.3C198.6 127.3 198.3 127.4 198.1 127.4C195.1 127.2 196.1 129.4 195.9 130.9C195.6 132.9 196.6 133.1 198.3 133C207.6 132.9 216.9 132.9 226.2 133C228.9 133.1 229.4 132.3 229.5 129.7C229.5 127 227.8 127.4 226.3 127.3C221.1 126.9 220.7 126.6 220.7 121.5C220.7 106.5 220.7 91.6 220.7 76.6C220.7 70 222.1 68.2 228.4 67.6C231.5 67.3 230.1 65.2 230.3 63.9C230.7 62.1 229.5 62.1 228.2 62.1C222.4 62.1 216.7 62.2 211 62.1C209.5 62.1 208.8 62.7 208.2 64C206.1 68.2 203.9 72.4 201.7 76.5C195.7 88.1 189.6 99.5 183.5 111.3C182.9 110.2 182.5 109.3 182.1 108.5C174.8 93.7 167.3 79.1 160 64.3C159.3 62.8 158.5 62 156.6 62.1C150.1 62.2 143.6 62.1 137.1 62.2C136 62.2 134.3 61.7 134.6 63.9C134.7 65.4 133.5 67.4 136.7 67.7Z" fill="white"/>
<path d="M96.4 133.5C119.3 129.5 134.9 110.1 133.8 86.8C132.8 64.3 113.2 47.2 89.6 48.2C65.1 49.3 46.3 68.4 46.4 92.5C46.5 96.4 47 100.7 48.3 104.8C54.3 125.2 74.6 137.3 96.4 133.5ZM75.6 119.1C71 113 68.9 105.9 67.9 98.3C66.6 89.1 66.6 79.9 69.3 70.9C72.7 59.7 80.6 53.8 90.7 54.6C98.1 55.3 103.4 59.6 107.2 65.8C112.4 74.5 113.4 84 113.5 94C113.1 101.3 112.4 108.7 109.1 115.6C102 130.3 85.4 132 75.6 119.1Z" fill="white"/>
<path d="M100.3 190.2C97.3 187.8 94.1 185.7 91.9 182.4C89.3 178.7 89.3 173.5 91.8 170C94.1 166.7 98.4 165.2 102.8 166.3C106.8 167.2 109.5 169.8 111.5 173.3C112.6 175.4 113.5 177.6 114.3 179.9C115.1 182.3 117 180.9 118.4 181.1C120.2 181.4 119.7 179.9 119.7 178.9C119.7 174.3 119.6 169.7 119.8 165.1C119.9 162.4 118.7 161.3 116.3 160.8C108.6 159.3 100.7 158.9 92.9 159.8C88.4 160.2 84.1 161.7 80.2 163.9C70.1 169.9 67.4 181.6 73.7 191.5C75.9 194.9 78.7 197.6 81.9 199.9C86.2 203 90.8 206 95.1 209.1C98.4 211.6 101.6 214.2 103.8 217.8C107.2 223.2 106.6 230.4 102.4 234.8C96.7 240.9 87.1 240.5 81.3 233.9C78.5 230.7 76.5 226.9 75.9 222.6C75.4 219.5 73.3 220.5 71.7 220.4C69.2 220.3 70.4 222.2 70.3 223.3C70.1 225.7 70.2 228.1 70.2 230.5C70.2 233.3 70.2 236.1 70.2 238.9C70.2 240.8 70.9 242 72.8 242.5C84.6 246.1 96.6 247.1 108.4 243.5C117.6 240.7 124.5 235.3 125.9 225.1C126.9 217 123.9 210.3 118.4 204.5C112.9 199.1 106.4 194.9 100.3 190.2Z" fill="white"/>
<path d="M231.2 131.4C230.9 132.9 232 132.9 233.2 132.9C239.1 132.9 244.9 132.9 250.8 132.9C252 132.9 253.2 132.9 252.9 131.1C252.6 129.7 254.1 127.6 251 127.2C248.1 126.9 247.3 125.7 248.1 122.9C249.1 119.3 250.5 115.9 251.6 112.3C251.9 111.2 252.5 111.1 253.5 111.1C259.9 111.1 266.3 111.1 272.8 111.1C274 111.1 274.6 111.5 275 112.8C275.9 115.9 277.2 118.9 278.2 122C279.4 125.7 278.8 126.8 274.9 127.4C272.1 127.9 273.6 129.9 273.4 131.2C273.1 133 274.3 133 275.6 133C279.8 133 284.1 133.1 288.2 133.1C292.6 133.1 297 133.1 301.4 133.1C302.2 133.1 303.4 133.2 303.2 131.9C303 130.6 304.2 128.2 302.4 127.9C297 127.1 295.5 122.9 293.8 118.8C287.2 101.1 280.6 83.5 274 65.9C272.2 61.3 272.2 61.5 267.3 61.3C264.9 61.2 263.6 61.8 263.1 64.2C262.8 65.5 262.2 66.7 261.7 67.9C254.9 85.4 248.4 102.9 241.1 120.3C239.4 124.2 237.3 127.2 232.6 127.8C229.9 127.9 231.4 130.1 231.2 131.4ZM255 102.6C257.9 95.4 260.6 88.1 263.5 80.4C266.2 88.1 268.7 95.5 271.1 102.8C271.5 103.9 271.2 104.3 270 104.3C265.4 104.3 260.8 104.2 256.2 104.3C254.6 104.4 254.6 103.7 255 102.6Z" fill="white"/>
<path d="M454.9 172.7C447.6 172.7 441.7 178.5 441.7 185.7C441.6 193.1 447.4 199 454.8 199.1C462 199.2 467.9 193.4 468 186.1C468.1 178.8 462.2 172.7 454.9 172.7ZM454.9 196.9C448.9 196.9 444.3 192 444.3 185.7C444.3 179.4 448.9 174.8 455 174.8C461 175 465.3 179.7 465.3 186C465.3 192.2 460.9 196.9 454.9 196.9Z" fill="white"/>
<path d="M503.2 2.30005C336.6 2.40005 170 2.40005 3.4 2.30005C0.599998 2.30005 0 2.90005 0 5.70005C0.1 104 0.1 202.3 0 300.6C0 303.4 0.599998 304 3.4 304C86.7 303.8 170.1 303.9 253.4 303.9C336.6 303.9 419.9 303.9 503.2 304C505.9 304 506.6 303.5 506.6 300.6C506.5 202.3 506.5 104 506.6 5.70005C506.6 2.90005 505.9 2.30005 503.2 2.30005ZM496.6 290.8C496.6 293.6 496 294.2 493.2 294.2C413.3 294.2 333.2 294.2 253.1 294.2C173.1 294.2 93.1 294.2 13.1 294.3C10.3 294.3 9.7 293.6 9.7 290.9C9.8 199.1 9.8 107.4 9.7 15.6C9.7 12.9 10.2 12.1 13 12.1C173.1 12.2 333.1 12.2 493.2 12.1C496 12.1 496.6 12.8 496.6 15.5C496.5 107.2 496.5 198.9 496.6 290.8Z" fill="white"/>
</g>
<defs>
<clipPath id="clip0">
<rect width="506.6" height="301.7" fill="white" transform="translate(0 2.30005)"/>
</clipPath>
</defs>
</svg>
