<svg width="136" height="40" viewBox="0 0 136 40" fill="none" xmlns="http://www.w3.org/2000/svg">
<path d="M14.472 12.352C14.184 12.976 13.032 15.352 10.2 15.352C7.248 15.352 5.424 12.76 5.424 10.072C5.424 7.552 7.128 4.888 10.176 4.888C12.624 4.888 13.968 6.664 14.472 7.984H19.224C18.744 5.2 15.768 0.904 10.2 0.904C4.392 0.904 0.888 5.56 0.888 10.096C0.888 14.896 4.68 19.336 10.248 19.336C14.544 19.336 18.192 16.552 19.224 12.352H14.472ZM19.8248 12.328C19.8248 15.592 22.1528 19.408 27.0008 19.408C31.8488 19.408 34.1768 15.592 34.1768 12.328C34.1768 9.064 31.8488 5.248 27.0008 5.248C22.1528 5.248 19.8248 9.064 19.8248 12.328ZM23.8088 12.328C23.8088 10.384 25.2728 8.968 27.0008 8.968C28.7288 8.968 30.1928 10.384 30.1928 12.328C30.1928 14.272 28.7288 15.688 27.0008 15.688C25.2728 15.688 23.8088 14.272 23.8088 12.328ZM35.4731 19H39.4571V1.24H35.4731V19ZM41.3803 19H45.3643V1.24H41.3803V19ZM56.0475 14.824C55.4955 15.52 54.8475 16.072 53.6235 16.072C52.0635 16.072 50.7435 15.136 50.5035 13.552H60.4875C60.5355 13.24 60.5835 13.024 60.5835 12.496C60.5835 8.44 57.6075 5.224 53.5515 5.224C49.4955 5.224 46.5675 8.656 46.5675 12.376C46.5675 16.336 49.8075 19.432 53.6235 19.432C54.9915 19.432 56.3115 19.024 57.4155 18.232C58.5435 17.464 59.4795 16.312 60.1275 14.824H56.0475ZM50.5515 10.864C50.7195 10.072 51.5115 8.584 53.5755 8.584C55.6395 8.584 56.4315 10.072 56.5995 10.864H50.5515ZM71.2511 13.936C70.8191 14.752 70.0271 15.712 68.3711 15.712C66.4751 15.712 65.2031 14.272 65.2031 12.328C65.2031 10.408 66.4751 8.848 68.3711 8.944C70.0271 8.944 70.8191 9.904 71.2511 10.816H75.2831C74.6111 7.552 71.7551 5.224 68.2271 5.224C64.2431 5.224 61.1951 8.392 61.1951 12.304C61.1951 16.264 64.2911 19.432 68.3231 19.432C71.9231 19.432 74.5871 16.96 75.3071 13.936H71.2511ZM81.3154 1.24H77.3314V5.68H75.3634V8.704H77.3314V19H81.3154V8.704H83.2354V5.68H81.3154V1.24ZM87.9774 5.68H83.9934V19H87.9774V5.68ZM87.9774 1.24H83.9934V4.264H87.9774V1.24ZM102.261 5.68H98.1326L95.5886 13.984H95.5406L92.9966 5.68H88.8686L93.6446 19H97.4606L102.261 5.68ZM111.435 14.824C110.883 15.52 110.235 16.072 109.011 16.072C107.451 16.072 106.131 15.136 105.891 13.552H115.875C115.923 13.24 115.971 13.024 115.971 12.496C115.971 8.44 112.995 5.224 108.939 5.224C104.883 5.224 101.955 8.656 101.955 12.376C101.955 16.336 105.195 19.432 109.011 19.432C110.379 19.432 111.699 19.024 112.803 18.232C113.931 17.464 114.867 16.312 115.515 14.824H111.435ZM105.939 10.864C106.107 10.072 106.899 8.584 108.963 8.584C111.027 8.584 111.819 10.072 111.987 10.864H105.939ZM117.231 19H121.215V1.24H117.231V19ZM131.226 5.68L128.682 13.408H128.634L125.97 5.68H121.722L126.666 18.328L124.554 23.44H128.778L135.45 5.68H131.226ZM1.608 39H5.784L5.64 25.704L5.688 25.656L9.48 39H12.48L16.272 25.656L16.32 25.704L16.176 39H20.352V21.24H14.496L11.016 32.928H10.968L7.44 21.24H1.608V39ZM36.4329 25.68H32.4489V27.096H32.4009C31.9209 26.28 30.6969 25.224 28.5129 25.224C24.9609 25.224 21.8169 27.96 21.8169 32.328C21.8169 36.144 24.2889 39.456 28.5129 39.456C30.0729 39.456 31.7289 38.856 32.4009 37.56H32.4489V39H36.4329V25.68ZM25.8009 32.376C25.8009 30.864 26.8089 28.944 29.0889 28.944C31.3449 28.944 32.4489 30.72 32.4489 32.328C32.4489 33.624 31.6089 35.736 29.1129 35.736C26.7129 35.736 25.8009 33.624 25.8009 32.376ZM52.2514 21.24H48.2674V26.808C47.8354 26.376 46.7074 25.224 44.3554 25.224C40.9714 25.224 37.7554 27.792 37.7554 32.304C37.7554 36.312 40.3954 39.432 44.4274 39.432C47.1154 39.432 48.0754 38.112 48.4114 37.56H48.4594V39H52.2514V21.24ZM41.7394 32.28C41.7394 30.744 42.8194 28.944 45.1234 28.944C47.3314 28.944 48.4834 30.672 48.4834 32.28C48.4834 33.672 47.5714 35.712 45.0754 35.712C43.2034 35.712 41.7394 34.344 41.7394 32.28ZM62.9372 34.824C62.3852 35.52 61.7372 36.072 60.5132 36.072C58.9532 36.072 57.6332 35.136 57.3932 33.552H67.3772C67.4252 33.24 67.4732 33.024 67.4732 32.496C67.4732 28.44 64.4972 25.224 60.4412 25.224C56.3852 25.224 53.4572 28.656 53.4572 32.376C53.4572 36.336 56.6972 39.432 60.5132 39.432C61.8812 39.432 63.2012 39.024 64.3052 38.232C65.4332 37.464 66.3692 36.312 67.0172 34.824H62.9372ZM57.4412 30.864C57.6092 30.072 58.4012 28.584 60.4652 28.584C62.5292 28.584 63.3212 30.072 63.4892 30.864H57.4412Z" fill="#353535"/>
</svg>
