<svg xmlns="http://www.w3.org/2000/svg" viewBox="0 0 631.6 420.67"><defs><style>.cls-1,.cls-2{fill:#728889;}.cls-2{opacity:0.15;}</style></defs><g id="Layer_2" data-name="Layer 2"><g id="Draw_Layer" data-name="Draw Layer"><path class="cls-1" d="M210.54,0l-3.69.15c-2.48.11-4.95.36-7.41.71-4.07.57-7.75,2.47-11.33,4.4-1.93,1-3.8,2.17-5.66,3.31-.94.57-1.87,1.13-2.78,1.73a21.47,21.47,0,0,0-2,1.49,12,12,0,0,0-2.25,2.68,11.7,11.7,0,0,0-1,2.34,10.91,10.91,0,0,0-.46,3,11.92,11.92,0,0,0,.1,2.07,14.15,14.15,0,0,0,.61,3A18.17,18.17,0,0,0,176.13,28a38.6,38.6,0,0,0,3,4.6l-.8,0a80.43,80.43,0,0,0-8,1.08,82.39,82.39,0,0,1-10.77.28c-1.92,0-3.83-.17-5.75-.25s-3.93,0-5.9-.12a56,56,0,0,0-5.79-.16l-1.16.11a8,8,0,0,0-4.1,1.41,5,5,0,0,0-2.12,3.3c-.14.74-.22,1.49-.29,2.24-.15,1.76-.22,3.52-.36,5.28s-.3,3.41-.51,5.11-.5,3.28-.69,4.93c-.22,1.9-.34,3.8-.58,5.7-.4,3.36-.55,6.73-1,10.09-.23,1.54-.46,3.07-.62,4.62s-.21,3.18-.25,4.77a13.09,13.09,0,0,0,.11,1.88,12.32,12.32,0,0,0,.7,3.41,5.05,5.05,0,0,0,1.29,2.21,13.48,13.48,0,0,0,1.26,1,5.77,5.77,0,0,0,4.44.42c.57-.13,1.11-.33,1.69-.43l1.33-.23a22.49,22.49,0,0,1,4,0,21.71,21.71,0,0,1,3.81,1.05,23.11,23.11,0,0,1,3.24,1.87,14.27,14.27,0,0,1,1.56,1.55,19.74,19.74,0,0,1,1.42,2.49,16.12,16.12,0,0,1,.58,2.09,29.4,29.4,0,0,1-.18,5c-.2,1.27-.48,2.52-.8,3.77a39.08,39.08,0,0,1-1.79,5.14,17.35,17.35,0,0,1-1.33,2.48c-.15.15-.3.3-.46.44a28.29,28.29,0,0,1-4.43,2.72,21.31,21.31,0,0,1-3.51,1,13.81,13.81,0,0,1-2.49,0,24.93,24.93,0,0,1-3.29-1,29.75,29.75,0,0,1-3.42-2.05,3.84,3.84,0,0,0-5.22,1.37,3.92,3.92,0,0,0-.39,2.94,4,4,0,0,0,1.76,2.28,30.75,30.75,0,0,0,3.26,2,21.67,21.67,0,0,0,3.49,1.34,17.69,17.69,0,0,0,5,.79,18.7,18.7,0,0,0,3-.3,21.2,21.2,0,0,0,7.65-2.94c.7-.41,1.36-.89,2-1.36a13.29,13.29,0,0,0,3.06-2.73,25.75,25.75,0,0,0,3.09-6c.51-1.22,1-2.44,1.4-3.71.29-.94.61-1.88.84-2.84.32-1.38.49-2.78.68-4.18a20.85,20.85,0,0,0-.18-7,13,13,0,0,0-.77-2.43,18.57,18.57,0,0,0-7.85-9.5,28.48,28.48,0,0,0-5.67-2.8,21.28,21.28,0,0,0-6.93-1.4,17.78,17.78,0,0,0-2.31.07,48.5,48.5,0,0,1,.43-5.42c-.06.42-.11.85-.17,1.28a101.59,101.59,0,0,0,.93-10.14c.1-3.06.29-6.11.32-9.16,0-1.33.16-2.65.2-4s0-2.78,0-4.18-.11-3-.2-4.54c-.06-1-.1-2-.08-2.92a19.51,19.51,0,0,1,2.42-.09c1,0,2,.13,3,.19,2.23.14,4.47.21,6.7.38,2,.14,4,.41,6.09.57s4.25.28,6.38.36c3.76.13,7.45-.55,11.2-.68,2.23-.08,4.45,0,6.68,0,.82,0,1.64,0,2.46,0a3.76,3.76,0,0,0,.67,0,6.24,6.24,0,0,0,2.39-.67,4.41,4.41,0,0,0,1.67-1.73,4.88,4.88,0,0,0,.44-3.63,11.45,11.45,0,0,0-2.25-3.95c-.84-1.11-1.65-2.23-2.47-3.36a39.91,39.91,0,0,1-3.42-5.58,11.4,11.4,0,0,1-.42-1.52c0-.4,0-.79,0-1.19a6.09,6.09,0,0,1,.17-.61l.15-.27a8.08,8.08,0,0,1,.6-.57c2.28-1.64,4.75-3.06,7.17-4.47a63.55,63.55,0,0,1,5.67-3,25.18,25.18,0,0,1,4.36-1.22c1.84-.22,3.68-.35,5.53-.46A43,43,0,0,1,213,9c.35.07.69.15,1,.25l.35.2c.14.13.27.27.41.42a14.92,14.92,0,0,1,1.08,2c.54,1.32,1,2.66,1.56,4a22.12,22.12,0,0,1,1.12,3.78,22.93,22.93,0,0,1,0,4.06,20.15,20.15,0,0,1-.95,3.22,15.68,15.68,0,0,1-1.09,1.91c-.35.39-.71.77-1.1,1.13a6.13,6.13,0,0,0-2.27,4.78,5.16,5.16,0,0,0,.71,2.63A10.63,10.63,0,0,0,215.25,39a16.46,16.46,0,0,0,2,1.55c.79.55,1.6,1.06,2.42,1.55a30.15,30.15,0,0,0,3.73,1.75,11.36,11.36,0,0,0,2.27.67,30.92,30.92,0,0,0,6.37.62c1.7,0,3.39-.2,5.08-.3s3.67-.14,5.5-.26A38.57,38.57,0,0,0,249,43.55c1-.23,1.91-.56,2.88-.82.69-.17,1.38-.32,2.08-.43a13.11,13.11,0,0,1,2.08-.06c.79,0,1.58.1,2.37.06a4.47,4.47,0,0,0,1.18-8.78c-1.23-.26-2.51-.38-3.76-.54a17.48,17.48,0,0,0-4.73.22,36.3,36.3,0,0,0-3.85.87,32.37,32.37,0,0,1-3.22.69c-2.49.21-5,.13-7.47.22-1.17,0-2.34.13-3.51.14a25.89,25.89,0,0,1-3.41-.19,17.93,17.93,0,0,1-2.88-.75l-.88-.44c.18-.29.34-.59.5-.89a22,22,0,0,0,2.34-8.14,15.2,15.2,0,0,0,0-2.94,34.22,34.22,0,0,0-.56-3.9A30.14,30.14,0,0,0,226.08,12c-.78-1.87-1.57-3.75-2.52-5.54a15,15,0,0,0-2.34-3.14A10.19,10.19,0,0,0,217.4.85a15.05,15.05,0,0,0-3.75-.76A13.57,13.57,0,0,0,212,0c-.48,0-1,0-1.42,0ZM181.9,36.21l0,0,.12.16-.15-.19Zm-40.07,4.15-.3,0h0a1.53,1.53,0,0,1,.3,0Zm-1.23.28-.12.06.12-.06ZM153,112.57c-.06.15-.12.3-.19.45.07-.15.13-.3.19-.45Z"/><path class="cls-1" d="M260.94,38.11a5,5,0,0,0-1.39,3.35c-.35,6.2-.6,12.4-.89,18.6-.13,2.69-.27,5.37-.4,8.06l-.18,4.08a20.05,20.05,0,0,0,.24,5.07,4.62,4.62,0,0,0,8.9,0,21.93,21.93,0,0,0,.39-4.64c0-1.47.08-2.94.14-4.41.1-2.56.23-5.13.35-7.7.3-6.36.55-12.71.91-19.06a4.73,4.73,0,0,0-8.07-3.35Z"/><path class="cls-1" d="M292.34,33.41c-4.24,0-8.5.22-12.73.43-4.65.22-9.29.31-13.93.64a4.79,4.79,0,0,0-3.23,1.34,4.57,4.57,0,0,0,0,6.47,4.47,4.47,0,0,0,3.23,1.34c3.58-.26,7.16-.3,10.74-.46,3.85-.17,7.69-.34,11.54-.43,1.87-.05,3.74-.09,5.61-.09s3.45.16,5.16.25c3.53.18,7.06.13,10.57.57l-1.19-.16,2.11.28a48.07,48.07,0,0,0,5.68.85A4.2,4.2,0,0,0,318,36.61a21.18,21.18,0,0,0-6-1.78c-2.21-.34-4.42-.63-6.65-.83s-4.41-.23-6.62-.35c-2.05-.1-4.09-.24-6.15-.24Zm18.59,10.27.35,0-.35,0Z"/><path class="cls-1" d="M346.13,39.43a4.66,4.66,0,0,0-.63,2.31l.17,1.22a4.64,4.64,0,0,0,1.11,1.95,7.55,7.55,0,0,1,.55,1,13.91,13.91,0,0,1,.46,1.68,22.63,22.63,0,0,1-.09,3.68,24.3,24.3,0,0,1-1.23,4.59,15.11,15.11,0,0,1-1,1.94,23.57,23.57,0,0,1-3,2.76,64.42,64.42,0,0,1-11.37,6.8,17,17,0,0,1-2.88.76,22.38,22.38,0,0,1-4.33-.07,13.67,13.67,0,0,1-1.67-.44l-.19-.1a12.89,12.89,0,0,1-1.08-1.14,46.53,46.53,0,0,1-3.74-6.68,19,19,0,0,1-1-3.31,13.94,13.94,0,0,1,0-2.33,19.19,19.19,0,0,1,.78-3.07,42.9,42.9,0,0,1,4.07-6.5,4,4,0,0,0,.41-3.12,4.05,4.05,0,0,0-5-2.83,4.29,4.29,0,0,0-2.42,1.86c-.73,1-1.47,2-2.16,3.1s-1.2,2-1.75,3a18.94,18.94,0,0,0-1.76,5.05,22.51,22.51,0,0,0-.47,3.84,13.32,13.32,0,0,0,.25,2.6,22.32,22.32,0,0,0,.79,3.25,37.7,37.7,0,0,0,3.18,6.7A25.14,25.14,0,0,0,314,70.85c.49.65,1,1.3,1.51,1.9a9.62,9.62,0,0,0,3.24,2.38,14.6,14.6,0,0,0,3.15,1.06c.87.18,1.77.25,2.66.37a20.62,20.62,0,0,0,8.23-.63,20.21,20.21,0,0,0,3.34-1.37c.53-.25,1.06-.5,1.59-.77,1-.52,2.08-1.05,3.1-1.62a60.78,60.78,0,0,0,5.35-3.37,39.07,39.07,0,0,0,5.39-4.38,16.91,16.91,0,0,0,3.36-5.35,26,26,0,0,0,1.89-6.4c.21-1.33.41-2.67.5-4a18.82,18.82,0,0,0-.24-3.82c-.47-3.32-2.45-6.49-5.77-7.52a4.17,4.17,0,0,0-1.21-.18,4.69,4.69,0,0,0-4,2.29ZM322.4,67.66l.59.25a5.22,5.22,0,0,1-.59-.25Z"/><path class="cls-1" d="M387.88,32.76c-1.52.07-3,.19-4.54.38s-3.27.52-4.91.78a34.36,34.36,0,0,1-5.37.08c-2.28-.12-4.55-.26-6.83-.25s-4.3,0-6.45-.12c-2.34-.14-4.65-.37-7-.65l-.63-.09L351,32.73a4.29,4.29,0,0,0-2.21.6,4.38,4.38,0,0,0-2,2.62,4.33,4.33,0,0,0,.44,3.37,4.15,4.15,0,0,0,2.62,2c1.87.27,3.78.6,5.68.74,1.51.11,3,.22,4.55.3,2.69.13,5.39,0,8.08,0,1.26,0,2.53,0,3.79.11s2.63.14,4,.11a59.63,59.63,0,0,0,8-1c2.07-.24,4.15-.33,6.23-.42,1.2-.05,2.4-.08,3.59-.17A6.23,6.23,0,0,0,398,39.34a3.67,3.67,0,0,0,0-5.11c-1.36-1.44-3.47-1.56-5.33-1.57h-.47c-1.45,0-2.89,0-4.33.1Z"/><path class="cls-1" d="M391.12,38.89c0,3.15,0,6.31.1,9.47s.42,6.18.78,9.24c.29,2.49.54,5,.69,7.47,0,.35,0,.69.06,1a6.27,6.27,0,0,0,1.69,4.29A5.37,5.37,0,0,0,398.2,72a5.46,5.46,0,0,0,3.71-1.54l.26-.23a18.71,18.71,0,0,1,2.23-1.25,30.89,30.89,0,0,1,5.71-1.68,15.12,15.12,0,0,1,2.13,0,18.07,18.07,0,0,1,2.29.64,33.57,33.57,0,0,1,5.72,3.57,15.07,15.07,0,0,1,1.24,1.15q.25.41.48.84a24.07,24.07,0,0,1,1.08,4.23,36.41,36.41,0,0,1,.35,8,50.58,50.58,0,0,1-2.17,8.38,18.57,18.57,0,0,1-1.42,2.39,29.3,29.3,0,0,1-3.45,3.33,26.64,26.64,0,0,1-3.11,1.9,25,25,0,0,1-4.2,1.12,31.11,31.11,0,0,1-4.63.14,13.18,13.18,0,0,1-1.52-.43,38.45,38.45,0,0,1-5.47-3.28,18.66,18.66,0,0,1-1.57-1.51,11.63,11.63,0,0,1-.64-1.07,16.09,16.09,0,0,0-1.38-3.39,5.45,5.45,0,0,0-10,1.3c-1,3.82,1.19,7.58,3.66,10.33a25.89,25.89,0,0,0,6.5,4.77,23.52,23.52,0,0,0,9,3.38,27,27,0,0,0,6.66-.34,24.39,24.39,0,0,0,8.33-2.53,28.76,28.76,0,0,0,7.23-5.71,27.36,27.36,0,0,0,3.08-4,19,19,0,0,0,2.11-5.12c.36-1.34.68-2.68,1-4a33,33,0,0,0,1.07-8.2c0-1.49-.21-3-.35-4.47a42.61,42.61,0,0,0-1-6,19.73,19.73,0,0,0-1.76-4.46A13.2,13.2,0,0,0,426,64.39c-.82-.68-1.69-1.3-2.54-1.94a27.3,27.3,0,0,0-6.8-3.73,14.43,14.43,0,0,0-3.1-.74,18.41,18.41,0,0,0-3.78-.21,26.1,26.1,0,0,0-5.17.93q-.94.24-1.86.54c-.11-.72-.23-1.44-.34-2.15-.33-2.85-.51-5.71-.71-8.57-.1-1.44-.05-2.89-.06-4.33,0-1.77,0-3.53-.05-5.3a5.23,5.23,0,0,0-10.45,0Zm29.6,33,.29.22-.29-.22Z"/><path class="cls-1" d="M387.59,104.11a4.15,4.15,0,0,0-1.15,2.78c-.24,3-.45,5.94-.5,8.92,0,2.57,0,5.13,0,7.69,0,2.82,0,5.64,0,8.46,0,2.64.16,5.27.28,7.91s.31,5,.39,7.57.15,5.34.13,8c0,4.57-.24,9.13-.33,13.7,0,1.69-.06,3.38.05,5.07s.28,3.58.39,5.38c.06,1,.1,1.93.13,2.89a22.77,22.77,0,0,0-8-2.57,15.07,15.07,0,0,0-5.51.29,15.58,15.58,0,0,0-2.51,1,14.91,14.91,0,0,0-1.78.91,26.67,26.67,0,0,0-3.43,2.57,17.08,17.08,0,0,0-5.27,8.41,31.31,31.31,0,0,0-.89,4.79c-.19,1.46-.35,2.92-.48,4.39-.24,2.57-.3,5.18-.31,7.76a40.6,40.6,0,0,0,.82,8.15,34.11,34.11,0,0,0,2.65,7.58,31.21,31.21,0,0,0,4.35,6.82,11.31,11.31,0,0,0,7.21,3.57,37.69,37.69,0,0,0,5,.5c3.23.07,6.92-.23,9.57-2.28A12.45,12.45,0,0,0,390,233a16.5,16.5,0,0,0,1.08-1.38c.32-.45.63-.9.93-1.37a6.71,6.71,0,0,0,1-5.35,4.09,4.09,0,0,0-1-1.8,3.86,3.86,0,0,0-2.89-1.19,7.71,7.71,0,0,0-2.86.78,7.85,7.85,0,0,0-1.8,1.38c-.62.55-1.1,1.22-1.68,1.81h0l-.62.16a25.22,25.22,0,0,1-3.89-.16,24.65,24.65,0,0,1-3.11-.72,29.14,29.14,0,0,1-2.46-4.44,27.38,27.38,0,0,1-1.11-3.35,27.89,27.89,0,0,1-.56-2.75,63.12,63.12,0,0,1-.09-7.66c.1-2.71.29-5.4.59-8.09a25.18,25.18,0,0,1,.92-3.95,13.81,13.81,0,0,1,.72-1.24A19.15,19.15,0,0,1,374.8,192a16.84,16.84,0,0,1,1.78-1c.19-.06.39-.12.58-.16.48,0,1,0,1.45,0a18.53,18.53,0,0,1,2.75.72,32,32,0,0,1,3.73,2.24c.63.52,1.23,1.07,1.81,1.65a6.35,6.35,0,0,0,2.88,1.84,5.19,5.19,0,0,0,2.87.05,7.45,7.45,0,0,0,1.34-.56,5.07,5.07,0,0,0,1.83-1.82c1.09-1.52.85-3.53.76-5.29-.07-1.2-.11-2.41-.16-3.62-.09-2.3-.09-4.6-.18-6.9-.08-2.13-.26-4.26-.33-6.39s0-4-.1-6.06c-.08-2.36-.16-4.72-.27-7.08-.23-5.26-.48-10.52-.85-15.78-.21-2.91-.43-5.83-.6-8.74s-.21-5.71-.24-8.56-.09-5.93-.06-8.89c0-1.46,0-2.92.08-4.38.14-2.1.26-4.21.43-6.31a3.93,3.93,0,0,0-6.71-2.78Z"/><path class="cls-1" d="M390.72,228.05a4.54,4.54,0,0,0-3.15,5.54c.57,1.68,1.17,3.34,1.71,5a29.19,29.19,0,0,1,1,4.88c.32,3.12.34,6.26.36,9.39s0,6.5,0,9.75c0,3.07.25,6.1.46,9.16.09,1.37.17,2.75.24,4.12,0,.4,0,.8.08,1.19l-1.54-.07c-1.78-.07-3.56-.12-5.35-.18s-3.66-.15-5.5-.18-3.62.1-5.43.11c-3.5,0-7,0-10.5-.13-1.71,0-3.42-.06-5.13-.2-1.51-.12-3-.34-4.51-.54l1.26.17c-1-.14-2-.29-3-.37a5.55,5.55,0,0,0-1,.09l-1,.15c-.64.08-1.27.16-1.9.26a5,5,0,0,0-2.21,8.38,4.76,4.76,0,0,0,3.54,1.46,17.86,17.86,0,0,0,2.34-.4l.92-.26c1.14,0,2.29,0,3.42.1,1.94.13,3.85.17,5.79.11,4.13-.13,8.24-.3,12.35-.66,2.08-.18,4.15-.4,6.23-.54s4.26-.14,6.38-.18,4.19-.08,6.28-.09h.78a6.49,6.49,0,0,0,3.42-.55,6,6,0,0,0,2.36-3.42,8,8,0,0,0,.68-3c0-.88,0-1.75,0-2.63,0-1.79,0-3.59-.11-5.38s-.21-3.61-.21-5.41,0-3.68,0-5.52c0-4-.06-8-.21-12a53.65,53.65,0,0,0-.86-7.05,55.13,55.13,0,0,0-2.43-8,4.72,4.72,0,0,0-2.07-2.69,4.45,4.45,0,0,0-2.28-.61,4.38,4.38,0,0,0-1.19.16Zm1.67,52.67a.13.13,0,0,1,0,.06v-.06Z"/><path class="cls-1" d="M343.2,278.34a4.45,4.45,0,0,0-2,2.64,4.66,4.66,0,0,0,.45,3.39c1.06,2.12,2.06,4.25,3,6.42a35.62,35.62,0,0,1,2.41,7.08,12.82,12.82,0,0,1,0,1.64c-.05.2-.1.39-.17.59l0,0-.13.12a13.38,13.38,0,0,1-1.28.71,28.57,28.57,0,0,1-4.65,1.1,54,54,0,0,1-10.71.23,30,30,0,0,1-5.42-1.39,20.5,20.5,0,0,1-3.23-1.89,12.19,12.19,0,0,1-1.24-1.25,21.88,21.88,0,0,1-1.75-3.18,22.54,22.54,0,0,1-.94-3.61,16.12,16.12,0,0,1,0-2.6,15.91,15.91,0,0,1,.61-2.25,10.45,10.45,0,0,1,.73-1.25A5.34,5.34,0,0,0,320,282.7c0-.32.09-.65.13-1a3.64,3.64,0,0,0-.5-1.85,3.58,3.58,0,0,0-2.19-1.69,4.69,4.69,0,0,0-3.35.41,6.07,6.07,0,0,0-1.63,1.31,12.4,12.4,0,0,0-2.35,3.87,16.42,16.42,0,0,0-.71,9.11,23,23,0,0,0,.6,2.68,26.74,26.74,0,0,0,2.64,6,17.91,17.91,0,0,0,5.26,5.46,20.63,20.63,0,0,0,5.7,2.67,35.48,35.48,0,0,0,12.59,1.39,55.22,55.22,0,0,0,7.7-.8c1.1-.2,2.17-.45,3.24-.75a16,16,0,0,0,4.25-1.95,9.12,9.12,0,0,0,2.21-2,9.45,9.45,0,0,0,1.74-3.13c1-3.33.42-6.72-.61-9.95-.52-1.62-1.21-3.19-1.86-4.76-1.09-2.68-2.32-5.28-3.6-7.86a4.2,4.2,0,0,0-3.81-2.17,4.38,4.38,0,0,0-2.22.58Zm3.5,22a3.32,3.32,0,0,1-.37.47c.13-.15.25-.31.37-.47Zm-.23.12-.39.3.39-.3Z"/><path class="cls-1" d="M307.49,276.36c-1.77.13-3.54.34-5.29.57a92.84,92.84,0,0,1-11.9.62c-3.72,0-7.43-.06-11.15-.18-1.83-.06-3.65-.13-5.48-.18s-3.87-.38-5.81-.46c-.95,0-1.91,0-2.86,0-.52,1.08-1,2.16-1.52,3.26-.51,1.4-1,2.81-1.34,4.24l3.6-.27c.76-.06,1.53-.13,2.29-.16,1.06,0,2.11,0,3.17,0,1.83.07,3.66,0,5.48-.07,3.71-.13,7.43-.21,11.14-.35,3.18-.12,6.35-.31,9.52-.59,3-.26,5.93-.74,8.88-1.17a59.82,59.82,0,0,1,7.33-.29,2.58,2.58,0,0,0,0-5.16h-1.33c-1.58,0-3.15,0-4.73.14Z"/><path class="cls-1" d="M133.18,122.19a8.78,8.78,0,0,0-1.08,4.09c-.11.94-.22,1.88-.31,2.82q-.28,3.27-.61,6.53c-.37,3.74-.64,7.47-1,11.2-.35,4-.81,8-1.1,12.08-.13,1.92-.21,3.84-.33,5.76s-.24,3.59-.24,5.39c0,4.61-.11,9.22-.25,13.82,0,.79,0,1.58-.08,2.37a20.62,20.62,0,0,0-2.17-.62,28,28,0,0,0-3.73-.64c-.53-.06-1-.11-1.59-.12a12.84,12.84,0,0,0-3.68.57,17,17,0,0,0-7.22,4.72,46.33,46.33,0,0,0-4,5,32.66,32.66,0,0,0-2.38,3.87,40.56,40.56,0,0,0-4,10.57,59.21,59.21,0,0,0-1,6.91,42.44,42.44,0,0,0-.16,5.29c.16,4.59,1.39,9.21,4.69,12.56a22.21,22.21,0,0,0,4.62,3.36,28.86,28.86,0,0,0,3.3,1.51,19.43,19.43,0,0,0,4.1,1.18c4.22.77,8.69,1.38,12.92.3a8.79,8.79,0,0,0,1.22-.42c.27-.1.52-.2.76-.31.06,1,.12,2,.16,3,.15,3.73.17,7.46.14,11.2,0,1.8.1,3.58.2,5.37.12,2.18.33,4.33.65,6.5.47,3.21,1,6.39,1.66,9.58.15.79.38,1.55.6,2.31.15.55.27,1.11.47,1.64a16.55,16.55,0,0,0,1.06,2.35,8.07,8.07,0,0,0,2.87,2.76c2.31,1.43,5.11,1.11,7.68.88,1.94-.18,3.88-.33,5.82-.52,7.74-.75,15.54-.74,23.31-.87a108.2,108.2,0,0,0,12.34-.68q3.24-.44,6.5-.72l.88-.07a85.46,85.46,0,0,1-1-8.75c-1.44,0-2.87.11-4.3.21-1.81.13-3.61.28-5.43.33s-3.59,0-5.39,0c-7.68-.13-15.38-.22-23.05.25-2.2.14-4.39.37-6.58.54-1.86.14-3.72.35-5.58.44-.1-.36-.19-.71-.3-1.07-.36-1.22-.57-2.49-.83-3.74-.5-2.39-.84-4.81-1.18-7.23-.33-2.85-.55-5.73-.7-8.6-.16-3.14-.15-6.29-.31-9.43-.09-1.7-.2-3.41-.31-5.11s-.27-3.15-.34-4.73c0-.85-.09-1.7-.14-2.56,0-.42-.07-.84-.1-1.26a8.5,8.5,0,0,0-.87-3.67,5,5,0,0,0-3-2.27,4.86,4.86,0,0,0-4.7,1.27c-.3.31-.57.61-.88.89s-.81.56-1.21.86a22.19,22.19,0,0,1-2.25,1.52c-.31.09-.63.16-.94.23a24.67,24.67,0,0,1-4-.18,34.06,34.06,0,0,1-5.73-1.34,20.33,20.33,0,0,1-1.91-1,15.26,15.26,0,0,1-1.45-1,11,11,0,0,1-1-.94c-.17-.27-.33-.55-.47-.83a17.21,17.21,0,0,1-.55-2.14A42.52,42.52,0,0,1,110,216a41.62,41.62,0,0,1,2.25-8.41c.65-1.43,1.34-2.86,2.11-4.24a43.26,43.26,0,0,1,2.9-4.35,24.43,24.43,0,0,1,2.52-2.67l.57-.35.61-.17a12.74,12.74,0,0,1,1.38.06,21.19,21.19,0,0,1,2.93.71q.61.32,1.2.69c.25.23.49.46.72.71.34.5.66,1,1,1.53a9,9,0,0,0,1.31,1.8,5.8,5.8,0,0,0,2.51,1.5,5.69,5.69,0,0,0,4.31-.54c3.25-1.91,3.36-6,3.31-9.36-.06-3.7-.19-7.43-.48-11.13q-.45-5.86-1-11.73c-.36-3.71-.51-7.43-.75-11.15-.2-2.9-.46-5.79-.64-8.69s-.29-5.57-.34-8.35c0-3-.08-6.06-.1-9.09,0-1.4-.06-2.79-.09-4.19q0-.84-.06-1.71l1,1.21a1.33,1.33,0,1,0,1.89-1.88c-.62-.72-1.22-1.43-1.81-2.17-.18-.26-.37-.51-.53-.78a5.78,5.78,0,0,0-.94-1.41,1.62,1.62,0,0,0-1.13-.47,1.79,1.79,0,0,0-1.46.81Z"/><path class="cls-1" d="M135.81,161.86a5.7,5.7,0,0,0,2,7.71,22.32,22.32,0,0,0,3.75,1.89,21,21,0,0,0,3.75,1c1.22.22,2.44.42,3.67.59,1.46.21,2.91.36,4.39.44,1.18.06,2.4,0,3.58-.09a107.31,107.31,0,0,1,13.3.18,28.46,28.46,0,0,1,2.86.59l1.85.47a13.46,13.46,0,0,0,2.08.34,8.9,8.9,0,0,0,2.12-.18,4.76,4.76,0,0,0,2.1-1.23,4.65,4.65,0,0,0,1.22-2.1,4.71,4.71,0,0,0-1.22-4.62,16.94,16.94,0,0,0-7.47-3.59,42.1,42.1,0,0,0-4.74-.75c-1.18-.16-2.37-.21-3.56-.28-2.59-.14-5.17-.14-7.76-.07-1.21,0-2.43.08-3.64.09a30.64,30.64,0,0,1-3.16-.2,34,34,0,0,1-5.74-1.25c-.58-.3-1.13-.64-1.69-1a5.34,5.34,0,0,0-2.77-.77,5.79,5.79,0,0,0-4.94,2.79Z"/><path class="cls-1" d="M259.73,244.37a4,4,0,0,0-1.07,2.6,72.23,72.23,0,0,0-.06,8.06c0,2.7,0,5.4-.09,8.1s-.08,5.16-.16,7.74c-.09,3-.26,6-.14,9a4.21,4.21,0,1,0,8.41,0c-.1-2.91.05-5.83.13-8.75.07-2.67.09-5.34.12-8a93.57,93.57,0,0,0-1-17.14,3.67,3.67,0,0,0-3.54-2.69,3.72,3.72,0,0,0-2.6,1.07Z"/><path class="cls-1" d="M199.68,241.91a19.39,19.39,0,0,0-2.9.78c-.53.18-1.06.4-1.59.61s-1.32.55-2,.85a12.44,12.44,0,0,0-2.29,1.58,20,20,0,0,0-4.05,4.17,21.11,21.11,0,0,0-2.23,4.33,26.62,26.62,0,0,0-1.18,4.07,24,24,0,0,0-.71,7.05,30,30,0,0,0,.94,5.24,28.39,28.39,0,0,0,1.89,4.69,20.34,20.34,0,0,0,2.6,3.83c1,1.21,1.94,2.39,2.91,3.58a3.49,3.49,0,0,0,2.57,1.06,3.62,3.62,0,0,0,3.62-3.62,3.86,3.86,0,0,0-1.06-2.57c-.84-1-1.68-2.06-2.51-3.1a18.46,18.46,0,0,1-1.56-2.51,19.9,19.9,0,0,1-.78-2.37c-.21-.84-.37-1.69-.5-2.54a22.64,22.64,0,0,1,0-3.19,31.94,31.94,0,0,1,1.74-6,18.93,18.93,0,0,1,1.34-2.41,19.84,19.84,0,0,1,2-1.93,12.48,12.48,0,0,1,1.59-1,25,25,0,0,1,4.17-1.07,36.35,36.35,0,0,1,7.3-.16,17.9,17.9,0,0,1,2.86.81,27.67,27.67,0,0,1,4.11,2.39,14.88,14.88,0,0,1,1.21,1.17,13.3,13.3,0,0,1,.66,1.16,26.48,26.48,0,0,1,1.13,4.48,19.69,19.69,0,0,1,.06,2.66c-.3,1.56-.78,3.08-1.19,4.62-.25.89-.47,1.77-.64,2.68a11.8,11.8,0,0,0-.28,2.84,7.64,7.64,0,0,0,1.37,4,13.28,13.28,0,0,0,6.86,4.75A38.05,38.05,0,0,0,232,284.2a75.65,75.65,0,0,0,12.86.14c2.26-.1,4.52-.11,6.77-.24,1-.06,2.08-.17,3.11-.26a39.46,39.46,0,0,0,4-.51,4,4,0,0,0,1.78-6.77,3.86,3.86,0,0,0-2.86-1.18c-2,.18-4.05.31-6.07.42-2.25.12-4.51.06-6.77.15-2,.08-4.06.24-6.08.23a54.37,54.37,0,0,1-6-.32,28.93,28.93,0,0,1-5-1.3,10.58,10.58,0,0,1-1.09-.62l-.36-.36c.4-1.46,1-2.9,1.48-4.31a19.75,19.75,0,0,0,1.26-6.58,30.39,30.39,0,0,0-1.11-7.34,21.66,21.66,0,0,0-1.62-4.18A13.18,13.18,0,0,0,224,248a17.58,17.58,0,0,0-3-2.45,30.66,30.66,0,0,0-6.22-3.18,20.66,20.66,0,0,0-7.35-1.25h-.28a43.75,43.75,0,0,0-7.49.78Zm26.53,32.27a2,2,0,0,0,0,.24,2,2,0,0,1,0-.24Z"/><path class="cls-2" d="M198.3,181a23.24,23.24,0,0,0-2.57,1.08,19.05,19.05,0,0,0-6.8,6.43c-2.15,3.2-2.87,6.25-3.8,9.93a29.08,29.08,0,0,0-.65,6.58,33.11,33.11,0,0,0,.63,6.6,18.72,18.72,0,0,0,1.45,5.23,25.06,25.06,0,0,0,2.55,4.8,11,11,0,0,0,4.9,3.91,34.94,34.94,0,0,0,5.82,1.79c2.27.5,4.71-.47,6.79-1.18a13.94,13.94,0,0,0,3.65-1.85c2.88-2,4.35-4.92,5.64-8.1,1.58-3.88,1.86-8.22,2-12.34a31.91,31.91,0,0,0-.68-6.9,30.58,30.58,0,0,0-1.81-6.13c-1.55-3.28-2.59-5.29-5.36-7.54a8.82,8.82,0,0,0-6.62-3.61l-.37,0a16.14,16.14,0,0,0-4.8,1.32Z"/><path class="cls-2" d="M315.46,100.84a7.8,7.8,0,0,0,0,2.64,3.86,3.86,0,0,0,1.32,2.63c1.36.87,2.76,1.68,4.15,2.5,1,.58,2,1.07,3,1.58,2.43,1.23,4.88,2.4,7.34,3.56l6.6,3.11c1,.49,2.09,1,3.14,1.43.5.22,1,.44,1.51.62a10.8,10.8,0,0,0,1.59.48,4.24,4.24,0,0,0,.91-.25l.65-.68.41-.82a6.57,6.57,0,0,0,.36-2.24,4.71,4.71,0,0,0-1.29-3.59,6.88,6.88,0,0,0-1.64-1L341.7,110l-3-1.41-6.29-2.91c-2.38-1.11-4.75-2.23-7.09-3.41-.94-.47-1.9-.9-2.8-1.43-1.47-.87-3-1.72-4.39-2.64a1.28,1.28,0,0,0-.69-.23c-1.15,0-1.79,2-1.94,2.87Z"/><path class="cls-2" d="M335.54,91.68c-1.94,4.16-3.87,8.32-5.85,12.47s-4.17,8-5.49,12.31a6.43,6.43,0,0,0-.35,2.13,5.11,5.11,0,0,0,.74,2.91,1.35,1.35,0,0,0,1.07.7c.76,0,1.24-.88,1.45-1.48a122.61,122.61,0,0,1,5.48-12.15c2-4.17,4-8.36,5.92-12.56a6.31,6.31,0,0,0,.35-2.16,5.18,5.18,0,0,0-.75-3,1.38,1.38,0,0,0-1.09-.71c-.82,0-1.19.9-1.48,1.5Z"/><path class="cls-2" d="M197.66,154.66a6.54,6.54,0,0,0-.92,2.53,10,10,0,0,0,0,3.27c.84,3.3,1.67,6.59,2.67,9.85a4.65,4.65,0,0,0,1.58,2.31c1.19.7,2.19.08,2.92-.92a8.16,8.16,0,0,0,1.16-3.16,12.48,12.48,0,0,0-.46-5.85c-.43-1.38-.84-2.77-1.4-4.1a17.42,17.42,0,0,0-1.27-2.56,9.68,9.68,0,0,0-1.93-2.11,1.15,1.15,0,0,0-.75-.28,2.25,2.25,0,0,0-1.6,1Z"/><path class="cls-2" d="M194,136.71a8.21,8.21,0,0,0-1.13,4.45c-.12,1.69-.14,3.39-.18,5.08a9.93,9.93,0,0,0,.54,3.33c.36.93,1.06,2.3,2.27,2.3a2.11,2.11,0,0,0,1.66-1.09,8.11,8.11,0,0,0,1.15-4.54c0-1.69.09-3.39.07-5.08a9.74,9.74,0,0,0-.54-3.26c-.35-.91-1-2.25-2.22-2.25a2,2,0,0,0-1.62,1.06Z"/><path class="cls-2" d="M196.7,113.62a25.25,25.25,0,0,0-1.49,5.19c-.21,1.29-.31,2.59-.43,3.9a11.5,11.5,0,0,0,0,3.61c.21,1.18.67,2.93,1.81,3.61,2.12,1.26,3.48-2.06,3.61-3.61.24-2.72.49-5.42.94-8.11.3-1.78.21-4.16-.9-5.68a1.91,1.91,0,0,0-1.5-1c-1.1,0-1.7,1.24-2,2.07Z"/><path class="cls-2" d="M214.73,91.86a19.22,19.22,0,0,0-4.59,5.28,6.79,6.79,0,0,0-1,2.62,9.63,9.63,0,0,0,.38,4.85,3.88,3.88,0,0,0,1.32,1.91,1.74,1.74,0,0,0,2.42-.75c1.22-1.8,2.39-3.62,3.62-5.41a7.72,7.72,0,0,0,.87-5.43c-.17-1-.94-3.35-2.25-3.35a1.49,1.49,0,0,0-.81.28Z"/><path class="cls-2" d="M226.1,93.87a.75.75,0,0,0-.57.37,2.76,2.76,0,0,0-.4,1.56,3.39,3.39,0,0,0,.19,1.13c.12.31.36.79.78.78,2.13,0,4.27-.11,6.4-.16a.66.66,0,0,0,.54-.35,2.6,2.6,0,0,0,.37-1.47c0-.56-.15-1.78-.91-1.82-.95-.07-1.91-.09-2.86-.09-1.18,0-2.37,0-3.54.05Z"/><path class="cls-2" d="M238.63,95.75c-.95.56-1.34,2-1.51,3a9.56,9.56,0,0,0,0,3c.11.44.22.88.34,1.31a3.5,3.5,0,0,0,1.17,1.72c1.36.59,2.72,1.2,4.07,1.82a49.85,49.85,0,0,1,5,3.06c1.17.73,2-.59,2.38-1.52a7.18,7.18,0,0,0,.41-2.51c0-.45-.07-.9-.1-1.35a5.33,5.33,0,0,0-.76-2.08,18.38,18.38,0,0,0-5.17-4.54c-1.41-.69-2.84-1.33-4.29-2a1.32,1.32,0,0,0-.75-.25,1.35,1.35,0,0,0-.76.25Z"/><path class="cls-2" d="M254.81,111.83a6.7,6.7,0,0,0-.38,2.35c0,.42.06.84.1,1.26a4.83,4.83,0,0,0,.71,2c2.07,2.27,4.17,4.52,6.06,6.94a1.27,1.27,0,0,0,1,.64,1.24,1.24,0,0,0,1-.64,4.39,4.39,0,0,0,.6-1.64,5.51,5.51,0,0,0-.24-3,24.5,24.5,0,0,0-2.69-4.76c-1.06-1.37-2.19-2.67-3.35-4a1.49,1.49,0,0,0-1.18-.77c-.86,0-1.35,1-1.6,1.63Z"/><path class="cls-2" d="M267.64,129.11a4.15,4.15,0,0,0-.59,1.64,6,6,0,0,0,.23,3,51.11,51.11,0,0,0,2.75,6.52c.46.84,1.33.66,1.82,0a5.14,5.14,0,0,0,.33-4.32c-.64-2.07-1.43-4.1-2.21-6.13a2.34,2.34,0,0,0-.82-1.2,1,1,0,0,0-.52-.16,1.31,1.31,0,0,0-1,.63Z"/><path class="cls-2" d="M274.38,142.64a8.4,8.4,0,0,0-1.25,4.91,46,46,0,0,0,1.09,10.26c.3,1.22.8,3.66,2.54,3.66a2,2,0,0,0,1.58-1,7.72,7.72,0,0,0,1.1-4.33c.06-2.86-.15-5.7-.22-8.56a10.44,10.44,0,0,0-.59-3.59c-.39-1-1.14-2.5-2.45-2.5a2.28,2.28,0,0,0-1.8,1.18Z"/><path class="cls-2" d="M284.38,165.5a2.5,2.5,0,0,0-.85,1.7c-.18,1.05-.11,2.69.85,3.4,1.35,1,2.69,2,4.1,2.9.95.6,1.47-1,1.58-1.59a3.51,3.51,0,0,0-.8-3.16,48.51,48.51,0,0,0-4-3.25.72.72,0,0,0-.85,0Z"/><path class="cls-2" d="M296.69,173.05a3.66,3.66,0,0,0-1.26,2.51c-.27,1.56-.16,4,1.26,5,.71.52,1.42,1,2.15,1.55a7.49,7.49,0,0,0,4.57,1.28c1.09-.06,1.5-1.53,1.64-2.38a6.71,6.71,0,0,0,0-2.19l-.24-1a2.53,2.53,0,0,0-.86-1.25,16.48,16.48,0,0,1-3.86-2c-.72-.52-1.44-1-2.15-1.57a1.2,1.2,0,0,0-.63-.2,1.16,1.16,0,0,0-.62.2Z"/><path class="cls-2" d="M315.32,177.42a5.35,5.35,0,0,0-.77,3.05,6.52,6.52,0,0,0,.36,2.23c.26.67.7,1.5,1.53,1.54,1.81.11,3.61.19,5.43.17a20.86,20.86,0,0,0,5.14-.8,1.18,1.18,0,0,0,.91-.6,4.35,4.35,0,0,0,.63-2.49,5.15,5.15,0,0,0-.3-1.82c-.2-.53-.57-1.24-1.24-1.26-3.53-.14-7.05-.52-10.57-.75a1.45,1.45,0,0,0-1.12.73Z"/><path class="cls-2" d="M347.56,164.81c-.7.62-1.4,1.22-2.13,1.81a23.31,23.31,0,0,1-2.52,1.66c-1.18.72-2.46,1.27-3.69,1.88a1.38,1.38,0,0,0-.48.7,3.43,3.43,0,0,0-.14,1.77c.1.57.46,1.62,1.24,1.24l2.2-1.09a14.69,14.69,0,0,0,1.41-.76,24.44,24.44,0,0,0,2.33-1.58c.83-.66,1.6-1.42,2.36-2.16a1.35,1.35,0,0,0,.45-.65,3.23,3.23,0,0,0,.13-1.66,2.45,2.45,0,0,0-.33-.9.79.79,0,0,0-.57-.36.41.41,0,0,0-.26.1Z"/><path class="cls-2" d="M351,140.81a91,91,0,0,0-.65,12.34,14.83,14.83,0,0,0,.84,5.12c.55,1.45,1.63,3.55,3.5,3.55a3.23,3.23,0,0,0,2.56-1.67c1.39-1.89,1.8-4.73,1.77-7a97.93,97.93,0,0,0-.77-12.34c-.24-1.75-1.29-5.22-3.63-5.22s-3.4,3.47-3.62,5.22Z"/><path class="cls-2" d="M138.47,84.35c-1.17.7-1.64,2.48-1.85,3.69a12,12,0,0,0,0,3.68,5.69,5.69,0,0,0,1.85,3.69l1.18.87a5.72,5.72,0,0,0,.17.59c.18.46.68,1.52,1.38,1.4l.85-.14.31.25c.82.68,1.59,1.41,2.38,2.11-.82.7-1.65,1.38-2.42,2.14a6.78,6.78,0,0,0-2.29,4.26,6.6,6.6,0,0,0,0,2.26c.1.43.21.86.34,1.29a4.7,4.7,0,0,0,1.29,1.83,5.55,5.55,0,0,0,1.27,1c1.4.78,3.08,0,4.39-.58a19.23,19.23,0,0,0,3.13-2.1c.52-.38,1-.77,1.55-1.17s1.06-.85,1.56-1.3.95-.87,1.38-1.35a5.55,5.55,0,0,0,1.25-3.7A6.72,6.72,0,0,0,154,98l-1.63-1.33a6.87,6.87,0,0,0-.53-2.07,4.82,4.82,0,0,0-2.32-2.43,10,10,0,0,0-2.33-.72l-1.53-1.8a63.59,63.59,0,0,0-5.36-5.28,1.77,1.77,0,0,0-.92-.29,1.72,1.72,0,0,0-.92.29Zm8,22.28c1-.91,2-1.87,2.91-2.85l.75.39-.24.21a16.91,16.91,0,0,1-3.81,2.6l.39-.35Z"/><path class="cls-2" d="M380.63,192.73c-1.11.75-2.2,1.51-3.26,2.34a35.2,35.2,0,0,0-6.12,6.85c-2.28,3.79-2.38,8.43-1.58,12.67a35.15,35.15,0,0,0,4,10.25,14,14,0,0,0,2.84,3.43,2.48,2.48,0,0,0,1.62.5,2.87,2.87,0,0,0,2.19-1.61c1.22-1.87,1.41-4.45,1.33-6.62a33.93,33.93,0,0,0-.49-4.38c-.24-1.42-.47-2.84-.65-4.27,0-.24.08-.48.13-.73a58.48,58.48,0,0,1,2.77-6.95l.08-.15a7.79,7.79,0,0,0,1.11-3,11,11,0,0,0-.44-5.62,4.48,4.48,0,0,0-1.37-2.09,1.71,1.71,0,0,0-1.32-.87,1.44,1.44,0,0,0-.84.29Z"/><path class="cls-2" d="M395.19,239.56a18.14,18.14,0,0,0,.22,5.2c.17,1,.94,3.23,2.38,2.38a3.26,3.26,0,0,0,.33-.31,55.87,55.87,0,0,1,2.58,7.68c1,4.69,2.1,9.39,3,14.12a14.31,14.31,0,0,0-1.87.32c-2.64.51-5.27,1.18-7.87,1.81-5.19,1.25-10.24,2.93-15.34,4.42a58.49,58.49,0,0,1-7.56,2,59.44,59.44,0,0,1-7.88.69,48.64,48.64,0,0,0-16.66,3.1c-.89.35-1.43,1.25-2,1.95-.39.79-.78,1.57-1.18,2.35a19,19,0,0,0-1,6.42,16.37,16.37,0,0,0,2.22,8.76,4.15,4.15,0,0,0,4,2.12,14.67,14.67,0,0,0,2-.43,3.73,3.73,0,0,0,2.52-1.29,45.6,45.6,0,0,1,6.2-1.42c3.27-.46,6.63-.6,9.87-1.27a92.47,92.47,0,0,0,11.12-3.27c2.57-.88,5.14-1.75,7.73-2.59,3.54-1.05,7.1-2,10.7-2.83,2.24-.52,4.51-1.39,6.83-1.18,1.57.14,3,.83,4.45-.15a6.15,6.15,0,0,0,2.09-3,15.87,15.87,0,0,0,0-10,8.83,8.83,0,0,0-2.08-3.5c-.37-1.22-.67-2.48-1-3.69-.94-3.71-1.86-7.42-2.83-11.11l-1.71-6.43a51.77,51.77,0,0,0-2.8-7.83,34,34,0,0,0-2.07-3.85,4.5,4.5,0,0,0-.93-1.11A2.19,2.19,0,0,0,397,237h0c-1.13,0-1.65,1.78-1.77,2.61Z"/><path class="cls-2" d="M203.44,256.53a31.21,31.21,0,0,0-5.83,1.72,8.86,8.86,0,0,0-4.52,5.07,18.39,18.39,0,0,0,.13,12.83,51.7,51.7,0,0,0,3.12,5.64l.81,1.48-.9.05c-2.52.13-5,.29-7.55.39-5.42.21-10.84.33-16.26.51-11.2.36-22.39.81-33.57,1.51-1.09.07-2.18.17-3.27.26a2.46,2.46,0,0,0-1.91,1.25,9.18,9.18,0,0,0-1.32,5.22,11.3,11.3,0,0,0,.63,3.82c.37,1,1.24,2.76,2.6,2.65,11.36-.93,22.77-1.25,34.15-1.52,10.73-.25,21.44-.38,32.14-1.3a11.17,11.17,0,0,0,3-.65c2.16-.82,2.72-3.1,3.22-5.14a10.87,10.87,0,0,0,0-4,5.23,5.23,0,0,0,1.08,1.32,4.49,4.49,0,0,0,2.5.81c.8.07,1.61,0,2.41,0a21,21,0,0,1,4.12.25,8.15,8.15,0,0,1,1.13.6,10.32,10.32,0,0,0,2.43,1.3,31,31,0,0,0,7.48,1.25c2.61.21,5.22.4,7.83.49q1.38.06,2.76.09a18.9,18.9,0,0,1,3.53-3,10.27,10.27,0,0,1,6-1.68,13.16,13.16,0,0,1,3.46.45,12.31,12.31,0,0,1,7,5c3.4.32,6.78.76,10.16,1.17,5.25.62,10.51,1.1,15.78,1.5q3.48.27,6.94.68c1.23.15,2.44.31,3.66.5s2.21.44,3.34.57a3.15,3.15,0,0,0,2.49-1.63,10.6,10.6,0,0,0,1.51-4.15,16.5,16.5,0,0,0,0-5.34l-.6-2.31a6,6,0,0,0-2.07-3c-2.56-1.22-5.56-1-8.33-1.1-2.45,0-4.9-.13-7.36-.21-5.27-.16-10.52-.52-15.78-1-5.42-.51-10.86-1.12-16.31-1.12h-6.51c-3.36,0-6.72,0-10.08,0-1.75,0-3.51,0-5.26-.14a52.64,52.64,0,0,1-8-.8A6.29,6.29,0,0,1,222,276c-.3-.23-.6-.44-.91-.64a8.36,8.36,0,0,0-3.76-1.22,21.55,21.55,0,0,0-.12-4.81,15.27,15.27,0,0,0-2.7-6.42,35.15,35.15,0,0,0-4.33-5,6.59,6.59,0,0,0-3.07-1.4,7.94,7.94,0,0,0-1.59-.16,11.34,11.34,0,0,0-2.06.21Zm3,25.05c-.53-.76-1.12-1.46-1.69-2.18a37.28,37.28,0,0,1-3.81-6c-.38-.78-.75-1.56-1.13-2.33a17.42,17.42,0,0,1,2-.83c1.88-.59,3.83-1.26,5.78-.92a7.54,7.54,0,0,1,1.58,1.23c.5.55,1,1.11,1.44,1.69l-1,1.42-1,1.48a15.69,15.69,0,0,0-1.1,2,11.72,11.72,0,0,0-.63,3.9,6.32,6.32,0,0,0,0,1.23,5.81,5.81,0,0,0-.45-.74Zm5.25-10.95v.1h0a.45.45,0,0,0,0-.11Zm.18,3.59a1.82,1.82,0,0,1,.07.25h0l-.07-.25Z"/><path class="cls-2" d="M417.89,104.77c-1.37,1-2.78,2-4.23,3a40.67,40.67,0,0,1-9.25,4.4c-1.41.44-2.84.82-4.28,1.16a16.68,16.68,0,0,1-6.42.64,6,6,0,0,1-1.37-.83l0,0,0-.13c-.18-1.35-1-4-2.79-4a2.24,2.24,0,0,0-1.73,1.14,8.8,8.8,0,0,0-1.2,4.74,10.85,10.85,0,0,0,2,7.08,8,8,0,0,0,5.51,3,14.13,14.13,0,0,0,4.7-.52c.93-.18,1.86-.45,2.78-.7a52.89,52.89,0,0,0,12-4.69,53.59,53.59,0,0,0,6-4.11c1.9-1.42,2.06-4.63,1.69-6.74a6.69,6.69,0,0,0-1-2.62,2.24,2.24,0,0,0-1.63-1,1.36,1.36,0,0,0-.79.28Z"/><path class="cls-2" d="M95.61,231.3a9.13,9.13,0,0,0,0,2.95c.16.95.54,2.41,1.48,2.95,2.25,1.29,4.45,2.62,6.57,4.1a21,21,0,0,1,1.65,1.3,12.63,12.63,0,0,0,4.28,2.28,30.65,30.65,0,0,0,10.61,1.23c3-.09,5.92-.37,8.87-.61,1.25-.11,2.49-.26,3.73-.42a13.12,13.12,0,0,0,3.43-.83c.54-.23,1.06-.47,1.58-.75a9.22,9.22,0,0,0,2-1.55,3.47,3.47,0,0,0,1.17-1.71,8.54,8.54,0,0,0,.34-4.34c-.23-1.35-1.15-4-3-3a15.76,15.76,0,0,1-2,.92l-.5.17a36.29,36.29,0,0,1-5.29.89c-1.44.19-2.89.35-4.33.51-5.39.62-11,1.24-16.26-.18a14.06,14.06,0,0,1-2.48-1.25c-.54-.33-1-.76-1.54-1.12-.7-.48-1.41-.94-2.12-1.4-1.69-1.09-3.45-2.07-5.19-3.06a1.56,1.56,0,0,0-.77-.23c-1.31,0-2,2.11-2.18,3.18Z"/><path class="cls-2" d="M193.8,7.25c-.89,1-1.8,2-2.72,3a18.62,18.62,0,0,1-3.5,2.67c-.62.36-1.24.75-1.86,1.12-1.07.65-2.12,1.35-3.22,2s-2.42,1.42-3.67,2.07l-.33.18c-.55-.06-1.11-.1-1.67-.12a9.29,9.29,0,0,0-2.15.3,16.11,16.11,0,0,0-2.44.69,22.49,22.49,0,0,0-4.79,2.37A25,25,0,0,0,162.18,26a8.93,8.93,0,0,0-1.05,1.59,13.62,13.62,0,0,0-.74,1.6c-.16.59-.31,1.19-.45,1.79s-.11,1.3-.13,1.94A8.11,8.11,0,0,0,160,34.8a6.31,6.31,0,0,0,1.21,2.78,8.63,8.63,0,0,0,3,2.31,18.38,18.38,0,0,0,3,1,12.47,12.47,0,0,0,3.69.47,8.8,8.8,0,0,0,1.76-.26,7.82,7.82,0,0,0,1.74-.61,3.84,3.84,0,0,0,1.23-1.21,7.77,7.77,0,0,0,1.14-3.15,10.33,10.33,0,0,0,0-3,5,5,0,0,0-.26-1.16.86.86,0,0,0,0-.16c.29-.17.58-.32.88-.47.45-.23.9-.44,1.36-.65a4.51,4.51,0,0,0,.91-.89,5.59,5.59,0,0,0,.85-2.18c.14-.09.27-.19.41-.3,1.5-1.14,3-2.26,4.41-3.51,1.74-1.53,3.39-3.14,5-4.83a29.45,29.45,0,0,0,3.19-4.41c.63-1,1.25-2,1.85-3a4.5,4.5,0,0,0,.3-3.76,2,2,0,0,0-.66-1,.84.84,0,0,0-.42-.13,1.14,1.14,0,0,0-.8.51ZM167.56,29.79A21.49,21.49,0,0,1,172,26.9c0,.1,0,.21,0,.31a7.33,7.33,0,0,0-.34,1.25,8.56,8.56,0,0,0,.09,3.07,5,5,0,0,0,.25,1,16.59,16.59,0,0,1-2.73-.36c-1.12-.21-2.24-.49-3.34-.8l-.12-.05c.56-.53,1.15-1,1.74-1.54Zm7.09,4.55h0l.06.07-.07-.07Z"/><path class="cls-1" d="M447.36,314.15a10.92,10.92,0,0,0-2,1.63,17.31,17.31,0,0,0-1.52,1.57c-.68.77-1.38,1.51-2.13,2.21-1.15,1.07-2.25,2.2-3.35,3.33s-2.27,2.16-3.45,3.2c-2.57,2.25-5.07,4.6-7.53,7a10.91,10.91,0,0,0-2,2.31,3.31,3.31,0,0,0,1.16,4.45,2.65,2.65,0,0,0,.81.35,2.79,2.79,0,0,0,.85.11l.16,0a21.07,21.07,0,0,1,2.66,1.6,9.24,9.24,0,0,1,.88.89,4.05,4.05,0,0,1,.21.35c0,.12.08.25.11.37a20.21,20.21,0,0,1-.21,2.81c-.09.83-.18,1.65-.29,2.47a13.39,13.39,0,0,1-.35,1.55,8.58,8.58,0,0,1-.6,1l-.23.24a22.38,22.38,0,0,1-2.44.48,13.91,13.91,0,0,1-2.5.07,8.73,8.73,0,0,1-1.5-.48,13.83,13.83,0,0,1-2.08-1,4.75,4.75,0,0,1-.38-.4l-.2-.33v0a12.29,12.29,0,0,1,.13-2.09c.06-.41.12-.82.19-1.23a3.53,3.53,0,0,0-.33-2.51,3.23,3.23,0,0,0-1.94-1.49,3.33,3.33,0,0,0-2.51.32,3.18,3.18,0,0,0-1.49,1.95c-.16,1-.32,2.09-.44,3.14a10.63,10.63,0,0,0-.07,2.39,7.73,7.73,0,0,0,.34,1.67,8.2,8.2,0,0,0,.64,1.38,10.7,10.7,0,0,0,.95,1.29,5.32,5.32,0,0,0,.75.75,12,12,0,0,0,3.2,1.84,21.15,21.15,0,0,0,2.59,1,11.14,11.14,0,0,0,3,.37,20,20,0,0,0,3.36-.33,24.42,24.42,0,0,0,2.41-.47c.23-.07.44-.13.67-.22a5.4,5.4,0,0,0,1.76-1,9.74,9.74,0,0,0,1.81-2.08,9.36,9.36,0,0,0,1.5-3.67c.22-1.17.34-2.38.47-3.56a15,15,0,0,0,0-5.74A10.22,10.22,0,0,0,433.7,336c1.09-1,2.2-2.05,3.31-3.07,2.17-2,4.42-3.89,6.49-6,.91-.93,1.82-1.86,2.77-2.75.7-.65,1.36-1.34,2-2l.57-.62.42.51a8.35,8.35,0,0,0,1.39,1.27,6.51,6.51,0,0,1,.85.81c.43.64.76,1.35,1.21,2a5.86,5.86,0,0,0,1,1.14,11.29,11.29,0,0,0,1.2.85l.87.51a9,9,0,0,1,.72.79,3.1,3.1,0,0,0,2.29,1,3.29,3.29,0,0,0,2.31-1,3.25,3.25,0,0,0,.94-2.29,3.54,3.54,0,0,0-.94-2.3,8,8,0,0,0-1.92-1.74c-.36-.23-.73-.43-1.09-.65-.36-.58-.65-1.2-1.06-1.74a13.32,13.32,0,0,0-1.15-1.43,9.88,9.88,0,0,0-1-.89,9.83,9.83,0,0,1-1.31-1.35c-.49-.66-1-1.32-1.46-2a3.69,3.69,0,0,0-1.86-1.21,3.42,3.42,0,0,0-.93-.13,4.27,4.27,0,0,0-1.87.49ZM421.59,347c0,.2,0,.39-.08.58,0-.19.05-.38.08-.58Z"/><path class="cls-1" d="M416.16,343.64a11.7,11.7,0,0,0-2.27,1,15.93,15.93,0,0,0-1.89,1.47c-.62.53-1.2,1.12-1.77,1.7-.89.9-1.72,1.85-2.57,2.78-1.3,1.42-2.55,2.88-3.8,4.34s-2.6,3.15-3.93,4.69c-.63.74-1.27,1.48-1.92,2.21-.28.33-.56.65-.84,1-.11.12-.21.26-.31.38a3.43,3.43,0,0,0-1.43,3.67,3.33,3.33,0,0,0,1.5,1.95,3.4,3.4,0,0,0,2.5.32,4.75,4.75,0,0,0,2.57-2c.57-.69,1.18-1.34,1.76-2,1.24-1.43,2.44-2.9,3.66-4.36s2.65-3.09,4-4.62a50.26,50.26,0,0,1,5.56-5.74,5.73,5.73,0,0,1,.59-.35l.33-.11a3.31,3.31,0,0,0,2.26-4A3.36,3.36,0,0,0,417,343.5a2.7,2.7,0,0,0-.88.14Z"/><path class="cls-1" d="M395,366.55a3.3,3.3,0,0,0,0,4.6c1.37,1.41,2.75,2.8,4.17,4.15,1.16,1.09,2.38,2.12,3.57,3.16,2.27,2,4.71,3.78,6.86,5.89a3.25,3.25,0,0,0,4.6-4.6c-2.14-2.1-4.54-3.91-6.82-5.85-2.72-2.32-5.3-4.77-7.78-7.35a3.15,3.15,0,0,0-2.28-.94,3.28,3.28,0,0,0-2.32.94Z"/><path class="cls-1" d="M414.83,381.28c-1.49.46-3,.92-4.47,1.35A15.16,15.16,0,0,0,407.1,384a13,13,0,0,0-2.57,2.1,15.52,15.52,0,0,0-2.28,3.06,17.78,17.78,0,0,0-1.6,3.85,12.76,12.76,0,0,0-.74,4.78,10.09,10.09,0,0,0,3.17,6.1,31.72,31.72,0,0,0,3.08,2.61c.8.63,1.59,1.25,2.43,1.81a13.42,13.42,0,0,0,4.89,2,25.59,25.59,0,0,0,3.8.45c.63,0,1.25.05,1.87,0a8.57,8.57,0,0,0,3.13-.92,16.72,16.72,0,0,0,1.93-1.09c.29-.18.58-.36.88-.53a16.11,16.11,0,0,0,2.17-1.5,11.33,11.33,0,0,0,2.88-3.5,12.88,12.88,0,0,0,1.36-5.88c0-1.06-.28-2.1-.21-3.17a3.25,3.25,0,0,0-5.55-2.3,3.36,3.36,0,0,0-.95,2.3,9.27,9.27,0,0,0,.11,1.82,10.5,10.5,0,0,1,.05,2.31,12.91,12.91,0,0,1-.48,1.72,6.63,6.63,0,0,1-.48.81,12.78,12.78,0,0,1-1.23,1.21c-.59.4-1.23.72-1.84,1.09s-1,.66-1.6.95l-.63.2a23,23,0,0,1-3-.17,14.45,14.45,0,0,1-2.53-.65,16.5,16.5,0,0,1-2.26-1.42,26.86,26.86,0,0,1-3.94-3.51,7.61,7.61,0,0,1-.51-.87,1.87,1.87,0,0,1-.07-.22c0-.25,0-.49,0-.73a20.9,20.9,0,0,1,1-3.36,13,13,0,0,1,1.15-2,15,15,0,0,1,1.42-1.46,10.82,10.82,0,0,1,1.13-.67c1.79-.65,3.64-1.14,5.46-1.7a3.29,3.29,0,0,0,2.27-4,3.33,3.33,0,0,0-3.14-2.4,2.8,2.8,0,0,0-.86.13Z"/><path class="cls-1" d="M428.59,391.41a3.27,3.27,0,0,0-2.27,4,7.26,7.26,0,0,0,.78,1.86,10.24,10.24,0,0,0,1.18,1.45c.28.32.59.61.9.9.52.49,1.06.94,1.62,1.39,1.13.91,2.3,1.78,3.46,2.66,1,.81,1.92,1.72,2.86,2.59s1.93,1.8,2.86,2.74c.56.58,1.08,1.2,1.63,1.8a21.91,21.91,0,0,0,1.89,1.84,3.38,3.38,0,0,0,2.29.95,3.25,3.25,0,0,0,2.3-5.55,29.59,29.59,0,0,1-2.25-2.23c-.86-.95-1.72-1.88-2.65-2.76-1.34-1.28-2.7-2.55-4.09-3.78-.69-.61-1.46-1.14-2.19-1.7l-1.71-1.31a21,21,0,0,1-2.57-2.42.83.83,0,0,1,0-.15,3.3,3.3,0,0,0-3.16-2.38,3,3,0,0,0-.84.11Z"/><path class="cls-1" d="M457.39,391.21a3.36,3.36,0,0,0-1.94,1.49,7.67,7.67,0,0,0-.68,1.34c-.08.16-.17.32-.26.47-.5.61-1,1.19-1.51,1.78-1.05,1.23-2.07,2.47-3.1,3.72-1.17,1.42-2.25,2.89-3.28,4.42a35.25,35.25,0,0,0-2,3.72,3.38,3.38,0,0,0-.33,2.51,3.25,3.25,0,0,0,5.94.77c.25-.49.49-1,.73-1.48.33-.69.75-1.33,1.14-2a30.9,30.9,0,0,1,2-2.84c1.29-1.57,2.58-3.14,3.9-4.68.45-.52.9-1,1.32-1.57s.65-.81.94-1.25a5,5,0,0,0,.46-1,4.34,4.34,0,0,1,.38-.66,3.25,3.25,0,0,0-1.17-4.44,3.2,3.2,0,0,0-1.65-.45,3.24,3.24,0,0,0-.86.12Z"/><path class="cls-1" d="M457.71,369.49a19.29,19.29,0,0,0-3.94,1.54,14.37,14.37,0,0,0-2.17,1.28,22.11,22.11,0,0,0-3.92,3.69,10.1,10.1,0,0,0-1.38,2c-.25.51-.46,1-.68,1.57a12.52,12.52,0,0,0-.88,3.63,9.58,9.58,0,0,0,.29,3.28,8.47,8.47,0,0,0,.37,1.07,7.23,7.23,0,0,0,1.54,2.76,15.18,15.18,0,0,0,1.33,1.07,6.45,6.45,0,0,0,1.41.65,7.43,7.43,0,0,0,1.13.36,21.56,21.56,0,0,0,2.13.38c1,.15,2,.26,3,.32a20.37,20.37,0,0,0,2.21,0,11.89,11.89,0,0,0,3.28-.72,3.4,3.4,0,0,0,1.94-1.49,3.25,3.25,0,0,0-3.67-4.77,15.59,15.59,0,0,1-1.57.47,21,21,0,0,1-4-.15,14.62,14.62,0,0,1-2.46-.56l-.13-.26a9.65,9.65,0,0,1-.37-1.19c0-.36,0-.72,0-1.09a12,12,0,0,1,.6-1.9,8.78,8.78,0,0,1,.54-.94,23.88,23.88,0,0,1,2.49-2.54c.42-.3.84-.57,1.28-.83s1.08-.56,1.63-.82a18.37,18.37,0,0,1,3-.83,4.56,4.56,0,0,1,.52,0,7.36,7.36,0,0,1,.71.21,9.82,9.82,0,0,1,1.29.78,15.16,15.16,0,0,1,1.78,1.71,1.89,1.89,0,0,1,.05.23c0,.35.09.7.15,1s.13.5.17.75a3.1,3.1,0,0,0,1.49,1.94A3.25,3.25,0,0,0,471.4,381a3.51,3.51,0,0,0,.33-2.5c0-.26-.11-.51-.17-.76a6.22,6.22,0,0,0-.91-2.91,13.06,13.06,0,0,0-2.59-2.81,15.2,15.2,0,0,0-2.86-2,11.09,11.09,0,0,0-2.1-.8,7,7,0,0,0-1.85-.24,15.25,15.25,0,0,0-3.54.54Zm-6.52,16,.27.2-.27-.2Z"/><path class="cls-1" d="M484.05,357.88a8.16,8.16,0,0,0-1.53,1.41c-.56.58-1.11,1.16-1.64,1.77-1.4,1.63-2.76,3.3-4.12,5a143,143,0,0,0-9.27,12,3.25,3.25,0,1,0,5.61,3.28c.8-1.23,1.63-2.42,2.51-3.59,2.29-2.86,4.64-5.69,6.95-8.53q1.62-2,3.3-3.93c.4-.46.83-.9,1.26-1.34l.68-.73a3.27,3.27,0,0,0,.7-4.1,3.31,3.31,0,0,0-2.84-1.61,3.13,3.13,0,0,0-1.61.44Z"/><path class="cls-1" d="M472.77,344.16a3.24,3.24,0,0,0-.95,2.3,3.08,3.08,0,0,0,.95,2.29c2.85,2.25,5.6,4.63,8.3,7.06a27,27,0,0,1,2.32,2.22c.41.48.83,1,1.26,1.42a3.25,3.25,0,0,0,4.6-4.6c-.43-.45-.85-.94-1.27-1.41a28.58,28.58,0,0,0-2.31-2.23c-2.67-2.45-5.46-4.81-8.31-7a3.5,3.5,0,0,0-2.29-1,3.24,3.24,0,0,0-2.3,1Z"/><path class="cls-1" d="M454,325.08a3.27,3.27,0,0,0-.33,2.5,3.44,3.44,0,0,0,1.49,1.95l.52.35a3.25,3.25,0,0,0,4.77-3.67,3.36,3.36,0,0,0-1.49-1.94l-.51-.36a2.73,2.73,0,0,0-1.55-.46,3.45,3.45,0,0,0-2.9,1.63Z"/><path class="cls-1" d="M451,319.22a3.23,3.23,0,0,0-1.49,1.94,3.09,3.09,0,0,0,.33,2.5c1.72,2.31,3.4,4.67,5.32,6.81a13.81,13.81,0,0,0,2.63,2.43c.49.32,1,.59,1.51.93a3.16,3.16,0,0,0,2.51.33,3.23,3.23,0,0,0,1.94-1.49,3.27,3.27,0,0,0,.33-2.5,3.47,3.47,0,0,0-1.49-1.95c-.47-.33-1-.6-1.47-.91a16.61,16.61,0,0,1-1.57-1.68c-.67-.78-1.31-1.57-1.95-2.37l-2.15-2.88a3.5,3.5,0,0,0-2-1.49,3.12,3.12,0,0,0-.85-.12,3.2,3.2,0,0,0-1.65.45Z"/><path class="cls-1" d="M474.11,317.41a23.08,23.08,0,0,0-5,.87,24.19,24.19,0,0,0-3.14,1,6.05,6.05,0,0,0-2.22,1.3,11.18,11.18,0,0,0-2,2.94,10.83,10.83,0,0,0-1.28,4.06c-.06.68-.07,1.35-.08,2a21.58,21.58,0,0,0,.35,4.16,3.19,3.19,0,0,0,1.49,1.94,3.24,3.24,0,0,0,4.45-1.17A3.41,3.41,0,0,0,467,332c0-.12-.05-.24-.07-.36a23.15,23.15,0,0,1,0-3.63,7.59,7.59,0,0,1,.27-.93,15.7,15.7,0,0,1,1-1.76c.8-.28,1.63-.49,2.45-.71s1.91-.48,2.88-.65a8.53,8.53,0,0,1,.88,0c.19.11.37.23.55.35a9,9,0,0,1,.78.85,24.4,24.4,0,0,1,2.29,4,12,12,0,0,1,.46,1.76c0,.23,0,.45,0,.68a17.05,17.05,0,0,1-.79,2.61c-.13.26-.26.5-.41.74s-.53.51-.81.76a9.79,9.79,0,0,1-1.22.69,15.25,15.25,0,0,1-2.49.67c-.43.08-.86.14-1.28.23a5.69,5.69,0,0,0-1.09.39,3.44,3.44,0,0,0-1.92.95,3.32,3.32,0,0,0-1,2.31,3.27,3.27,0,0,0,1,2.29l.66.51a3.34,3.34,0,0,0,1.64.45,3.94,3.94,0,0,0,2-.48,8.55,8.55,0,0,1,1.37-.32,16.71,16.71,0,0,0,2.28-.53,19,19,0,0,0,2.57-1.06,11.59,11.59,0,0,0,2.64-2c1.58-1.45,2.3-3.57,2.91-5.56a10.64,10.64,0,0,0,.47-3,12.72,12.72,0,0,0-.45-3.06,13.27,13.27,0,0,0-.92-2.36c-.24-.51-.48-1-.76-1.51a28.14,28.14,0,0,0-2.88-4.17,9.12,9.12,0,0,0-2.54-1.94,6.54,6.54,0,0,0-3.22-.77Zm-6.06,8-.05.07.05-.07Zm2.89,12.17h0Z"/><path class="cls-1" d="M491.66,308.83c-2.59,2-5.3,3.83-7.69,6a3.25,3.25,0,0,0,4.6,4.59c.49-.45,1-.89,1.51-1.33l4.86-3.68a3.54,3.54,0,0,0,1.5-1.94,3.24,3.24,0,0,0-2.28-4,3.31,3.31,0,0,0-.92-.12,2.71,2.71,0,0,0-1.58.44Z"/><path class="cls-1" d="M508.85,290.46a40.68,40.68,0,0,1-5.12,5.45l-.13.1a3.48,3.48,0,0,0-1.49,1.94,3.23,3.23,0,0,0,2.27,4,3.09,3.09,0,0,0,2.5-.32,25.07,25.07,0,0,0,2.95-2.49c.46-.46.89-1,1.33-1.44.78-.86,1.54-1.75,2.29-2.63a3.43,3.43,0,0,0,.95-2.3,3.24,3.24,0,0,0-3.25-3.25,3.2,3.2,0,0,0-2.3.95Z"/><path class="cls-1" d="M523,264.61c-.87,3.09-1.71,6.17-2.46,9.29a3.25,3.25,0,0,0,6.27,1.72c.75-3.11,1.59-6.2,2.45-9.28a3.28,3.28,0,0,0-2.27-4,3.46,3.46,0,0,0-.84-.11,3.3,3.3,0,0,0-3.15,2.38Z"/><path class="cls-1" d="M520.3,240.31a3.29,3.29,0,0,0-1.17,4.44l.55,1.07a21.56,21.56,0,0,1,.71,2.62c.3,1.31.61,2.62.93,3.92a3.25,3.25,0,1,0,6.27-1.72c-.36-1.47-.71-2.95-1.05-4.43-.15-.65-.31-1.3-.52-1.94a19.07,19.07,0,0,0-1.27-2.8,3.14,3.14,0,0,0-2.81-1.59,3.22,3.22,0,0,0-1.64.43Z"/><path class="cls-1" d="M510.59,225.59a3.25,3.25,0,0,0-.95,2.3,3.1,3.1,0,0,0,.95,2.3,37.72,37.72,0,0,1,4.67,4.87,3.25,3.25,0,0,0,5.55-2.29,3.39,3.39,0,0,0-.95-2.3,38.49,38.49,0,0,0-4.67-4.88,3.52,3.52,0,0,0-2.3-1,3.3,3.3,0,0,0-2.3,1Z"/><path class="cls-1" d="M486.88,206.56A3.3,3.3,0,0,0,488,211c1.33.85,2.66,1.71,4,2.61s2.77,1.74,4.21,2.52a3.25,3.25,0,1,0,3.28-5.61c-1.44-.79-2.85-1.6-4.21-2.52s-2.63-1.76-4-2.62a2.86,2.86,0,0,0-1.57-.45,3.37,3.37,0,0,0-2.87,1.62Z"/><path class="cls-1" d="M461,190.37a3.28,3.28,0,0,0,1.16,4.45c1.75,1,3.46,2,5.18,3a22.71,22.71,0,0,0,3.14,1.52,16.22,16.22,0,0,0,2.84.73,3.4,3.4,0,0,0,2.5-.33,3.31,3.31,0,0,0,1.5-1.94,3.27,3.27,0,0,0-2.27-4,21.82,21.82,0,0,1-2.81-.72c-2.33-1.14-4.52-2.59-6.79-3.85a3.38,3.38,0,0,0-1.64-.43,3.23,3.23,0,0,0-2.81,1.59Z"/><path class="cls-1" d="M437.68,179.41a3.23,3.23,0,0,0-1.94,1.49,3.27,3.27,0,0,0-.33,2.5,3.08,3.08,0,0,0,1.5,1.95,30,30,0,0,0,3.37,1.36,28.5,28.5,0,0,0,3.06.59,3.41,3.41,0,0,0,2.5-.33,3.26,3.26,0,0,0,1.17-4.44,3.14,3.14,0,0,0-1.94-1.5,21.27,21.27,0,0,1-4.12-1l-.76-.33a4.22,4.22,0,0,0-1.72-.44,2.83,2.83,0,0,0-.79.11Z"/><path class="cls-1" d="M404.58,179.6a3.25,3.25,0,0,0,0,6.5c1.5-.06,3,0,4.51.08,1.2.06,2.39.16,3.58.31,2.16.33,4.32.72,6.48,1.11a3.48,3.48,0,0,0,2.51-.33,3.26,3.26,0,0,0,1.49-1.94,3.33,3.33,0,0,0-.32-2.51,3.18,3.18,0,0,0-1.95-1.49,82.88,82.88,0,0,0-14.72-1.76l-1.58,0Z"/><path class="cls-1" d="M78.17,376.2a3.25,3.25,0,0,0,0,4.59,3.51,3.51,0,0,0,2.3,1h0a34.41,34.41,0,0,1,6.81,2.1l2,.86a3.56,3.56,0,0,0,2.5.33,3.27,3.27,0,0,0,2.27-4,3.1,3.1,0,0,0-1.49-2c-1.6-.7-3.2-1.38-4.83-2-.65-.26-1.33-.47-2-.7s-1.24-.4-1.86-.57a20.91,20.91,0,0,0-3.41-.56l-.21,0a3.22,3.22,0,0,0-2.09,1Z"/><path class="cls-1" d="M102.84,387.73a3.27,3.27,0,0,0,0,4.59c1.2,1.15,2.44,2.26,3.67,3.38a3.25,3.25,0,0,0,4.6-4.6c-1.23-1.12-2.47-2.22-3.68-3.37a3.34,3.34,0,0,0-2.32-.94,3.18,3.18,0,0,0-2.27.94Z"/><path class="cls-1" d="M126.27,399.06a3.31,3.31,0,0,0-1.5,1.94,3.2,3.2,0,0,0,.33,2.51,20.14,20.14,0,0,0,2.71,3.26,9.07,9.07,0,0,0,3.61,2c.59.17,1.2.32,1.81.45a3.36,3.36,0,0,0,2.5-.32,3.25,3.25,0,0,0-.78-5.94,18.33,18.33,0,0,1-2.31-.63l-.19-.11a14,14,0,0,1-1.25-1.3l-.49-.68a3.45,3.45,0,0,0-1.94-1.49,3.12,3.12,0,0,0-.86-.11,3.28,3.28,0,0,0-1.64.44Z"/><path class="cls-1" d="M151.11,409.22a3.27,3.27,0,0,0,1.16,4.45,27.94,27.94,0,0,0,7.14,2.56,3.35,3.35,0,0,0,2.5-.33,3.24,3.24,0,0,0-.77-5.93,27.43,27.43,0,0,1-4.32-1.28l-1.26-.63a3.62,3.62,0,0,0-1.68-.41,3.14,3.14,0,0,0-2.77,1.57Zm5.14-.76.22.09-.22-.09Z"/><path class="cls-1" d="M187.14,410c-2.32.15-4.64.12-7,.1a3.25,3.25,0,1,0,0,6.5c2.33,0,4.65,0,7-.1a3.36,3.36,0,0,0,2.3-.95,3.24,3.24,0,0,0,.95-2.3,3.28,3.28,0,0,0-3.08-3.25Z"/><path class="cls-1" d="M207.09,406.88c-1.07.29-2.15.54-3.23.77a3.25,3.25,0,0,0-.78,5.94,3.41,3.41,0,0,0,2.5.33c1.09-.24,2.17-.49,3.24-.77a3.25,3.25,0,0,0-.89-6.38,3,3,0,0,0-.84.11Z"/><path class="cls-1" d="M227.54,394.21c-1.72,1.64-3.53,3.16-5.39,4.64a3.16,3.16,0,0,0-1,2.3,3.26,3.26,0,0,0,3.25,3.26,3.53,3.53,0,0,0,2.3-1c1.86-1.48,3.66-3,5.38-4.64a3.28,3.28,0,0,0,0-4.6,3.19,3.19,0,0,0-2.27-.94,3.34,3.34,0,0,0-2.32.94Z"/><path class="cls-1" d="M239.73,376.39c-.45,1.63-.94,3.25-1.42,4.88a3.25,3.25,0,1,0,6.27,1.72c.48-1.62,1-3.24,1.41-4.87a3.28,3.28,0,0,0-2.27-4,3,3,0,0,0-.84-.11,3.27,3.27,0,0,0-3.15,2.38Z"/><path class="cls-1" d="M242,355.52a3.28,3.28,0,0,0-1.17,4.45,13.31,13.31,0,0,1,.74,1.2,29,29,0,0,1,1,3.86,3.26,3.26,0,0,0,4,2.27,3.23,3.23,0,0,0,1.94-1.49,3.41,3.41,0,0,0,.33-2.5c-.21-1-.44-2-.73-2.91-.14-.46-.29-.92-.47-1.37a11.86,11.86,0,0,0-1.23-2.34,3.48,3.48,0,0,0-2.86-1.61,3.13,3.13,0,0,0-1.59.44Z"/><path class="cls-1" d="M223.42,342.94a3.29,3.29,0,0,0,2.27,4l.11,0a5,5,0,0,1,.63.37,37.38,37.38,0,0,1,2.84,2.93,3.25,3.25,0,1,0,4.59-4.59c-.87-.95-1.74-1.9-2.67-2.8a9.74,9.74,0,0,0-3.77-2.22,2.93,2.93,0,0,0-.87-.14,3.37,3.37,0,0,0-3.13,2.41Z"/><path class="cls-1" d="M203.57,337.11a3.28,3.28,0,0,0,2.28,4c.47.11.94.21,1.4.36a23.57,23.57,0,0,0,2.7,1.26,16.84,16.84,0,0,0,3.74.65,3.12,3.12,0,0,0,2.3-.95,3.25,3.25,0,0,0,0-4.59,3.51,3.51,0,0,0-2.3-1l-.55-.06a9.05,9.05,0,0,1-1.25-.29c-.36-.17-.71-.36-1.07-.54s-.95-.45-1.45-.65a12.3,12.3,0,0,0-1.8-.5,3.7,3.7,0,0,0-.8-.09,3.25,3.25,0,0,0-3.2,2.36Z"/><path class="cls-1" d="M182.6,323.41a3.3,3.3,0,0,0,0,4.6,29.91,29.91,0,0,0,3.26,2.8,7.63,7.63,0,0,0,2.9,1.42,18.16,18.16,0,0,0,3.19.38,3.25,3.25,0,0,0,0-6.5c-.32,0-.65,0-1-.05l-.81-.18a8.67,8.67,0,0,1-.81-.53c-.75-.61-1.47-1.26-2.16-1.94a3.29,3.29,0,0,0-2.31-.94,3.22,3.22,0,0,0-2.29.94Z"/><path class="cls-1" d="M174.38,304.18a3.34,3.34,0,0,0-.95,2.3,43,43,0,0,0,.12,5.32,3.3,3.3,0,0,0,3.25,3.25,3.26,3.26,0,0,0,3.25-3.25,43,43,0,0,1-.12-5.32,3.25,3.25,0,0,0-5.55-2.3Z"/><path class="cls-1" d="M178.3,294.62a3.25,3.25,0,1,0,3.25-3.25,3.28,3.28,0,0,0-3.25,3.25Z"/><path class="cls-1" d="M378.74,17.45a17.77,17.77,0,0,0-1.86,2.11,3.25,3.25,0,0,0,5.4,3.61l.33-.41c.14-.16.29-.3.44-.45a3.33,3.33,0,0,0,1.09-2.24,3.27,3.27,0,0,0-.81-2.35,3.38,3.38,0,0,0-2.5-1.09,2.94,2.94,0,0,0-2.09.82Z"/><path class="cls-1" d="M409.31,10.67l-1,.07c-1.14.06-2.3,0-3.42.19s-2,.33-3,.55a3.25,3.25,0,1,0,1.35,6.36c.92-.21,1.83-.4,2.77-.52,1.53-.09,3.05-.17,4.58-.29a3.08,3.08,0,0,0,2-1.38,3.26,3.26,0,0,0,.48-2.47,3.32,3.32,0,0,0-1.38-2l-.75-.37A3.49,3.49,0,0,0,410,10.6a3.14,3.14,0,0,0-.68.07Z"/><path class="cls-1" d="M387.59,13.12a25.09,25.09,0,0,0-4.66,2.55,59.3,59.3,0,0,0-5.07,3.71,3.25,3.25,0,0,0,4.31,4.87c.94-.77,1.9-1.51,2.87-2.23a28.8,28.8,0,0,1,5.49-3.1,3.12,3.12,0,0,0,1.6-1.85,3.23,3.23,0,0,0-2-4.12,2.84,2.84,0,0,0-1-.17,4.38,4.38,0,0,0-1.55.34Z"/><path class="cls-1" d="M424.35,17.06a3.28,3.28,0,0,0,3,3.43c.73.07,1.45.13,2.18.24a19.83,19.83,0,0,1,3.14,1.1c.59.25,1.18.52,1.76.79,1.13.5,2.23,1.05,3.33,1.59a3.08,3.08,0,0,0,2.52-.17,3.24,3.24,0,0,0,1.43-4.37L441.3,19a3.42,3.42,0,0,0-1.39-.92c-1.26-.62-2.53-1.24-3.81-1.81-1-.46-2-.93-3.1-1.32a21,21,0,0,0-5.21-.92l-.27,0a3.3,3.3,0,0,0-3.17,3.07Z"/><path class="cls-1" d="M453.51,28.45a3.28,3.28,0,0,0,.9,4.51c1.25.81,2.48,1.64,3.68,2.53s2.61,2,3.88,3.06a3.15,3.15,0,0,0,2.48.47A3.25,3.25,0,0,0,467,35.17a3.47,3.47,0,0,0-1.38-2c-1.26-1-2.54-2-3.82-3s-2.47-1.75-3.74-2.57a3.29,3.29,0,0,0-1.8-.54,3.25,3.25,0,0,0-2.71,1.43Z"/><path class="cls-1" d="M474.35,39.6a3.28,3.28,0,0,0-1.61,1.84,3.38,3.38,0,0,0,.17,2.52c.37.86.71,1.74,1.13,2.57a25.55,25.55,0,0,0,1.95,3.2c1.48,2.12,3.82,3.48,5.9,4.94a3.25,3.25,0,0,0,3.61-5.41c-1.13-.79-2.28-1.57-3.39-2.4a13.48,13.48,0,0,1-1.3-1.53,35.61,35.61,0,0,1-2.1-4.3,3.11,3.11,0,0,0-2.91-1.77,3.16,3.16,0,0,0-1.45.34Z"/><path class="cls-1" d="M494.32,56.54a3.25,3.25,0,0,0-1.13,5.88c1.73,1,3.48,2,5.29,2.79a25.58,25.58,0,0,0,4.86,1.66,3.54,3.54,0,0,0,2.52-.18,3.24,3.24,0,0,0,1.43-4.37,3.08,3.08,0,0,0-1.84-1.61,23.94,23.94,0,0,1-3-.87c-.76-.28-1.5-.62-2.23-1-1.16-.6-2.29-1.23-3.42-1.87a3.68,3.68,0,0,0-1.85-.55,2.76,2.76,0,0,0-.63.07Z"/><path class="cls-1" d="M512,59.12a3.27,3.27,0,0,0,3,3.44c2.15.08,4.33.25,6.49.25a3.36,3.36,0,0,0,2.35-.81A3.31,3.31,0,0,0,525,59.76a3.27,3.27,0,0,0-3.05-3.44c-2.16,0-4.33-.17-6.49-.25h-.14a3.28,3.28,0,0,0-3.3,3Z"/><path class="cls-1" d="M560.31,35c-2.38,1.23-3.66,3.79-4.76,6.11a12.58,12.58,0,0,0-.83,2.54c-.09.31-.15.62-.22.94s-.18.9-.24,1.36a7.45,7.45,0,0,0,.12,1.94A8.19,8.19,0,0,0,556,51.58a10.31,10.31,0,0,0,2.72,2.63c1.09.74,2.2,1.47,3.34,2.13A19.27,19.27,0,0,0,565.35,58c.61.21,1.21.41,1.83.6a9.18,9.18,0,0,0,5.27.1,6.78,6.78,0,0,0,2.33-1.19,4.15,4.15,0,0,0,.73-.78,5.15,5.15,0,0,0,.57-1.06,3.09,3.09,0,0,0-.18-2.52,3.23,3.23,0,0,0-4.36-1.43l-.69.47a2.65,2.65,0,0,0-.29.29l-.31,0a7,7,0,0,1-.79,0,18.27,18.27,0,0,1-2.78-1q-1.23-.66-2.4-1.41c-.8-.52-1.61-1-2.37-1.59a8.6,8.6,0,0,1-.75-.85c-.11-.19-.21-.38-.31-.58s-.08-.39-.11-.59a1.79,1.79,0,0,1,0-.23,16.81,16.81,0,0,1,1-3A18.69,18.69,0,0,1,563.07,41l.24-.21.3-.15a24.72,24.72,0,0,1,3.64.51c.6.14,1.19.27,1.78.43a3.25,3.25,0,0,0,2.1-6.15,42.44,42.44,0,0,0-4.45-1l-1.94-.29a7.07,7.07,0,0,0-.91-.06,7.67,7.67,0,0,0-3.52.9Zm3.09,5.66-.12,0h0l.12,0Zm-.13,0h0l-.27.1.28-.11Zm-2.45,5.14,0,.18,0-.18Z"/><path class="cls-1" d="M572.23,53.77a70.18,70.18,0,0,0-.29,10.75c.09,1.64.18,3.27.18,4.91,0,1.46-.13,2.92-.09,4.38a14.73,14.73,0,0,0,.32,3,3.52,3.52,0,0,0,1.48,2.21,3.94,3.94,0,0,0,1,.47,10.5,10.5,0,0,0,1.47.25c.87.1,1.74.17,2.61.23a54.37,54.37,0,0,0,10.2.24,5.16,5.16,0,0,0,1.23-.31l.23.1a3.1,3.1,0,0,0,2.51-.18A3.28,3.28,0,0,0,594.74,78a3.2,3.2,0,0,0-.18-2.52,3.42,3.42,0,0,0-1.84-1.61h0a4.7,4.7,0,0,0-2.08-.6,5.13,5.13,0,0,0-2.21.49l-.15.06c-.23,0-.45.07-.68.09a46.3,46.3,0,0,1-5.13-.19c-1.3-.08-2.61-.15-3.91-.25,0-.79,0-1.58.06-2.38,0-1.7,0-3.4-.12-5.09-.09-1.87-.17-3.72-.15-5.6,0-2.09.18-4.16.39-6.25a3.27,3.27,0,0,0-3.05-3.43h-.2a3.29,3.29,0,0,0-3.24,3.05Z"/><path class="cls-1" d="M594,76.25a23.46,23.46,0,0,0-1.73,6.61,8.89,8.89,0,0,0,.72,3.66,14.1,14.1,0,0,0,1.59,2.77,13.73,13.73,0,0,0,1.7,2.09,19.71,19.71,0,0,0,1.54,1.36,21.7,21.7,0,0,0,9.22,4,14.62,14.62,0,0,0,3.42.48,7.06,7.06,0,0,0,3-.72,6.87,6.87,0,0,0,2.18-1.87,10.71,10.71,0,0,0,1.44-2.47c.36-.73.7-1.46,1-2.21a18.52,18.52,0,0,0,1.48-5,7.24,7.24,0,0,0-2.15-5.76,17.18,17.18,0,0,1-2-2.11A3.17,3.17,0,0,0,613.17,76a3.25,3.25,0,0,0-3.44,3,3.52,3.52,0,0,0,.81,2.35c.68,1,1.68,1.69,2.44,2.61l.06.12,0,.13c0,.13,0,.26,0,.38a29.46,29.46,0,0,1-2,5.14,7.74,7.74,0,0,1-.52.83.6.6,0,0,1-.08.08h0a11.3,11.3,0,0,1-1.29-.14c-.92-.21-1.84-.43-2.74-.71a27.83,27.83,0,0,1-2.8-1.07,15,15,0,0,1-2.17-1.47l-.28-.25a11.35,11.35,0,0,1-1.35-1.59,14,14,0,0,1-.86-1.56c-.06-.23-.11-.45-.15-.68a7.3,7.3,0,0,1,.06-.94c.34-1.34.86-2.64,1.31-4a3.27,3.27,0,0,0-2-4.12,3.09,3.09,0,0,0-1-.17,3.29,3.29,0,0,0-3.1,2.19Z"/><path class="cls-1" d="M613,73.93l-.87.07a3.21,3.21,0,0,0-1.48.75A3.27,3.27,0,0,0,609.56,77a3.22,3.22,0,0,0,.82,2.35,3.07,3.07,0,0,0,2.23,1.09c2.87-.17,5.75-.27,8.62-.17,1.88.07,3.75.23,5.62.34a3.25,3.25,0,1,0,.39-6.49c-1.87-.11-3.74-.26-5.61-.33-.81,0-1.62,0-2.43,0-2.06,0-4.13.09-6.2.21Z"/><path class="cls-1" d="M627.43,53.46a3.29,3.29,0,0,0-2.51,3.86c.05.28.11.56.16.85.08,2.42-.16,4.84-.3,7.25a83.83,83.83,0,0,0-.14,9.77c0,.29.05.58.07.87a3.21,3.21,0,0,0,.75,1.48,3.25,3.25,0,0,0,4.59.28,3.12,3.12,0,0,0,1.08-2.24,92.9,92.9,0,0,1,.19-10.81c.18-2.93.54-5.89,0-8.8a3.29,3.29,0,0,0-3.2-2.58,3.5,3.5,0,0,0-.65.07Z"/><path class="cls-1" d="M620.23,34.39a17,17,0,0,0-1.84.56,13.73,13.73,0,0,0-2.56,1,7.07,7.07,0,0,0-2.48,2.32,14.12,14.12,0,0,0-1.88,4.58,12.52,12.52,0,0,0-.24,2.86,16,16,0,0,0,.47,3.77,7.65,7.65,0,0,0,1.39,2.76c.25.32.5.63.78.93a10.5,10.5,0,0,0,3.49,2.41,18.53,18.53,0,0,0,4.89,1.47,9.66,9.66,0,0,0,2.15.07c1-.06,2.05-.15,3.08-.22a3.12,3.12,0,0,0,2-1.38A3.29,3.29,0,0,0,630,53a3.32,3.32,0,0,0-1.38-2l-.75-.37a3.28,3.28,0,0,0-1.73-.1l-.53,0h0a14.49,14.49,0,0,1-2.87,0,18,18,0,0,1-3.17-1.1c-.22-.12-.42-.26-.63-.4a11.39,11.39,0,0,1-.92-1l0-.06a11.25,11.25,0,0,1-.29-1.64,16.36,16.36,0,0,1,0-2,15,15,0,0,1,.68-2c.13-.23.27-.47.42-.69l0,0a8.78,8.78,0,0,1,1-.41,14.77,14.77,0,0,1,2.77-.69,5.43,5.43,0,0,1,.57,0l.1,0,.36.21a3.34,3.34,0,0,0,2.48.48,3.25,3.25,0,0,0,1.13-5.88,14.63,14.63,0,0,0-1.8-.94,6.23,6.23,0,0,0-2.42-.41h0a14.34,14.34,0,0,0-2.78.3ZM625,50.62l-.23,0,.23,0Z"/><path class="cls-1" d="M623.35,13a4.51,4.51,0,0,0-1.3,1.16,3.31,3.31,0,0,0-.46.92c.06-.11.12-.23.17-.34a3.19,3.19,0,0,0-.3,2.14,3.14,3.14,0,0,0,.48,1.13c.09,1.09.13,2.18.29,3.26.27,1.83.63,3.63.8,5.46.09,1.64.12,3.28.09,4.91a37.28,37.28,0,0,0,.38,6.16,3.26,3.26,0,0,0,5.89,1.14,3.43,3.43,0,0,0,.47-2.48c-.08-.59-.16-1.18-.23-1.76-.08-1.84,0-3.69,0-5.53a42.79,42.79,0,0,0-.57-6.59c-.17-1-.37-1.94-.48-2.91s-.19-1.9-.28-2.86c0-.35-.07-.71-.1-1.07a3.32,3.32,0,0,0-3.09-3.09h-.2a3.3,3.3,0,0,0-1.54.36Z"/><path class="cls-1" d="M608.6,12.07c-1.06,0-2.13.1-3.18.21-.84.09-1.67.22-2.51.31a3.14,3.14,0,0,0-2,1.37,3.24,3.24,0,0,0,.9,4.51,3.43,3.43,0,0,0,2.48.48c.93-.1,1.86-.24,2.8-.33,1.12-.07,2.24-.09,3.36-.16a40,40,0,0,1,4.38,0c1.51.06,3,.1,4.53.11s3.16-.05,4.74-.06a3.38,3.38,0,0,0,2.35-.81,3.31,3.31,0,0,0,1.09-2.24,3.27,3.27,0,0,0-3-3.44c-1.93,0-3.85.07-5.78.05-1.69,0-3.38-.12-5.08-.16h-.75c-1.42,0-2.83.1-4.25.17Z"/><path class="cls-1" d="M599.63,15.87a35.83,35.83,0,0,0,.22,5.28c.14,1.21.34,2.42.48,3.64,0,.41,0,.82-.05,1.22l0,.06c-.22.11-.44.21-.67.3A26.66,26.66,0,0,1,595,27.42a12.88,12.88,0,0,1-2.15-.06,13.72,13.72,0,0,1-1.53-.51,7.36,7.36,0,0,1-.88-.57,4.59,4.59,0,0,1-.36-.41,2,2,0,0,1-.1-.21,10.48,10.48,0,0,1-.35-1.57,5.85,5.85,0,0,1,0-.73,5.62,5.62,0,0,1,.19-.58,13.15,13.15,0,0,1,1-1.34,3.11,3.11,0,0,0,.48-2.48,3.25,3.25,0,0,0-3.85-2.51,3.51,3.51,0,0,0-2,1.38,12.18,12.18,0,0,0-.85,1.05,8.49,8.49,0,0,0-1,2,10,10,0,0,0-.27,5.08,10.86,10.86,0,0,0,1.06,3.07,8.64,8.64,0,0,0,2.74,2.87,11.74,11.74,0,0,0,4.91,1.88,13.89,13.89,0,0,0,3.09.08,16.06,16.06,0,0,0,2.39-.28q1.05-.23,2.1-.51c.54-.15,1.08-.29,1.62-.46a10.24,10.24,0,0,0,2.83-1.35,3.1,3.1,0,0,0,.84-.69,6.06,6.06,0,0,0,1.22-1.78,7.44,7.44,0,0,0,.57-2.09,15.52,15.52,0,0,0-.19-4.51c-.14-1.17-.32-2.34-.43-3.51,0-.82,0-1.63,0-2.44a3.29,3.29,0,0,0-3-3.44h-.19a3.28,3.28,0,0,0-3.25,3.06Zm1,9.86-.06.06.06-.06Zm-.38.37h0a3.7,3.7,0,0,1-.46.31l.46-.32Z"/><path class="cls-1" d="M579.12,13.4a21.62,21.62,0,0,0-3.85.35c-.68.15-1.35.37-2,.5-.4,0-.79-.08-1.19-.12l-.63-.06A3.57,3.57,0,0,0,568,15.68a4.57,4.57,0,0,0-.6,1.88c0,.15,0,.3,0,.45,0,.39,0,.78.09,1.17.07.65.13,1.31.19,2,.11,1.18.21,2.37.32,3.55.15,2.21.28,4.43.46,6.64a14.58,14.58,0,0,0,.54,2.86,13.46,13.46,0,0,1,.48,2.18,3.12,3.12,0,0,0,1.37,2,3.25,3.25,0,0,0,4.51-.89A3.49,3.49,0,0,0,575.9,35a16.88,16.88,0,0,0-.61-2.62,17.83,17.83,0,0,1-.47-3.17c-.19-2.86-.38-5.71-.64-8.56a12.5,12.5,0,0,0,1.61-.36,11.12,11.12,0,0,1,2-.39l2.85-.13a14.52,14.52,0,0,1,2.55.11c.4.11.79.26,1.18.4a3.26,3.26,0,0,0,4.12-2,3.3,3.3,0,0,0-2-4.13,12.5,12.5,0,0,0-4-.85h-.55c-.93,0-1.86.07-2.79.1Zm-4.33,15.35c0,.12,0,.24,0,.35,0-.11,0-.23,0-.35Z"/><path class="cls-1" d="M54.05,352.77A12,12,0,0,0,47.93,355a17,17,0,0,0-2.68,2.25,14.68,14.68,0,0,0-1.83,2.18A11.8,11.8,0,0,0,42,362.66a26.84,26.84,0,0,0-.91,5.35c-.07.73-.11,1.47-.11,2.2s0,1.16.09,1.74a7.5,7.5,0,0,0,1.09,3.17,12,12,0,0,0,5,4.68,12.51,12.51,0,0,0,2.47,1.06c.94.25,1.9.4,2.86.57.58.1,1.16.24,1.75.3a6.7,6.7,0,0,0,2.14-.14,5.87,5.87,0,0,0,2.57-1.44,10.55,10.55,0,0,1,1.2-1.12,3.08,3.08,0,0,0,1.09-2.24,3.23,3.23,0,0,0-3-3.43l-.87.06a3.29,3.29,0,0,0-1.48.74,9.89,9.89,0,0,0-1.16,1.08,7.36,7.36,0,0,1-.82-.12l-1.59-.29a11.27,11.27,0,0,1-1.73-.56,15.76,15.76,0,0,1-1.77-1.15c-.29-.31-.55-.65-.81-1s-.27-.46-.39-.7,0-.26-.07-.39a30.12,30.12,0,0,1,.46-5.44,19.56,19.56,0,0,1,.59-2,12.75,12.75,0,0,1,.83-1.24,18.09,18.09,0,0,1,2-1.87,13.83,13.83,0,0,1,2.13-1.1l.68-.16.91.06a8.16,8.16,0,0,1,1.06.34c.19.11.37.23.55.35s.21.52.31.79a3.06,3.06,0,0,0,1.85,1.6,3.24,3.24,0,0,0,4.13-2,3.54,3.54,0,0,0-.18-2.52c-.14-.38-.29-.76-.47-1.14a6.53,6.53,0,0,0-2.12-2.19,9.46,9.46,0,0,0-2.64-1.27,10.54,10.54,0,0,0-3.16-.49Zm2.46,7,.12.11-.12-.11Zm.43.46.06.09-.06-.09Z"/><path class="cls-1" d="M56.18,375.58a3.49,3.49,0,0,0-1.09,2.24l0,.13c-.24,1-.55,2-.83,3s-.6,2.18-.87,3.27c-.63,2.53-1.22,5.06-1.7,7.62-.44,2.2-.91,4.39-1.33,6.59-.18.89-.35,1.79-.49,2.68s-.21,1.61-.36,2.4l-.06.3a3.23,3.23,0,0,0,.35,1.67,3.3,3.3,0,0,0,1.85,1.61,3.34,3.34,0,0,0,2.52-.18,3.09,3.09,0,0,0,1.6-1.85c.35-1.7.55-3.43.86-5.14l.42-2.14c.42-2.09.86-4.19,1.27-6.28s1-4.25,1.53-6.35c.61-2.31,1.34-4.57,1.75-6.92a3.14,3.14,0,0,0-.82-2.35,3.21,3.21,0,0,0-2.23-1.09h-.19a3.23,3.23,0,0,0-2.16.82Z"/><path class="cls-1" d="M31.3,304.85a10.28,10.28,0,0,0-3.2,1.62,7.16,7.16,0,0,0-2.3,3.29,34.21,34.21,0,0,0-1.4,5.92c0-.09,0-.18.05-.28a25.53,25.53,0,0,0-.5,3.9c0,1.11,0,2.2,0,3.3-.53,0-1.07,0-1.61,0s-.78,0-1.17,0a19.35,19.35,0,0,1-2.75-.2,20.41,20.41,0,0,0-4.69-.87,9.35,9.35,0,0,0-2,.2c-.24.05-.46.12-.69.18l-.14,0a4.61,4.61,0,0,0-3.25,0c-1.76.78-2,2.73-2.21,4.39-.11.84-.17,1.69-.25,2.53-.13,1.54-.35,3.06-.55,4.58s-.52,3.25-.66,4.89c-.22,2.57-.36,5.16-.51,7.73,0,.18,0,.36,0,.54a5.2,5.2,0,0,0,.41,2.14,4.12,4.12,0,0,0,2.43,2,7.93,7.93,0,0,0,1.6.46,36.86,36.86,0,0,0,5.14.66c1.16.09,2.33.16,3.49.24s2.15.11,3.22.26l.25.07a11.82,11.82,0,0,1,.87,1.11,9.07,9.07,0,0,1,.67,1.27c.06.22.1.44.14.66a12,12,0,0,1-.1,1.9c-.05.16-.1.32-.16.47a7.7,7.7,0,0,1-.63.87c-.47.49-1,1-1.45,1.42s-.93.89-1.42,1.29h0a12.69,12.69,0,0,1-1.36.3,12,12,0,0,1-1.46-.14c-.72-.16-1.43-.33-2.14-.47a11,11,0,0,1-1.52-.41c-.13-.07-.25-.16-.37-.24s-.25-.27-.36-.41A3.87,3.87,0,0,0,7,358.85a4.5,4.5,0,0,0-3,2.87,11.17,11.17,0,0,0-.65,2.62c0-.29.11-.57.17-.86-.33,1.66-.58,3.31-.75,5-.11,1.06-.28,2.12-.47,3.17-.12.56-.22,1.12-.33,1.68-.61,3-1,6.12-1.5,9.17a54.34,54.34,0,0,0-.5,5.7C0,389.12,0,390,0,391c0,.28,0,.56,0,.84a5.54,5.54,0,0,0,.29,1.65c.25.82.39,1.61.7,2.41A3.94,3.94,0,0,0,3.69,398c.54.13,1.08.24,1.63.35,1.86.39,3.64,1.07,5.5,1.48a13.2,13.2,0,0,0,2,.33,12.09,12.09,0,0,0,1.7-.07c.59-.06,1.18-.16,1.78-.23a11.65,11.65,0,0,1,1.67,0l.38.12c-.18.47-.37.94-.59,1.41-.36.66-.76,1.3-1.17,1.93a8.89,8.89,0,0,0-1.08,2.29,8.08,8.08,0,0,0-.43,2.8,5.82,5.82,0,0,0,.71,2.71,9.61,9.61,0,0,0,1.29,1.68,23.77,23.77,0,0,0,2.07,1.95,27.69,27.69,0,0,0,3.54,2.56,21.31,21.31,0,0,0,4.08,2,33.68,33.68,0,0,0,5,1.26,9,9,0,0,0,4.87-.59,6.41,6.41,0,0,0,2.59-1.66,7.84,7.84,0,0,0,1.08-1.37,8.29,8.29,0,0,0,.83-2.31,8.67,8.67,0,0,0,.24-1.74,12.76,12.76,0,0,0-.1-1.51c0-.42-.1-.83-.17-1.25-.22-1.36-.52-2.71-.74-4.07-.16-1-.33-2.09-.46-3.14l.81.19a3.07,3.07,0,0,0,.85.18,12.72,12.72,0,0,0,2,.34c1.13.16,2.26.21,3.39.38a25.31,25.31,0,0,1,3.53,1.38A3.16,3.16,0,0,0,53,405.2a3.24,3.24,0,0,0,1.43-4.37,3.4,3.4,0,0,0-1.85-1.61,21,21,0,0,0-3.67-1.42c-1.89-.43-3.83-.51-5.75-.8a3.1,3.1,0,0,0-.53-.1l-.29,0-.46-.12-1.92-.49-1.62-.39a6.12,6.12,0,0,0-1.46-.25,3.79,3.79,0,0,0-2.57.89,3.33,3.33,0,0,0-1,1.53,5.18,5.18,0,0,0-.08,2l.06.54c0,.86.05,1.73.12,2.59.08,1.07.27,2.14.42,3.2s.33,2.15.54,3.21.37,1.86.48,2.81a4,4,0,0,1,0,.6c-.06.22-.12.44-.19.66l-.15.14-.32.15a8.33,8.33,0,0,1-1,.22l-.67-.06a29,29,0,0,1-2.88-.74,22.42,22.42,0,0,1-2.39-.95,24.39,24.39,0,0,1-4.28-2.93,15.54,15.54,0,0,1-1.37-1.44V408a7.93,7.93,0,0,1,.25-.83c.3-.51.64-1,.93-1.51.48-.81.89-1.65,1.3-2.5a21.49,21.49,0,0,0,1.47-5.47,16.16,16.16,0,0,0,.3-1.69,3.55,3.55,0,0,0-2.21-3.95,3.41,3.41,0,0,0-3.27.66,2.8,2.8,0,0,0-.69.87c-.48-.11-1-.18-1.43-.24a20.35,20.35,0,0,0-4.54.28,7.72,7.72,0,0,1-1.18-.09c-1.33-.31-2.63-.72-3.93-1.1-.61-.18-1.25-.3-1.88-.43H6.63a3.81,3.81,0,0,1-.13-.45c0-.82-.06-1.65,0-2.47.06-1.13.13-2.25.22-3.38.06-.72.12-1.43.21-2.14.11-.87.31-1.73.43-2.59.28-2,.54-4,.91-5.91.11-.55.22-1.11.32-1.67.25-1.27.48-2.54.65-3.83.11-.86.2-1.71.31-2.57a13.81,13.81,0,0,0,1.44.37,33.4,33.4,0,0,0,5.16.92A10.88,10.88,0,0,0,21,367.17a9.64,9.64,0,0,0,2.17-1.75A28.06,28.06,0,0,0,26.44,362a9,9,0,0,0,1.67-5,12.79,12.79,0,0,0-.13-3,10.56,10.56,0,0,0-.78-2.32,14.33,14.33,0,0,0-1.41-2.27,7.59,7.59,0,0,0-3.4-3,13.46,13.46,0,0,0-3.93-.68l-3.08-.2c-1.79-.12-3.58-.24-5.35-.49,0-.45.05-.9.08-1.36.12-2,.23-3.95.45-5.91s.57-4,.83-6c.14-1.13.23-2.27.34-3.4l.14,0c.55-.08,1.07-.26,1.62-.36a8.64,8.64,0,0,1,1.13.11,32.89,32.89,0,0,0,5,.94c.66,0,1.31,0,2,0a16.16,16.16,0,0,1,2.41,0,7.46,7.46,0,0,1,.8.26l.63.37a4.63,4.63,0,0,0,1.91.69,3.3,3.3,0,0,0,1.69-.35,3.2,3.2,0,0,0,1.63-1.87,4,4,0,0,0,.18-1,7.12,7.12,0,0,0-.11-1.15l-.09-.44c0-.23-.07-.45-.1-.68,0-.89-.09-1.78-.15-2.66,0,.19,0,.38,0,.57a26,26,0,0,1,.34-6.35c.09-.45.17-.89.26-1.33,0,.18-.07.36-.11.54A21.87,21.87,0,0,1,32,311.7l0-.06.25-.21.58-.29a14.59,14.59,0,0,1,2.14-.46,8.31,8.31,0,0,1,.86.07c1.23.3,2.41.76,3.63,1.1a32.76,32.76,0,0,1,3.46,1,10.74,10.74,0,0,1,.23,1.38,17.94,17.94,0,0,1-.25,3.18,9,9,0,0,1-.38,1.22q-1.07,2-2.3,3.92c-.45.71-.92,1.41-1.38,2.11a12.41,12.41,0,0,0-1.11,1.9,3.42,3.42,0,0,0,.11,2.8,3.65,3.65,0,0,0,2.93,1.88c.52.06,1.07,0,1.59.07a25.16,25.16,0,0,1,3.79.3,23.76,23.76,0,0,0,2.39.37c.8.06,1.59.12,2.38.21s1.67.21,2.51.3,1.79.15,2.69.24,1.82.17,2.75.16,1.84,0,2.76,0h1.09c-.64,2.8-1.41,5.58-2,8.4-.41,2.12-.76,4.26-1.17,6.39-.37,1.74-.85,3.44-1.25,5.17-.48,2.11-.93,4.24-1.31,6.37a3.13,3.13,0,0,0,.81,2.35,3.27,3.27,0,0,0,2.24,1.09,3.23,3.23,0,0,0,2.35-.82,3.51,3.51,0,0,0,1.09-2.23s0-.09,0-.13c.25-1.18.46-2.37.73-3.53.34-1.52.72-3,1.1-4.52.73-2.92,1.13-5.9,1.7-8.85l-.12.61c.06-.28.11-.56.16-.84.57-2.69,1.34-5.33,1.93-8,.27-1.21.51-2.42.66-3.65l0-.44a4.06,4.06,0,0,0-.35-1.95,3.13,3.13,0,0,0-1.9-1.69,3.32,3.32,0,0,0-1.49-.14c-.46,0-.92,0-1.37,0-.6,0-1.2,0-1.8,0h-.95l-2.49,0a23.7,23.7,0,0,1-2.66-.14c-1.58-.16-3.16-.29-4.74-.48s-3-.21-4.45-.47l-1.23-.23c.58-.95,1.14-1.93,1.67-2.92a11.66,11.66,0,0,0,1.12-2.77,24,24,0,0,0,.5-3.15,16.06,16.06,0,0,0-.28-4.64,6.27,6.27,0,0,0-.75-2.07,5.48,5.48,0,0,0-1-1.27,7.18,7.18,0,0,0-2.12-1.38,16,16,0,0,0-1.91-.66c-.72-.23-1.44-.42-2.17-.62a38.13,38.13,0,0,0-4.92-1.36,9.91,9.91,0,0,0-1.33-.09,13.22,13.22,0,0,0-3.89.65Zm-.55,11.92c0,.18-.07.35-.11.53,0-.18.07-.35.11-.53Zm-.23,7.66v.19c0-.06,0-.13,0-.19Zm15,7.1.29.05-.29-.05Zm21.76,10c0,.26-.1.53-.16.79,0-.26.11-.53.16-.79Zm-7.73,6.38-.09.48.09-.48Zm-40,4.3.2.1-.2-.1ZM2.31,371.9l-.06.32.06-.32ZM2,373.69a2.07,2.07,0,0,1,0,.22c0-.08,0-.15,0-.22Zm19.32,33.9.09.24h0a2.34,2.34,0,0,1-.09-.24Zm.27.57,0,0,0,0Zm5.2,4,.2.09-.2-.09Zm34-70.58.06-.32.06-.29c0,.2-.09.41-.12.61Zm.12-.61c0-.08,0-.16,0-.24,0,.08,0,.16,0,.24Z"/></g></g></svg>