<svg xmlns="http://www.w3.org/2000/svg" viewBox="0 0 232.11 240.25"><defs><style>.cls-1,.cls-2{fill:#728889;}.cls-2{opacity:0.15;}</style></defs><g id="Layer_2" data-name="Layer 2"><g id="Draw_Layer" data-name="Draw Layer"><path class="cls-1" d="M93.06,3a72.35,72.35,0,0,0-11.46,7C75.4,14.49,70,20.05,64.78,25.67,61.14,29.58,57.43,33.44,54,37.5c-4.64,5.41-9.41,10.73-13.79,16.37-9.82,12.65-18.87,25.93-26,40.27a148.36,148.36,0,0,0-9.18,22.67A114.26,114.26,0,0,0,.29,141.26,83.14,83.14,0,0,0,1.88,166a55.59,55.59,0,0,0,4,10.82,54.66,54.66,0,0,0,6,10.08,92.21,92.21,0,0,0,7.71,8.94,88.24,88.24,0,0,0,9.78,8.32c2.93,2.24,6,4.33,9,6.44,3.32,2.31,6.69,4.56,10.12,6.71A189.77,189.77,0,0,0,69,228.25a145.4,145.4,0,0,0,22.84,8.4A97.06,97.06,0,0,0,116,240.24a83.69,83.69,0,0,0,11.19-.64,90.16,90.16,0,0,0,12.93-2.36,93.37,93.37,0,0,0,10.75-3.69c4-1.63,8-3.39,11.87-5.41a129,129,0,0,0,19.85-13.06A141.53,141.53,0,0,0,199,199.61a184.07,184.07,0,0,0,14.87-18.87,90.28,90.28,0,0,0,5.81-9.25,110.8,110.8,0,0,0,5.16-11.44c1.42-3.58,2.76-7.18,3.91-10.86a77.19,77.19,0,0,0,2.65-13,86,86,0,0,0,.73-11,78.7,78.7,0,0,0-1.24-13A98,98,0,0,0,223.55,89c-6.27-14.35-15.48-27.34-25.64-39.18a162.18,162.18,0,0,0-16-16.48c-3-2.66-6.28-5.1-9.48-7.56a93,93,0,0,0-10-6.84,114.67,114.67,0,0,0-10.32-5.22,127.64,127.64,0,0,0-12.73-5.19,77.59,77.59,0,0,0-25.48-4.16c-1.38,0-2.76.09-4.14.21A6.77,6.77,0,0,0,105.18.32a10.69,10.69,0,0,0-2.6-.32c-3.34,0-6.51,1.51-9.52,3Zm28.73,16.36a85,85,0,0,1,18.7,5.28c3.85,1.66,7.64,3.46,11.34,5.43a86.16,86.16,0,0,1,11.83,7.73c2.58,2,5.14,4,7.6,6.17,2.78,2.42,5.41,5,8,7.63A193.15,193.15,0,0,1,193,67.37a149,149,0,0,1,18,30.07,91.65,91.65,0,0,1,5.75,20.47,75.57,75.57,0,0,1-.11,17.4,75.73,75.73,0,0,1-2.76,11.78c-1.2,3.75-2.61,7.46-4.11,11.1a82,82,0,0,1-6.49,12.12c-2.52,3.86-5.23,7.62-8,11.28a142,142,0,0,1-23,23.25A119.55,119.55,0,0,1,147.94,219c-3.24,1.33-6.53,2.53-9.89,3.54a75.46,75.46,0,0,1-10.72,2.29,84.57,84.57,0,0,1-19.54,0,119.85,119.85,0,0,1-27.33-7.79A208.09,208.09,0,0,1,37.7,191.58,81.68,81.68,0,0,1,25,179a60.17,60.17,0,0,1-6.34-11.22A48.16,48.16,0,0,1,16,157.6a90.06,90.06,0,0,1,.23-20.43,117.2,117.2,0,0,1,7.58-27.06c7-16.16,16.66-31,27.33-45,3.14-4,6.48-7.86,9.81-11.73,2.32-2.68,4.58-5.44,7-8L75,37.76a7.07,7.07,0,0,0,2.76,1.5,7.31,7.31,0,0,0,8.86-5c.22-.76.47-1.51.74-2.25a21.07,21.07,0,0,1,1.13-1.81,36.22,36.22,0,0,1,4.86-4.73,40,40,0,0,1,6.59-3.8,44.31,44.31,0,0,1,8.68-2.39,59.18,59.18,0,0,1,13.17.07Z"/><path class="cls-1" d="M47.54,89.33a6.49,6.49,0,0,0-3.89,3c-1.72,2.94-.81,7.26,2.33,8.89a73.45,73.45,0,0,0,10.37,4.85,6.24,6.24,0,0,0,7-2.86,6.31,6.31,0,0,0-2.23-8.52C58.34,93,55.44,91.5,52.55,90a7.19,7.19,0,0,0-3.35-.88,6,6,0,0,0-1.66.23Z"/><path class="cls-1" d="M69.65,58.76a8.1,8.1,0,0,0,2.87,10.95c2,1.18,3.93,2.33,5.86,3.55.92.59,1.84,1.18,2.77,1.73a30.44,30.44,0,0,0,5,2.38,7.53,7.53,0,0,0,4,0,7.61,7.61,0,0,0,3.36-12.72,39.58,39.58,0,0,0-6.73-5c-2-1.29-4.14-2.52-6.22-3.77a7.62,7.62,0,0,0-3.95-1.09,8.16,8.16,0,0,0-7,3.95Z"/><path class="cls-1" d="M117.9,35.25l-1.2,1.55a7.75,7.75,0,0,0-1,3.87c-.22,2.46-.45,4.92-.44,7.39a45.5,45.5,0,0,0,.37,5.08,28.28,28.28,0,0,0,1.57,7.34,6.93,6.93,0,0,0,6.68,5.09c3.64,0,7.1-3.16,6.93-6.93-.09-1.83-.1-3.67-.15-5.5,0-1.37-.08-2.74-.1-4.11a78,78,0,0,1,.49-8.36,7.35,7.35,0,0,0-2.25-5.42,7.67,7.67,0,0,0-10.85,0Z"/><path class="cls-1" d="M155.79,61.86c-1.28,2.07-2.28,4.31-3.44,6.45a6.41,6.41,0,1,0,11.07,6.47,35.14,35.14,0,0,0,3.52-8.22,6.18,6.18,0,0,0-2.8-6.89,5.94,5.94,0,0,0-3-.82,6.32,6.32,0,0,0-5.33,3Z"/><path class="cls-1" d="M190.73,88.18c-2.73,1-5.38,2.1-8,3.24A3.53,3.53,0,0,0,181,93.64a3.76,3.76,0,0,0,.38,2.86,3.69,3.69,0,0,0,2.22,1.71l1,.13a3.75,3.75,0,0,0,1.88-.5c2.35-1,4.72-2,7-3.18a3.55,3.55,0,0,0,1.63-4A3.69,3.69,0,0,0,191.68,88a2.92,2.92,0,0,0-1,.16Z"/><path class="cls-1" d="M121,166.53c-1.59.16-3.19.42-4.76.69a6.73,6.73,0,0,0-4.18,3.22,7.06,7.06,0,0,0-.76,5.2,24,24,0,0,0-1.28,2.1,53,53,0,0,0-2.2,5,24.13,24.13,0,0,0-1.66,9.51,26.09,26.09,0,0,0,.61,4.48,14.1,14.1,0,0,0,1.93,4.59c1.94,3.08,5.3,4.71,8.56,6a16.59,16.59,0,0,0,4.46.84,23.43,23.43,0,0,0,4.27,0,48.25,48.25,0,0,0,9.9-1.83,41.15,41.15,0,0,0,4.14-1.67,24.63,24.63,0,0,0,10.44-8.78,16.63,16.63,0,0,0,1.77-3.71,19.47,19.47,0,0,0,1-4.8,14.62,14.62,0,0,0-.57-4.87c-.31-.81-.63-1.61-1-2.4a13.35,13.35,0,0,0-1.95-2.74,25.86,25.86,0,0,0-2.88-2.32,31.2,31.2,0,0,0-3.54-2.26,71.54,71.54,0,0,0-9.07-4,37.81,37.81,0,0,0-8.73-2.09,22.7,22.7,0,0,0-2.83-.2c-.54,0-1.08,0-1.64.08Zm3.66,15.82a8.07,8.07,0,0,0,1.35-1.46,48.39,48.39,0,0,1,6.77,2.25c1.41.63,2.8,1.3,4.15,2a22.38,22.38,0,0,1,2.36,1.5V187c-.06.24-.13.49-.21.73-.21.4-.43.79-.67,1.17a20.75,20.75,0,0,1-1.71,1.67,25.05,25.05,0,0,1-3.43,1.92,33.66,33.66,0,0,1-5.84,1.52,28.64,28.64,0,0,1-4.72.19,14.78,14.78,0,0,1-1.45-.39q-.35-.18-.69-.39l-.15-.61a21,21,0,0,1,0-2.38,24.08,24.08,0,0,1,1-3.4,25,25,0,0,1,1.75-3.32,14.8,14.8,0,0,1,1.47-1.38Zm14.07,3.39a6.12,6.12,0,0,1,.39.5l-.39-.5Zm-18.54,7.1.17.4c-.06-.13-.12-.26-.17-.4Zm.42.75,0,0h0l0,0Zm.06,0h0l.3.24-.31-.24Z"/><path class="cls-1" d="M147.15,86.48a7.23,7.23,0,0,0-3.22,1.87c-1.83,1.48-2.45,3.83-3,6-.31,1.21-.72,2.39-1.09,3.57-.84,2.64-1.63,5.3-2.45,8-1.58,5.19-3.14,10.39-4.58,15.62S130,132,128.7,137.28A142.39,142.39,0,0,0,125.45,153c-.62,4.53-1.16,9.06-1.56,13.61a7.5,7.5,0,0,0,2.29,5.53,7.82,7.82,0,0,0,11,0,8.26,8.26,0,0,0,2.29-5.53c.26-2.92.59-5.83.9-8.74l-.18,1.38c.29-2.16.52-4.34,1-6.47.58-2.7,1.09-5.43,1.77-8.1q2.19-8.67,4.49-17.29c1.38-5.1,2.89-10.16,4.46-15.2.8-2.56,1.59-5.12,2.4-7.68.34-1.09.68-2.17,1-3.26a21.1,21.1,0,0,0,1-3.39,29.68,29.68,0,0,0,.38-3.25,9,9,0,0,0-1.34-4.73A7.44,7.44,0,0,0,151,86.48a7.53,7.53,0,0,0-1.93-.26,7.61,7.61,0,0,0-1.94.26Z"/><path class="cls-2" d="M188.8,43.16a22.72,22.72,0,0,0-3.43,3.41c-.26.28-.51.55-.76.84a15.68,15.68,0,0,0-1.09,1.45,17.79,17.79,0,0,0-5.09,7.81,35.6,35.6,0,0,0-1.85,8c-2,3.38-4.11,6.66-6.08,10-2.42,4.14-4.56,8.43-7,12.58-2,3.36-3.74,6.81-5.43,10.31-.46.75-.92,1.49-1.37,2.24-1.07,1.75-2.15,3.5-3.17,5.28-.62,1.07-1.23,2.15-1.82,3.23a21.26,21.26,0,0,0-2,4,8.59,8.59,0,0,0-.18,4.74c-.17.68-.33,1.36-.48,2-.31,1.17-.6,2.35-.84,3.53-.31.84-.67,1.66-1,2.48-.59,1-1.22,2-1.78,3.09-1.57,2.93-3,6-4.38,9-.83,1.8-1.59,3.64-2.31,5.48-.64,1.65-1.15,3.3-1.62,5,0-.17.09-.34.14-.51,0,.18-.1.36-.14.54-.31,1.09-.59,2.19-.87,3.31a33.34,33.34,0,0,0-1.29,5.53c-.47,4.58-1,9.51.18,14.05a35.22,35.22,0,0,0,2.05,6.82,20.76,20.76,0,0,0,2.9,5.2,14.53,14.53,0,0,0,3.76,3.37L142.27,189c-.57-.13-1.14-.22-1.68-.32a6.26,6.26,0,0,0-2.4.11,9,9,0,0,0-3.74,1.39,16.51,16.51,0,0,0-3.14,3.44,43.15,43.15,0,0,0-2.56,5c-.33.21-.66.42-1,.66a37.11,37.11,0,0,0-5.29,5.27,13.35,13.35,0,0,0-.91,1.19c-.73,1.36-1.42,2.75-2.07,4.15a31.17,31.17,0,0,0-1.72,10.53,17.67,17.67,0,0,0,.48,5.73l1.24,4.81a12.67,12.67,0,0,0,4.3,6.27,5.27,5.27,0,0,0,5.89,0c.87-.87,1.72-1.75,2.56-2.65.09-.09.17-.2.26-.3a17.45,17.45,0,0,1,1.8-1.41,18,18,0,0,0,4.46-4.37,19.17,19.17,0,0,0,1.79-3.17,7,7,0,0,0,4.61,2.47c2.49.25,4.69-2.42,5.84-4.17.28-.43.54-.88.8-1.32.4-.69.78-1.38,1.16-2.08a5.09,5.09,0,0,0,3.53-2.43c1.51-2.16,2.93-4.38,4.32-6.62.14.23.29.46.45.68a4.23,4.23,0,0,0,7.76,0c.7-.74,1.38-1.52,2-2.3,1.18,2.71,3.9,6.54,7.21,4.21,2.61-1.84,4.08-4.48,5.78-7.06.93-1.41,1.87-2.82,2.8-4.24q2-3.1,4.11-6.18,4.89-7.31,9.74-14.64c2.81-4.24,5.64-8.46,8.46-12.7q2.27-3.41,4.51-6.83c.59-.89,1.17-1.79,1.72-2.7.92-1.51,1.65-3.11,2.44-4.69.91-1.82,1.34-5.15,1.47-7.6l0,0a53.75,53.75,0,0,0,4.48-8.28,25,25,0,0,0,1.09-3.34c1-3.93,2.07-7.61,1.9-11.76-.21-4.79-.68-9.86-2.67-14.3s-4.39-8.32-6.68-12.43c-1.15-2.61-2.13-5.27-3-8-.55-1.65-1-3.32-1.54-5a43.42,43.42,0,0,0-3.12-7.25,56.28,56.28,0,0,0-6.4-10.88l-.9-1.08c0-.65,0-1.35,0-2.12a36.78,36.78,0,0,0-2-12.15c-.9-2.33-2.66-6-5-7.35a6,6,0,0,0-3.15-1,7.68,7.68,0,0,0-3.55,1.12ZM137,148.24c-.19.73-.37,1.47-.56,2.2,0,.09-.05.19-.08.29.21-.83.43-1.66.64-2.49Zm-3.16,84.53c-.16.15-.31.31-.46.47.15-.16.3-.32.46-.47Z"/></g></g></svg>