<svg xmlns="http://www.w3.org/2000/svg" viewBox="0 0 496.75 422.69"><defs><style>.cls-1,.cls-2{fill:#728889;}.cls-2{opacity:0.15;}</style></defs><g id="Layer_2" data-name="Layer 2"><g id="Draw_Layer" data-name="Draw Layer"><path class="cls-1" d="M116.61,4.31c-2.07.42-4.12.87-6.16,1.42C106.37,6.84,102.3,8,98.32,9.44l-7.41,2.64C88.24,13,85.62,14.2,83,15.34a87.42,87.42,0,0,0-8.46,4.32,108.91,108.91,0,0,0-12.75,8.53L57.14,31.8l0,0,0,0-1.44,1.11,1.2-.93c-2.57,2-5,4.24-7.41,6.4a132.86,132.86,0,0,0-14,14.33A168.65,168.65,0,0,0,10.79,92.65a135.6,135.6,0,0,0-7.88,22.82A108.12,108.12,0,0,0,0,139.84c0,4.26.36,8.49.72,12.73.11,1.25.33,2.49.5,3.73.23,1.68.36,3.44.71,5.1.57,2.68,1.1,5.36,1.83,8l1.29,4.7c.3,1.12.76,2.22,1.14,3.31,1.74,5,3.61,9.85,5.75,14.66a106.23,106.23,0,0,0,11.67,19.74,156.44,156.44,0,0,0,11.67,14.27l7,7.44c1.93,2.06,4.06,4,6.17,5.84A94.21,94.21,0,0,0,58.34,247a101.92,101.92,0,0,0,11.48,6.37c1.24.63,2.54,1.14,3.82,1.68L79,257.31l1.71.71a6.9,6.9,0,0,0,1.09.44c1.63.65,3.26,1.28,4.89,1.92,5,2,10,3.65,15,5.4,3.18,1.11,6.51,2,9.78,2.75a112.89,112.89,0,0,0,11.8,2.2,110.79,110.79,0,0,0,24.35.61c3.9-.34,7.8-.88,11.67-1.53,2.61-.45,5.24-.93,7.82-1.59l9.72-2.47c.82-.22,1.61-.52,2.41-.79l5.41-1.81c2.57-.86,5.07-2,7.58-3s5.2-2.21,7.79-3.33c2.19-1,4.42-1.85,6.55-2.92l9.33-4.71a111.13,111.13,0,0,0,15.74-9.88,137.26,137.26,0,0,0,18.09-15.7,119.15,119.15,0,0,0,14.46-18.5,141.7,141.7,0,0,0,10.73-20.91,117.61,117.61,0,0,0,9.36-46.58c0-4.53-.4-9-.79-13.55-.42-4.9-.95-9.79-1.85-14.64-.71-3.8-1.7-7.56-2.7-11.3a108.44,108.44,0,0,0-3.81-11.51,103,103,0,0,0-11-21A95.78,95.78,0,0,0,248.41,48a121.19,121.19,0,0,0-18.48-13.61c-3.73-2.2-7.6-4-11.5-5.91-2.62-1.25-5.35-2.29-8-3.4s-5.18-2-7.76-3.06a81.31,81.31,0,0,0-15.47-4.1c-3-.55-6.1-1.18-9.17-1.57q-9-1.13-18.1-2.18a171.23,171.23,0,0,0-28.35-1.38c-.93.05-1.87.12-2.81.19A5.8,5.8,0,0,0,130,9.35a5.91,5.91,0,0,0-5.85-5.85h-.54a35.32,35.32,0,0,0-7,.82Zm31.11,18.18c3.42.32,6.86.56,10.27,1q9.54,1.16,19.06,2.39c4.73.88,9.46,1.7,14.12,2.89a120.16,120.16,0,0,1,15.75,5.67c2.92,1.27,5.82,2.55,8.68,4,2.28,1.13,4.53,2.27,6.75,3.52A104.36,104.36,0,0,1,234.46,50a108,108,0,0,1,18.1,17.66A98,98,0,0,1,264,87.54a115.77,115.77,0,0,1,4.8,14.4,134.49,134.49,0,0,1,3.12,14.71c.51,4.08.81,8.19,1.16,12.3a113,113,0,0,1-.58,23.76,122.77,122.77,0,0,1-3,14.31,114.4,114.4,0,0,1-4.81,13.8,128.45,128.45,0,0,1-15.23,26.63,116.41,116.41,0,0,1-21,20.83,135.88,135.88,0,0,1-17.35,11.16c-2.5,1.37-5.14,2.54-7.7,3.81-1.83.9-3.65,1.78-5.53,2.58l-7.74,3.27c-2.4,1-4.85,1.86-7.27,2.8s-5.2,1.69-7.79,2.52-5,1.31-7.59,1.93c-4.45,1.08-8.91,2-13.45,2.65a110.05,110.05,0,0,1-26.9.21,116.38,116.38,0,0,1-13.34-2.73c-3.23-.86-6.47-1.82-9.6-3-2.14-.79-4.28-1.57-6.42-2.37-1.49-.55-3-1-4.48-1.65l.06,0h0l.37.16-.13-.05.43.17.44.19-2-.83h0l.33.14-.12-.05.36.15-1.39-.58.48.2-.27-.11-.14-.06-2.76-1.17L87.46,247l-.62-.26h0l-1.06-.45-.48-.2h0l-.16-.07-.81-.34a103.56,103.56,0,0,1-21.4-12A118,118,0,0,1,49.55,220.9q-2.38-2.6-4.76-5.21c-2.15-2.35-4.15-4.84-6.11-7.35a133.92,133.92,0,0,1-7.9-11.46,102,102,0,0,1-6.3-12.26q-1.87-4.59-3.43-9.3c-.62-1.86-1.32-3.72-1.81-5.61l-1-3.82c-.22-.86-.49-1.72-.66-2.59-.39-2-.78-4-1.18-6-.31-2.51-.6-5-.79-7.53a110.82,110.82,0,0,1,.21-21.16,121,121,0,0,1,7.91-28A171.84,171.84,0,0,1,44.31,65.28,122.92,122.92,0,0,1,55.3,53c2.47-2.4,5-4.71,7.57-7,1.31-1.18,2.59-2.39,4-3.49C68.42,41.23,70,40,71.59,38.71q4.93-3.6,10.16-6.75A99,99,0,0,1,93.47,26c1.25-.52,2.5-1,3.76-1.52-.64.56-1.26,1.15-1.84,1.76a23.62,23.62,0,0,0-3.63,5,25,25,0,0,0-1.35,3.25c-.39,1.06-.76,2.12-1.11,3.19a4.62,4.62,0,0,0,3.21,5.66,4.67,4.67,0,0,0,5.66-3.22q.64-2,1.38-3.87a19.53,19.53,0,0,1,1.51-2.48,27.09,27.09,0,0,1,3-3,49.84,49.84,0,0,1,8.56-5.07,51.35,51.35,0,0,1,11.21-2.77,109.94,109.94,0,0,1,23.85-.43ZM86.13,246.43l.46.2-.46-.2Zm.71.3.1,0-.1,0ZM92.25,249h0Zm1.21.52.17.07-.24-.11-.3-.12.37.16Zm-.37-.16h0l-.11-.05.11.05Zm0,0,.28.12h0l-.46-.2.2.09Zm-1.28-.54.17.07-.18-.08Zm-.1,0h0l0,0Zm0,0-.09,0,.09,0Zm.1,0-.09,0-1.25-.53,1.34.56Z"/><path class="cls-1" d="M332,.6a81.91,81.91,0,0,0-17.77,4c-1.22.42-2.47.8-3.66,1.28L306,7.7c-2.7,1.09-5.3,2.39-7.93,3.64a131.7,131.7,0,0,0-16.53,9.43c-.45.31-.9.61-1.34.93a5.87,5.87,0,0,0-.58-.39,6,6,0,0,0-4.41-.57c-1.44.27-2.83.62-4.23,1a25.88,25.88,0,0,0-4.57,1.85,15.07,15.07,0,0,0-4.32,3.63c-1.78,2-3.46,4.11-5.15,6.21-3.65,4.55-7.05,9.29-10.47,14-1.64,2.25-3.13,4.62-4.7,6.93-1.43,2.12-2.81,4.28-4.21,6.43l-1.45,2.24c-.8,1.06-1.59,2.13-2.39,3.18s-1.53,1.91-2.21,2.92c-1.3,1.88-2.59,3.77-3.89,5.66-2.05,3-3.89,6.14-5.78,9.25A94,94,0,0,0,217,93.14,52.41,52.41,0,0,0,213.09,104c-1,2.34-1.82,4.73-2.58,7.15a102.53,102.53,0,0,0-2.86,10.75,75.82,75.82,0,0,0-1.49,12.56,68.29,68.29,0,0,0,1,12.19,66,66,0,0,0,1.56,7.2c.32,1.19.58,2.41,1,3.59s.83,2.5,1.27,3.75c.84,2.42,1.64,4.87,2.62,7.25,1.31,3.18,2.65,6.35,4,9.52,1.22,2.85,2.46,5.7,3.93,8.44,1,1.86,2.23,3.6,3.39,5.36.66,1,1.3,2,2,3l2.76,4c.59.86,1.24,1.67,1.88,2.5,1.5,1.94,3,3.84,4.64,5.68,5.51,6.24,12.1,11.27,18.62,16.38q3.18,2.5,6.39,5c2.28,1.78,4.62,3.47,6.95,5.19,4.47,3.3,8.93,6.57,13.45,9.8a105.89,105.89,0,0,0,13.28,8.11c3.33,1.72,6.77,3.22,10.23,4.66,3.61,1.51,7.28,2.86,11,4,4,1.23,8,2.11,12,3a97.41,97.41,0,0,0,16.82,2.33,115.83,115.83,0,0,0,13.69-.44l4.47-.34c1.23-.08,2.47-.31,3.69-.48l5.32-.72c1-.14,2.1-.23,3.13-.42l9.07-1.66c2.4-.44,4.79-1,7.17-1.5,2.21-.47,4.38-1,6.55-1.52l5.23-1.37c.81-.21,1.65-.39,2.45-.65l8.89-3c.7-.23,1.36-.52,2-.79l5.34-2.12c2.45-1,4.82-2,7.21-3.12,2.19-1,4.41-1.94,6.54-3.08l7.71-4.17c1.51-.81,3-1.76,4.41-2.67s2.89-1.87,4.31-2.84a110.94,110.94,0,0,0,9.73-7.55,80.86,80.86,0,0,0,14.63-17.16,118.46,118.46,0,0,0,8.58-16.31q1.92-4.36,3.75-8.75c.7-1.69,1.38-3.39,2-5.12A97.29,97.29,0,0,0,494,169.07a87.45,87.45,0,0,0,2.12-10.76,77.81,77.81,0,0,0,.59-11.52c-.09-3.68-.43-7.37-.82-11q-.68-6.1-1.88-12.14c-.72-3.59-1.64-7.14-2.66-10.66a103.27,103.27,0,0,0-4.19-11.46c-1.55-3.65-3.34-7.16-5.13-10.7-1-2-2-3.93-3.08-5.87l-2.65-4.81c-.43-.78-.83-1.6-1.3-2.36l-5-8.09a143.29,143.29,0,0,0-9-13q-3.21-4.12-6.7-8c-1.15-1.28-2.33-2.5-3.53-3.72s-2.42-2.47-3.7-3.61l-6.6-5.93c-2-1.76-4.1-3.35-6.15-5-1.58-1.28-3.19-2.51-4.83-3.72a58.9,58.9,0,0,0-8.61-5.48l-4-2c-1.22-.6-2.5-1.09-3.75-1.63-2.33-1-4.72-1.88-7.13-2.67q-7.6-2.49-15.27-4.81c-5.42-1.63-10.86-3.21-16.3-4.78A146.11,146.11,0,0,0,354.68,1,98.23,98.23,0,0,0,343.73,0l-2,0A84.86,84.86,0,0,0,332,.6Zm9.07,7.52A87.84,87.84,0,0,1,352,8.85a132.93,132.93,0,0,1,16.16,3.52c2.44.68,4.86,1.4,7.28,2.12,3.73,1.12,7.47,2.24,11.19,3.41,7.28,2.27,14.51,4.63,21.66,7.26,1.94.86,3.87,1.72,5.77,2.69,1.52.77,3,1.54,4.47,2.41a80.49,80.49,0,0,1,8.24,5.7q4.81,3.76,9.33,7.86c1.92,1.74,3.86,3.46,5.72,5.27a132.4,132.4,0,0,1,11.77,13.16,171.69,171.69,0,0,1,9.63,14.39c1.6,2.64,3.24,5.25,4.7,8,1.56,2.88,3.2,5.74,4.64,8.67,2,4.08,4,8.13,5.84,12.29a114.63,114.63,0,0,1,7.18,27.24q.75,6,1,12.13a73.57,73.57,0,0,1-.49,12.59,109.77,109.77,0,0,1-2.56,11.33,95.36,95.36,0,0,1-3.73,11c-1.57,3.7-3.14,7.4-4.9,11-1.06,2.2-2.13,4.37-3.31,6.51l-1.79,3.22a70.71,70.71,0,0,1-5.65,8.49A80.18,80.18,0,0,1,451.21,222q-3.24,2.45-6.63,4.68c-2.15,1.42-4.36,2.84-6.64,4.05l-6.75,3.59c-3.42,1.81-7,3.31-10.52,4.88-3.42,1.34-6.83,2.77-10.32,3.89l-7.61,2.45c-1.8.58-3.68.94-5.51,1.4s-3.46.93-5.21,1.28l-7.95,1.6c-3.82.77-7.68,1.38-11.53,2l-5.18.63c-1.66.2-3.31.45-5,.55l-8,.47a80,80,0,0,1-14.09-.46c-4.36-.66-8.62-1.68-12.92-2.69A108.35,108.35,0,0,1,311,245c-3.82-1.64-7.57-3.43-11.22-5.43-1.82-1-3.58-2.09-5.33-3.19-1.54-1-3.09-2-4.56-3l-8-5.92-6.45-5c-2.9-2.27-5.76-4.58-8.61-6.92q-3.61-3-7.22-6c-1.7-1.4-3.41-2.8-5.06-4.27a88.32,88.32,0,0,1-10.17-10.75c-2.35-3.14-4.48-6.43-6.55-9.76a79.22,79.22,0,0,1-4.52-8c-.57-1.22-1.1-2.46-1.62-3.71-1.75-4.28-3.55-8.55-5-13-.77-2.33-1.53-4.65-2.29-7-.44-1.34-.72-2.77-1.08-4.14a65.18,65.18,0,0,1-1.3-6.51,58,58,0,0,1-.14-11.85,1.63,1.63,0,0,0,.15-1.38,83.23,83.23,0,0,1,2.1-9.46,107,107,0,0,1,3.5-10.61c1.48-3.36,3.15-6.6,4.82-9.87,1.07-2.06,2.14-4.09,3.29-6.11,1.26-2.2,2.46-4.44,3.78-6.6l4.8-7.86c2.81-4.61,5.68-9.18,8.55-13.75,2.63-4.17,5.29-8.31,8.06-12.38q5.67-8.3,11.46-16.51l1.74-1.42,3-2.2c.82-.45,1.66-.87,2.52-1.25a5.73,5.73,0,0,0,2.06-2.06h0c1.6-1.12,3.21-2.22,4.86-3.27a114.14,114.14,0,0,1,14.73-7.94l5.8-2.59c2.32-.88,4.63-1.8,7-2.57,1.64-.53,3.28-1.08,4.93-1.56a82.77,82.77,0,0,1,11.1-2.38,89.4,89.4,0,0,1,11-.71Zm85,27.33c.15.13.31.25.47.37-.16-.12-.32-.24-.47-.37Z"/><path class="cls-1" d="M147.38,351.65a1.48,1.48,0,1,0,1.47-1.47,1.49,1.49,0,0,0-1.47,1.47Z"/><path class="cls-1" d="M265.65,146.79c-1.22.06-2.43.1-3.64.23-5.57.58-11.12,1.27-16.64,2.21-2.45.41-4.89.94-7.33,1.37q-2.72.5-5.44.88a33.63,33.63,0,0,1-6,.24,29.58,29.58,0,0,0-3.26-.09,16.21,16.21,0,0,0-4.59.75,10.06,10.06,0,0,0-4.61,3.19,5.31,5.31,0,0,0,2.34,8.86,5.08,5.08,0,0,0,4.08-.54,10.56,10.56,0,0,1,1.18-.79c.39,0,.78,0,1.17,0,1.44.26,2.87.58,4.32.8a62.82,62.82,0,0,0,7.5.6,79,79,0,0,0,13-1.09c5.79-.69,11.6-1.42,17.43-1.7,1.41-.07,2.84-.2,4.25-.18l5.78.06c1.25,0,2.49.15,3.73.25,1.91.14,3.79.28,5.69.5a94.32,94.32,0,0,1,21.17,5.84c2.1.92,4.15,1.92,6.19,3,1.47.76,3,1.44,4.44,2.3l5.53,3.34q3.81,2.31,7.37,5a139.16,139.16,0,0,1,11.42,10.56c1.31,1.32,2.6,2.61,3.81,4,1.69,1.93,3.37,3.87,5,5.8,3.86,5,7.71,10.09,11.25,15.37,2,3,4.15,6,6,9.16,1.18,2,2.37,4,3.54,5.95a88.55,88.55,0,0,1,5,10,107.38,107.38,0,0,1,4,12.56,116.53,116.53,0,0,1,2.81,13.46,109.48,109.48,0,0,1-.32,26.4,162.86,162.86,0,0,1-11.19,39.42c-1.37,3.22-2.79,6.41-4.36,9.54l-4.5,8.92a149.06,149.06,0,0,1-13.37,22.45,72.5,72.5,0,0,1-7.46,7.72c-2.62,2.38-5.29,4.7-8.07,6.89q-4.41,3.31-9.11,6.18a88.85,88.85,0,0,1-10.68,5.48A111.89,111.89,0,0,1,287,408.83a105.71,105.71,0,0,1-14.23.8l-8.68-.1c-2,0-4.06-.2-6.09-.31-1.81-.1-3.62-.17-5.43-.31l-9-.71c-1.63-.12-3.26-.21-4.89-.4l-15-1.72c-6.7-.92-13.37-2-20-3.39a113.57,113.57,0,0,1-19.51-6.05,133.17,133.17,0,0,1-27.4-16.2,144.46,144.46,0,0,1-24.34-23.77,114.28,114.28,0,0,1-7.71-11.55,125,125,0,0,1-6.67-13.42,83.28,83.28,0,0,1-5.37-19.09,74.66,74.66,0,0,1,0-17.74,108.34,108.34,0,0,1,7-25.13c1.58-3.66,3.31-7.24,5.16-10.78,1.21-2.31,2.34-4.69,3.65-6.95q2.22-3.82,4.45-7.66c1.42-2.45,3-4.81,4.54-7.21,1.16-1.85,2.35-3.67,3.53-5.5,1.44-2.22,2.8-4.5,4.31-6.67,3.37-4.84,6.59-9.8,10.16-14.49a134.09,134.09,0,0,1,11.49-12.91,152.31,152.31,0,0,1,13.23-11.51c2.21-1.67,4.47-3.24,6.84-4.69a66,66,0,0,1,7.41-3.75l-.74.31c2-.87,4.09-1.85,6.19-2.58l4.24-1.48a43,43,0,0,1,7.35-1.76,25.27,25.27,0,0,1,4.26,0,31.28,31.28,0,0,1,6.41,1.43,38.76,38.76,0,0,1,4.29,2.55,3.53,3.53,0,0,0,3.56-6.1,34.24,34.24,0,0,0-5.66-3.19,31.69,31.69,0,0,0-5.57-1.61,30.79,30.79,0,0,0-7.7-.87,46.24,46.24,0,0,0-5.23.7,27.42,27.42,0,0,0-3.87,1l-4.49,1.45c-1.25.41-2.47,1-3.69,1.44-1.71.68-3.42,1.37-5.11,2.09a61.13,61.13,0,0,0-9.58,5.11c-3,2-5.87,4.2-8.71,6.41-3.2,2.5-6.27,5.14-9.25,7.89q-4.07,3.78-7.78,7.9c-1.27,1.41-2.49,2.86-3.7,4.33-1.47,1.77-3,3.55-4.3,5.42l-5,7c-1.29,1.81-2.62,3.6-3.86,5.45q-4.83,7.23-9.63,14.47c-1.42,2.15-2.82,4.29-4.16,6.48s-2.74,4.38-4,6.64l-4.72,8.69c-1.45,2.67-2.71,5.46-3.94,8.24q-2.57,5.76-4.55,11.77A99.38,99.38,0,0,0,100.93,300a76,76,0,0,0,2.29,24.44,109.43,109.43,0,0,0,8.53,21.85,117.48,117.48,0,0,0,12.73,19.82,133.75,133.75,0,0,0,15.91,16.72A157.48,157.48,0,0,0,159,397.27a125.47,125.47,0,0,0,20.41,10.93c3.63,1.55,7.3,3,11.05,4.17a119.94,119.94,0,0,0,11.66,3c10.29,2.2,20.71,3.46,31.15,4.7,2.15.25,4.29.56,6.45.74l10.5.88c2.13.18,4.24.32,6.37.45,2.57.15,5.16.38,7.74.42l9.6.15c3.3.06,6.64-.18,9.92-.44a114,114,0,0,0,13-1.88,108.29,108.29,0,0,0,10.91-2.78A119.31,119.31,0,0,0,319.89,413a96.5,96.5,0,0,0,19.5-11.42c3.12-2.3,6.1-4.78,9-7.34a90.86,90.86,0,0,0,8.09-7.85,83.29,83.29,0,0,0,6.77-9.08c2.2-3.3,4.19-6.72,6.12-10.18,3.24-5.82,6.12-11.85,9.12-17.81,1.05-2.08,2-4.24,2.9-6.38,1.75-3.95,3.4-8,4.91-12a167.3,167.3,0,0,0,6.71-22.9,139.74,139.74,0,0,0,3-24.8,108,108,0,0,0-2.15-24.19c-.72-3.69-1.74-7.33-2.74-11A91.34,91.34,0,0,0,386.84,236c-1.42-3.27-3-6.46-4.68-9.6-.65-1.22-1.4-2.39-2.09-3.58-1.31-2.25-2.61-4.47-4-6.65s-2.87-4.47-4.38-6.65L366.44,202c-1.71-2.47-3.6-4.83-5.39-7.23s-3.88-4.79-5.88-7.15c-.67-.79-1.31-1.65-2-2.39l-3.26-3.36c-1.93-2-3.89-3.93-5.89-5.85-1.49-1.45-3-2.82-4.65-4.14a83.26,83.26,0,0,0-9-6.6l-4-2.46c-1-.62-2-1.3-3-1.85-2.9-1.54-5.78-3.16-8.76-4.57a102.08,102.08,0,0,0-22.55-7.68,120.86,120.86,0,0,0-14.93-1.88c-2.63-.22-5.29-.17-7.93-.21H269c-1.12,0-2.25.12-3.36.18Z"/><path class="cls-1" d="M227.49,150.74c-5.25.76-10.56,1.44-15.71,2.71-2.44.61-4.85,1.39-7.22,2.23-1.12.4-2.24.81-3.34,1.27-1.73.73-3.49,1.4-5.16,2.25-2.19,1.12-4.38,2.29-6.48,3.55-1,.57-1.91,1.13-2.85,1.72-1.15.72-2.22,1.56-3.31,2.36-4.47,3.27-8.72,6.84-13,10.32-3.39,2.72-6.76,5.48-9.94,8.44-3.33,3.09-6.64,6.19-9.9,9.36s-6.8,6.32-10.09,9.61a55.17,55.17,0,0,0-5.11,6.2l-2.79,3.75c-1,1.23-2,2.46-3,3.71a54.3,54.3,0,0,0-4.18,6.24c-1.93,3.22-4,6.35-5.65,9.73-3.35,6.92-5.82,14.24-8.6,21.4-.81,1.81-1.66,3.61-2.53,5.4-1.23,2.56-2.31,5.19-3.29,7.86-.79,2.16-1.55,4.34-2.36,6.5a66.85,66.85,0,0,0-2.1,6.47,57.44,57.44,0,0,0-1.38,8.33c-.1,1.1-.15,2.21-.23,3.3-.1,1.26-.21,2.53-.22,3.79a57.29,57.29,0,0,0,2.81,16.92c.71,2.34,1.66,4.63,2.54,6.91,1,2.61,2,5.2,3.07,7.8a4,4,0,0,0,6.61,1.74,3.77,3.77,0,0,0,1.15-2.79c-.22-1.89-.37-3.79-.6-5.68s-.6-4-.92-6c-.13-1.06-.27-2.13-.42-3.19-.22-2.08-.42-4.16-.54-6.25a44.41,44.41,0,0,1-.09-5.41c.46-2.6,1.07-5.19,1.59-7.78a78.29,78.29,0,0,1,2-8.12c.83-2.63,1.9-5.19,2.86-7.78.89-2.4,1.74-4.81,2.67-7.19.76-1.63,1.56-3.25,2.33-4.88,1.2-2.56,2.28-5.2,3.26-7.85,1.52-4.12,3.1-8.23,4.74-12.3.52-1.21,1.07-2.4,1.64-3.59.79-1.63,1.72-3.17,2.65-4.72s1.89-3,2.8-4.58c.81-1.37,1.62-2.72,2.51-4,1.55-1.89,3.12-3.75,4.56-5.72q1.47-2,3-4c1.41-1.64,2.86-3.21,4.42-4.72,1.79-1.74,3.61-3.46,5.44-5.16,3.43-3.18,6.77-6.47,10.19-9.67,6.71-6.28,13.86-12,21-17.74l.27-.2a70.92,70.92,0,0,1,7.88-5.3c1.5-.87,3-1.71,4.55-2.55,1.14-.64,2.31-1.19,3.5-1.73A92.56,92.56,0,0,1,218,168c4.46-1.12,9-1.86,13.56-2.53l1.82-.77a7.76,7.76,0,0,0,2.73-2.73,7.6,7.6,0,0,0-2.73-10.41l-1.82-.77a7.69,7.69,0,0,0-4,0Z"/><path class="cls-1" d="M254.13,153.35a19.72,19.72,0,0,0-4.18,2.27c-1.26.79-2.53,1.56-3.79,2.37-2.41,1.56-4.79,3.17-7.16,4.8s-4.86,3.15-7.2,4.86a91,91,0,0,0-7.62,6.25,3.1,3.1,0,0,0,4.39,4.38c1.41-1.29,2.87-2.51,4.36-3.71.94-.69,1.88-1.37,2.85-2s2-1.25,3.06-1.84c2.13-1.21,4.25-2.45,6.34-3.72s3.93-2.32,5.94-3.4c1-.54,2-1,3.07-1.54a14.51,14.51,0,0,0,3.7-2.24,3.89,3.89,0,0,0,.61-4.68,4,4,0,0,0-3.35-1.93,3.6,3.6,0,0,0-1,.15Z"/><path class="cls-1" d="M269.16,154.46c-.85.35-1.68.72-2.5,1.14a42.23,42.23,0,0,0-3.72,2.2q-3.65,2.4-7.22,4.9c-4.87,3.4-10,6.37-14.84,9.86-2,1.46-4,2.92-6,4.45-1,.74-1.92,1.48-2.84,2.27a19,19,0,0,0-3.41,3.48,2.32,2.32,0,0,0,2.62,3.41,2.38,2.38,0,0,0,1.33-1,25.81,25.81,0,0,1,3.43-3.09,138.94,138.94,0,0,1,14.52-9.52c1.44-.81,2.88-1.61,4.34-2.39,1.26-.68,2.53-1.34,3.76-2.07,2.5-1.49,4.94-3.09,7.4-4.66,1.21-.77,2.45-1.5,3.67-2.25.56-.35,1.12-.7,1.66-1.08a5.94,5.94,0,0,0,2.07-1.88,2.87,2.87,0,0,0,.27-2.09,2.79,2.79,0,0,0-1.9-1.9,3,3,0,0,0-1-.15,4.6,4.6,0,0,0-1.68.36Z"/><path class="cls-1" d="M278.61,159.65a24.39,24.39,0,0,0-4.6,2.16c-1.36.75-2.7,1.53-4,2.31-2.61,1.51-5.14,3.15-7.69,4.75s-5.09,3.26-7.63,4.89c-2.7,1.73-5.35,3.51-8,5.33-2.14,1.49-4.24,3-6.34,4.56-2.46,1.81-4.87,3.7-7.16,5.73a2.28,2.28,0,0,0,3.23,3.23c.66-.57,1.34-1.13,2-1.69h0c1-.79,2-1.6,3.1-2.3,1.23-.82,2.47-1.6,3.7-2.41,2.46-1.63,4.93-3.23,7.47-4.72,2.83-1.65,5.68-3.25,8.55-4.83,2.55-1.4,5.12-2.74,7.67-4.14,2.12-1.17,4.22-2.38,6.33-3.57,1-.56,2-1.12,2.93-1.71a18.39,18.39,0,0,0,3.46-2.46,3.1,3.1,0,0,0,.48-3.73,3.15,3.15,0,0,0-2.67-1.53,2.82,2.82,0,0,0-.8.12Z"/><path class="cls-1" d="M271.79,175.05c-1.75,0-3.37.93-4.89,1.7s-2.88,1.51-4.31,2.27c-2.67,1.42-5.4,2.73-8,4.22-2.87,1.64-5.69,3.36-8.51,5.08s-5.41,3.56-8,5.45a3.33,3.33,0,0,0-1.43,1.86,3.18,3.18,0,0,0,.31,2.41,3.14,3.14,0,0,0,1.86,1.43,3,3,0,0,0,2.41-.32,94.16,94.16,0,0,1,8.09-5.34c2.88-1.65,5.76-3.25,8.73-4.73,2.7-1.34,5.45-2.61,8.16-4,1.37-.69,2.76-1.35,4.1-2.09a17.18,17.18,0,0,0,2.46-1.63,6.37,6.37,0,0,0,1.67-1.84,3.09,3.09,0,0,0,0-3,3,3,0,0,0-2.58-1.48Z"/><path class="cls-1" d="M263,189.67a32.82,32.82,0,0,0-5,2c-1.57.7-3.16,1.37-4.68,2.19a80.65,80.65,0,0,0-9.76,6.44,3.77,3.77,0,0,0-1.6,2.08,3.5,3.5,0,0,0,2.43,4.3,3.4,3.4,0,0,0,2.7-.35c1.7-1.28,3.42-2.49,5.23-3.61a51.46,51.46,0,0,1,4.9-2.65c1.42-.56,2.86-1.09,4.28-1.65a20.61,20.61,0,0,0,2.8-1.25,16.53,16.53,0,0,0,2.15-1.55,3.61,3.61,0,0,0,.92-1.58,3.56,3.56,0,0,0-.36-2.76,3.6,3.6,0,0,0-3.11-1.76,3.71,3.71,0,0,0-.93.12Z"/><path class="cls-1" d="M419.7,97.56c-2,1.65-3.88,3.33-5.79,5-2.11,1.88-4.13,3.89-6.31,5.69a21.94,21.94,0,0,1-2.31,1.41l-.22.06c-.5,0-1,0-1.5,0-2.07-.4-4.12-.84-6.23-1.08a17.69,17.69,0,0,0-4.29.35,15.74,15.74,0,0,0-3.93,1.45,13.75,13.75,0,0,0-3.53,2.37,20,20,0,0,0-1.89,2,43.08,43.08,0,0,0-3.32,4.41c-.92,1.42-1.85,2.83-2.75,4.26-.78,1.24-1.55,2.49-2.34,3.73-1-2-1.84-4.14-2.76-6.2l-1.41-3.12c-.25-.57-.52-1.14-.78-1.71a15.39,15.39,0,0,0-2.42-3.57,7.66,7.66,0,0,0-3.23-2,5,5,0,0,0-2.7,0,6.74,6.74,0,0,0-2.76,1.57,14.23,14.23,0,0,0-2.43,3.48c-.73,1.43-1.29,2.94-1.9,4.42l-2.34,5.56c0-.48-.07-1-.1-1.44-.08-1.22,0-2.45-.06-3.68,0-1.88-.06-3.76-.08-5.64a4.8,4.8,0,0,0-9.6,0c0,2.51.07,5,.11,7.55,0,1.7.14,3.38.24,5.08.1,1.54.3,3.07.46,4.6.1.87.22,1.73.33,2.59a25.37,25.37,0,0,0,.34,2.76,11.33,11.33,0,0,0,1.57,3.38,4.81,4.81,0,0,0,1.75,1.75,4.67,4.67,0,0,0,3.75.5c1.47-.57,3.11-1,4.24-2.22a15.64,15.64,0,0,0,2.54-3.55c1.41-2.68,2.57-5.49,3.77-8.27.47-1.08.95-2.16,1.42-3.25l1.06,2.76c.57,1.48,1.14,2.94,1.73,4.41.35.89.75,1.78,1.12,2.66a12,12,0,0,0,2.32,3.85,7.66,7.66,0,0,0,6.95,2,12.41,12.41,0,0,0,5.63-3.47,20.21,20.21,0,0,0,2-2.52c.5-.68.95-1.41,1.43-2.11.36-.53.7-1.07,1.05-1.6,1.6-2.42,3.15-4.9,4.87-7.24a24.57,24.57,0,0,1,2.32-2.58c.34-.21.68-.41,1-.6s.65-.2,1-.29.73,0,1.1,0c.64.13,1.27.29,1.91.44,1.35.31,2.62.59,4,.78a14.69,14.69,0,0,0,3.38,0,18,18,0,0,0,2.53-.4,15.06,15.06,0,0,0,3-1.24,14.86,14.86,0,0,0,2.74-1.76,37.39,37.39,0,0,0,3.12-2.63c.95-.91,1.84-1.85,2.74-2.8,2.51-2.66,4.93-5.39,7.32-8.15a5.81,5.81,0,0,0,1.63-3.93,5.55,5.55,0,0,0-5.56-5.55,5.89,5.89,0,0,0-3.93,1.62Z"/><path class="cls-1" d="M161,92.21c-.84.13-1.67.26-2.49.43q-3,.66-6.06,1.41-4.8,1.17-9.55,2.5c-3.73,1-7.46,2.12-11.19,3.13l-7.21,1.95A100.6,100.6,0,0,1,113,104a22.54,22.54,0,0,1-3.48.17l-.06,0a15.91,15.91,0,0,0-1.84-1.4,8.9,8.9,0,0,0-3.79-1,7.38,7.38,0,0,0-1.87.19,6.12,6.12,0,0,0-1.13.23,14.36,14.36,0,0,0-1.8.66c-1.35.53-2.7,1.07-4,1.62l-4.06,1.7a39.62,39.62,0,0,1-7,2.43,12.72,12.72,0,0,0,.34-2,5.17,5.17,0,0,0-1.5-4.09,4.7,4.7,0,0,0-4.53-1.2,7.89,7.89,0,0,0-3.19,2.18q-.39.34-.78.66-4.48,3.3-9.11,6.42c-1.54,1-3.11,2-4.62,3.12-1,.69-2,1.33-2.91,2.1-.41.36-.82.7-1.23,1a4.42,4.42,0,0,0-.62.74,2.41,2.41,0,0,0-.48,1.48A1.83,1.83,0,0,0,58,120.62c.32-.15.64-.31.95-.48.52-.2,1-.39,1.57-.57a1.76,1.76,0,0,0,1-.87l1-.55c1.33-.72,2.68-1.44,4-2.12,2.21-1.09,4.43-2.15,6.68-3.14a7.91,7.91,0,0,0,2.21,3.53,13.52,13.52,0,0,0,4.67,2.46,10.65,10.65,0,0,0,2.44.41,12.58,12.58,0,0,0,1.94-.05,25.85,25.85,0,0,0,4.86-1c2.64-.8,5.17-2,7.73-3l2.88-1.14c.89-.33,1.77-.7,2.68-1a9.65,9.65,0,0,0,1.55,1.06,15.3,15.3,0,0,0,2.17.91,11.75,11.75,0,0,0,2.59.4,17.21,17.21,0,0,0,3.86-.13c1.79-.18,3.57-.47,5.34-.77,3.57-.6,7.11-1.41,10.61-2.36,4-1.08,8-2.16,12-3.29,7.65-2.19,15.34-4.3,23-6.46.64-.18,1.28-.34,1.93-.48a5.21,5.21,0,0,0,3.52-1.47,5,5,0,0,0,0-7.11l-1-.78a5,5,0,0,0-2.54-.69,10.64,10.64,0,0,0-1.26-.07,20.92,20.92,0,0,0-3.46.35ZM82.26,108.35l.07.09h0l-.07-.09Zm20.83,4.45h0Z"/><path class="cls-1" d="M79.33,141.21l-.36.13-1.41.6c-.7.35-1.37.72-2,1.11-1.87,1.09-3.7,2.24-5.56,3.35s-3.9,2.35-5.86,3.51q-2,1.22-4.07,2.41c-1.23.74-2.46,1.5-3.73,2.19a4.59,4.59,0,0,0-1.33.43,8,8,0,0,0-2,1.37,3.44,3.44,0,0,0,3.34,5.75,59.11,59.11,0,0,0,8.86-4.61l4.89-2.82q2.55-1.49,5.11-3c1.36-.8,2.73-1.63,4.13-2.37a12.77,12.77,0,0,0,1.82,2.95A6.62,6.62,0,0,0,83.26,154a10.65,10.65,0,0,0,2.85.81c1.17.18,2.35.31,3.53.41a3.93,3.93,0,0,0,2-.54,4,4,0,0,0-1-7.26c-1.11-.28-2.25-.53-3.34-.89-.34-.33-.66-.67-1-1l-.48-.68c-.15-.21-.28-.43-.42-.64a8,8,0,0,0-1.14-1.52,5.38,5.38,0,0,0-2.12-1.35,6.54,6.54,0,0,0-1.53-.27c-.45.05-.91.11-1.36.2Z"/><path class="cls-1" d="M286.18,300.77a46.7,46.7,0,0,0-7.54.87,73.28,73.28,0,0,0-8.46,2.38,77.83,77.83,0,0,1-9.69,2.6,122.69,122.69,0,0,1-23.26.09,28.5,28.5,0,0,1-4.75-1.11,12.84,12.84,0,0,1-1.42-.87c-1.39-1.23-2.65-2.67-4.52-3.19a6.82,6.82,0,0,0-4.85.63,11.74,11.74,0,0,0-3,2.39c-1.17,1.23-2.27,2.54-3.38,3.83-1.31,1.51-2.62,3-3.92,4.53-1.55,1.79-3.09,3.6-4.74,5.29-.63-1.08-1.25-2.16-1.89-3.23a5.95,5.95,0,0,0-10.27,6c1.32,2.22,2.64,4.44,4,6.62a10.48,10.48,0,0,0,3.08,3.44,7.56,7.56,0,0,0,6.28.7,11.75,11.75,0,0,0,2.7-1.24,16.78,16.78,0,0,0,2.41-1.88,42.32,42.32,0,0,0,3.46-3.5c2.08-2.26,4.05-4.65,6-7l2.57-3.05c.38.28.76.55,1.16.81a14.75,14.75,0,0,0,1.5.71A25.33,25.33,0,0,0,231.8,318a54.42,54.42,0,0,0,10.34,1.34c3.26.19,6.5.31,9.77.25,5.58-.11,11.13-.38,16.55-1.84,2.55-.68,5.07-1.57,7.58-2.37a71.36,71.36,0,0,1,10.74-2.74L292,312c.87-.11,1.74-.22,2.62-.31a5.64,5.64,0,0,0,3.69-1.52,5.21,5.21,0,0,0,0-7.38,5.58,5.58,0,0,0-3.69-1.53c-1.71-.19-3.43-.35-5.15-.4-.84,0-1.67-.05-2.51-.05Zm0,12-.86.12.86-.12Z"/><path class="cls-2" d="M206.18,161.36a19.05,19.05,0,0,0-4,3.27c-2,1.84-4,3.73-5.93,5.62q-5.62,5.4-11.1,11c-8.39,8.57-16.67,17.23-24.63,26.19-5.44,6.11-10.78,12.28-16.08,18.52-2,2.4-4.1,4.79-6.1,7.23l-5,6.14a33,33,0,0,0-5.76,8.91,22.37,22.37,0,0,0-1.24,7.56c0,3.37.56,7.51,2.62,10.33a4.81,4.81,0,0,0,3.78,2.47,4.69,4.69,0,0,0,3.66-2.25c1.87-2,3.57-4.18,5.33-6.23l0,0a2.12,2.12,0,0,1,.11.21,4.77,4.77,0,0,0,3.75,2.45,6.91,6.91,0,0,0,3.13-1.4c.87-.76,1.67-1.65,2.45-2.46s1.45-1.57,2.16-2.37c1.48-1.71,3-3.41,4.3-5.24,1-1.33,1.92-2.65,2.89-3.94a12.08,12.08,0,0,0,1.59,3l.88.92a26.76,26.76,0,0,0,1.32,6c1.34,3.48,4.22,7.77,8.47,5.4a36.26,36.26,0,0,0,6.62-4.5l3.07-2.72c1.73-1.54,3.42-3.13,5.12-4.71,3.23-3,6.5-5.95,9.76-8.93,1.49-1.37,3-2.75,4.51-4.1.19.68.39,1.33.62,1.93a15.24,15.24,0,0,0,2.11,4,6.3,6.3,0,0,0,5,3.24c1.36.3,3.24-.58,4.36-1,2.31-.87,4.61-1.74,6.9-2.66,3.42-1.39,6.94-2.58,10.43-3.79q2.5-.85,5-1.74a13.87,13.87,0,0,0,4.87-2.4,12.41,12.41,0,0,0,4.19-6.12,31.77,31.77,0,0,0,0-20.15c-.62-1.23-1.24-2.46-1.85-3.69a6.38,6.38,0,0,0-5-3.29c-.85.26-1.7.53-2.54.81-3,.91-5.87,1.91-8.76,3-.05-.45-.12-.9-.2-1.35a26.07,26.07,0,0,0-2.81-8,29,29,0,0,0-.35-5.94,18.51,18.51,0,0,0-2.65-7.25c-1.2-1.64-3-3-4.87-2.82a31.72,31.72,0,0,0,0-9.53,20.82,20.82,0,0,0-2.6-7.35,4.91,4.91,0,0,0-2.49-2.47l-2.24-.73a11.11,11.11,0,0,0-2.75,1Z"/><path class="cls-2" d="M245.86,70.61a6.87,6.87,0,0,0-1.51,1.44,13.29,13.29,0,0,0-2.24,4,14,14,0,0,0-.78,4.8,12.62,12.62,0,0,0,1.26,6c-1.34,1.62-2.73,3.21-4.06,4.8-2,2.37-4,4.68-6,7s-3.91,4.66-5.87,7L224,108.77c-.52.63-1,1.29-1.57,1.9-.4.71-.77,1.44-1.12,2.19a14.08,14.08,0,0,0-.76,4.68,14.6,14.6,0,0,0,.52,4.06,12.72,12.72,0,0,0-2.66,6.92c-.33,3.63-.51,7.22.83,10.7a15.68,15.68,0,0,0,1.09,2.27l-.09.59a26.59,26.59,0,0,0,0,8.63,17,17,0,0,0,2.45,6.71l1.87,1.94a3.69,3.69,0,0,0,4.32,0,35.85,35.85,0,0,0,4.33-2.51c1.28-.89,2.52-1.85,3.76-2.8l3.36-2.56a16.79,16.79,0,0,0,2,4.09c.9,1.34,2.81,3.14,4.67,3a12,12,0,0,0,3.39-1c.9-.33,1.77-.76,2.64-1.18,1.21-.59,2.39-1.25,3.58-1.88s2.43-1.3,3.67-1.94a18.52,18.52,0,0,0,2,4.52,4.71,4.71,0,0,0,8.63,0,30.89,30.89,0,0,0,2.37-5A38.36,38.36,0,0,0,275.06,141a45.4,45.4,0,0,0-.5-6.78,20.67,20.67,0,0,0-1.6-6.49A21.78,21.78,0,0,0,271,124c-.79-.86-1.6-1.69-2.44-2.5l-2.91-.93a24.8,24.8,0,0,0-.68-4.21,36.85,36.85,0,0,0,1.19-4.57,21.56,21.56,0,0,0-.9-11.53,13,13,0,0,0-1.62-3,41.3,41.3,0,0,0,2.2-4.48,18.37,18.37,0,0,0,0-11.72c-.8-2.09-2.88-5.35-5.57-3.55a45.19,45.19,0,0,0-5.76,5,15.46,15.46,0,0,0-.08-4.19,15.81,15.81,0,0,0-.61-2.62,14.34,14.34,0,0,0-1.16-2.48c-.42-.49-.87-1-1.32-1.41a5.1,5.1,0,0,0-.77-.62,6.52,6.52,0,0,0-3-1.05c-.58.16-1.14.34-1.71.54ZM249.29,85l-.21.07h0l.21-.07Z"/><path class="cls-2" d="M298.59,154.32c-2.72,2.57-5.21,5.37-7.81,8.06l-.47.48c-.42-1.9-1.34-3.85-3.08-3.85s-2.84,2-3.72,3.37c-.77,1.16-1.47,2.36-2.2,3.54-1.35,2.17-2.77,4.29-4.15,6.43-1.18,1.82-2.41,3.6-3.63,5.4-.81,1.19-1.6,2.4-2.45,3.57-1,1.41-2.43,3-2.92,4.69a21.84,21.84,0,0,0-1.13,6.57,18.7,18.7,0,0,0,.39,3.76,22.09,22.09,0,0,0-.42,2.18,33,33,0,0,0,0,10.59,24.64,24.64,0,0,0,2.62,7.54c.07.58.16,1.16.26,1.73a23.08,23.08,0,0,0,3.32,9.1l2.54,2.64a5,5,0,0,0,5.86,0l.07-.07a25,25,0,0,0,1.67,3.15c2.13,2.9,5.3,5,8.8,2.75.58-.37,1.15-.75,1.71-1.13a25.54,25.54,0,0,0,3.35,8.27,18.54,18.54,0,0,0,3.5,3.8c1.24.48,2.5.89,3.78,1.25a9.19,9.19,0,0,0,2,0,23.91,23.91,0,0,0,2.75-.43,28.17,28.17,0,0,0,1.93,3.69,7.94,7.94,0,0,0,6.25,4.08c2.39.34,4.81-1.42,6.73-2.74l1.46,2.93a8.49,8.49,0,0,0,6.71,4.38,21.1,21.1,0,0,0,8.05-2.67c1-.57,1.95-1.19,2.92-1.79,1.38-.87,2.76-1.74,4.16-2.58l1.49-.87c2,2.58,4.62,4.71,8.1,4.47,4.75-.33,7.25-5,8.74-8.86a41.16,41.16,0,0,0,1.44-20.15c-.09-2.48-.46-5-.71-7.45a57.46,57.46,0,0,0-1.87-7.47c-1.54-3.77-2.9-6.72-6.15-9.26a2.07,2.07,0,0,0-1.09-.6l-3.77-1.22A14.2,14.2,0,0,0,349,202.9l-.16.08c-.38-.84-.8-1.67-1.27-2.49a26.61,26.61,0,0,0-3.69-9.72,7.92,7.92,0,0,0-6.25-4.08,8.7,8.7,0,0,0-5.33,2l-.23.21a35.56,35.56,0,0,0-1.6-6.53l-1.32-2.64a38.11,38.11,0,0,0-.49-5.09l-1.4-5.42a14.38,14.38,0,0,0-4.85-7.09,13.85,13.85,0,0,0-3.74-1.31,3.4,3.4,0,0,0-3.13.42l-.39-.78a7,7,0,0,0-5.5-3.59c-1.17.31-2.32.67-3.47,1.08a9.63,9.63,0,0,0-3.1-3.65,3.83,3.83,0,0,0-4.5,0Zm66.59,66.3c0,.13.07.26.1.38,0-.12-.07-.25-.1-.38Z"/></g></g></svg>